<svg width="375" height="667" viewBox="0 0 375 667" fill="none" xmlns="http://www.w3.org/2000/svg">
<rect width="375" height="667" rx="15" fill="#0E0718"/>
<line x1="25" y1="31" x2="48" y2="31" stroke="#1ADBCF" stroke-width="2" stroke-linecap="round"/>
<path d="M25 36H48M25 41H48" stroke="#1ADBCF" stroke-width="2" stroke-linecap="round"/>
<path d="M82.2227 39.6016H77.6035L75.9238 43H72.7988L80.2793 28.6641H83.9219L85.3574 43H82.457L82.2227 39.6016ZM82.0762 37.0625L81.8223 33.6445C81.7572 32.7917 81.7246 31.9681 81.7246 31.1738V30.8223C81.4382 31.6035 81.0833 32.4303 80.6602 33.3027L78.8242 37.0625H82.0762ZM93.9219 34.9824H99.4199L97.8379 42.4238C96.9655 42.7233 96.1549 42.9251 95.4062 43.0293C94.6641 43.14 93.8763 43.1953 93.043 43.1953C91.3568 43.1953 90.0547 42.7168 89.1367 41.7598C88.2188 40.8027 87.7598 39.429 87.7598 37.6387C87.7598 35.8939 88.1081 34.3184 88.8047 32.9121C89.5013 31.4993 90.4811 30.4121 91.7441 29.6504C93.0072 28.8822 94.4655 28.498 96.1191 28.498C97.5384 28.498 98.873 28.8203 100.123 29.4648L99 31.916C98.5182 31.6556 98.0365 31.4473 97.5547 31.291C97.0729 31.1348 96.5488 31.0566 95.9824 31.0566C94.9863 31.0566 94.0944 31.3268 93.3066 31.8672C92.5254 32.4076 91.9102 33.179 91.4609 34.1816C91.0182 35.1777 90.7969 36.252 90.7969 37.4043C90.7969 38.5241 91.0312 39.3477 91.5 39.875C91.9753 40.3958 92.7012 40.6562 93.6777 40.6562C94.1725 40.6562 94.7259 40.5781 95.3379 40.4219L95.9824 37.502H93.375L93.9219 34.9824ZM108.863 43H100.885L103.902 28.7227H111.891L111.363 31.2031H106.363L105.709 34.3379H110.367L109.83 36.8184H105.172L104.391 40.5H109.391L108.863 43ZM123.385 43H120.045L116.568 32.1992H116.51L116.471 32.5117C116.262 33.918 116.048 35.1745 115.826 36.2812L114.41 43H111.725L114.742 28.7227H118.229L121.549 39.2402H121.588C121.666 38.7454 121.793 38.0391 121.969 37.1211C122.145 36.2031 122.73 33.4036 123.727 28.7227H126.402L123.385 43ZM139.225 34.123C139.225 35.946 138.906 37.5312 138.268 38.8789C137.63 40.2201 136.705 41.2422 135.494 41.9453C134.29 42.6484 132.867 43 131.227 43H126.822L129.84 28.7227H133.707C135.465 28.7227 136.822 29.1882 137.779 30.1191C138.743 31.0501 139.225 32.3848 139.225 34.123ZM131.363 40.5C132.327 40.5 133.167 40.2526 133.883 39.7578C134.599 39.263 135.159 38.5371 135.562 37.5801C135.966 36.6165 136.168 35.5163 136.168 34.2793C136.168 33.2767 135.93 32.515 135.455 31.9941C134.986 31.4668 134.309 31.2031 133.424 31.2031H132.301L130.328 40.5H131.363ZM148.062 39.6016H143.443L141.764 43H138.639L146.119 28.6641H149.762L151.197 43H148.297L148.062 39.6016ZM147.916 37.0625L147.662 33.6445C147.597 32.7917 147.564 31.9681 147.564 31.1738V30.8223C147.278 31.6035 146.923 32.4303 146.5 33.3027L144.664 37.0625H147.916Z" fill="#1ADBCF"/>
<path d="M188 615C176.975 615 168 606.025 168 595C168 583.975 176.975 575 188 575C199.025 575 208 583.975 208 595C208 606.025 199.025 615 188 615ZM188 570C184.717 570 181.466 570.647 178.433 571.903C175.4 573.159 172.644 575.001 170.322 577.322C165.634 582.011 163 588.37 163 595C163 601.63 165.634 607.989 170.322 612.678C172.644 614.999 175.4 616.841 178.433 618.097C181.466 619.353 184.717 620 188 620C194.63 620 200.989 617.366 205.678 612.678C210.366 607.989 213 601.63 213 595C213 591.717 212.353 588.466 211.097 585.433C209.841 582.4 207.999 579.644 205.678 577.322C203.356 575.001 200.6 573.159 197.567 571.903C194.534 570.647 191.283 570 188 570ZM190.5 582.5H185.5V592.5H175.5V597.5H185.5V607.5H190.5V597.5H200.5V592.5H190.5V582.5Z" fill="#1ADBCF"/>
<rect x="22" y="69" width="331" height="113" rx="15" fill="#433357"/>
<rect x="26" y="73" width="323" height="106" rx="10" fill="#0E0718"/>
<path d="M64.2915 101L65.9911 92.9587H67.6741L66.2661 99.592H69.0822L68.7852 101H64.2915ZM74.6263 101H70.1327L71.8323 92.9587H76.3314L76.0344 94.3558H73.2183L72.8498 96.1213H75.4734L75.1709 97.5184H72.5473L72.1073 99.592H74.9234L74.6263 101ZM80.5555 98.9704L83.5861 92.9587H85.9127L84.2132 101H82.6731L83.4706 97.1939C83.665 96.2882 83.8575 95.4797 84.0482 94.7683H84.0207L80.8911 101H79.3455L79.01 94.7683H78.988C78.9477 95.091 78.878 95.5145 78.779 96.0388C78.68 96.5632 78.3371 98.2169 77.7505 101H76.2379L77.9375 92.9587H80.1595L80.5335 98.9704H80.5555ZM90.1919 92.9587C91.0316 92.9587 91.6659 93.1091 92.0949 93.4098C92.5239 93.7068 92.7384 94.1523 92.7384 94.7463C92.7384 95.2963 92.5863 95.751 92.2819 96.1103C91.9776 96.466 91.5449 96.7025 90.9839 96.8199V96.8529C91.3506 96.9482 91.6421 97.126 91.8584 97.3864C92.0784 97.6431 92.1884 97.9731 92.1884 98.3764C92.1884 99.2161 91.9079 99.8633 91.3469 100.318C90.7859 100.773 90.0104 101 89.0203 101H86.1492L87.8488 92.9587H90.1919ZM88.8553 96.1433H89.6748C90.1185 96.1433 90.4504 96.0553 90.6704 95.8793C90.894 95.6997 91.0059 95.443 91.0059 95.1093C91.0059 94.607 90.6942 94.3558 90.0709 94.3558H89.2348L88.8553 96.1433ZM88.1238 99.592H89.1138C89.5428 99.592 89.8783 99.4856 90.1204 99.2729C90.366 99.0603 90.4889 98.7651 90.4889 98.3874C90.4889 97.7934 90.1534 97.4964 89.4823 97.4964H88.5748L88.1238 99.592ZM95.758 96.5284H96.1871C96.6674 96.5284 97.0414 96.4239 97.3091 96.2148C97.5768 96.0058 97.7106 95.6868 97.7106 95.2578C97.7106 94.9571 97.6226 94.7316 97.4466 94.5813C97.2743 94.431 97.0011 94.3558 96.6271 94.3558H96.2201L95.758 96.5284ZM95.4665 97.9144L94.812 101H93.1345L94.834 92.9587H96.8086C97.6776 92.9587 98.3303 93.1457 98.7666 93.5198C99.203 93.8938 99.4212 94.442 99.4212 95.1643C99.4212 95.7437 99.269 96.2423 98.9646 96.6604C98.6603 97.0747 98.2221 97.3827 97.6501 97.5844L99.0856 101H97.2596L96.1211 97.9144H95.4665ZM104.492 101H99.9987L101.698 92.9587H106.197L105.9 94.3558H103.084L102.716 96.1213H105.339L105.037 97.5184H102.413L101.973 99.592H104.789L104.492 101ZM108.953 101H107.275L108.672 94.3778H106.736L107.039 92.9587H112.594L112.292 94.3778H110.35L108.953 101ZM116.582 101H112.088L113.788 92.9587H118.287L117.99 94.3558H115.174L114.805 96.1213H117.429L117.126 97.5184H114.503L114.063 99.592H116.879L116.582 101Z" fill="#848484"/>
<path d="M41.6312 126.086H39.0296L38.0835 128H36.3235L40.5366 119.926H42.5882L43.3967 128H41.7632L41.6312 126.086ZM41.5486 124.656L41.4056 122.731C41.369 122.25 41.3506 121.787 41.3506 121.339V121.141C41.1893 121.581 40.9895 122.047 40.7511 122.538L39.7171 124.656H41.5486ZM48.6329 125.97C48.6329 126.66 48.4037 127.19 47.9454 127.56C47.4907 127.927 46.8563 128.11 46.0423 128.11C45.65 128.11 45.3071 128.083 45.0138 128.028C44.7241 127.972 44.4527 127.881 44.1997 127.752V126.388C44.7754 126.718 45.3603 126.883 45.9543 126.883C46.2476 126.883 46.4878 126.825 46.6748 126.707C46.8618 126.586 46.9553 126.423 46.9553 126.218C46.9553 126.06 46.8875 125.919 46.7518 125.794C46.6161 125.67 46.376 125.512 46.0313 125.321C45.5876 125.072 45.2778 124.825 45.1018 124.579C44.9258 124.33 44.8378 124.036 44.8378 123.699C44.8378 123.076 45.0394 122.593 45.4428 122.252C45.8498 121.908 46.4291 121.735 47.1808 121.735C47.9179 121.735 48.5834 121.909 49.1774 122.258L48.6329 123.44C48.1195 123.132 47.6465 122.978 47.2138 122.978C47.0048 122.978 46.8362 123.026 46.7078 123.121C46.5795 123.213 46.5153 123.338 46.5153 123.495C46.5153 123.638 46.574 123.765 46.6913 123.875C46.8087 123.981 47.0287 124.117 47.3513 124.282C47.8024 124.513 48.1287 124.764 48.3304 125.035C48.532 125.307 48.6329 125.618 48.6329 125.97ZM53.9681 125.97C53.9681 126.66 53.7389 127.19 53.2805 127.56C52.8259 127.927 52.1915 128.11 51.3775 128.11C50.9851 128.11 50.6423 128.083 50.3489 128.028C50.0593 127.972 49.7879 127.881 49.5349 127.752V126.388C50.1106 126.718 50.6954 126.883 51.2895 126.883C51.5828 126.883 51.823 126.825 52.01 126.707C52.197 126.586 52.2905 126.423 52.2905 126.218C52.2905 126.06 52.2227 125.919 52.087 125.794C51.9513 125.67 51.7111 125.512 51.3665 125.321C50.9228 125.072 50.6129 124.825 50.4369 124.579C50.2609 124.33 50.1729 124.036 50.1729 123.699C50.1729 123.076 50.3746 122.593 50.778 122.252C51.185 121.908 51.7643 121.735 52.516 121.735C53.253 121.735 53.9186 121.909 54.5126 122.258L53.9681 123.44C53.4547 123.132 52.9817 122.978 52.549 122.978C52.34 122.978 52.1713 123.026 52.043 123.121C51.9147 123.213 51.8505 123.338 51.8505 123.495C51.8505 123.638 51.9092 123.765 52.0265 123.875C52.1438 123.981 52.3638 124.117 52.6865 124.282C53.1375 124.513 53.4639 124.764 53.6655 125.035C53.8672 125.307 53.9681 125.618 53.9681 125.97ZM56.5146 120.41C56.5146 120.091 56.6008 119.851 56.7731 119.689C56.9492 119.524 57.1967 119.442 57.5157 119.442C57.7833 119.442 57.9869 119.499 58.1262 119.612C58.2655 119.726 58.3352 119.889 58.3352 120.102C58.3352 120.395 58.2545 120.633 58.0932 120.817C57.9319 120.996 57.6825 121.086 57.3452 121.086C56.7915 121.086 56.5146 120.861 56.5146 120.41ZM56.6026 128H54.9471L56.2506 121.851H57.9062L56.6026 128ZM60.9148 126.773C61.1531 126.773 61.4501 126.709 61.8058 126.581V127.818C61.3988 128.013 60.9111 128.11 60.3428 128.11C59.7927 128.11 59.3876 127.994 59.1272 127.763C58.8705 127.532 58.7422 127.175 58.7422 126.691C58.7422 126.508 58.7642 126.302 58.8082 126.075L59.4407 123.11H58.6047L58.7642 122.302L59.8422 121.84L60.5683 120.542H61.6353L61.3658 121.851H62.9223L62.6473 123.11H61.0963L60.4638 126.075C60.4418 126.185 60.4308 126.282 60.4308 126.366C60.4308 126.638 60.5921 126.773 60.9148 126.773ZM64.4789 120.41C64.4789 120.091 64.5651 119.851 64.7374 119.689C64.9134 119.524 65.1609 119.442 65.4799 119.442C65.7476 119.442 65.9511 119.499 66.0905 119.612C66.2298 119.726 66.2995 119.889 66.2995 120.102C66.2995 120.395 66.2188 120.633 66.0575 120.817C65.8961 120.996 65.6468 121.086 65.3094 121.086C64.7557 121.086 64.4789 120.861 64.4789 120.41ZM64.5669 128H62.9113L64.2149 121.851H65.8704L64.5669 128ZM70.6831 121.735C70.8994 121.735 71.0755 121.755 71.2111 121.796L70.8481 123.391C70.6831 123.332 70.4998 123.303 70.2981 123.303C69.8727 123.303 69.4987 123.472 69.1761 123.809C68.857 124.143 68.6297 124.623 68.494 125.25L67.911 128H66.2555L67.559 121.851H68.824L68.7085 122.989H68.7415C69.2806 122.153 69.9277 121.735 70.6831 121.735ZM75.9523 128.11C75.4133 128.11 74.9879 127.916 74.6762 127.527C74.3682 127.135 74.2142 126.586 74.2142 125.882C74.2142 125.156 74.3462 124.465 74.6102 123.809C74.8742 123.149 75.2208 122.639 75.6498 122.28C76.0788 121.917 76.55 121.735 77.0633 121.735C77.419 121.735 77.7252 121.812 77.9818 121.966C78.2422 122.12 78.4439 122.344 78.5869 122.637H78.6309L78.9444 121.851H80.2204L78.9114 128H77.6518L77.7288 127.202H77.7068C77.2155 127.807 76.6306 128.11 75.9523 128.11ZM76.6013 126.773C76.8543 126.773 77.0981 126.651 77.3328 126.405C77.5675 126.159 77.7563 125.827 77.8993 125.409C78.0423 124.988 78.1138 124.511 78.1138 123.979C78.1138 123.719 78.0423 123.505 77.8993 123.336C77.76 123.164 77.5748 123.077 77.3438 123.077C77.0945 123.077 76.8561 123.209 76.6288 123.473C76.4051 123.737 76.2255 124.086 76.0898 124.518C75.9578 124.951 75.8918 125.38 75.8918 125.805C75.8918 126.128 75.9523 126.37 76.0733 126.531C76.198 126.693 76.374 126.773 76.6013 126.773ZM85.5776 128.11C85.0386 128.11 84.6132 127.916 84.3015 127.527C83.9935 127.135 83.8395 126.586 83.8395 125.882C83.8395 125.156 83.9715 124.465 84.2355 123.809C84.4996 123.149 84.8461 122.639 85.2751 122.28C85.7041 121.917 86.1753 121.735 86.6886 121.735C87.0443 121.735 87.3505 121.812 87.6072 121.966C87.8675 122.12 88.0692 122.344 88.2122 122.637H88.2562L88.5697 121.851H89.8457L88.5367 128H87.2771L87.3541 127.202H87.3321C86.8408 127.807 86.2559 128.11 85.5776 128.11ZM86.2266 126.773C86.4796 126.773 86.7235 126.651 86.9581 126.405C87.1928 126.159 87.3816 125.827 87.5247 125.409C87.6677 124.988 87.7392 124.511 87.7392 123.979C87.7392 123.719 87.6677 123.505 87.5247 123.336C87.3853 123.164 87.2001 123.077 86.9691 123.077C86.7198 123.077 86.4815 123.209 86.2541 123.473C86.0304 123.737 85.8508 124.086 85.7151 124.518C85.5831 124.951 85.5171 125.38 85.5171 125.805C85.5171 126.128 85.5776 126.37 85.6986 126.531C85.8233 126.693 85.9993 126.773 86.2266 126.773ZM91.4848 121.851H93.1403L92.3868 125.442C92.3281 125.692 92.2988 125.91 92.2988 126.097C92.2988 126.548 92.4968 126.773 92.8928 126.773C93.2302 126.773 93.5363 126.564 93.8114 126.146C94.0864 125.728 94.3027 125.145 94.4604 124.397L94.9994 121.851H96.655L95.3514 128H94.0864L94.2019 126.861H94.1689C93.6372 127.694 92.9863 128.11 92.2163 128.11C91.7103 128.11 91.3234 127.96 91.0558 127.659C90.7881 127.355 90.6543 126.916 90.6543 126.344C90.6543 126.003 90.6983 125.613 90.7863 125.173L91.4848 121.851ZM98.712 128H97.0565L98.8715 119.442H100.527L98.712 128ZM102.43 128.11C101.891 128.11 101.466 127.916 101.154 127.527C100.846 127.135 100.692 126.586 100.692 125.882C100.692 125.156 100.824 124.465 101.088 123.809C101.352 123.149 101.699 122.639 102.128 122.28C102.557 121.917 103.028 121.735 103.541 121.735C103.897 121.735 104.203 121.812 104.46 121.966C104.72 122.12 104.922 122.344 105.065 122.637H105.109L105.422 121.851H106.698L105.389 128H104.13L104.207 127.202H104.185C103.693 127.807 103.108 128.11 102.43 128.11ZM103.079 126.773C103.332 126.773 103.576 126.651 103.811 126.405C104.045 126.159 104.234 125.827 104.377 125.409C104.52 124.988 104.592 124.511 104.592 123.979C104.592 123.719 104.52 123.505 104.377 123.336C104.238 123.164 104.053 123.077 103.822 123.077C103.572 123.077 103.334 123.209 103.107 123.473C102.883 123.737 102.703 124.086 102.568 124.518C102.436 124.951 102.37 125.38 102.37 125.805C102.37 126.128 102.43 126.37 102.551 126.531C102.676 126.693 102.852 126.773 103.079 126.773ZM116.346 121.862L116.153 122.775L115.196 123C115.255 123.191 115.284 123.407 115.284 123.649C115.284 124.364 115.062 124.931 114.619 125.349C114.175 125.763 113.572 125.97 112.809 125.97C112.593 125.97 112.411 125.952 112.264 125.915C111.956 126.014 111.802 126.157 111.802 126.344C111.802 126.469 111.857 126.559 111.967 126.614C112.077 126.669 112.241 126.711 112.457 126.74L113.21 126.839C113.808 126.916 114.243 127.072 114.514 127.307C114.789 127.538 114.927 127.873 114.927 128.314C114.927 129.087 114.641 129.679 114.069 130.09C113.497 130.501 112.679 130.706 111.615 130.706C110.853 130.706 110.257 130.567 109.828 130.288C109.403 130.013 109.19 129.634 109.19 129.15C109.19 128.776 109.316 128.453 109.569 128.182C109.819 127.914 110.211 127.692 110.746 127.516C110.475 127.344 110.339 127.1 110.339 126.784C110.339 126.524 110.42 126.3 110.581 126.113C110.746 125.923 111.016 125.741 111.39 125.569C111.152 125.389 110.976 125.184 110.862 124.953C110.748 124.722 110.691 124.441 110.691 124.111C110.691 123.382 110.921 122.804 111.379 122.379C111.841 121.95 112.468 121.735 113.26 121.735C113.564 121.735 113.869 121.777 114.173 121.862H116.346ZM111.83 128.033C111.441 128.084 111.146 128.189 110.944 128.347C110.746 128.504 110.647 128.704 110.647 128.946C110.647 129.368 111.003 129.579 111.714 129.579C112.268 129.579 112.686 129.496 112.968 129.331C113.251 129.166 113.392 128.933 113.392 128.633C113.392 128.49 113.332 128.38 113.21 128.303C113.093 128.226 112.842 128.161 112.457 128.11L111.83 128.033ZM113.199 122.786C112.917 122.786 112.688 122.927 112.512 123.209C112.34 123.488 112.253 123.838 112.253 124.26C112.253 124.696 112.442 124.914 112.82 124.914C113.095 124.914 113.317 124.775 113.486 124.496C113.658 124.214 113.744 123.858 113.744 123.429C113.744 123 113.563 122.786 113.199 122.786ZM120.548 121.735C120.764 121.735 120.94 121.755 121.076 121.796L120.713 123.391C120.548 123.332 120.364 123.303 120.163 123.303C119.737 123.303 119.363 123.472 119.041 123.809C118.722 124.143 118.494 124.623 118.359 125.25L117.776 128H116.12L117.424 121.851H118.689L118.573 122.989H118.606C119.145 122.153 119.792 121.735 120.548 121.735ZM122.891 128.11C122.352 128.11 121.926 127.916 121.615 127.527C121.307 127.135 121.153 126.586 121.153 125.882C121.153 125.156 121.285 124.465 121.549 123.809C121.813 123.149 122.159 122.639 122.588 122.28C123.017 121.917 123.488 121.735 124.002 121.735C124.358 121.735 124.664 121.812 124.92 121.966C125.181 122.12 125.382 122.344 125.525 122.637H125.569L125.883 121.851H127.159L125.85 128H124.59L124.667 127.202H124.645C124.154 127.807 123.569 128.11 122.891 128.11ZM123.54 126.773C123.793 126.773 124.037 126.651 124.271 126.405C124.506 126.159 124.695 125.827 124.838 125.409C124.981 124.988 125.052 124.511 125.052 123.979C125.052 123.719 124.981 123.505 124.838 123.336C124.699 123.164 124.513 123.077 124.282 123.077C124.033 123.077 123.795 123.209 123.567 123.473C123.344 123.737 123.164 124.086 123.028 124.518C122.896 124.951 122.83 125.38 122.83 125.805C122.83 126.128 122.891 126.37 123.012 126.531C123.136 126.693 123.312 126.773 123.54 126.773ZM129.86 126.344C130.061 125.783 130.23 125.375 130.366 125.118L131.999 121.851H133.776L130.454 128H128.677L127.918 121.851H129.541L129.788 125.074C129.814 125.562 129.827 125.985 129.827 126.344H129.86ZM135.365 128.11C134.826 128.11 134.401 127.916 134.089 127.527C133.781 127.135 133.627 126.586 133.627 125.882C133.627 125.156 133.759 124.465 134.023 123.809C134.287 123.149 134.634 122.639 135.063 122.28C135.492 121.917 135.963 121.735 136.476 121.735C136.832 121.735 137.138 121.812 137.395 121.966C137.655 122.12 137.857 122.344 138 122.637H138.044L138.357 121.851H139.633L138.324 128H137.065L137.142 127.202H137.12C136.628 127.807 136.044 128.11 135.365 128.11ZM136.014 126.773C136.267 126.773 136.511 126.651 136.746 126.405C136.98 126.159 137.169 125.827 137.312 125.409C137.455 124.988 137.527 124.511 137.527 123.979C137.527 123.719 137.455 123.505 137.312 123.336C137.173 123.164 136.988 123.077 136.757 123.077C136.507 123.077 136.269 123.209 136.042 123.473C135.818 123.737 135.638 124.086 135.503 124.518C135.371 124.951 135.305 125.38 135.305 125.805C135.305 126.128 135.365 126.37 135.486 126.531C135.611 126.693 135.787 126.773 136.014 126.773ZM142.064 128.11C141.525 128.11 141.1 127.914 140.788 127.521C140.48 127.129 140.326 126.579 140.326 125.871C140.326 125.153 140.457 124.467 140.717 123.814C140.981 123.158 141.327 122.648 141.756 122.285C142.185 121.919 142.658 121.735 143.175 121.735C143.476 121.735 143.735 121.803 143.951 121.939C144.171 122.074 144.378 122.307 144.573 122.637H144.617L144.628 122.483C144.65 122.08 144.695 121.722 144.765 121.411L145.183 119.442H146.839L145.024 128H143.764L143.841 127.202H143.819C143.559 127.521 143.285 127.752 142.999 127.895C142.717 128.039 142.405 128.11 142.064 128.11ZM142.757 126.773C142.999 126.773 143.234 126.649 143.461 126.399C143.692 126.146 143.878 125.811 144.017 125.393C144.156 124.975 144.226 124.526 144.226 124.045C144.226 123.752 144.156 123.517 144.017 123.341C143.881 123.165 143.694 123.077 143.456 123.077C143.207 123.077 142.968 123.209 142.741 123.473C142.517 123.737 142.338 124.086 142.202 124.518C142.07 124.951 142.004 125.38 142.004 125.805C142.004 126.451 142.255 126.773 142.757 126.773ZM148.764 128.11C148.225 128.11 147.799 127.916 147.488 127.527C147.18 127.135 147.026 126.586 147.026 125.882C147.026 125.156 147.158 124.465 147.422 123.809C147.686 123.149 148.032 122.639 148.461 122.28C148.89 121.917 149.361 121.735 149.875 121.735C150.23 121.735 150.537 121.812 150.793 121.966C151.054 122.12 151.255 122.344 151.398 122.637H151.442L151.756 121.851H153.032L151.723 128H150.463L150.54 127.202H150.518C150.027 127.807 149.442 128.11 148.764 128.11ZM149.413 126.773C149.666 126.773 149.91 126.651 150.144 126.405C150.379 126.159 150.568 125.827 150.711 125.409C150.854 124.988 150.925 124.511 150.925 123.979C150.925 123.719 150.854 123.505 150.711 123.336C150.571 123.164 150.386 123.077 150.155 123.077C149.906 123.077 149.668 123.209 149.44 123.473C149.217 123.737 149.037 124.086 148.901 124.518C148.769 124.951 148.703 125.38 148.703 125.805C148.703 126.128 148.764 126.37 148.885 126.531C149.009 126.693 149.185 126.773 149.413 126.773ZM158.389 128.11C157.85 128.11 157.425 127.914 157.113 127.521C156.805 127.129 156.651 126.579 156.651 125.871C156.651 125.153 156.781 124.467 157.041 123.814C157.305 123.158 157.652 122.648 158.081 122.285C158.51 121.919 158.983 121.735 159.5 121.735C159.801 121.735 160.059 121.803 160.276 121.939C160.496 122.074 160.703 122.307 160.897 122.637H160.941L160.952 122.483C160.974 122.08 161.02 121.722 161.09 121.411L161.508 119.442H163.163L161.348 128H160.089L160.166 127.202H160.144C159.883 127.521 159.61 127.752 159.324 127.895C159.042 128.039 158.73 128.11 158.389 128.11ZM159.082 126.773C159.324 126.773 159.559 126.649 159.786 126.399C160.017 126.146 160.202 125.811 160.342 125.393C160.481 124.975 160.551 124.526 160.551 124.045C160.551 123.752 160.481 123.517 160.342 123.341C160.206 123.165 160.019 123.077 159.781 123.077C159.531 123.077 159.293 123.209 159.065 123.473C158.842 123.737 158.662 124.086 158.526 124.518C158.394 124.951 158.328 125.38 158.328 125.805C158.328 126.451 158.58 126.773 159.082 126.773ZM165.088 128.11C164.549 128.11 164.124 127.916 163.812 127.527C163.504 127.135 163.35 126.586 163.35 125.882C163.35 125.156 163.482 124.465 163.746 123.809C164.01 123.149 164.357 122.639 164.786 122.28C165.215 121.917 165.686 121.735 166.199 121.735C166.555 121.735 166.861 121.812 167.118 121.966C167.378 122.12 167.58 122.344 167.723 122.637H167.767L168.08 121.851H169.356L168.047 128H166.788L166.865 127.202H166.843C166.351 127.807 165.767 128.11 165.088 128.11ZM165.737 126.773C165.99 126.773 166.234 126.651 166.469 126.405C166.703 126.159 166.892 125.827 167.035 125.409C167.178 124.988 167.25 124.511 167.25 123.979C167.25 123.719 167.178 123.505 167.035 123.336C166.896 123.164 166.711 123.077 166.48 123.077C166.23 123.077 165.992 123.209 165.765 123.473C165.541 123.737 165.361 124.086 165.226 124.518C165.094 124.951 165.028 125.38 165.028 125.805C165.028 126.128 165.088 126.37 165.209 126.531C165.334 126.693 165.51 126.773 165.737 126.773ZM174.714 128.11C174.174 128.11 173.749 127.914 173.437 127.521C173.129 127.129 172.975 126.579 172.975 125.871C172.975 125.153 173.106 124.467 173.366 123.814C173.63 123.158 173.976 122.648 174.406 122.285C174.835 121.919 175.308 121.735 175.825 121.735C176.125 121.735 176.384 121.803 176.6 121.939C176.82 122.074 177.027 122.307 177.222 122.637H177.266L177.277 122.483C177.299 122.08 177.344 121.722 177.414 121.411L177.832 119.442H179.488L177.673 128H176.413L176.49 127.202H176.468C176.208 127.521 175.935 127.752 175.649 127.895C175.366 128.039 175.055 128.11 174.714 128.11ZM175.407 126.773C175.649 126.773 175.883 126.649 176.111 126.399C176.342 126.146 176.527 125.811 176.666 125.393C176.805 124.975 176.875 124.526 176.875 124.045C176.875 123.752 176.805 123.517 176.666 123.341C176.53 123.165 176.343 123.077 176.105 123.077C175.856 123.077 175.617 123.209 175.39 123.473C175.166 123.737 174.987 124.086 174.851 124.518C174.719 124.951 174.653 125.38 174.653 125.805C174.653 126.451 174.904 126.773 175.407 126.773ZM180.951 120.41C180.951 120.091 181.037 119.851 181.209 119.689C181.385 119.524 181.633 119.442 181.952 119.442C182.219 119.442 182.423 119.499 182.562 119.612C182.702 119.726 182.771 119.889 182.771 120.102C182.771 120.395 182.691 120.633 182.529 120.817C182.368 120.996 182.119 121.086 181.781 121.086C181.228 121.086 180.951 120.861 180.951 120.41ZM181.039 128H179.383L180.687 121.851H182.342L181.039 128ZM187.083 125.97C187.083 126.66 186.854 127.19 186.396 127.56C185.941 127.927 185.307 128.11 184.493 128.11C184.1 128.11 183.758 128.083 183.464 128.028C183.175 127.972 182.903 127.881 182.65 127.752V126.388C183.226 126.718 183.811 126.883 184.405 126.883C184.698 126.883 184.938 126.825 185.125 126.707C185.312 126.586 185.406 126.423 185.406 126.218C185.406 126.06 185.338 125.919 185.202 125.794C185.067 125.67 184.827 125.512 184.482 125.321C184.038 125.072 183.728 124.825 183.552 124.579C183.376 124.33 183.288 124.036 183.288 123.699C183.288 123.076 183.49 122.593 183.893 122.252C184.3 121.908 184.88 121.735 185.631 121.735C186.368 121.735 187.034 121.909 187.628 122.258L187.083 123.44C186.57 123.132 186.097 122.978 185.664 122.978C185.455 122.978 185.287 123.026 185.158 123.121C185.03 123.213 184.966 123.338 184.966 123.495C184.966 123.638 185.025 123.765 185.142 123.875C185.259 123.981 185.479 124.117 185.802 124.282C186.253 124.513 186.579 124.764 186.781 125.035C186.983 125.307 187.083 125.618 187.083 125.97ZM190.642 128.11C189.905 128.11 189.338 127.914 188.942 127.521C188.55 127.125 188.354 126.568 188.354 125.849C188.354 125.072 188.49 124.366 188.761 123.732C189.036 123.094 189.421 122.602 189.916 122.258C190.411 121.909 190.976 121.735 191.61 121.735C192.277 121.735 192.879 121.867 193.414 122.131L192.908 123.391C192.71 123.307 192.516 123.233 192.325 123.171C192.134 123.109 191.918 123.077 191.676 123.077C191.364 123.077 191.082 123.195 190.829 123.429C190.58 123.664 190.384 123.987 190.241 124.397C190.101 124.804 190.032 125.243 190.032 125.712C190.032 126.064 190.114 126.33 190.279 126.509C190.448 126.685 190.681 126.773 190.978 126.773C191.256 126.773 191.515 126.731 191.753 126.647C191.991 126.559 192.237 126.451 192.49 126.322V127.675C191.933 127.965 191.317 128.11 190.642 128.11ZM195.075 120.41C195.075 120.091 195.161 119.851 195.334 119.689C195.51 119.524 195.757 119.442 196.076 119.442C196.344 119.442 196.547 119.499 196.687 119.612C196.826 119.726 196.896 119.889 196.896 120.102C196.896 120.395 196.815 120.633 196.654 120.817C196.492 120.996 196.243 121.086 195.906 121.086C195.352 121.086 195.075 120.861 195.075 120.41ZM195.163 128H193.508L194.811 121.851H196.467L195.163 128ZM201.12 121.735C201.655 121.735 202.077 121.933 202.385 122.329C202.697 122.722 202.852 123.272 202.852 123.979C202.852 124.68 202.726 125.354 202.473 126.003C202.224 126.649 201.881 127.162 201.444 127.543C201.008 127.921 200.528 128.11 200.003 128.11C199.699 128.11 199.437 128.042 199.217 127.906C198.997 127.771 198.793 127.54 198.606 127.213H198.562C198.518 127.796 198.439 128.337 198.326 128.836L197.93 130.706H196.274L198.155 121.851H199.42L199.327 122.786H199.376C199.882 122.085 200.464 121.735 201.12 121.735ZM200.454 123.077C200.205 123.077 199.963 123.202 199.728 123.451C199.497 123.697 199.31 124.027 199.167 124.441C199.028 124.852 198.958 125.307 198.958 125.805C198.958 126.099 199.026 126.333 199.162 126.509C199.297 126.685 199.484 126.773 199.723 126.773C199.968 126.773 200.203 126.647 200.427 126.394C200.651 126.141 200.83 125.794 200.966 125.354C201.105 124.911 201.175 124.474 201.175 124.045C201.175 123.4 200.935 123.077 200.454 123.077ZM205.13 120.41C205.13 120.091 205.216 119.851 205.388 119.689C205.564 119.524 205.812 119.442 206.131 119.442C206.398 119.442 206.602 119.499 206.741 119.612C206.88 119.726 206.95 119.889 206.95 120.102C206.95 120.395 206.869 120.633 206.708 120.817C206.547 120.996 206.297 121.086 205.96 121.086C205.406 121.086 205.13 120.861 205.13 120.41ZM205.218 128H203.562L204.865 121.851H206.521L205.218 128ZM212.076 128H210.421L211.174 124.408C211.233 124.159 211.262 123.941 211.262 123.754C211.262 123.303 211.064 123.077 210.668 123.077C210.331 123.077 210.025 123.286 209.75 123.704C209.475 124.122 209.258 124.705 209.101 125.453L208.562 128H206.906L208.21 121.851H209.475L209.359 122.989H209.392C209.927 122.153 210.578 121.735 211.345 121.735C211.851 121.735 212.241 121.889 212.516 122.197C212.795 122.502 212.934 122.938 212.934 123.506C212.934 123.774 212.892 124.104 212.808 124.496L212.076 128ZM215.745 128.11C215.206 128.11 214.78 127.916 214.469 127.527C214.161 127.135 214.007 126.586 214.007 125.882C214.007 125.156 214.139 124.465 214.403 123.809C214.667 123.149 215.013 122.639 215.442 122.28C215.871 121.917 216.343 121.735 216.856 121.735C217.212 121.735 217.518 121.812 217.774 121.966C218.035 122.12 218.236 122.344 218.379 122.637H218.423L218.737 121.851H220.013L218.704 128H217.444L217.521 127.202H217.499C217.008 127.807 216.423 128.11 215.745 128.11ZM216.394 126.773C216.647 126.773 216.891 126.651 217.125 126.405C217.36 126.159 217.549 125.827 217.692 125.409C217.835 124.988 217.906 124.511 217.906 123.979C217.906 123.719 217.835 123.505 217.692 123.336C217.553 123.164 217.367 123.077 217.136 123.077C216.887 123.077 216.649 123.209 216.421 123.473C216.198 123.737 216.018 124.086 215.882 124.518C215.75 124.951 215.684 125.38 215.684 125.805C215.684 126.128 215.745 126.37 215.866 126.531C215.991 126.693 216.167 126.773 216.394 126.773ZM222.362 125.332H221.036L221.9 119.959H223.77L222.362 125.332ZM220.349 127.367C220.349 127.037 220.446 126.773 220.64 126.575C220.838 126.377 221.115 126.278 221.471 126.278C221.72 126.278 221.92 126.348 222.07 126.487C222.22 126.627 222.296 126.823 222.296 127.076C222.296 127.395 222.195 127.653 221.993 127.851C221.791 128.05 221.527 128.149 221.201 128.149C220.933 128.149 220.724 128.081 220.574 127.945C220.424 127.806 220.349 127.613 220.349 127.367Z" fill="white"/>
<path d="M50 100.952V101.714H37V100.952L38.4444 99.4286V94.8571C38.4444 92.4952 39.9106 90.4152 42.0556 89.7448C42.0556 89.6686 42.0556 89.6 42.0556 89.5238C42.0556 89.1197 42.2077 88.7321 42.4786 88.4463C42.7495 88.1605 43.1169 88 43.5 88C43.8831 88 44.2505 88.1605 44.5214 88.4463C44.7923 88.7321 44.9444 89.1197 44.9444 89.5238C44.9444 89.6 44.9444 89.6686 44.9444 89.7448C47.0894 90.4152 48.5556 92.4952 48.5556 94.8571V99.4286L50 100.952ZM44.9444 102.476C44.9444 102.88 44.7923 103.268 44.5214 103.554C44.2505 103.839 43.8831 104 43.5 104C43.1169 104 42.7495 103.839 42.4786 103.554C42.2077 103.268 42.0556 102.88 42.0556 102.476" fill="#848484"/>
<rect x="26" y="73" width="323" height="106" rx="10" fill="#0E0718"/>
<path d="M64.2915 101L65.9911 92.9587H67.6741L66.2661 99.592H69.0822L68.7852 101H64.2915ZM74.6263 101H70.1327L71.8323 92.9587H76.3314L76.0344 94.3558H73.2183L72.8498 96.1213H75.4734L75.1709 97.5184H72.5473L72.1073 99.592H74.9234L74.6263 101ZM80.5555 98.9704L83.5861 92.9587H85.9127L84.2132 101H82.6731L83.4706 97.1939C83.665 96.2882 83.8575 95.4797 84.0482 94.7683H84.0207L80.8911 101H79.3455L79.01 94.7683H78.988C78.9477 95.091 78.878 95.5145 78.779 96.0388C78.68 96.5632 78.3371 98.2169 77.7505 101H76.2379L77.9375 92.9587H80.1595L80.5335 98.9704H80.5555ZM90.1919 92.9587C91.0316 92.9587 91.6659 93.1091 92.0949 93.4098C92.5239 93.7068 92.7384 94.1523 92.7384 94.7463C92.7384 95.2963 92.5863 95.751 92.2819 96.1103C91.9776 96.466 91.5449 96.7025 90.9839 96.8199V96.8529C91.3506 96.9482 91.6421 97.126 91.8584 97.3864C92.0784 97.6431 92.1884 97.9731 92.1884 98.3764C92.1884 99.2161 91.9079 99.8633 91.3469 100.318C90.7859 100.773 90.0104 101 89.0203 101H86.1492L87.8488 92.9587H90.1919ZM88.8553 96.1433H89.6748C90.1185 96.1433 90.4504 96.0553 90.6704 95.8793C90.894 95.6997 91.0059 95.443 91.0059 95.1093C91.0059 94.607 90.6942 94.3558 90.0709 94.3558H89.2348L88.8553 96.1433ZM88.1238 99.592H89.1138C89.5428 99.592 89.8783 99.4856 90.1204 99.2729C90.366 99.0603 90.4889 98.7651 90.4889 98.3874C90.4889 97.7934 90.1534 97.4964 89.4823 97.4964H88.5748L88.1238 99.592ZM95.758 96.5284H96.1871C96.6674 96.5284 97.0414 96.4239 97.3091 96.2148C97.5768 96.0058 97.7106 95.6868 97.7106 95.2578C97.7106 94.9571 97.6226 94.7316 97.4466 94.5813C97.2743 94.431 97.0011 94.3558 96.6271 94.3558H96.2201L95.758 96.5284ZM95.4665 97.9144L94.812 101H93.1345L94.834 92.9587H96.8086C97.6776 92.9587 98.3303 93.1457 98.7666 93.5198C99.203 93.8938 99.4212 94.442 99.4212 95.1643C99.4212 95.7437 99.269 96.2423 98.9646 96.6604C98.6603 97.0747 98.2221 97.3827 97.6501 97.5844L99.0856 101H97.2596L96.1211 97.9144H95.4665ZM104.492 101H99.9987L101.698 92.9587H106.197L105.9 94.3558H103.084L102.716 96.1213H105.339L105.037 97.5184H102.413L101.973 99.592H104.789L104.492 101ZM108.953 101H107.275L108.672 94.3778H106.736L107.039 92.9587H112.594L112.292 94.3778H110.35L108.953 101ZM116.582 101H112.088L113.788 92.9587H118.287L117.99 94.3558H115.174L114.805 96.1213H117.429L117.126 97.5184H114.503L114.063 99.592H116.879L116.582 101Z" fill="#848484"/>
<path d="M41.6312 126.086H39.0296L38.0835 128H36.3235L40.5366 119.926H42.5882L43.3967 128H41.7632L41.6312 126.086ZM41.5486 124.656L41.4056 122.731C41.369 122.25 41.3506 121.787 41.3506 121.339V121.141C41.1893 121.581 40.9895 122.047 40.7511 122.538L39.7171 124.656H41.5486ZM48.6329 125.97C48.6329 126.66 48.4037 127.19 47.9454 127.56C47.4907 127.927 46.8563 128.11 46.0423 128.11C45.65 128.11 45.3071 128.083 45.0138 128.028C44.7241 127.972 44.4527 127.881 44.1997 127.752V126.388C44.7754 126.718 45.3603 126.883 45.9543 126.883C46.2476 126.883 46.4878 126.825 46.6748 126.707C46.8618 126.586 46.9553 126.423 46.9553 126.218C46.9553 126.06 46.8875 125.919 46.7518 125.794C46.6161 125.67 46.376 125.512 46.0313 125.321C45.5876 125.072 45.2778 124.825 45.1018 124.579C44.9258 124.33 44.8378 124.036 44.8378 123.699C44.8378 123.076 45.0394 122.593 45.4428 122.252C45.8498 121.908 46.4291 121.735 47.1808 121.735C47.9179 121.735 48.5834 121.909 49.1774 122.258L48.6329 123.44C48.1195 123.132 47.6465 122.978 47.2138 122.978C47.0048 122.978 46.8362 123.026 46.7078 123.121C46.5795 123.213 46.5153 123.338 46.5153 123.495C46.5153 123.638 46.574 123.765 46.6913 123.875C46.8087 123.981 47.0287 124.117 47.3513 124.282C47.8024 124.513 48.1287 124.764 48.3304 125.035C48.532 125.307 48.6329 125.618 48.6329 125.97ZM53.9681 125.97C53.9681 126.66 53.7389 127.19 53.2805 127.56C52.8259 127.927 52.1915 128.11 51.3775 128.11C50.9851 128.11 50.6423 128.083 50.3489 128.028C50.0593 127.972 49.7879 127.881 49.5349 127.752V126.388C50.1106 126.718 50.6954 126.883 51.2895 126.883C51.5828 126.883 51.823 126.825 52.01 126.707C52.197 126.586 52.2905 126.423 52.2905 126.218C52.2905 126.06 52.2227 125.919 52.087 125.794C51.9513 125.67 51.7111 125.512 51.3665 125.321C50.9228 125.072 50.6129 124.825 50.4369 124.579C50.2609 124.33 50.1729 124.036 50.1729 123.699C50.1729 123.076 50.3746 122.593 50.778 122.252C51.185 121.908 51.7643 121.735 52.516 121.735C53.253 121.735 53.9186 121.909 54.5126 122.258L53.9681 123.44C53.4547 123.132 52.9817 122.978 52.549 122.978C52.34 122.978 52.1713 123.026 52.043 123.121C51.9147 123.213 51.8505 123.338 51.8505 123.495C51.8505 123.638 51.9092 123.765 52.0265 123.875C52.1438 123.981 52.3638 124.117 52.6865 124.282C53.1375 124.513 53.4639 124.764 53.6655 125.035C53.8672 125.307 53.9681 125.618 53.9681 125.97ZM56.5146 120.41C56.5146 120.091 56.6008 119.851 56.7731 119.689C56.9492 119.524 57.1967 119.442 57.5157 119.442C57.7833 119.442 57.9869 119.499 58.1262 119.612C58.2655 119.726 58.3352 119.889 58.3352 120.102C58.3352 120.395 58.2545 120.633 58.0932 120.817C57.9319 120.996 57.6825 121.086 57.3452 121.086C56.7915 121.086 56.5146 120.861 56.5146 120.41ZM56.6026 128H54.9471L56.2506 121.851H57.9062L56.6026 128ZM60.9148 126.773C61.1531 126.773 61.4501 126.709 61.8058 126.581V127.818C61.3988 128.013 60.9111 128.11 60.3428 128.11C59.7927 128.11 59.3876 127.994 59.1272 127.763C58.8705 127.532 58.7422 127.175 58.7422 126.691C58.7422 126.508 58.7642 126.302 58.8082 126.075L59.4407 123.11H58.6047L58.7642 122.302L59.8422 121.84L60.5683 120.542H61.6353L61.3658 121.851H62.9223L62.6473 123.11H61.0963L60.4638 126.075C60.4418 126.185 60.4308 126.282 60.4308 126.366C60.4308 126.638 60.5921 126.773 60.9148 126.773ZM64.4789 120.41C64.4789 120.091 64.5651 119.851 64.7374 119.689C64.9134 119.524 65.1609 119.442 65.4799 119.442C65.7476 119.442 65.9511 119.499 66.0905 119.612C66.2298 119.726 66.2995 119.889 66.2995 120.102C66.2995 120.395 66.2188 120.633 66.0575 120.817C65.8961 120.996 65.6468 121.086 65.3094 121.086C64.7557 121.086 64.4789 120.861 64.4789 120.41ZM64.5669 128H62.9113L64.2149 121.851H65.8704L64.5669 128ZM70.6831 121.735C70.8994 121.735 71.0755 121.755 71.2111 121.796L70.8481 123.391C70.6831 123.332 70.4998 123.303 70.2981 123.303C69.8727 123.303 69.4987 123.472 69.1761 123.809C68.857 124.143 68.6297 124.623 68.494 125.25L67.911 128H66.2555L67.559 121.851H68.824L68.7085 122.989H68.7415C69.2806 122.153 69.9277 121.735 70.6831 121.735ZM75.9523 128.11C75.4133 128.11 74.9879 127.916 74.6762 127.527C74.3682 127.135 74.2142 126.586 74.2142 125.882C74.2142 125.156 74.3462 124.465 74.6102 123.809C74.8742 123.149 75.2208 122.639 75.6498 122.28C76.0788 121.917 76.55 121.735 77.0633 121.735C77.419 121.735 77.7252 121.812 77.9818 121.966C78.2422 122.12 78.4439 122.344 78.5869 122.637H78.6309L78.9444 121.851H80.2204L78.9114 128H77.6518L77.7288 127.202H77.7068C77.2155 127.807 76.6306 128.11 75.9523 128.11ZM76.6013 126.773C76.8543 126.773 77.0981 126.651 77.3328 126.405C77.5675 126.159 77.7563 125.827 77.8993 125.409C78.0423 124.988 78.1138 124.511 78.1138 123.979C78.1138 123.719 78.0423 123.505 77.8993 123.336C77.76 123.164 77.5748 123.077 77.3438 123.077C77.0945 123.077 76.8561 123.209 76.6288 123.473C76.4051 123.737 76.2255 124.086 76.0898 124.518C75.9578 124.951 75.8918 125.38 75.8918 125.805C75.8918 126.128 75.9523 126.37 76.0733 126.531C76.198 126.693 76.374 126.773 76.6013 126.773ZM85.5776 128.11C85.0386 128.11 84.6132 127.916 84.3015 127.527C83.9935 127.135 83.8395 126.586 83.8395 125.882C83.8395 125.156 83.9715 124.465 84.2355 123.809C84.4996 123.149 84.8461 122.639 85.2751 122.28C85.7041 121.917 86.1753 121.735 86.6886 121.735C87.0443 121.735 87.3505 121.812 87.6072 121.966C87.8675 122.12 88.0692 122.344 88.2122 122.637H88.2562L88.5697 121.851H89.8457L88.5367 128H87.2771L87.3541 127.202H87.3321C86.8408 127.807 86.2559 128.11 85.5776 128.11ZM86.2266 126.773C86.4796 126.773 86.7235 126.651 86.9581 126.405C87.1928 126.159 87.3816 125.827 87.5247 125.409C87.6677 124.988 87.7392 124.511 87.7392 123.979C87.7392 123.719 87.6677 123.505 87.5247 123.336C87.3853 123.164 87.2001 123.077 86.9691 123.077C86.7198 123.077 86.4815 123.209 86.2541 123.473C86.0304 123.737 85.8508 124.086 85.7151 124.518C85.5831 124.951 85.5171 125.38 85.5171 125.805C85.5171 126.128 85.5776 126.37 85.6986 126.531C85.8233 126.693 85.9993 126.773 86.2266 126.773ZM91.4848 121.851H93.1403L92.3868 125.442C92.3281 125.692 92.2988 125.91 92.2988 126.097C92.2988 126.548 92.4968 126.773 92.8928 126.773C93.2302 126.773 93.5363 126.564 93.8114 126.146C94.0864 125.728 94.3027 125.145 94.4604 124.397L94.9994 121.851H96.655L95.3514 128H94.0864L94.2019 126.861H94.1689C93.6372 127.694 92.9863 128.11 92.2163 128.11C91.7103 128.11 91.3234 127.96 91.0558 127.659C90.7881 127.355 90.6543 126.916 90.6543 126.344C90.6543 126.003 90.6983 125.613 90.7863 125.173L91.4848 121.851ZM98.712 128H97.0565L98.8715 119.442H100.527L98.712 128ZM102.43 128.11C101.891 128.11 101.466 127.916 101.154 127.527C100.846 127.135 100.692 126.586 100.692 125.882C100.692 125.156 100.824 124.465 101.088 123.809C101.352 123.149 101.699 122.639 102.128 122.28C102.557 121.917 103.028 121.735 103.541 121.735C103.897 121.735 104.203 121.812 104.46 121.966C104.72 122.12 104.922 122.344 105.065 122.637H105.109L105.422 121.851H106.698L105.389 128H104.13L104.207 127.202H104.185C103.693 127.807 103.108 128.11 102.43 128.11ZM103.079 126.773C103.332 126.773 103.576 126.651 103.811 126.405C104.045 126.159 104.234 125.827 104.377 125.409C104.52 124.988 104.592 124.511 104.592 123.979C104.592 123.719 104.52 123.505 104.377 123.336C104.238 123.164 104.053 123.077 103.822 123.077C103.572 123.077 103.334 123.209 103.107 123.473C102.883 123.737 102.703 124.086 102.568 124.518C102.436 124.951 102.37 125.38 102.37 125.805C102.37 126.128 102.43 126.37 102.551 126.531C102.676 126.693 102.852 126.773 103.079 126.773ZM116.346 121.862L116.153 122.775L115.196 123C115.255 123.191 115.284 123.407 115.284 123.649C115.284 124.364 115.062 124.931 114.619 125.349C114.175 125.763 113.572 125.97 112.809 125.97C112.593 125.97 112.411 125.952 112.264 125.915C111.956 126.014 111.802 126.157 111.802 126.344C111.802 126.469 111.857 126.559 111.967 126.614C112.077 126.669 112.241 126.711 112.457 126.74L113.21 126.839C113.808 126.916 114.243 127.072 114.514 127.307C114.789 127.538 114.927 127.873 114.927 128.314C114.927 129.087 114.641 129.679 114.069 130.09C113.497 130.501 112.679 130.706 111.615 130.706C110.853 130.706 110.257 130.567 109.828 130.288C109.403 130.013 109.19 129.634 109.19 129.15C109.19 128.776 109.316 128.453 109.569 128.182C109.819 127.914 110.211 127.692 110.746 127.516C110.475 127.344 110.339 127.1 110.339 126.784C110.339 126.524 110.42 126.3 110.581 126.113C110.746 125.923 111.016 125.741 111.39 125.569C111.152 125.389 110.976 125.184 110.862 124.953C110.748 124.722 110.691 124.441 110.691 124.111C110.691 123.382 110.921 122.804 111.379 122.379C111.841 121.95 112.468 121.735 113.26 121.735C113.564 121.735 113.869 121.777 114.173 121.862H116.346ZM111.83 128.033C111.441 128.084 111.146 128.189 110.944 128.347C110.746 128.504 110.647 128.704 110.647 128.946C110.647 129.368 111.003 129.579 111.714 129.579C112.268 129.579 112.686 129.496 112.968 129.331C113.251 129.166 113.392 128.933 113.392 128.633C113.392 128.49 113.332 128.38 113.21 128.303C113.093 128.226 112.842 128.161 112.457 128.11L111.83 128.033ZM113.199 122.786C112.917 122.786 112.688 122.927 112.512 123.209C112.34 123.488 112.253 123.838 112.253 124.26C112.253 124.696 112.442 124.914 112.82 124.914C113.095 124.914 113.317 124.775 113.486 124.496C113.658 124.214 113.744 123.858 113.744 123.429C113.744 123 113.563 122.786 113.199 122.786ZM120.548 121.735C120.764 121.735 120.94 121.755 121.076 121.796L120.713 123.391C120.548 123.332 120.364 123.303 120.163 123.303C119.737 123.303 119.363 123.472 119.041 123.809C118.722 124.143 118.494 124.623 118.359 125.25L117.776 128H116.12L117.424 121.851H118.689L118.573 122.989H118.606C119.145 122.153 119.792 121.735 120.548 121.735ZM122.891 128.11C122.352 128.11 121.926 127.916 121.615 127.527C121.307 127.135 121.153 126.586 121.153 125.882C121.153 125.156 121.285 124.465 121.549 123.809C121.813 123.149 122.159 122.639 122.588 122.28C123.017 121.917 123.488 121.735 124.002 121.735C124.358 121.735 124.664 121.812 124.92 121.966C125.181 122.12 125.382 122.344 125.525 122.637H125.569L125.883 121.851H127.159L125.85 128H124.59L124.667 127.202H124.645C124.154 127.807 123.569 128.11 122.891 128.11ZM123.54 126.773C123.793 126.773 124.037 126.651 124.271 126.405C124.506 126.159 124.695 125.827 124.838 125.409C124.981 124.988 125.052 124.511 125.052 123.979C125.052 123.719 124.981 123.505 124.838 123.336C124.699 123.164 124.513 123.077 124.282 123.077C124.033 123.077 123.795 123.209 123.567 123.473C123.344 123.737 123.164 124.086 123.028 124.518C122.896 124.951 122.83 125.38 122.83 125.805C122.83 126.128 122.891 126.37 123.012 126.531C123.136 126.693 123.312 126.773 123.54 126.773ZM129.86 126.344C130.061 125.783 130.23 125.375 130.366 125.118L131.999 121.851H133.776L130.454 128H128.677L127.918 121.851H129.541L129.788 125.074C129.814 125.562 129.827 125.985 129.827 126.344H129.86ZM135.365 128.11C134.826 128.11 134.401 127.916 134.089 127.527C133.781 127.135 133.627 126.586 133.627 125.882C133.627 125.156 133.759 124.465 134.023 123.809C134.287 123.149 134.634 122.639 135.063 122.28C135.492 121.917 135.963 121.735 136.476 121.735C136.832 121.735 137.138 121.812 137.395 121.966C137.655 122.12 137.857 122.344 138 122.637H138.044L138.357 121.851H139.633L138.324 128H137.065L137.142 127.202H137.12C136.628 127.807 136.044 128.11 135.365 128.11ZM136.014 126.773C136.267 126.773 136.511 126.651 136.746 126.405C136.98 126.159 137.169 125.827 137.312 125.409C137.455 124.988 137.527 124.511 137.527 123.979C137.527 123.719 137.455 123.505 137.312 123.336C137.173 123.164 136.988 123.077 136.757 123.077C136.507 123.077 136.269 123.209 136.042 123.473C135.818 123.737 135.638 124.086 135.503 124.518C135.371 124.951 135.305 125.38 135.305 125.805C135.305 126.128 135.365 126.37 135.486 126.531C135.611 126.693 135.787 126.773 136.014 126.773ZM142.064 128.11C141.525 128.11 141.1 127.914 140.788 127.521C140.48 127.129 140.326 126.579 140.326 125.871C140.326 125.153 140.457 124.467 140.717 123.814C140.981 123.158 141.327 122.648 141.756 122.285C142.185 121.919 142.658 121.735 143.175 121.735C143.476 121.735 143.735 121.803 143.951 121.939C144.171 122.074 144.378 122.307 144.573 122.637H144.617L144.628 122.483C144.65 122.08 144.695 121.722 144.765 121.411L145.183 119.442H146.839L145.024 128H143.764L143.841 127.202H143.819C143.559 127.521 143.285 127.752 142.999 127.895C142.717 128.039 142.405 128.11 142.064 128.11ZM142.757 126.773C142.999 126.773 143.234 126.649 143.461 126.399C143.692 126.146 143.878 125.811 144.017 125.393C144.156 124.975 144.226 124.526 144.226 124.045C144.226 123.752 144.156 123.517 144.017 123.341C143.881 123.165 143.694 123.077 143.456 123.077C143.207 123.077 142.968 123.209 142.741 123.473C142.517 123.737 142.338 124.086 142.202 124.518C142.07 124.951 142.004 125.38 142.004 125.805C142.004 126.451 142.255 126.773 142.757 126.773ZM148.764 128.11C148.225 128.11 147.799 127.916 147.488 127.527C147.18 127.135 147.026 126.586 147.026 125.882C147.026 125.156 147.158 124.465 147.422 123.809C147.686 123.149 148.032 122.639 148.461 122.28C148.89 121.917 149.361 121.735 149.875 121.735C150.23 121.735 150.537 121.812 150.793 121.966C151.054 122.12 151.255 122.344 151.398 122.637H151.442L151.756 121.851H153.032L151.723 128H150.463L150.54 127.202H150.518C150.027 127.807 149.442 128.11 148.764 128.11ZM149.413 126.773C149.666 126.773 149.91 126.651 150.144 126.405C150.379 126.159 150.568 125.827 150.711 125.409C150.854 124.988 150.925 124.511 150.925 123.979C150.925 123.719 150.854 123.505 150.711 123.336C150.571 123.164 150.386 123.077 150.155 123.077C149.906 123.077 149.668 123.209 149.44 123.473C149.217 123.737 149.037 124.086 148.901 124.518C148.769 124.951 148.703 125.38 148.703 125.805C148.703 126.128 148.764 126.37 148.885 126.531C149.009 126.693 149.185 126.773 149.413 126.773ZM158.389 128.11C157.85 128.11 157.425 127.914 157.113 127.521C156.805 127.129 156.651 126.579 156.651 125.871C156.651 125.153 156.781 124.467 157.041 123.814C157.305 123.158 157.652 122.648 158.081 122.285C158.51 121.919 158.983 121.735 159.5 121.735C159.801 121.735 160.059 121.803 160.276 121.939C160.496 122.074 160.703 122.307 160.897 122.637H160.941L160.952 122.483C160.974 122.08 161.02 121.722 161.09 121.411L161.508 119.442H163.163L161.348 128H160.089L160.166 127.202H160.144C159.883 127.521 159.61 127.752 159.324 127.895C159.042 128.039 158.73 128.11 158.389 128.11ZM159.082 126.773C159.324 126.773 159.559 126.649 159.786 126.399C160.017 126.146 160.202 125.811 160.342 125.393C160.481 124.975 160.551 124.526 160.551 124.045C160.551 123.752 160.481 123.517 160.342 123.341C160.206 123.165 160.019 123.077 159.781 123.077C159.531 123.077 159.293 123.209 159.065 123.473C158.842 123.737 158.662 124.086 158.526 124.518C158.394 124.951 158.328 125.38 158.328 125.805C158.328 126.451 158.58 126.773 159.082 126.773ZM165.088 128.11C164.549 128.11 164.124 127.916 163.812 127.527C163.504 127.135 163.35 126.586 163.35 125.882C163.35 125.156 163.482 124.465 163.746 123.809C164.01 123.149 164.357 122.639 164.786 122.28C165.215 121.917 165.686 121.735 166.199 121.735C166.555 121.735 166.861 121.812 167.118 121.966C167.378 122.12 167.58 122.344 167.723 122.637H167.767L168.08 121.851H169.356L168.047 128H166.788L166.865 127.202H166.843C166.351 127.807 165.767 128.11 165.088 128.11ZM165.737 126.773C165.99 126.773 166.234 126.651 166.469 126.405C166.703 126.159 166.892 125.827 167.035 125.409C167.178 124.988 167.25 124.511 167.25 123.979C167.25 123.719 167.178 123.505 167.035 123.336C166.896 123.164 166.711 123.077 166.48 123.077C166.23 123.077 165.992 123.209 165.765 123.473C165.541 123.737 165.361 124.086 165.226 124.518C165.094 124.951 165.028 125.38 165.028 125.805C165.028 126.128 165.088 126.37 165.209 126.531C165.334 126.693 165.51 126.773 165.737 126.773ZM174.714 128.11C174.174 128.11 173.749 127.914 173.437 127.521C173.129 127.129 172.975 126.579 172.975 125.871C172.975 125.153 173.106 124.467 173.366 123.814C173.63 123.158 173.976 122.648 174.406 122.285C174.835 121.919 175.308 121.735 175.825 121.735C176.125 121.735 176.384 121.803 176.6 121.939C176.82 122.074 177.027 122.307 177.222 122.637H177.266L177.277 122.483C177.299 122.08 177.344 121.722 177.414 121.411L177.832 119.442H179.488L177.673 128H176.413L176.49 127.202H176.468C176.208 127.521 175.935 127.752 175.649 127.895C175.366 128.039 175.055 128.11 174.714 128.11ZM175.407 126.773C175.649 126.773 175.883 126.649 176.111 126.399C176.342 126.146 176.527 125.811 176.666 125.393C176.805 124.975 176.875 124.526 176.875 124.045C176.875 123.752 176.805 123.517 176.666 123.341C176.53 123.165 176.343 123.077 176.105 123.077C175.856 123.077 175.617 123.209 175.39 123.473C175.166 123.737 174.987 124.086 174.851 124.518C174.719 124.951 174.653 125.38 174.653 125.805C174.653 126.451 174.904 126.773 175.407 126.773ZM180.951 120.41C180.951 120.091 181.037 119.851 181.209 119.689C181.385 119.524 181.633 119.442 181.952 119.442C182.219 119.442 182.423 119.499 182.562 119.612C182.702 119.726 182.771 119.889 182.771 120.102C182.771 120.395 182.691 120.633 182.529 120.817C182.368 120.996 182.119 121.086 181.781 121.086C181.228 121.086 180.951 120.861 180.951 120.41ZM181.039 128H179.383L180.687 121.851H182.342L181.039 128ZM187.083 125.97C187.083 126.66 186.854 127.19 186.396 127.56C185.941 127.927 185.307 128.11 184.493 128.11C184.1 128.11 183.758 128.083 183.464 128.028C183.175 127.972 182.903 127.881 182.65 127.752V126.388C183.226 126.718 183.811 126.883 184.405 126.883C184.698 126.883 184.938 126.825 185.125 126.707C185.312 126.586 185.406 126.423 185.406 126.218C185.406 126.06 185.338 125.919 185.202 125.794C185.067 125.67 184.827 125.512 184.482 125.321C184.038 125.072 183.728 124.825 183.552 124.579C183.376 124.33 183.288 124.036 183.288 123.699C183.288 123.076 183.49 122.593 183.893 122.252C184.3 121.908 184.88 121.735 185.631 121.735C186.368 121.735 187.034 121.909 187.628 122.258L187.083 123.44C186.57 123.132 186.097 122.978 185.664 122.978C185.455 122.978 185.287 123.026 185.158 123.121C185.03 123.213 184.966 123.338 184.966 123.495C184.966 123.638 185.025 123.765 185.142 123.875C185.259 123.981 185.479 124.117 185.802 124.282C186.253 124.513 186.579 124.764 186.781 125.035C186.983 125.307 187.083 125.618 187.083 125.97ZM190.642 128.11C189.905 128.11 189.338 127.914 188.942 127.521C188.55 127.125 188.354 126.568 188.354 125.849C188.354 125.072 188.49 124.366 188.761 123.732C189.036 123.094 189.421 122.602 189.916 122.258C190.411 121.909 190.976 121.735 191.61 121.735C192.277 121.735 192.879 121.867 193.414 122.131L192.908 123.391C192.71 123.307 192.516 123.233 192.325 123.171C192.134 123.109 191.918 123.077 191.676 123.077C191.364 123.077 191.082 123.195 190.829 123.429C190.58 123.664 190.384 123.987 190.241 124.397C190.101 124.804 190.032 125.243 190.032 125.712C190.032 126.064 190.114 126.33 190.279 126.509C190.448 126.685 190.681 126.773 190.978 126.773C191.256 126.773 191.515 126.731 191.753 126.647C191.991 126.559 192.237 126.451 192.49 126.322V127.675C191.933 127.965 191.317 128.11 190.642 128.11ZM195.075 120.41C195.075 120.091 195.161 119.851 195.334 119.689C195.51 119.524 195.757 119.442 196.076 119.442C196.344 119.442 196.547 119.499 196.687 119.612C196.826 119.726 196.896 119.889 196.896 120.102C196.896 120.395 196.815 120.633 196.654 120.817C196.492 120.996 196.243 121.086 195.906 121.086C195.352 121.086 195.075 120.861 195.075 120.41ZM195.163 128H193.508L194.811 121.851H196.467L195.163 128ZM201.12 121.735C201.655 121.735 202.077 121.933 202.385 122.329C202.697 122.722 202.852 123.272 202.852 123.979C202.852 124.68 202.726 125.354 202.473 126.003C202.224 126.649 201.881 127.162 201.444 127.543C201.008 127.921 200.528 128.11 200.003 128.11C199.699 128.11 199.437 128.042 199.217 127.906C198.997 127.771 198.793 127.54 198.606 127.213H198.562C198.518 127.796 198.439 128.337 198.326 128.836L197.93 130.706H196.274L198.155 121.851H199.42L199.327 122.786H199.376C199.882 122.085 200.464 121.735 201.12 121.735ZM200.454 123.077C200.205 123.077 199.963 123.202 199.728 123.451C199.497 123.697 199.31 124.027 199.167 124.441C199.028 124.852 198.958 125.307 198.958 125.805C198.958 126.099 199.026 126.333 199.162 126.509C199.297 126.685 199.484 126.773 199.723 126.773C199.968 126.773 200.203 126.647 200.427 126.394C200.651 126.141 200.83 125.794 200.966 125.354C201.105 124.911 201.175 124.474 201.175 124.045C201.175 123.4 200.935 123.077 200.454 123.077ZM205.13 120.41C205.13 120.091 205.216 119.851 205.388 119.689C205.564 119.524 205.812 119.442 206.131 119.442C206.398 119.442 206.602 119.499 206.741 119.612C206.88 119.726 206.95 119.889 206.95 120.102C206.95 120.395 206.869 120.633 206.708 120.817C206.547 120.996 206.297 121.086 205.96 121.086C205.406 121.086 205.13 120.861 205.13 120.41ZM205.218 128H203.562L204.865 121.851H206.521L205.218 128ZM212.076 128H210.421L211.174 124.408C211.233 124.159 211.262 123.941 211.262 123.754C211.262 123.303 211.064 123.077 210.668 123.077C210.331 123.077 210.025 123.286 209.75 123.704C209.475 124.122 209.258 124.705 209.101 125.453L208.562 128H206.906L208.21 121.851H209.475L209.359 122.989H209.392C209.927 122.153 210.578 121.735 211.345 121.735C211.851 121.735 212.241 121.889 212.516 122.197C212.795 122.502 212.934 122.938 212.934 123.506C212.934 123.774 212.892 124.104 212.808 124.496L212.076 128ZM215.745 128.11C215.206 128.11 214.78 127.916 214.469 127.527C214.161 127.135 214.007 126.586 214.007 125.882C214.007 125.156 214.139 124.465 214.403 123.809C214.667 123.149 215.013 122.639 215.442 122.28C215.871 121.917 216.343 121.735 216.856 121.735C217.212 121.735 217.518 121.812 217.774 121.966C218.035 122.12 218.236 122.344 218.379 122.637H218.423L218.737 121.851H220.013L218.704 128H217.444L217.521 127.202H217.499C217.008 127.807 216.423 128.11 215.745 128.11ZM216.394 126.773C216.647 126.773 216.891 126.651 217.125 126.405C217.36 126.159 217.549 125.827 217.692 125.409C217.835 124.988 217.906 124.511 217.906 123.979C217.906 123.719 217.835 123.505 217.692 123.336C217.553 123.164 217.367 123.077 217.136 123.077C216.887 123.077 216.649 123.209 216.421 123.473C216.198 123.737 216.018 124.086 215.882 124.518C215.75 124.951 215.684 125.38 215.684 125.805C215.684 126.128 215.745 126.37 215.866 126.531C215.991 126.693 216.167 126.773 216.394 126.773ZM222.362 125.332H221.036L221.9 119.959H223.77L222.362 125.332ZM220.349 127.367C220.349 127.037 220.446 126.773 220.64 126.575C220.838 126.377 221.115 126.278 221.471 126.278C221.72 126.278 221.92 126.348 222.07 126.487C222.22 126.627 222.296 126.823 222.296 127.076C222.296 127.395 222.195 127.653 221.993 127.851C221.791 128.05 221.527 128.149 221.201 128.149C220.933 128.149 220.724 128.081 220.574 127.945C220.424 127.806 220.349 127.613 220.349 127.367Z" fill="white"/>
<path d="M50 100.952V101.714H37V100.952L38.4444 99.4286V94.8571C38.4444 92.4952 39.9106 90.4152 42.0556 89.7448C42.0556 89.6686 42.0556 89.6 42.0556 89.5238C42.0556 89.1197 42.2077 88.7321 42.4786 88.4463C42.7495 88.1605 43.1169 88 43.5 88C43.8831 88 44.2505 88.1605 44.5214 88.4463C44.7923 88.7321 44.9444 89.1197 44.9444 89.5238C44.9444 89.6 44.9444 89.6686 44.9444 89.7448C47.0894 90.4152 48.5556 92.4952 48.5556 94.8571V99.4286L50 100.952ZM44.9444 102.476C44.9444 102.88 44.7923 103.268 44.5214 103.554C44.2505 103.839 43.8831 104 43.5 104C43.1169 104 42.7495 103.839 42.4786 103.554C42.2077 103.268 42.0556 102.88 42.0556 102.476" fill="#848484"/>
<rect x="22" y="198" width="331" height="113" rx="15" fill="#433357"/>
<rect x="26" y="202" width="323" height="106" rx="10" fill="#0E0718"/>
<path d="M64.2915 230L65.9911 221.959H67.6741L66.2661 228.592H69.0822L68.7852 230H64.2915ZM74.6263 230H70.1327L71.8323 221.959H76.3314L76.0344 223.356H73.2183L72.8498 225.121H75.4734L75.1709 226.518H72.5473L72.1073 228.592H74.9234L74.6263 230ZM80.5555 227.97L83.5861 221.959H85.9127L84.2132 230H82.6731L83.4706 226.194C83.665 225.288 83.8575 224.48 84.0482 223.768H84.0207L80.8911 230H79.3455L79.01 223.768H78.988C78.9477 224.091 78.878 224.514 78.779 225.039C78.68 225.563 78.3371 227.217 77.7505 230H76.2379L77.9375 221.959H80.1595L80.5335 227.97H80.5555ZM90.1919 221.959C91.0316 221.959 91.6659 222.109 92.0949 222.41C92.5239 222.707 92.7384 223.152 92.7384 223.746C92.7384 224.296 92.5863 224.751 92.2819 225.11C91.9776 225.466 91.5449 225.703 90.9839 225.82V225.853C91.3506 225.948 91.6421 226.126 91.8584 226.386C92.0784 226.643 92.1884 226.973 92.1884 227.376C92.1884 228.216 91.9079 228.863 91.3469 229.318C90.7859 229.773 90.0104 230 89.0203 230H86.1492L87.8488 221.959H90.1919ZM88.8553 225.143H89.6748C90.1185 225.143 90.4504 225.055 90.6704 224.879C90.894 224.7 91.0059 224.443 91.0059 224.109C91.0059 223.607 90.6942 223.356 90.0709 223.356H89.2348L88.8553 225.143ZM88.1238 228.592H89.1138C89.5428 228.592 89.8783 228.486 90.1204 228.273C90.366 228.06 90.4889 227.765 90.4889 227.387C90.4889 226.793 90.1534 226.496 89.4823 226.496H88.5748L88.1238 228.592ZM95.758 225.528H96.1871C96.6674 225.528 97.0414 225.424 97.3091 225.215C97.5768 225.006 97.7106 224.687 97.7106 224.258C97.7106 223.957 97.6226 223.732 97.4466 223.581C97.2743 223.431 97.0011 223.356 96.6271 223.356H96.2201L95.758 225.528ZM95.4665 226.914L94.812 230H93.1345L94.834 221.959H96.8086C97.6776 221.959 98.3303 222.146 98.7666 222.52C99.203 222.894 99.4212 223.442 99.4212 224.164C99.4212 224.744 99.269 225.242 98.9646 225.66C98.6603 226.075 98.2221 226.383 97.6501 226.584L99.0856 230H97.2596L96.1211 226.914H95.4665ZM104.492 230H99.9987L101.698 221.959H106.197L105.9 223.356H103.084L102.716 225.121H105.339L105.037 226.518H102.413L101.973 228.592H104.789L104.492 230ZM108.953 230H107.275L108.672 223.378H106.736L107.039 221.959H112.594L112.292 223.378H110.35L108.953 230ZM116.582 230H112.088L113.788 221.959H118.287L117.99 223.356H115.174L114.805 225.121H117.429L117.126 226.518H114.503L114.063 228.592H116.879L116.582 230Z" fill="#848484"/>
<path d="M41.6312 255.086H39.0296L38.0835 257H36.3235L40.5366 248.926H42.5882L43.3967 257H41.7632L41.6312 255.086ZM41.5486 253.656L41.4056 251.731C41.369 251.25 41.3506 250.787 41.3506 250.339V250.141C41.1893 250.581 40.9895 251.047 40.7511 251.538L39.7171 253.656H41.5486ZM48.6329 254.97C48.6329 255.66 48.4037 256.19 47.9454 256.56C47.4907 256.927 46.8563 257.11 46.0423 257.11C45.65 257.11 45.3071 257.083 45.0138 257.028C44.7241 256.972 44.4527 256.881 44.1997 256.752V255.388C44.7754 255.718 45.3603 255.883 45.9543 255.883C46.2476 255.883 46.4878 255.825 46.6748 255.707C46.8618 255.586 46.9553 255.423 46.9553 255.218C46.9553 255.06 46.8875 254.919 46.7518 254.794C46.6161 254.67 46.376 254.512 46.0313 254.321C45.5876 254.072 45.2778 253.825 45.1018 253.579C44.9258 253.33 44.8378 253.036 44.8378 252.699C44.8378 252.076 45.0394 251.593 45.4428 251.252C45.8498 250.908 46.4291 250.735 47.1808 250.735C47.9179 250.735 48.5834 250.909 49.1774 251.258L48.6329 252.44C48.1195 252.132 47.6465 251.978 47.2138 251.978C47.0048 251.978 46.8362 252.026 46.7078 252.121C46.5795 252.213 46.5153 252.338 46.5153 252.495C46.5153 252.638 46.574 252.765 46.6913 252.875C46.8087 252.981 47.0287 253.117 47.3513 253.282C47.8024 253.513 48.1287 253.764 48.3304 254.035C48.532 254.307 48.6329 254.618 48.6329 254.97ZM53.9681 254.97C53.9681 255.66 53.7389 256.19 53.2805 256.56C52.8259 256.927 52.1915 257.11 51.3775 257.11C50.9851 257.11 50.6423 257.083 50.3489 257.028C50.0593 256.972 49.7879 256.881 49.5349 256.752V255.388C50.1106 255.718 50.6954 255.883 51.2895 255.883C51.5828 255.883 51.823 255.825 52.01 255.707C52.197 255.586 52.2905 255.423 52.2905 255.218C52.2905 255.06 52.2227 254.919 52.087 254.794C51.9513 254.67 51.7111 254.512 51.3665 254.321C50.9228 254.072 50.6129 253.825 50.4369 253.579C50.2609 253.33 50.1729 253.036 50.1729 252.699C50.1729 252.076 50.3746 251.593 50.778 251.252C51.185 250.908 51.7643 250.735 52.516 250.735C53.253 250.735 53.9186 250.909 54.5126 251.258L53.9681 252.44C53.4547 252.132 52.9817 251.978 52.549 251.978C52.34 251.978 52.1713 252.026 52.043 252.121C51.9147 252.213 51.8505 252.338 51.8505 252.495C51.8505 252.638 51.9092 252.765 52.0265 252.875C52.1438 252.981 52.3638 253.117 52.6865 253.282C53.1375 253.513 53.4639 253.764 53.6655 254.035C53.8672 254.307 53.9681 254.618 53.9681 254.97ZM56.5146 249.41C56.5146 249.091 56.6008 248.851 56.7731 248.689C56.9492 248.524 57.1967 248.442 57.5157 248.442C57.7833 248.442 57.9869 248.499 58.1262 248.612C58.2655 248.726 58.3352 248.889 58.3352 249.102C58.3352 249.395 58.2545 249.633 58.0932 249.817C57.9319 249.996 57.6825 250.086 57.3452 250.086C56.7915 250.086 56.5146 249.861 56.5146 249.41ZM56.6026 257H54.9471L56.2506 250.851H57.9062L56.6026 257ZM60.9148 255.773C61.1531 255.773 61.4501 255.709 61.8058 255.581V256.818C61.3988 257.013 60.9111 257.11 60.3428 257.11C59.7927 257.11 59.3876 256.994 59.1272 256.763C58.8705 256.532 58.7422 256.175 58.7422 255.691C58.7422 255.508 58.7642 255.302 58.8082 255.075L59.4407 252.11H58.6047L58.7642 251.302L59.8422 250.84L60.5683 249.542H61.6353L61.3658 250.851H62.9223L62.6473 252.11H61.0963L60.4638 255.075C60.4418 255.185 60.4308 255.282 60.4308 255.366C60.4308 255.638 60.5921 255.773 60.9148 255.773ZM64.4789 249.41C64.4789 249.091 64.5651 248.851 64.7374 248.689C64.9134 248.524 65.1609 248.442 65.4799 248.442C65.7476 248.442 65.9511 248.499 66.0905 248.612C66.2298 248.726 66.2995 248.889 66.2995 249.102C66.2995 249.395 66.2188 249.633 66.0575 249.817C65.8961 249.996 65.6468 250.086 65.3094 250.086C64.7557 250.086 64.4789 249.861 64.4789 249.41ZM64.5669 257H62.9113L64.2149 250.851H65.8704L64.5669 257ZM70.6831 250.735C70.8994 250.735 71.0755 250.755 71.2111 250.796L70.8481 252.391C70.6831 252.332 70.4998 252.303 70.2981 252.303C69.8727 252.303 69.4987 252.472 69.1761 252.809C68.857 253.143 68.6297 253.623 68.494 254.25L67.911 257H66.2555L67.559 250.851H68.824L68.7085 251.989H68.7415C69.2806 251.153 69.9277 250.735 70.6831 250.735ZM75.9523 257.11C75.4133 257.11 74.9879 256.916 74.6762 256.527C74.3682 256.135 74.2142 255.586 74.2142 254.882C74.2142 254.156 74.3462 253.465 74.6102 252.809C74.8742 252.149 75.2208 251.639 75.6498 251.28C76.0788 250.917 76.55 250.735 77.0633 250.735C77.419 250.735 77.7252 250.812 77.9818 250.966C78.2422 251.12 78.4439 251.344 78.5869 251.637H78.6309L78.9444 250.851H80.2204L78.9114 257H77.6518L77.7288 256.202H77.7068C77.2155 256.807 76.6306 257.11 75.9523 257.11ZM76.6013 255.773C76.8543 255.773 77.0981 255.651 77.3328 255.405C77.5675 255.159 77.7563 254.827 77.8993 254.409C78.0423 253.988 78.1138 253.511 78.1138 252.979C78.1138 252.719 78.0423 252.505 77.8993 252.336C77.76 252.164 77.5748 252.077 77.3438 252.077C77.0945 252.077 76.8561 252.209 76.6288 252.473C76.4051 252.737 76.2255 253.086 76.0898 253.518C75.9578 253.951 75.8918 254.38 75.8918 254.805C75.8918 255.128 75.9523 255.37 76.0733 255.531C76.198 255.693 76.374 255.773 76.6013 255.773ZM85.5776 257.11C85.0386 257.11 84.6132 256.916 84.3015 256.527C83.9935 256.135 83.8395 255.586 83.8395 254.882C83.8395 254.156 83.9715 253.465 84.2355 252.809C84.4996 252.149 84.8461 251.639 85.2751 251.28C85.7041 250.917 86.1753 250.735 86.6886 250.735C87.0443 250.735 87.3505 250.812 87.6072 250.966C87.8675 251.12 88.0692 251.344 88.2122 251.637H88.2562L88.5697 250.851H89.8457L88.5367 257H87.2771L87.3541 256.202H87.3321C86.8408 256.807 86.2559 257.11 85.5776 257.11ZM86.2266 255.773C86.4796 255.773 86.7235 255.651 86.9581 255.405C87.1928 255.159 87.3816 254.827 87.5247 254.409C87.6677 253.988 87.7392 253.511 87.7392 252.979C87.7392 252.719 87.6677 252.505 87.5247 252.336C87.3853 252.164 87.2001 252.077 86.9691 252.077C86.7198 252.077 86.4815 252.209 86.2541 252.473C86.0304 252.737 85.8508 253.086 85.7151 253.518C85.5831 253.951 85.5171 254.38 85.5171 254.805C85.5171 255.128 85.5776 255.37 85.6986 255.531C85.8233 255.693 85.9993 255.773 86.2266 255.773ZM91.4848 250.851H93.1403L92.3868 254.442C92.3281 254.692 92.2988 254.91 92.2988 255.097C92.2988 255.548 92.4968 255.773 92.8928 255.773C93.2302 255.773 93.5363 255.564 93.8114 255.146C94.0864 254.728 94.3027 254.145 94.4604 253.397L94.9994 250.851H96.655L95.3514 257H94.0864L94.2019 255.861H94.1689C93.6372 256.694 92.9863 257.11 92.2163 257.11C91.7103 257.11 91.3234 256.96 91.0558 256.659C90.7881 256.355 90.6543 255.916 90.6543 255.344C90.6543 255.003 90.6983 254.613 90.7863 254.173L91.4848 250.851ZM98.712 257H97.0565L98.8715 248.442H100.527L98.712 257ZM102.43 257.11C101.891 257.11 101.466 256.916 101.154 256.527C100.846 256.135 100.692 255.586 100.692 254.882C100.692 254.156 100.824 253.465 101.088 252.809C101.352 252.149 101.699 251.639 102.128 251.28C102.557 250.917 103.028 250.735 103.541 250.735C103.897 250.735 104.203 250.812 104.46 250.966C104.72 251.12 104.922 251.344 105.065 251.637H105.109L105.422 250.851H106.698L105.389 257H104.13L104.207 256.202H104.185C103.693 256.807 103.108 257.11 102.43 257.11ZM103.079 255.773C103.332 255.773 103.576 255.651 103.811 255.405C104.045 255.159 104.234 254.827 104.377 254.409C104.52 253.988 104.592 253.511 104.592 252.979C104.592 252.719 104.52 252.505 104.377 252.336C104.238 252.164 104.053 252.077 103.822 252.077C103.572 252.077 103.334 252.209 103.107 252.473C102.883 252.737 102.703 253.086 102.568 253.518C102.436 253.951 102.37 254.38 102.37 254.805C102.37 255.128 102.43 255.37 102.551 255.531C102.676 255.693 102.852 255.773 103.079 255.773ZM116.346 250.862L116.153 251.775L115.196 252C115.255 252.191 115.284 252.407 115.284 252.649C115.284 253.364 115.062 253.931 114.619 254.349C114.175 254.763 113.572 254.97 112.809 254.97C112.593 254.97 112.411 254.952 112.264 254.915C111.956 255.014 111.802 255.157 111.802 255.344C111.802 255.469 111.857 255.559 111.967 255.614C112.077 255.669 112.241 255.711 112.457 255.74L113.21 255.839C113.808 255.916 114.243 256.072 114.514 256.307C114.789 256.538 114.927 256.873 114.927 257.314C114.927 258.087 114.641 258.679 114.069 259.09C113.497 259.501 112.679 259.706 111.615 259.706C110.853 259.706 110.257 259.567 109.828 259.288C109.403 259.013 109.19 258.634 109.19 258.15C109.19 257.776 109.316 257.453 109.569 257.182C109.819 256.914 110.211 256.692 110.746 256.516C110.475 256.344 110.339 256.1 110.339 255.784C110.339 255.524 110.42 255.3 110.581 255.113C110.746 254.923 111.016 254.741 111.39 254.569C111.152 254.389 110.976 254.184 110.862 253.953C110.748 253.722 110.691 253.441 110.691 253.111C110.691 252.382 110.921 251.804 111.379 251.379C111.841 250.95 112.468 250.735 113.26 250.735C113.564 250.735 113.869 250.777 114.173 250.862H116.346ZM111.83 257.033C111.441 257.084 111.146 257.189 110.944 257.347C110.746 257.504 110.647 257.704 110.647 257.946C110.647 258.368 111.003 258.579 111.714 258.579C112.268 258.579 112.686 258.496 112.968 258.331C113.251 258.166 113.392 257.933 113.392 257.633C113.392 257.49 113.332 257.38 113.21 257.303C113.093 257.226 112.842 257.161 112.457 257.11L111.83 257.033ZM113.199 251.786C112.917 251.786 112.688 251.927 112.512 252.209C112.34 252.488 112.253 252.838 112.253 253.26C112.253 253.696 112.442 253.914 112.82 253.914C113.095 253.914 113.317 253.775 113.486 253.496C113.658 253.214 113.744 252.858 113.744 252.429C113.744 252 113.563 251.786 113.199 251.786ZM120.548 250.735C120.764 250.735 120.94 250.755 121.076 250.796L120.713 252.391C120.548 252.332 120.364 252.303 120.163 252.303C119.737 252.303 119.363 252.472 119.041 252.809C118.722 253.143 118.494 253.623 118.359 254.25L117.776 257H116.12L117.424 250.851H118.689L118.573 251.989H118.606C119.145 251.153 119.792 250.735 120.548 250.735ZM122.891 257.11C122.352 257.11 121.926 256.916 121.615 256.527C121.307 256.135 121.153 255.586 121.153 254.882C121.153 254.156 121.285 253.465 121.549 252.809C121.813 252.149 122.159 251.639 122.588 251.28C123.017 250.917 123.488 250.735 124.002 250.735C124.358 250.735 124.664 250.812 124.92 250.966C125.181 251.12 125.382 251.344 125.525 251.637H125.569L125.883 250.851H127.159L125.85 257H124.59L124.667 256.202H124.645C124.154 256.807 123.569 257.11 122.891 257.11ZM123.54 255.773C123.793 255.773 124.037 255.651 124.271 255.405C124.506 255.159 124.695 254.827 124.838 254.409C124.981 253.988 125.052 253.511 125.052 252.979C125.052 252.719 124.981 252.505 124.838 252.336C124.699 252.164 124.513 252.077 124.282 252.077C124.033 252.077 123.795 252.209 123.567 252.473C123.344 252.737 123.164 253.086 123.028 253.518C122.896 253.951 122.83 254.38 122.83 254.805C122.83 255.128 122.891 255.37 123.012 255.531C123.136 255.693 123.312 255.773 123.54 255.773ZM129.86 255.344C130.061 254.783 130.23 254.375 130.366 254.118L131.999 250.851H133.776L130.454 257H128.677L127.918 250.851H129.541L129.788 254.074C129.814 254.562 129.827 254.985 129.827 255.344H129.86ZM135.365 257.11C134.826 257.11 134.401 256.916 134.089 256.527C133.781 256.135 133.627 255.586 133.627 254.882C133.627 254.156 133.759 253.465 134.023 252.809C134.287 252.149 134.634 251.639 135.063 251.28C135.492 250.917 135.963 250.735 136.476 250.735C136.832 250.735 137.138 250.812 137.395 250.966C137.655 251.12 137.857 251.344 138 251.637H138.044L138.357 250.851H139.633L138.324 257H137.065L137.142 256.202H137.12C136.628 256.807 136.044 257.11 135.365 257.11ZM136.014 255.773C136.267 255.773 136.511 255.651 136.746 255.405C136.98 255.159 137.169 254.827 137.312 254.409C137.455 253.988 137.527 253.511 137.527 252.979C137.527 252.719 137.455 252.505 137.312 252.336C137.173 252.164 136.988 252.077 136.757 252.077C136.507 252.077 136.269 252.209 136.042 252.473C135.818 252.737 135.638 253.086 135.503 253.518C135.371 253.951 135.305 254.38 135.305 254.805C135.305 255.128 135.365 255.37 135.486 255.531C135.611 255.693 135.787 255.773 136.014 255.773ZM142.064 257.11C141.525 257.11 141.1 256.914 140.788 256.521C140.48 256.129 140.326 255.579 140.326 254.871C140.326 254.153 140.457 253.467 140.717 252.814C140.981 252.158 141.327 251.648 141.756 251.285C142.185 250.919 142.658 250.735 143.175 250.735C143.476 250.735 143.735 250.803 143.951 250.939C144.171 251.074 144.378 251.307 144.573 251.637H144.617L144.628 251.483C144.65 251.08 144.695 250.722 144.765 250.411L145.183 248.442H146.839L145.024 257H143.764L143.841 256.202H143.819C143.559 256.521 143.285 256.752 142.999 256.895C142.717 257.039 142.405 257.11 142.064 257.11ZM142.757 255.773C142.999 255.773 143.234 255.649 143.461 255.399C143.692 255.146 143.878 254.811 144.017 254.393C144.156 253.975 144.226 253.526 144.226 253.045C144.226 252.752 144.156 252.517 144.017 252.341C143.881 252.165 143.694 252.077 143.456 252.077C143.207 252.077 142.968 252.209 142.741 252.473C142.517 252.737 142.338 253.086 142.202 253.518C142.07 253.951 142.004 254.38 142.004 254.805C142.004 255.451 142.255 255.773 142.757 255.773ZM148.764 257.11C148.225 257.11 147.799 256.916 147.488 256.527C147.18 256.135 147.026 255.586 147.026 254.882C147.026 254.156 147.158 253.465 147.422 252.809C147.686 252.149 148.032 251.639 148.461 251.28C148.89 250.917 149.361 250.735 149.875 250.735C150.23 250.735 150.537 250.812 150.793 250.966C151.054 251.12 151.255 251.344 151.398 251.637H151.442L151.756 250.851H153.032L151.723 257H150.463L150.54 256.202H150.518C150.027 256.807 149.442 257.11 148.764 257.11ZM149.413 255.773C149.666 255.773 149.91 255.651 150.144 255.405C150.379 255.159 150.568 254.827 150.711 254.409C150.854 253.988 150.925 253.511 150.925 252.979C150.925 252.719 150.854 252.505 150.711 252.336C150.571 252.164 150.386 252.077 150.155 252.077C149.906 252.077 149.668 252.209 149.44 252.473C149.217 252.737 149.037 253.086 148.901 253.518C148.769 253.951 148.703 254.38 148.703 254.805C148.703 255.128 148.764 255.37 148.885 255.531C149.009 255.693 149.185 255.773 149.413 255.773ZM158.389 257.11C157.85 257.11 157.425 256.914 157.113 256.521C156.805 256.129 156.651 255.579 156.651 254.871C156.651 254.153 156.781 253.467 157.041 252.814C157.305 252.158 157.652 251.648 158.081 251.285C158.51 250.919 158.983 250.735 159.5 250.735C159.801 250.735 160.059 250.803 160.276 250.939C160.496 251.074 160.703 251.307 160.897 251.637H160.941L160.952 251.483C160.974 251.08 161.02 250.722 161.09 250.411L161.508 248.442H163.163L161.348 257H160.089L160.166 256.202H160.144C159.883 256.521 159.61 256.752 159.324 256.895C159.042 257.039 158.73 257.11 158.389 257.11ZM159.082 255.773C159.324 255.773 159.559 255.649 159.786 255.399C160.017 255.146 160.202 254.811 160.342 254.393C160.481 253.975 160.551 253.526 160.551 253.045C160.551 252.752 160.481 252.517 160.342 252.341C160.206 252.165 160.019 252.077 159.781 252.077C159.531 252.077 159.293 252.209 159.065 252.473C158.842 252.737 158.662 253.086 158.526 253.518C158.394 253.951 158.328 254.38 158.328 254.805C158.328 255.451 158.58 255.773 159.082 255.773ZM165.088 257.11C164.549 257.11 164.124 256.916 163.812 256.527C163.504 256.135 163.35 255.586 163.35 254.882C163.35 254.156 163.482 253.465 163.746 252.809C164.01 252.149 164.357 251.639 164.786 251.28C165.215 250.917 165.686 250.735 166.199 250.735C166.555 250.735 166.861 250.812 167.118 250.966C167.378 251.12 167.58 251.344 167.723 251.637H167.767L168.08 250.851H169.356L168.047 257H166.788L166.865 256.202H166.843C166.351 256.807 165.767 257.11 165.088 257.11ZM165.737 255.773C165.99 255.773 166.234 255.651 166.469 255.405C166.703 255.159 166.892 254.827 167.035 254.409C167.178 253.988 167.25 253.511 167.25 252.979C167.25 252.719 167.178 252.505 167.035 252.336C166.896 252.164 166.711 252.077 166.48 252.077C166.23 252.077 165.992 252.209 165.765 252.473C165.541 252.737 165.361 253.086 165.226 253.518C165.094 253.951 165.028 254.38 165.028 254.805C165.028 255.128 165.088 255.37 165.209 255.531C165.334 255.693 165.51 255.773 165.737 255.773ZM174.714 257.11C174.174 257.11 173.749 256.914 173.437 256.521C173.129 256.129 172.975 255.579 172.975 254.871C172.975 254.153 173.106 253.467 173.366 252.814C173.63 252.158 173.976 251.648 174.406 251.285C174.835 250.919 175.308 250.735 175.825 250.735C176.125 250.735 176.384 250.803 176.6 250.939C176.82 251.074 177.027 251.307 177.222 251.637H177.266L177.277 251.483C177.299 251.08 177.344 250.722 177.414 250.411L177.832 248.442H179.488L177.673 257H176.413L176.49 256.202H176.468C176.208 256.521 175.935 256.752 175.649 256.895C175.366 257.039 175.055 257.11 174.714 257.11ZM175.407 255.773C175.649 255.773 175.883 255.649 176.111 255.399C176.342 255.146 176.527 254.811 176.666 254.393C176.805 253.975 176.875 253.526 176.875 253.045C176.875 252.752 176.805 252.517 176.666 252.341C176.53 252.165 176.343 252.077 176.105 252.077C175.856 252.077 175.617 252.209 175.39 252.473C175.166 252.737 174.987 253.086 174.851 253.518C174.719 253.951 174.653 254.38 174.653 254.805C174.653 255.451 174.904 255.773 175.407 255.773ZM180.951 249.41C180.951 249.091 181.037 248.851 181.209 248.689C181.385 248.524 181.633 248.442 181.952 248.442C182.219 248.442 182.423 248.499 182.562 248.612C182.702 248.726 182.771 248.889 182.771 249.102C182.771 249.395 182.691 249.633 182.529 249.817C182.368 249.996 182.119 250.086 181.781 250.086C181.228 250.086 180.951 249.861 180.951 249.41ZM181.039 257H179.383L180.687 250.851H182.342L181.039 257ZM187.083 254.97C187.083 255.66 186.854 256.19 186.396 256.56C185.941 256.927 185.307 257.11 184.493 257.11C184.1 257.11 183.758 257.083 183.464 257.028C183.175 256.972 182.903 256.881 182.65 256.752V255.388C183.226 255.718 183.811 255.883 184.405 255.883C184.698 255.883 184.938 255.825 185.125 255.707C185.312 255.586 185.406 255.423 185.406 255.218C185.406 255.06 185.338 254.919 185.202 254.794C185.067 254.67 184.827 254.512 184.482 254.321C184.038 254.072 183.728 253.825 183.552 253.579C183.376 253.33 183.288 253.036 183.288 252.699C183.288 252.076 183.49 251.593 183.893 251.252C184.3 250.908 184.88 250.735 185.631 250.735C186.368 250.735 187.034 250.909 187.628 251.258L187.083 252.44C186.57 252.132 186.097 251.978 185.664 251.978C185.455 251.978 185.287 252.026 185.158 252.121C185.03 252.213 184.966 252.338 184.966 252.495C184.966 252.638 185.025 252.765 185.142 252.875C185.259 252.981 185.479 253.117 185.802 253.282C186.253 253.513 186.579 253.764 186.781 254.035C186.983 254.307 187.083 254.618 187.083 254.97ZM190.642 257.11C189.905 257.11 189.338 256.914 188.942 256.521C188.55 256.125 188.354 255.568 188.354 254.849C188.354 254.072 188.49 253.366 188.761 252.732C189.036 252.094 189.421 251.602 189.916 251.258C190.411 250.909 190.976 250.735 191.61 250.735C192.277 250.735 192.879 250.867 193.414 251.131L192.908 252.391C192.71 252.307 192.516 252.233 192.325 252.171C192.134 252.109 191.918 252.077 191.676 252.077C191.364 252.077 191.082 252.195 190.829 252.429C190.58 252.664 190.384 252.987 190.241 253.397C190.101 253.804 190.032 254.243 190.032 254.712C190.032 255.064 190.114 255.33 190.279 255.509C190.448 255.685 190.681 255.773 190.978 255.773C191.256 255.773 191.515 255.731 191.753 255.647C191.991 255.559 192.237 255.451 192.49 255.322V256.675C191.933 256.965 191.317 257.11 190.642 257.11ZM195.075 249.41C195.075 249.091 195.161 248.851 195.334 248.689C195.51 248.524 195.757 248.442 196.076 248.442C196.344 248.442 196.547 248.499 196.687 248.612C196.826 248.726 196.896 248.889 196.896 249.102C196.896 249.395 196.815 249.633 196.654 249.817C196.492 249.996 196.243 250.086 195.906 250.086C195.352 250.086 195.075 249.861 195.075 249.41ZM195.163 257H193.508L194.811 250.851H196.467L195.163 257ZM201.12 250.735C201.655 250.735 202.077 250.933 202.385 251.329C202.697 251.722 202.852 252.272 202.852 252.979C202.852 253.68 202.726 254.354 202.473 255.003C202.224 255.649 201.881 256.162 201.444 256.543C201.008 256.921 200.528 257.11 200.003 257.11C199.699 257.11 199.437 257.042 199.217 256.906C198.997 256.771 198.793 256.54 198.606 256.213H198.562C198.518 256.796 198.439 257.337 198.326 257.836L197.93 259.706H196.274L198.155 250.851H199.42L199.327 251.786H199.376C199.882 251.085 200.464 250.735 201.12 250.735ZM200.454 252.077C200.205 252.077 199.963 252.202 199.728 252.451C199.497 252.697 199.31 253.027 199.167 253.441C199.028 253.852 198.958 254.307 198.958 254.805C198.958 255.099 199.026 255.333 199.162 255.509C199.297 255.685 199.484 255.773 199.723 255.773C199.968 255.773 200.203 255.647 200.427 255.394C200.651 255.141 200.83 254.794 200.966 254.354C201.105 253.911 201.175 253.474 201.175 253.045C201.175 252.4 200.935 252.077 200.454 252.077ZM205.13 249.41C205.13 249.091 205.216 248.851 205.388 248.689C205.564 248.524 205.812 248.442 206.131 248.442C206.398 248.442 206.602 248.499 206.741 248.612C206.88 248.726 206.95 248.889 206.95 249.102C206.95 249.395 206.869 249.633 206.708 249.817C206.547 249.996 206.297 250.086 205.96 250.086C205.406 250.086 205.13 249.861 205.13 249.41ZM205.218 257H203.562L204.865 250.851H206.521L205.218 257ZM212.076 257H210.421L211.174 253.408C211.233 253.159 211.262 252.941 211.262 252.754C211.262 252.303 211.064 252.077 210.668 252.077C210.331 252.077 210.025 252.286 209.75 252.704C209.475 253.122 209.258 253.705 209.101 254.453L208.562 257H206.906L208.21 250.851H209.475L209.359 251.989H209.392C209.927 251.153 210.578 250.735 211.345 250.735C211.851 250.735 212.241 250.889 212.516 251.197C212.795 251.502 212.934 251.938 212.934 252.506C212.934 252.774 212.892 253.104 212.808 253.496L212.076 257ZM215.745 257.11C215.206 257.11 214.78 256.916 214.469 256.527C214.161 256.135 214.007 255.586 214.007 254.882C214.007 254.156 214.139 253.465 214.403 252.809C214.667 252.149 215.013 251.639 215.442 251.28C215.871 250.917 216.343 250.735 216.856 250.735C217.212 250.735 217.518 250.812 217.774 250.966C218.035 251.12 218.236 251.344 218.379 251.637H218.423L218.737 250.851H220.013L218.704 257H217.444L217.521 256.202H217.499C217.008 256.807 216.423 257.11 215.745 257.11ZM216.394 255.773C216.647 255.773 216.891 255.651 217.125 255.405C217.36 255.159 217.549 254.827 217.692 254.409C217.835 253.988 217.906 253.511 217.906 252.979C217.906 252.719 217.835 252.505 217.692 252.336C217.553 252.164 217.367 252.077 217.136 252.077C216.887 252.077 216.649 252.209 216.421 252.473C216.198 252.737 216.018 253.086 215.882 253.518C215.75 253.951 215.684 254.38 215.684 254.805C215.684 255.128 215.745 255.37 215.866 255.531C215.991 255.693 216.167 255.773 216.394 255.773ZM222.362 254.332H221.036L221.9 248.959H223.77L222.362 254.332ZM220.349 256.367C220.349 256.037 220.446 255.773 220.64 255.575C220.838 255.377 221.115 255.278 221.471 255.278C221.72 255.278 221.92 255.348 222.07 255.487C222.22 255.627 222.296 255.823 222.296 256.076C222.296 256.395 222.195 256.653 221.993 256.851C221.791 257.05 221.527 257.149 221.201 257.149C220.933 257.149 220.724 257.081 220.574 256.945C220.424 256.806 220.349 256.613 220.349 256.367Z" fill="white"/>
<path d="M50 229.952V230.714H37V229.952L38.4444 228.429V223.857C38.4444 221.495 39.9106 219.415 42.0556 218.745C42.0556 218.669 42.0556 218.6 42.0556 218.524C42.0556 218.12 42.2077 217.732 42.4786 217.446C42.7495 217.161 43.1169 217 43.5 217C43.8831 217 44.2505 217.161 44.5214 217.446C44.7923 217.732 44.9444 218.12 44.9444 218.524C44.9444 218.6 44.9444 218.669 44.9444 218.745C47.0894 219.415 48.5556 221.495 48.5556 223.857V228.429L50 229.952ZM44.9444 231.476C44.9444 231.88 44.7923 232.268 44.5214 232.554C44.2505 232.839 43.8831 233 43.5 233C43.1169 233 42.7495 232.839 42.4786 232.554C42.2077 232.268 42.0556 231.88 42.0556 231.476" fill="#848484"/>
<rect x="26" y="202" width="323" height="106" rx="10" fill="#0E0718"/>
<path d="M64.2915 230L65.9911 221.959H67.6741L66.2661 228.592H69.0822L68.7852 230H64.2915ZM74.6263 230H70.1327L71.8323 221.959H76.3314L76.0344 223.356H73.2183L72.8498 225.121H75.4734L75.1709 226.518H72.5473L72.1073 228.592H74.9234L74.6263 230ZM80.5555 227.97L83.5861 221.959H85.9127L84.2132 230H82.6731L83.4706 226.194C83.665 225.288 83.8575 224.48 84.0482 223.768H84.0207L80.8911 230H79.3455L79.01 223.768H78.988C78.9477 224.091 78.878 224.514 78.779 225.039C78.68 225.563 78.3371 227.217 77.7505 230H76.2379L77.9375 221.959H80.1595L80.5335 227.97H80.5555ZM90.1919 221.959C91.0316 221.959 91.6659 222.109 92.0949 222.41C92.5239 222.707 92.7384 223.152 92.7384 223.746C92.7384 224.296 92.5863 224.751 92.2819 225.11C91.9776 225.466 91.5449 225.703 90.9839 225.82V225.853C91.3506 225.948 91.6421 226.126 91.8584 226.386C92.0784 226.643 92.1884 226.973 92.1884 227.376C92.1884 228.216 91.9079 228.863 91.3469 229.318C90.7859 229.773 90.0104 230 89.0203 230H86.1492L87.8488 221.959H90.1919ZM88.8553 225.143H89.6748C90.1185 225.143 90.4504 225.055 90.6704 224.879C90.894 224.7 91.0059 224.443 91.0059 224.109C91.0059 223.607 90.6942 223.356 90.0709 223.356H89.2348L88.8553 225.143ZM88.1238 228.592H89.1138C89.5428 228.592 89.8783 228.486 90.1204 228.273C90.366 228.06 90.4889 227.765 90.4889 227.387C90.4889 226.793 90.1534 226.496 89.4823 226.496H88.5748L88.1238 228.592ZM95.758 225.528H96.1871C96.6674 225.528 97.0414 225.424 97.3091 225.215C97.5768 225.006 97.7106 224.687 97.7106 224.258C97.7106 223.957 97.6226 223.732 97.4466 223.581C97.2743 223.431 97.0011 223.356 96.6271 223.356H96.2201L95.758 225.528ZM95.4665 226.914L94.812 230H93.1345L94.834 221.959H96.8086C97.6776 221.959 98.3303 222.146 98.7666 222.52C99.203 222.894 99.4212 223.442 99.4212 224.164C99.4212 224.744 99.269 225.242 98.9646 225.66C98.6603 226.075 98.2221 226.383 97.6501 226.584L99.0856 230H97.2596L96.1211 226.914H95.4665ZM104.492 230H99.9987L101.698 221.959H106.197L105.9 223.356H103.084L102.716 225.121H105.339L105.037 226.518H102.413L101.973 228.592H104.789L104.492 230ZM108.953 230H107.275L108.672 223.378H106.736L107.039 221.959H112.594L112.292 223.378H110.35L108.953 230ZM116.582 230H112.088L113.788 221.959H118.287L117.99 223.356H115.174L114.805 225.121H117.429L117.126 226.518H114.503L114.063 228.592H116.879L116.582 230Z" fill="#848484"/>
<path d="M40.1406 257H38.463L39.8601 250.378H37.924L38.2265 248.959H43.7817L43.4792 250.378H41.5376L40.1406 257ZM44.7553 249.41C44.7553 249.091 44.8414 248.851 45.0138 248.689C45.1898 248.524 45.4373 248.442 45.7563 248.442C46.024 248.442 46.2275 248.499 46.3668 248.612C46.5061 248.726 46.5758 248.889 46.5758 249.102C46.5758 249.395 46.4951 249.633 46.3338 249.817C46.1725 249.996 45.9231 250.086 45.5858 250.086C45.0321 250.086 44.7553 249.861 44.7553 249.41ZM44.8433 257H43.1877L44.4912 250.851H46.1468L44.8433 257ZM50.9595 250.735C51.1758 250.735 51.3518 250.755 51.4875 250.796L51.1245 252.391C50.9595 252.332 50.7761 252.303 50.5744 252.303C50.1491 252.303 49.7751 252.472 49.4524 252.809C49.1334 253.143 48.9061 253.623 48.7704 254.25L48.1874 257H46.5318L47.8354 250.851H49.1004L48.9849 251.989H49.0179C49.5569 251.153 50.2041 250.735 50.9595 250.735ZM53.3025 257.11C52.7635 257.11 52.3382 256.916 52.0265 256.527C51.7185 256.135 51.5645 255.586 51.5645 254.882C51.5645 254.156 51.6965 253.465 51.9605 252.809C52.2245 252.149 52.571 251.639 53 251.28C53.429 250.917 53.9002 250.735 54.4136 250.735C54.7692 250.735 55.0754 250.812 55.3321 250.966C55.5924 251.12 55.7941 251.344 55.9371 251.637H55.9811L56.2946 250.851H57.5707L56.2616 257H55.0021L55.0791 256.202H55.0571C54.5657 256.807 53.9809 257.11 53.3025 257.11ZM53.9516 255.773C54.2046 255.773 54.4484 255.651 54.6831 255.405C54.9178 255.159 55.1066 254.827 55.2496 254.409C55.3926 253.988 55.4641 253.511 55.4641 252.979C55.4641 252.719 55.3926 252.505 55.2496 252.336C55.1103 252.164 54.9251 252.077 54.6941 252.077C54.4447 252.077 54.2064 252.209 53.9791 252.473C53.7554 252.737 53.5757 253.086 53.44 253.518C53.308 253.951 53.242 254.38 53.242 254.805C53.242 255.128 53.3025 255.37 53.4235 255.531C53.5482 255.693 53.7242 255.773 53.9516 255.773ZM62.3998 250.735C62.6162 250.735 62.7922 250.755 62.9278 250.796L62.5648 252.391C62.3998 252.332 62.2165 252.303 62.0148 252.303C61.5895 252.303 61.2155 252.472 60.8928 252.809C60.5738 253.143 60.3464 253.623 60.2108 254.25L59.6277 257H57.9722L59.2757 250.851H60.5408L60.4253 251.989H60.4583C60.9973 251.153 61.6445 250.735 62.3998 250.735ZM69.8636 253.172C69.8636 252.45 69.6014 252.088 69.0771 252.088C68.802 252.088 68.5545 252.2 68.3345 252.424C68.1182 252.648 67.9403 252.976 67.801 253.408C67.6653 253.841 67.5975 254.287 67.5975 254.745C67.5975 255.423 67.8725 255.762 68.4225 255.762C68.6975 255.762 68.945 255.651 69.1651 255.427C69.3851 255.2 69.5556 254.886 69.6766 254.486C69.8012 254.083 69.8636 253.645 69.8636 253.172ZM71.5301 253.172C71.5301 253.946 71.4 254.631 71.1396 255.229C70.8829 255.827 70.5108 256.29 70.0231 256.62C69.5354 256.947 68.956 257.11 68.285 257.11C67.57 257.11 66.998 256.895 66.569 256.466C66.1436 256.034 65.9309 255.46 65.9309 254.745C65.9309 253.964 66.0611 253.269 66.3215 252.66C66.5855 252.048 66.965 251.575 67.46 251.241C67.955 250.904 68.5344 250.735 69.1981 250.735C69.9167 250.735 70.4851 250.952 70.9031 251.384C71.3211 251.817 71.5301 252.413 71.5301 253.172ZM76.8103 257H75.1548L76.9698 248.442H78.6254L76.8103 257ZM80.0664 249.41C80.0664 249.091 80.1526 248.851 80.3249 248.689C80.5009 248.524 80.7484 248.442 81.0674 248.442C81.3351 248.442 81.5386 248.499 81.678 248.612C81.8173 248.726 81.887 248.889 81.887 249.102C81.887 249.395 81.8063 249.633 81.645 249.817C81.4836 249.996 81.2343 250.086 80.8969 250.086C80.3433 250.086 80.0664 249.861 80.0664 249.41ZM80.1544 257H78.4989L79.8024 250.851H81.458L80.1544 257ZM83.724 253.848L82.4865 250.851H84.252L84.8846 252.688L86.2266 250.851H88.1737L85.6051 253.936L86.9471 257H85.1541L84.4666 255.119L83.0145 257H81.0894L83.724 253.848ZM92.0513 253.172C92.0513 252.45 91.7891 252.088 91.2648 252.088C90.9898 252.088 90.7423 252.2 90.5223 252.424C90.3059 252.648 90.1281 252.976 89.9887 253.408C89.8531 253.841 89.7852 254.287 89.7852 254.745C89.7852 255.423 90.0602 255.762 90.6103 255.762C90.8853 255.762 91.1328 255.651 91.3528 255.427C91.5728 255.2 91.7433 254.886 91.8643 254.486C91.989 254.083 92.0513 253.645 92.0513 253.172ZM93.7179 253.172C93.7179 253.946 93.5877 254.631 93.3273 255.229C93.0707 255.827 92.6985 256.29 92.2108 256.62C91.7231 256.947 91.1438 257.11 90.4728 257.11C89.7577 257.11 89.1857 256.895 88.7567 256.466C88.3313 256.034 88.1187 255.46 88.1187 254.745C88.1187 253.964 88.2488 253.269 88.5092 252.66C88.7732 252.048 89.1527 251.575 89.6477 251.241C90.1427 250.904 90.7221 250.735 91.3858 250.735C92.1045 250.735 92.6728 250.952 93.0908 251.384C93.5089 251.817 93.7179 252.413 93.7179 253.172ZM101.611 250.735C102.146 250.735 102.568 250.933 102.876 251.329C103.187 251.722 103.343 252.272 103.343 252.979C103.343 253.68 103.217 254.354 102.964 255.003C102.714 255.649 102.371 256.162 101.935 256.543C101.499 256.921 101.018 257.11 100.494 257.11C100.19 257.11 99.9276 257.042 99.7076 256.906C99.4875 256.771 99.284 256.54 99.097 256.213H99.053C99.009 256.796 98.9302 257.337 98.8165 257.836L98.4205 259.706H96.765L98.646 250.851H99.9111L99.8176 251.786H99.8671C100.373 251.085 100.954 250.735 101.611 250.735ZM100.945 252.077C100.696 252.077 100.454 252.202 100.219 252.451C99.9881 252.697 99.8011 253.027 99.6581 253.441C99.5187 253.852 99.449 254.307 99.449 254.805C99.449 255.099 99.5169 255.333 99.6526 255.509C99.7882 255.685 99.9752 255.773 100.214 255.773C100.459 255.773 100.694 255.647 100.918 255.394C101.141 255.141 101.321 254.794 101.457 254.354C101.596 253.911 101.666 253.474 101.666 253.045C101.666 252.4 101.425 252.077 100.945 252.077ZM106.082 257.11C105.543 257.11 105.118 256.916 104.806 256.527C104.498 256.135 104.344 255.586 104.344 254.882C104.344 254.156 104.476 253.465 104.74 252.809C105.004 252.149 105.351 251.639 105.78 251.28C106.209 250.917 106.68 250.735 107.193 250.735C107.549 250.735 107.855 250.812 108.112 250.966C108.372 251.12 108.574 251.344 108.717 251.637H108.761L109.074 250.851H110.35L109.041 257H107.782L107.859 256.202H107.837C107.345 256.807 106.761 257.11 106.082 257.11ZM106.731 255.773C106.984 255.773 107.228 255.651 107.463 255.405C107.697 255.159 107.886 254.827 108.029 254.409C108.172 253.988 108.244 253.511 108.244 252.979C108.244 252.719 108.172 252.505 108.029 252.336C107.89 252.164 107.705 252.077 107.474 252.077C107.224 252.077 106.986 252.209 106.759 252.473C106.535 252.737 106.355 253.086 106.22 253.518C106.088 253.951 106.022 254.38 106.022 254.805C106.022 255.128 106.082 255.37 106.203 255.531C106.328 255.693 106.504 255.773 106.731 255.773ZM115.18 250.735C115.396 250.735 115.572 250.755 115.708 250.796L115.345 252.391C115.18 252.332 114.996 252.303 114.795 252.303C114.369 252.303 113.995 252.472 113.673 252.809C113.354 253.143 113.126 253.623 112.99 254.25L112.407 257H110.752L112.055 250.851H113.32L113.205 251.989H113.238C113.777 251.153 114.424 250.735 115.18 250.735ZM117.523 257.11C116.984 257.11 116.558 256.916 116.247 256.527C115.939 256.135 115.785 255.586 115.785 254.882C115.785 254.156 115.917 253.465 116.181 252.809C116.445 252.149 116.791 251.639 117.22 251.28C117.649 250.917 118.12 250.735 118.634 250.735C118.989 250.735 119.296 250.812 119.552 250.966C119.813 251.12 120.014 251.344 120.157 251.637H120.201L120.515 250.851H121.791L120.482 257H119.222L119.299 256.202H119.277C118.786 256.807 118.201 257.11 117.523 257.11ZM118.172 255.773C118.425 255.773 118.669 255.651 118.903 255.405C119.138 255.159 119.327 254.827 119.47 254.409C119.613 253.988 119.684 253.511 119.684 252.979C119.684 252.719 119.613 252.505 119.47 252.336C119.33 252.164 119.145 252.077 118.914 252.077C118.665 252.077 118.427 252.209 118.199 252.473C117.975 252.737 117.796 253.086 117.66 253.518C117.528 253.951 117.462 254.38 117.462 254.805C117.462 255.128 117.523 255.37 117.644 255.531C117.768 255.693 117.944 255.773 118.172 255.773ZM124.667 259.706C124.286 259.706 123.967 259.66 123.71 259.569V258.238C123.934 258.315 124.145 258.353 124.343 258.353C124.567 258.353 124.763 258.28 124.931 258.133C125.1 257.986 125.219 257.748 125.289 257.418L126.411 252.11H125.514L125.679 251.313L126.686 250.851L126.785 250.389C126.935 249.692 127.188 249.184 127.544 248.865C127.903 248.543 128.406 248.381 129.051 248.381C129.531 248.381 129.962 248.471 130.344 248.651L129.904 249.883C129.651 249.769 129.407 249.712 129.172 249.712C128.963 249.712 128.794 249.786 128.666 249.932C128.538 250.079 128.451 250.271 128.407 250.51L128.341 250.851H129.546L129.277 252.11H128.066L126.884 257.666C126.602 259.026 125.863 259.706 124.667 259.706ZM133.545 253.172C133.545 252.45 133.282 252.088 132.758 252.088C132.483 252.088 132.236 252.2 132.016 252.424C131.799 252.648 131.621 252.976 131.482 253.408C131.346 253.841 131.279 254.287 131.279 254.745C131.279 255.423 131.554 255.762 132.104 255.762C132.379 255.762 132.626 255.651 132.846 255.427C133.066 255.2 133.237 254.886 133.358 254.486C133.482 254.083 133.545 253.645 133.545 253.172ZM135.211 253.172C135.211 253.946 135.081 254.631 134.821 255.229C134.564 255.827 134.192 256.29 133.704 256.62C133.216 256.947 132.637 257.11 131.966 257.11C131.251 257.11 130.679 256.895 130.25 256.466C129.825 256.034 129.612 255.46 129.612 254.745C129.612 253.964 129.742 253.269 130.003 252.66C130.267 252.048 130.646 251.575 131.141 251.241C131.636 250.904 132.215 250.735 132.879 250.735C133.598 250.735 134.166 250.952 134.584 251.384C135.002 251.817 135.211 252.413 135.211 253.172ZM140.337 250.735C140.554 250.735 140.73 250.755 140.865 250.796L140.502 252.391C140.337 252.332 140.154 252.303 139.952 252.303C139.527 252.303 139.153 252.472 138.83 252.809C138.511 253.143 138.284 253.623 138.148 254.25L137.565 257H135.91L137.213 250.851H138.478L138.363 251.989H138.396C138.935 251.153 139.582 250.735 140.337 250.735ZM142.68 257.11C142.141 257.11 141.716 256.916 141.404 256.527C141.096 256.135 140.942 255.586 140.942 254.882C140.942 254.156 141.074 253.465 141.338 252.809C141.602 252.149 141.949 251.639 142.378 251.28C142.807 250.917 143.278 250.735 143.791 250.735C144.147 250.735 144.453 250.812 144.71 250.966C144.97 251.12 145.172 251.344 145.315 251.637H145.359L145.673 250.851H146.949L145.64 257H144.38L144.457 256.202H144.435C143.944 256.807 143.359 257.11 142.68 257.11ZM143.329 255.773C143.582 255.773 143.826 255.651 144.061 255.405C144.296 255.159 144.485 254.827 144.628 254.409C144.771 253.988 144.842 253.511 144.842 252.979C144.842 252.719 144.771 252.505 144.628 252.336C144.488 252.164 144.303 252.077 144.072 252.077C143.823 252.077 143.584 252.209 143.357 252.473C143.133 252.737 142.954 253.086 142.818 253.518C142.686 253.951 142.62 254.38 142.62 254.805C142.62 255.128 142.68 255.37 142.801 255.531C142.926 255.693 143.102 255.773 143.329 255.773ZM147.284 256.367C147.284 256.037 147.381 255.773 147.576 255.575C147.774 255.377 148.05 255.278 148.406 255.278C148.655 255.278 148.855 255.348 149.006 255.487C149.156 255.627 149.231 255.823 149.231 256.076C149.231 256.395 149.13 256.653 148.929 256.851C148.727 257.05 148.463 257.149 148.137 257.149C147.869 257.149 147.66 257.081 147.51 256.945C147.359 256.806 147.284 256.613 147.284 256.367ZM150.496 256.367C150.496 256.037 150.593 255.773 150.788 255.575C150.986 255.377 151.263 255.278 151.618 255.278C151.868 255.278 152.067 255.348 152.218 255.487C152.368 255.627 152.443 255.823 152.443 256.076C152.443 256.395 152.342 256.653 152.141 256.851C151.939 257.05 151.675 257.149 151.349 257.149C151.081 257.149 150.872 257.081 150.722 256.945C150.571 256.806 150.496 256.613 150.496 256.367ZM153.708 256.367C153.708 256.037 153.805 255.773 154 255.575C154.198 255.377 154.475 255.278 154.83 255.278C155.08 255.278 155.28 255.348 155.43 255.487C155.58 255.627 155.655 255.823 155.655 256.076C155.655 256.395 155.555 256.653 155.353 256.851C155.151 257.05 154.887 257.149 154.561 257.149C154.293 257.149 154.084 257.081 153.934 256.945C153.783 256.806 153.708 256.613 153.708 256.367Z" fill="white"/>
<path d="M50 229.952V230.714H37V229.952L38.4444 228.429V223.857C38.4444 221.495 39.9106 219.415 42.0556 218.745C42.0556 218.669 42.0556 218.6 42.0556 218.524C42.0556 218.12 42.2077 217.732 42.4786 217.446C42.7495 217.161 43.1169 217 43.5 217C43.8831 217 44.2505 217.161 44.5214 217.446C44.7923 217.732 44.9444 218.12 44.9444 218.524C44.9444 218.6 44.9444 218.669 44.9444 218.745C47.0894 219.415 48.5556 221.495 48.5556 223.857V228.429L50 229.952ZM44.9444 231.476C44.9444 231.88 44.7923 232.268 44.5214 232.554C44.2505 232.839 43.8831 233 43.5 233C43.1169 233 42.7495 232.839 42.4786 232.554C42.2077 232.268 42.0556 231.88 42.0556 231.476" fill="#848484"/>
</svg>
