<svg width="375" height="667" viewBox="0 0 375 667" fill="none" xmlns="http://www.w3.org/2000/svg">
<rect width="375" height="667" rx="15" fill="#0E0718"/>
<path d="M205.417 416.5C205.417 426.395 197.395 434.417 187.5 434.417C177.605 434.417 169.583 426.395 169.583 416.5C169.583 406.605 177.605 398.583 187.5 398.583C197.395 398.583 205.417 406.605 205.417 416.5ZM175.854 416.5C175.854 422.932 181.068 428.146 187.5 428.146C193.932 428.146 199.146 422.932 199.146 416.5C199.146 410.068 193.932 404.854 187.5 404.854C181.068 404.854 175.854 410.068 175.854 416.5Z" fill="url(#paint0_angular_310_79)"/>
<path d="M187.5 398.584C189.853 398.584 192.183 399.048 194.356 399.948C196.53 400.849 198.505 402.168 200.169 403.832C201.833 405.496 203.152 407.471 204.053 409.645C204.953 411.818 205.417 414.148 205.417 416.501H199.146C199.146 414.972 198.844 413.457 198.259 412.044C197.674 410.631 196.816 409.348 195.735 408.266C194.653 407.185 193.369 406.327 191.957 405.742C190.544 405.156 189.029 404.855 187.5 404.855L187.5 398.584Z" fill="url(#paint1_angular_310_79)"/>
<path d="M172 277.5V287.833H161.667V277.5H172ZM192.667 277.5V287.833H182.333V277.5H192.667ZM213.333 277.5V287.833H203V277.5H213.333ZM223.667 241.333C226.407 241.333 229.036 242.422 230.973 244.36C232.911 246.298 234 248.926 234 251.667V324C234 326.741 232.911 329.369 230.973 331.307C229.036 333.245 226.407 334.333 223.667 334.333H151.333C145.598 334.333 141 329.683 141 324V251.667C141 248.926 142.089 246.298 144.027 244.36C145.964 242.422 148.593 241.333 151.333 241.333H156.5V231H166.833V241.333H208.167V231H218.5V241.333H223.667ZM223.667 324V267.167H151.333V324H223.667ZM172 298.167V308.5H161.667V298.167H172ZM192.667 298.167V308.5H182.333V298.167H192.667ZM213.333 298.167V308.5H203V298.167H213.333Z" fill="#1ADBCF"/>
<defs>
<radialGradient id="paint0_angular_310_79" cx="0" cy="0" r="1" gradientUnits="userSpaceOnUse" gradientTransform="translate(187.5 416.5) scale(17.9167)">
<stop offset="0.9999" stop-color="#1ADBCF"/>
<stop offset="1" stop-color="#00AFAA" stop-opacity="0.01"/>
</radialGradient>
<radialGradient id="paint1_angular_310_79" cx="0" cy="0" r="1" gradientUnits="userSpaceOnUse" gradientTransform="translate(187.5 416.501) rotate(-90) scale(17.9167)">
<stop offset="0.9999" stop-color="#1ADBCF"/>
<stop offset="1" stop-color="#00AFAA" stop-opacity="0.01"/>
</radialGradient>
</defs>
</svg>
