<svg width="248" height="110" viewBox="0 0 248 110" fill="none" xmlns="http://www.w3.org/2000/svg">
<path d="M201.86 0C207.979 0 213.847 2.43056 218.173 6.75698C222.5 11.0834 224.93 16.9513 224.93 23.0698C224.93 29.1883 222.5 35.0562 218.173 39.3826C213.847 43.709 207.979 46.1396 201.86 46.1396C195.742 46.1396 189.874 43.709 185.548 39.3826C181.221 35.0562 178.791 29.1883 178.791 23.0698C178.791 16.9513 181.221 11.0834 185.548 6.75698C189.874 2.43056 195.742 0 201.86 0V0ZM201.86 57.6745C227.353 57.6745 248 67.9982 248 80.7443V92.2792H155.721V80.7443C155.721 67.9982 176.368 57.6745 201.86 57.6745Z" fill="#6615B1"/>
<path d="M46.1395 0C52.258 0 58.1259 2.43056 62.4523 6.75698C66.7788 11.0834 69.2093 16.9513 69.2093 23.0698C69.2093 29.1883 66.7788 35.0562 62.4523 39.3826C58.1259 43.709 52.258 46.1396 46.1395 46.1396C40.0211 46.1396 34.1532 43.709 29.8268 39.3826C25.5003 35.0562 23.0698 29.1883 23.0698 23.0698C23.0698 16.9513 25.5003 11.0834 29.8268 6.75698C34.1532 2.43056 40.0211 0 46.1395 0V0ZM46.1395 57.6745C71.6316 57.6745 92.2791 67.9982 92.2791 80.7443V92.2792H0V80.7443C0 67.9982 20.6474 57.6745 46.1395 57.6745Z" fill="#6615B1"/>
<path d="M92.2791 5.76746C98.3975 5.76746 104.265 8.19801 108.592 12.5244C112.918 16.8509 115.349 22.7187 115.349 28.8372C115.349 34.9557 112.918 40.8236 108.592 45.15C104.265 49.4764 98.3975 51.907 92.2791 51.907C86.1606 51.907 80.2927 49.4764 75.9663 45.15C71.6398 40.8236 69.2093 34.9557 69.2093 28.8372C69.2093 22.7187 71.6398 16.8509 75.9663 12.5244C80.2927 8.19801 86.1606 5.76746 92.2791 5.76746V5.76746ZM92.2791 63.4419C117.771 63.4419 138.419 73.7656 138.419 86.5117V98.0465H46.1395V86.5117C46.1395 73.7656 66.787 63.4419 92.2791 63.4419Z" fill="#8A2BE2"/>
<path d="M161.488 5.76746C167.607 5.76746 173.475 8.19801 177.801 12.5244C182.128 16.8509 184.558 22.7187 184.558 28.8372C184.558 34.9557 182.128 40.8236 177.801 45.15C173.475 49.4764 167.607 51.907 161.488 51.907C155.37 51.907 149.502 49.4764 145.176 45.15C140.849 40.8236 138.419 34.9557 138.419 28.8372C138.419 22.7187 140.849 16.8509 145.176 12.5244C149.502 8.19801 155.37 5.76746 161.488 5.76746V5.76746ZM161.488 63.4419C186.98 63.4419 207.628 73.7656 207.628 86.5117V98.0465H115.349V86.5117C115.349 73.7656 135.996 63.4419 161.488 63.4419Z" fill="#8A2BE2"/>
<path d="M126.884 17.3023C133.002 17.3023 138.87 19.7329 143.197 24.0593C147.523 28.3857 149.954 34.2536 149.954 40.3721C149.954 46.4906 147.523 52.3585 143.197 56.6849C138.87 61.0113 133.002 63.4419 126.884 63.4419C120.765 63.4419 114.897 61.0113 110.571 56.6849C106.245 52.3585 103.814 46.4906 103.814 40.3721C103.814 34.2536 106.245 28.3857 110.571 24.0593C114.897 19.7329 120.765 17.3023 126.884 17.3023V17.3023ZM126.884 74.9768C152.376 74.9768 173.023 85.3005 173.023 98.0466V109.581H80.7443V98.0466C80.7443 85.3005 101.392 74.9768 126.884 74.9768Z" fill="#B77AEF"/>
</svg>
