<svg width="375" height="667" viewBox="0 0 375 667" fill="none" xmlns="http://www.w3.org/2000/svg">
<rect width="375" height="667" rx="15" fill="#0E0718"/>
<line x1="25" y1="31" x2="48" y2="31" stroke="#1ADBCF" stroke-width="2" stroke-linecap="round"/>
<path d="M25 36H48M25 41H48" stroke="#1ADBCF" stroke-width="2" stroke-linecap="round"/>
<path d="M86.9199 34.123C86.9199 35.946 86.6009 37.5312 85.9629 38.8789C85.3249 40.2201 84.4004 41.2422 83.1895 41.9453C81.985 42.6484 80.5625 43 78.9219 43H74.5176L77.5352 28.7227H81.4023C83.1602 28.7227 84.5176 29.1882 85.4746 30.1191C86.4382 31.0501 86.9199 32.3848 86.9199 34.123ZM79.0586 40.5C80.0221 40.5 80.862 40.2526 81.5781 39.7578C82.2943 39.263 82.8542 38.5371 83.2578 37.5801C83.6615 36.6165 83.8633 35.5163 83.8633 34.2793C83.8633 33.2767 83.6257 32.515 83.1504 31.9941C82.6816 31.4668 82.0046 31.2031 81.1191 31.2031H79.9961L78.0234 40.5H79.0586ZM88.0527 43L91.0996 28.7227H94.0781L91.0312 43H88.0527ZM103.219 38.7812C103.219 40.1419 102.737 41.2194 101.773 42.0137C100.81 42.8014 99.5046 43.1953 97.8574 43.1953C96.4186 43.1953 95.2598 42.9023 94.3809 42.3164V39.6406C95.6374 40.3438 96.8027 40.6953 97.877 40.6953C98.6061 40.6953 99.1758 40.5586 99.5859 40.2852C99.9961 40.0052 100.201 39.6243 100.201 39.1426C100.201 38.8626 100.156 38.6185 100.064 38.4102C99.9798 38.1953 99.8561 37.9967 99.6934 37.8145C99.5306 37.6322 99.127 37.3001 98.4824 36.8184C97.584 36.1738 96.9525 35.5358 96.5879 34.9043C96.2233 34.2728 96.041 33.5924 96.041 32.8633C96.041 32.0234 96.2428 31.2747 96.6465 30.6172C97.0501 29.9531 97.623 29.4388 98.3652 29.0742C99.1139 28.7031 99.9733 28.5176 100.943 28.5176C102.356 28.5176 103.648 28.8398 104.82 29.4844L103.756 31.7598C102.74 31.278 101.803 31.0371 100.943 31.0371C100.403 31.0371 99.9603 31.1836 99.6152 31.4766C99.2702 31.7695 99.0977 32.1569 99.0977 32.6387C99.0977 33.0358 99.2051 33.3841 99.4199 33.6836C99.6348 33.9766 100.117 34.3672 100.865 34.8555C101.653 35.3763 102.242 35.9525 102.633 36.584C103.023 37.209 103.219 37.9414 103.219 38.7812ZM113.424 31.0176C112.564 31.0176 111.79 31.2812 111.1 31.8086C110.416 32.3359 109.866 33.1139 109.449 34.1426C109.033 35.1647 108.824 36.265 108.824 37.4434C108.824 38.5306 109.046 39.3379 109.488 39.8652C109.938 40.3926 110.65 40.6562 111.627 40.6562C112.577 40.6562 113.678 40.4056 114.928 39.9043V42.4434C113.632 42.9447 112.33 43.1953 111.021 43.1953C109.368 43.1953 108.082 42.7103 107.164 41.7402C106.246 40.7637 105.787 39.3835 105.787 37.5996C105.787 35.8939 106.126 34.3249 106.803 32.8926C107.48 31.4538 108.385 30.3633 109.518 29.6211C110.65 28.8724 111.952 28.498 113.424 28.498C114.238 28.498 114.96 28.5729 115.592 28.7227C116.223 28.8659 116.9 29.1328 117.623 29.5234L116.471 31.9648C115.781 31.5807 115.211 31.3268 114.762 31.2031C114.312 31.0794 113.867 31.0176 113.424 31.0176ZM117.35 43L120.396 28.7227H123.375L120.328 43H117.35ZM128.375 35.4414H128.922C129.846 35.4414 130.572 35.2168 131.1 34.7676C131.633 34.3184 131.9 33.7161 131.9 32.9609C131.9 31.7891 131.266 31.2031 129.996 31.2031H129.273L128.375 35.4414ZM134.898 32.8828C134.898 34.4518 134.345 35.6855 133.238 36.584C132.138 37.4759 130.618 37.9219 128.678 37.9219H127.838L126.773 43H123.795L126.812 28.7227H130.113C131.689 28.7227 132.88 29.071 133.688 29.7676C134.495 30.4577 134.898 31.4961 134.898 32.8828ZM135.396 43L138.414 28.7227H141.402L138.902 40.5H143.902L143.375 43H135.396ZM145.768 43L148.814 28.7227H151.793L148.746 43H145.768ZM163.873 43H160.533L157.057 32.1992H156.998L156.959 32.5117C156.751 33.918 156.536 35.1745 156.314 36.2812L154.898 43H152.213L155.23 28.7227H158.717L162.037 39.2402H162.076C162.154 38.7454 162.281 38.0391 162.457 37.1211C162.633 36.2031 163.219 33.4036 164.215 28.7227H166.891L163.873 43ZM175.016 39.6016H170.396L168.717 43H165.592L173.072 28.6641H176.715L178.15 43H175.25L175.016 39.6016ZM174.869 37.0625L174.615 33.6445C174.55 32.7917 174.518 31.9681 174.518 31.1738V30.8223C174.231 31.6035 173.876 32.4303 173.453 33.3027L171.617 37.0625H174.869ZM188.59 38.7812C188.59 40.1419 188.108 41.2194 187.145 42.0137C186.181 42.8014 184.876 43.1953 183.229 43.1953C181.79 43.1953 180.631 42.9023 179.752 42.3164V39.6406C181.008 40.3438 182.174 40.6953 183.248 40.6953C183.977 40.6953 184.547 40.5586 184.957 40.2852C185.367 40.0052 185.572 39.6243 185.572 39.1426C185.572 38.8626 185.527 38.6185 185.436 38.4102C185.351 38.1953 185.227 37.9967 185.064 37.8145C184.902 37.6322 184.498 37.3001 183.854 36.8184C182.955 36.1738 182.324 35.5358 181.959 34.9043C181.594 34.2728 181.412 33.5924 181.412 32.8633C181.412 32.0234 181.614 31.2747 182.018 30.6172C182.421 29.9531 182.994 29.4388 183.736 29.0742C184.485 28.7031 185.344 28.5176 186.314 28.5176C187.727 28.5176 189.02 28.8398 190.191 29.4844L189.127 31.7598C188.111 31.278 187.174 31.0371 186.314 31.0371C185.774 31.0371 185.331 31.1836 184.986 31.4766C184.641 31.7695 184.469 32.1569 184.469 32.6387C184.469 33.0358 184.576 33.3841 184.791 33.6836C185.006 33.9766 185.488 34.3672 186.236 34.8555C187.024 35.3763 187.613 35.9525 188.004 36.584C188.395 37.209 188.59 37.9414 188.59 38.7812Z" fill="#1ADBCF"/>
<rect x="22" y="63" width="331" height="113" rx="15" fill="#433357"/>
<rect x="31" y="79" width="314" height="35" rx="5" fill="#0E0718"/>
<path d="M181.631 99.0859H179.03L178.084 101H176.323L180.537 92.9257H182.588L183.397 101H181.763L181.631 99.0859ZM181.549 97.6559L181.406 95.7308C181.369 95.2505 181.351 94.7866 181.351 94.3393V94.1413C181.189 94.5813 180.989 95.047 180.751 95.5383L179.717 97.6559H181.549ZM189.051 94.2513C188.567 94.2513 188.131 94.3998 187.742 94.6968C187.357 94.9938 187.047 95.432 186.812 96.0113C186.578 96.587 186.46 97.2067 186.46 97.8704C186.46 98.4828 186.585 98.9374 186.834 99.2344C187.087 99.5315 187.489 99.68 188.039 99.68C188.574 99.68 189.194 99.5388 189.898 99.2564V100.686C189.168 100.969 188.435 101.11 187.698 101.11C186.766 101.11 186.042 100.837 185.525 100.29C185.008 99.7405 184.75 98.9631 184.75 97.9584C184.75 96.9977 184.94 96.114 185.322 95.3073C185.703 94.497 186.213 93.8828 186.851 93.4648C187.489 93.0431 188.222 92.8322 189.051 92.8322C189.509 92.8322 189.916 92.8744 190.272 92.9587C190.628 93.0394 191.009 93.1897 191.416 93.4098L190.767 94.7848C190.378 94.5685 190.057 94.4255 189.804 94.3558C189.551 94.2861 189.3 94.2513 189.051 94.2513ZM195.756 101H191.262L192.962 92.9587H197.461L197.164 94.3558H194.348L193.979 96.1213H196.603L196.3 97.5184H193.677L193.237 99.592H196.053L195.756 101Z" fill="#848484"/>
<line x1="37.9983" y1="107.5" x2="336.998" y2="106.486" stroke="#848484"/>
<rect x="31" y="123" width="114" height="35" rx="5" fill="#0E0718"/>
<path d="M71.7852 145H67.2915L68.9911 136.959H73.4902L73.1932 138.356H70.3771L70.0086 140.121H72.6322L72.3297 141.518H69.7061L69.2661 143.592H72.0822L71.7852 145ZM73.3967 145L75.0963 136.959H76.7793L75.3713 143.592H78.1874L77.8904 145H73.3967ZM82.087 145H80.4094L81.8065 138.378H79.8704L80.1729 136.959H85.7281L85.4256 138.378H83.484L82.087 145ZM91.1733 145H89.4902L90.2273 141.529H87.6367L86.8997 145H85.2221L86.9217 136.959H88.6047L87.9392 140.11H90.5298L91.1953 136.959H92.8728L91.1733 145ZM100.694 139.841C100.694 140.879 100.513 141.808 100.15 142.629C99.7866 143.447 99.2897 144.065 98.659 144.483C98.0284 144.901 97.3023 145.11 96.481 145.11C95.5423 145.11 94.8089 144.84 94.2809 144.301C93.7565 143.759 93.4944 143.007 93.4944 142.046C93.4944 141.075 93.6759 140.182 94.0389 139.368C94.4019 138.55 94.9024 137.923 95.5404 137.487C96.1785 137.05 96.9155 136.832 97.7515 136.832C98.6865 136.832 99.4107 137.096 99.9241 137.624C100.437 138.152 100.694 138.891 100.694 139.841ZM97.614 138.251C97.1703 138.251 96.7633 138.42 96.393 138.757C96.0226 139.091 95.7311 139.551 95.5184 140.138C95.3094 140.725 95.2049 141.361 95.2049 142.046C95.2049 142.585 95.3259 142.992 95.5679 143.267C95.8136 143.542 96.1583 143.68 96.602 143.68C97.0457 143.68 97.449 143.52 97.812 143.201C98.1787 142.882 98.4647 142.431 98.67 141.848C98.8754 141.265 98.978 140.611 98.978 139.885C98.978 139.364 98.8589 138.963 98.6205 138.68C98.3822 138.394 98.0467 138.251 97.614 138.251ZM107.905 145H106.024L104.066 138.917H104.033L104.011 139.093C103.893 139.885 103.772 140.593 103.648 141.216L102.85 145H101.338L103.037 136.959H105.001L106.871 142.882H106.893C106.937 142.604 107.008 142.206 107.107 141.689C107.206 141.172 107.536 139.595 108.097 136.959H109.604L107.905 145Z" fill="#848484"/>
<line x1="38.9983" y1="150.839" x2="138.998" y2="150.5" stroke="#848484"/>
<path d="M54.2439 143.75C54.7096 143.75 55.1563 143.571 55.4857 143.252C55.815 142.933 56 142.501 56 142.05V132.7C56 132.249 55.815 131.817 55.4857 131.498C55.1563 131.179 54.7096 131 54.2439 131H44.9893C45.2966 131.519 45.4634 132.105 45.4634 132.7H54.2439V142.05H46.3415V143.75H54.2439ZM49.8537 135.25V136.95H44.5854V148H42.8293V142.9H41.0732V148H39.3171V141.2H38V136.95C38 136.499 38.185 136.067 38.5143 135.748C38.8437 135.429 39.2904 135.25 39.7561 135.25H49.8537ZM43.7073 132.7C43.7073 133.151 43.5223 133.583 43.193 133.902C42.8636 134.221 42.417 134.4 41.9512 134.4C41.4855 134.4 41.0388 134.221 40.7095 133.902C40.3801 133.583 40.1951 133.151 40.1951 132.7C40.1951 132.249 40.3801 131.817 40.7095 131.498C41.0388 131.179 41.4855 131 41.9512 131C42.417 131 42.8636 131.179 43.193 131.498C43.5223 131.817 43.7073 132.249 43.7073 132.7Z" fill="#848484"/>
<rect x="176" y="123" width="169" height="35" rx="5" fill="#0E0718"/>
<line y1="-0.5" x2="146.956" y2="-0.5" transform="matrix(0.999997 -0.00230668 0.00498151 0.999988 187.756 151.339)" stroke="#848484"/>
<path d="M221.374 145H219.718L220.472 141.408C220.53 141.159 220.56 140.941 220.56 140.754C220.56 140.303 220.362 140.077 219.966 140.077C219.628 140.077 219.322 140.286 219.047 140.704C218.772 141.122 218.556 141.705 218.398 142.453L217.859 145H216.204L218.019 136.442H219.674C219.531 137.105 219.421 137.615 219.344 137.971C219.267 138.326 219.109 138.893 218.871 139.67H218.915C219.142 139.388 219.395 139.162 219.674 138.994C219.953 138.821 220.275 138.735 220.642 138.735C221.148 138.735 221.539 138.889 221.814 139.197C222.092 139.502 222.232 139.938 222.232 140.506C222.232 140.774 222.19 141.104 222.105 141.496L221.374 145ZM225.636 143.773C225.875 143.773 226.172 143.709 226.527 143.581V144.818C226.12 145.013 225.633 145.11 225.064 145.11C224.514 145.11 224.109 144.994 223.849 144.763C223.592 144.532 223.464 144.175 223.464 143.691C223.464 143.508 223.486 143.302 223.53 143.075L224.162 140.11H223.326L223.486 139.302L224.564 138.84L225.29 137.542H226.357L226.087 138.851H227.644L227.369 140.11H225.818L225.185 143.075C225.163 143.185 225.152 143.282 225.152 143.366C225.152 143.638 225.314 143.773 225.636 143.773ZM230.256 143.773C230.495 143.773 230.792 143.709 231.147 143.581V144.818C230.74 145.013 230.253 145.11 229.684 145.11C229.134 145.11 228.729 144.994 228.469 144.763C228.212 144.532 228.084 144.175 228.084 143.691C228.084 143.508 228.106 143.302 228.15 143.075L228.782 140.11H227.946L228.106 139.302L229.184 138.84L229.91 137.542H230.977L230.707 138.851H232.264L231.989 140.11H230.438L229.805 143.075C229.783 143.185 229.772 143.282 229.772 143.366C229.772 143.638 229.934 143.773 230.256 143.773ZM234.877 143.773C235.115 143.773 235.412 143.709 235.768 143.581V144.818C235.361 145.013 234.873 145.11 234.305 145.11C233.755 145.11 233.349 144.994 233.089 144.763C232.832 144.532 232.704 144.175 232.704 143.691C232.704 143.508 232.726 143.302 232.77 143.075L233.403 140.11H232.567L232.726 139.302L233.804 138.84L234.53 137.542H235.597L235.328 138.851H236.884L236.609 140.11H235.058L234.426 143.075C234.404 143.185 234.393 143.282 234.393 143.366C234.393 143.638 234.554 143.773 234.877 143.773ZM241.141 138.735C241.677 138.735 242.098 138.933 242.406 139.329C242.718 139.722 242.874 140.272 242.874 140.979C242.874 141.68 242.747 142.354 242.494 143.003C242.245 143.649 241.902 144.162 241.466 144.543C241.029 144.921 240.549 145.11 240.025 145.11C239.72 145.11 239.458 145.042 239.238 144.906C239.018 144.771 238.815 144.54 238.628 144.213H238.584C238.54 144.796 238.461 145.337 238.347 145.836L237.951 147.706H236.296L238.177 138.851H239.442L239.348 139.786H239.398C239.904 139.085 240.485 138.735 241.141 138.735ZM240.476 140.077C240.226 140.077 239.984 140.202 239.75 140.451C239.519 140.697 239.332 141.027 239.189 141.441C239.049 141.852 238.98 142.307 238.98 142.805C238.98 143.099 239.048 143.333 239.183 143.509C239.319 143.685 239.506 143.773 239.744 143.773C239.99 143.773 240.225 143.647 240.448 143.394C240.672 143.141 240.852 142.794 240.987 142.354C241.127 141.911 241.196 141.474 241.196 141.045C241.196 140.4 240.956 140.077 240.476 140.077ZM247.94 142.97C247.94 143.66 247.71 144.19 247.252 144.56C246.797 144.927 246.163 145.11 245.349 145.11C244.957 145.11 244.614 145.083 244.32 145.028C244.031 144.972 243.759 144.881 243.506 144.752V143.388C244.082 143.718 244.667 143.883 245.261 143.883C245.554 143.883 245.794 143.825 245.981 143.707C246.168 143.586 246.262 143.423 246.262 143.218C246.262 143.06 246.194 142.919 246.058 142.794C245.923 142.67 245.683 142.512 245.338 142.321C244.894 142.072 244.584 141.825 244.408 141.579C244.232 141.33 244.144 141.036 244.144 140.699C244.144 140.076 244.346 139.593 244.749 139.252C245.156 138.908 245.736 138.735 246.487 138.735C247.225 138.735 247.89 138.909 248.484 139.258L247.94 140.44C247.426 140.132 246.953 139.978 246.521 139.978C246.311 139.978 246.143 140.026 246.014 140.121C245.886 140.213 245.822 140.338 245.822 140.495C245.822 140.638 245.881 140.765 245.998 140.875C246.115 140.981 246.335 141.117 246.658 141.282C247.109 141.513 247.435 141.764 247.637 142.035C247.839 142.307 247.94 142.618 247.94 142.97ZM249.854 139.83C249.854 139.492 249.954 139.227 250.156 139.032C250.361 138.834 250.636 138.735 250.981 138.735C251.23 138.735 251.428 138.807 251.575 138.95C251.726 139.089 251.801 139.285 251.801 139.538C251.801 139.854 251.7 140.11 251.498 140.308C251.3 140.506 251.036 140.605 250.706 140.605C250.442 140.605 250.233 140.539 250.079 140.407C249.929 140.272 249.854 140.079 249.854 139.83ZM248.853 144.367C248.853 144.037 248.95 143.773 249.144 143.575C249.342 143.377 249.619 143.278 249.975 143.278C250.224 143.278 250.424 143.348 250.574 143.487C250.724 143.627 250.8 143.823 250.8 144.076C250.8 144.395 250.699 144.653 250.497 144.851C250.295 145.05 250.031 145.149 249.705 145.149C249.437 145.149 249.228 145.081 249.078 144.945C248.928 144.806 248.853 144.613 248.853 144.367ZM257.504 136.959L253.055 145H251.432L255.882 136.959H257.504ZM262.246 136.959L257.796 145H256.173L260.623 136.959H262.246ZM263.494 141.848L262.257 138.851H264.022L264.655 140.688L265.997 138.851H267.944L265.375 141.936L266.717 145H264.924L264.237 143.119L262.785 145H260.859L263.494 141.848ZM269.478 141.848L268.241 138.851H270.006L270.639 140.688L271.981 138.851H273.928L271.359 141.936L272.701 145H270.908L270.221 143.119L268.769 145H266.844L269.478 141.848ZM275.462 141.848L274.225 138.851H275.99L276.623 140.688L277.965 138.851H279.912L277.344 141.936L278.686 145H276.892L276.205 143.119L274.753 145H272.828L275.462 141.848ZM279.5 144.367C279.5 144.037 279.597 143.773 279.791 143.575C279.989 143.377 280.266 143.278 280.622 143.278C280.871 143.278 281.071 143.348 281.221 143.487C281.371 143.627 281.447 143.823 281.447 144.076C281.447 144.395 281.346 144.653 281.144 144.851C280.942 145.05 280.678 145.149 280.352 145.149C280.084 145.149 279.875 145.081 279.725 144.945C279.575 144.806 279.5 144.613 279.5 144.367ZM284.659 141.848L283.421 138.851H285.187L285.819 140.688L287.161 138.851H289.108L286.54 141.936L287.882 145H286.089L285.401 143.119L283.949 145H282.024L284.659 141.848ZM290.643 141.848L289.405 138.851H291.171L291.803 140.688L293.146 138.851H295.093L292.524 141.936L293.866 145H292.073L291.385 143.119L289.933 145H288.008L290.643 141.848ZM296.627 141.848L295.39 138.851H297.155L297.788 140.688L299.13 138.851H301.077L298.508 141.936L299.85 145H298.057L297.37 143.119L295.918 145H293.993L296.627 141.848ZM300.664 144.367C300.664 144.037 300.761 143.773 300.956 143.575C301.154 143.377 301.431 143.278 301.786 143.278C302.036 143.278 302.235 143.348 302.386 143.487C302.536 143.627 302.611 143.823 302.611 144.076C302.611 144.395 302.511 144.653 302.309 144.851C302.107 145.05 301.843 145.149 301.517 145.149C301.249 145.149 301.04 145.081 300.89 144.945C300.739 144.806 300.664 144.613 300.664 144.367ZM305.823 141.848L304.586 138.851H306.351L306.984 140.688L308.326 138.851H310.273L307.705 141.936L309.047 145H307.253L306.566 143.119L305.114 145H303.189L305.823 141.848ZM311.808 141.848L310.57 138.851H312.336L312.968 140.688L314.31 138.851H316.257L313.689 141.936L315.031 145H313.238L312.55 143.119L311.098 145H309.173L311.808 141.848ZM317.792 141.848L316.554 138.851H318.32L318.952 140.688L320.294 138.851H322.241L319.673 141.936L321.015 145H319.222L318.534 143.119L317.082 145H315.157L317.792 141.848Z" fill="#848484"/>
<path d="M50.25 100.733C50.7141 100.733 51.1592 100.546 51.4874 100.214C51.8156 99.8814 52 99.4303 52 98.96V84.7733C52 83.7891 51.2125 83 50.25 83H45V89.2067L42.8125 87.8767L40.625 89.2067V83H39.75C39.2859 83 38.8408 83.1868 38.5126 83.5194C38.1844 83.852 38 84.303 38 84.7733V98.96C38 99.4303 38.1844 99.8814 38.5126 100.214C38.8408 100.546 39.2859 100.733 39.75 100.733H50.25Z" fill="#848484"/>
<path d="M197.628 138.003L199.287 139.902L201.519 141.328L201.906 138.017L201.519 134.782L199.244 136.031L197.628 138.003Z" fill="#848484"/>
<path d="M188 141.013V143.833C188 144.143 188.123 144.439 188.342 144.658C188.561 144.877 188.857 145 189.166 145H191.988L192.567 142.873L191.983 141.022L190.048 140.437L188 141.013Z" fill="#848484"/>
<path d="M191.988 131L188 134.988L190.053 135.571L191.988 134.988L192.567 133.156L191.988 131Z" fill="#848484"/>
<path d="M188 134.988H191.988V141.013H188V134.988Z" fill="#848484"/>
<path d="M204.065 132.689L201.519 134.778V141.32L204.076 143.419C204.162 143.486 204.266 143.528 204.375 143.539C204.483 143.551 204.593 143.531 204.691 143.483C204.79 143.435 204.873 143.36 204.931 143.268C204.988 143.175 205.019 143.068 205.019 142.958V133.139C205.019 133.029 204.987 132.92 204.928 132.827C204.869 132.734 204.785 132.659 204.685 132.612C204.585 132.565 204.473 132.547 204.364 132.56C204.254 132.574 204.15 132.618 204.065 132.689Z" fill="#848484"/>
<path d="M197.628 138.003V141.013H191.988V145H200.351C200.66 145 200.957 144.877 201.176 144.658C201.395 144.44 201.518 144.143 201.519 143.834V141.324L197.628 138.003Z" fill="#848484"/>
<path d="M200.351 131H191.988V134.988H197.628V138.002L201.519 134.778V132.168C201.518 131.858 201.395 131.561 201.176 131.342C200.957 131.123 200.661 131 200.351 131Z" fill="#848484"/>
<rect x="22" y="201" width="331" height="113" rx="15" fill="#433357"/>
<rect x="31" y="216" width="314" height="35" rx="5" fill="#0E0718"/>
<path d="M164.978 231.251C164.494 231.251 164.057 231.4 163.669 231.697C163.284 231.994 162.974 232.432 162.739 233.011C162.504 233.587 162.387 234.207 162.387 234.87C162.387 235.483 162.512 235.937 162.761 236.234C163.014 236.531 163.416 236.68 163.966 236.68C164.501 236.68 165.121 236.539 165.825 236.256V237.686C165.095 237.969 164.362 238.11 163.625 238.11C162.693 238.11 161.969 237.837 161.452 237.29C160.935 236.74 160.677 235.963 160.677 234.958C160.677 233.998 160.867 233.114 161.249 232.307C161.63 231.497 162.14 230.883 162.778 230.465C163.416 230.043 164.149 229.832 164.978 229.832C165.436 229.832 165.843 229.874 166.199 229.959C166.554 230.039 166.936 230.19 167.343 230.41L166.694 231.785C166.305 231.568 165.984 231.425 165.731 231.356C165.478 231.286 165.227 231.251 164.978 231.251ZM171.528 236.086H168.927L167.981 238H166.221L170.434 229.926H172.485L173.294 238H171.66L171.528 236.086ZM171.446 234.656L171.303 232.731C171.266 232.25 171.248 231.787 171.248 231.339V231.141C171.087 231.581 170.887 232.047 170.648 232.538L169.614 234.656H171.446ZM174.262 238L175.962 229.959H177.645L176.237 236.592H179.053L178.756 238H174.262ZM184.789 231.251C184.305 231.251 183.869 231.4 183.48 231.697C183.095 231.994 182.785 232.432 182.551 233.011C182.316 233.587 182.199 234.207 182.199 234.87C182.199 235.483 182.323 235.937 182.573 236.234C182.826 236.531 183.227 236.68 183.777 236.68C184.313 236.68 184.932 236.539 185.636 236.256V237.686C184.907 237.969 184.173 238.11 183.436 238.11C182.505 238.11 181.781 237.837 181.264 237.29C180.747 236.74 180.488 235.963 180.488 234.958C180.488 233.998 180.679 233.114 181.06 232.307C181.442 231.497 181.951 230.883 182.589 230.465C183.227 230.043 183.961 229.832 184.789 229.832C185.248 229.832 185.655 229.874 186.01 229.959C186.366 230.039 186.747 230.19 187.154 230.41L186.505 231.785C186.117 231.568 185.796 231.425 185.543 231.356C185.29 231.286 185.039 231.251 184.789 231.251ZM194.596 229.959L193.491 235.162C193.282 236.137 192.882 236.872 192.292 237.367C191.701 237.862 190.933 238.11 189.987 238.11C189.21 238.11 188.597 237.903 188.15 237.488C187.706 237.07 187.484 236.506 187.484 235.794C187.484 235.53 187.512 235.277 187.567 235.035L188.645 229.959H190.322L189.255 235.013C189.193 235.285 189.162 235.514 189.162 235.701C189.162 236.354 189.508 236.68 190.201 236.68C190.653 236.68 191.01 236.541 191.274 236.262C191.538 235.98 191.729 235.56 191.846 235.002L192.913 229.959H194.596ZM194.789 238L196.488 229.959H198.171L196.763 236.592H199.579L199.282 238H194.789ZM208.215 232.841C208.215 233.879 208.033 234.808 207.67 235.629C207.307 236.447 206.81 237.065 206.18 237.483C205.549 237.901 204.823 238.11 204.001 238.11C203.063 238.11 202.329 237.84 201.801 237.301C201.277 236.759 201.015 236.007 201.015 235.046C201.015 234.075 201.196 233.182 201.559 232.368C201.922 231.55 202.423 230.923 203.061 230.487C203.699 230.05 204.436 229.832 205.272 229.832C206.207 229.832 206.931 230.096 207.445 230.624C207.958 231.152 208.215 231.891 208.215 232.841ZM205.134 231.251C204.691 231.251 204.284 231.42 203.913 231.757C203.543 232.091 203.252 232.551 203.039 233.138C202.83 233.725 202.725 234.361 202.725 235.046C202.725 235.585 202.846 235.992 203.088 236.267C203.334 236.542 203.679 236.68 204.122 236.68C204.566 236.68 204.969 236.52 205.332 236.201C205.699 235.882 205.985 235.431 206.191 234.848C206.396 234.265 206.499 233.611 206.499 232.885C206.499 232.364 206.379 231.963 206.141 231.68C205.903 231.394 205.567 231.251 205.134 231.251ZM213.588 238H208.297L208.534 236.828L211.157 234.496C211.817 233.913 212.272 233.448 212.521 233.099C212.774 232.747 212.901 232.417 212.901 232.109C212.901 231.834 212.826 231.625 212.675 231.482C212.525 231.336 212.323 231.262 212.07 231.262C211.828 231.262 211.579 231.325 211.322 231.449C211.069 231.57 210.756 231.787 210.382 232.098L209.579 230.982C210.063 230.571 210.525 230.28 210.965 230.107C211.405 229.931 211.863 229.843 212.34 229.843C213.036 229.843 213.588 230.023 213.995 230.382C214.402 230.742 214.606 231.216 214.606 231.807C214.606 232.199 214.531 232.568 214.38 232.912C214.23 233.257 214.004 233.602 213.704 233.946C213.407 234.291 212.919 234.74 212.241 235.294L210.761 236.515V236.57H213.885L213.588 238Z" fill="#848484"/>
<line x1="37.9983" y1="244.5" x2="336.998" y2="243.486" stroke="#848484"/>
<rect x="31" y="260" width="114" height="35" rx="5" fill="#0E0718"/>
<path d="M71.7852 282H67.2915L68.9911 273.959H73.4902L73.1932 275.356H70.3771L70.0086 277.121H72.6322L72.3297 278.518H69.7061L69.2661 280.592H72.0822L71.7852 282ZM70.3441 273.178C70.6338 272.855 71.0408 272.3 71.5651 271.511H73.4077V271.605C73.239 271.81 72.9567 272.091 72.5607 272.446C72.1647 272.798 71.809 273.088 71.4936 273.315H70.3441V273.178ZM77.4393 273.959C78.279 273.959 78.9134 274.109 79.3424 274.41C79.7714 274.707 79.9859 275.152 79.9859 275.746C79.9859 276.296 79.8338 276.751 79.5294 277.11C79.2251 277.466 78.7924 277.703 78.2314 277.82V277.853C78.598 277.948 78.8896 278.126 79.1059 278.386C79.3259 278.643 79.4359 278.973 79.4359 279.376C79.4359 280.216 79.1554 280.863 78.5944 281.318C78.0334 281.773 77.2578 282 76.2678 282H73.3967L75.0963 273.959H77.4393ZM76.1028 277.143H76.9223C77.366 277.143 77.6979 277.055 77.9179 276.879C78.1415 276.7 78.2534 276.443 78.2534 276.109C78.2534 275.607 77.9417 275.356 77.3183 275.356H76.4823L76.1028 277.143ZM75.3713 280.592H76.3613C76.7903 280.592 77.1258 280.486 77.3678 280.273C77.6135 280.06 77.7364 279.765 77.7364 279.387C77.7364 278.793 77.4008 278.496 76.7298 278.496H75.8223L75.3713 280.592ZM84.8756 282H80.3819L82.0815 273.959H86.5806L86.2836 275.356H83.4675L83.099 277.121H85.7226L85.4201 278.518H82.7965L82.3565 280.592H85.1726L84.8756 282ZM93.0544 282H91.1733L89.2152 275.917H89.1822L89.1602 276.093C89.0429 276.885 88.9219 277.593 88.7972 278.216L87.9997 282H86.4871L88.1867 273.959H90.1503L92.0203 279.882H92.0423C92.0863 279.604 92.1578 279.206 92.2568 278.689C92.3558 278.172 92.6858 276.595 93.2469 273.959H94.7539L93.0544 282Z" fill="#848484"/>
<line x1="38.9983" y1="287.839" x2="138.998" y2="287.5" stroke="#848484"/>
<path d="M54.2439 280.75C54.7096 280.75 55.1563 280.571 55.4857 280.252C55.815 279.933 56 279.501 56 279.05V269.7C56 269.249 55.815 268.817 55.4857 268.498C55.1563 268.179 54.7096 268 54.2439 268H44.9893C45.2966 268.519 45.4634 269.105 45.4634 269.7H54.2439V279.05H46.3415V280.75H54.2439ZM49.8537 272.25V273.95H44.5854V285H42.8293V279.9H41.0732V285H39.3171V278.2H38V273.95C38 273.499 38.185 273.067 38.5143 272.748C38.8437 272.429 39.2904 272.25 39.7561 272.25H49.8537ZM43.7073 269.7C43.7073 270.151 43.5223 270.583 43.193 270.902C42.8636 271.221 42.417 271.4 41.9512 271.4C41.4855 271.4 41.0388 271.221 40.7095 270.902C40.3801 270.583 40.1951 270.151 40.1951 269.7C40.1951 269.249 40.3801 268.817 40.7095 268.498C41.0388 268.179 41.4855 268 41.9512 268C42.417 268 42.8636 268.179 43.193 268.498C43.5223 268.817 43.7073 269.249 43.7073 269.7Z" fill="#848484"/>
<rect x="176" y="260" width="169" height="35" rx="5" fill="#0E0718"/>
<line y1="-0.5" x2="146.956" y2="-0.5" transform="matrix(0.999997 -0.00230668 0.00498151 0.999988 187.756 288.339)" stroke="#848484"/>
<path d="M221.374 282H219.718L220.472 278.408C220.53 278.159 220.56 277.941 220.56 277.754C220.56 277.303 220.362 277.077 219.966 277.077C219.628 277.077 219.322 277.286 219.047 277.704C218.772 278.122 218.556 278.705 218.398 279.453L217.859 282H216.204L218.019 273.442H219.674C219.531 274.105 219.421 274.615 219.344 274.971C219.267 275.326 219.109 275.893 218.871 276.67H218.915C219.142 276.388 219.395 276.162 219.674 275.994C219.953 275.821 220.275 275.735 220.642 275.735C221.148 275.735 221.539 275.889 221.814 276.197C222.092 276.502 222.232 276.938 222.232 277.506C222.232 277.774 222.19 278.104 222.105 278.496L221.374 282ZM225.636 280.773C225.875 280.773 226.172 280.709 226.527 280.581V281.818C226.12 282.013 225.633 282.11 225.064 282.11C224.514 282.11 224.109 281.994 223.849 281.763C223.592 281.532 223.464 281.175 223.464 280.691C223.464 280.508 223.486 280.302 223.53 280.075L224.162 277.11H223.326L223.486 276.302L224.564 275.84L225.29 274.542H226.357L226.087 275.851H227.644L227.369 277.11H225.818L225.185 280.075C225.163 280.185 225.152 280.282 225.152 280.366C225.152 280.638 225.314 280.773 225.636 280.773ZM230.256 280.773C230.495 280.773 230.792 280.709 231.147 280.581V281.818C230.74 282.013 230.253 282.11 229.684 282.11C229.134 282.11 228.729 281.994 228.469 281.763C228.212 281.532 228.084 281.175 228.084 280.691C228.084 280.508 228.106 280.302 228.15 280.075L228.782 277.11H227.946L228.106 276.302L229.184 275.84L229.91 274.542H230.977L230.707 275.851H232.264L231.989 277.11H230.438L229.805 280.075C229.783 280.185 229.772 280.282 229.772 280.366C229.772 280.638 229.934 280.773 230.256 280.773ZM234.877 280.773C235.115 280.773 235.412 280.709 235.768 280.581V281.818C235.361 282.013 234.873 282.11 234.305 282.11C233.755 282.11 233.349 281.994 233.089 281.763C232.832 281.532 232.704 281.175 232.704 280.691C232.704 280.508 232.726 280.302 232.77 280.075L233.403 277.11H232.567L232.726 276.302L233.804 275.84L234.53 274.542H235.597L235.328 275.851H236.884L236.609 277.11H235.058L234.426 280.075C234.404 280.185 234.393 280.282 234.393 280.366C234.393 280.638 234.554 280.773 234.877 280.773ZM241.141 275.735C241.677 275.735 242.098 275.933 242.406 276.329C242.718 276.722 242.874 277.272 242.874 277.979C242.874 278.68 242.747 279.354 242.494 280.003C242.245 280.649 241.902 281.162 241.466 281.543C241.029 281.921 240.549 282.11 240.025 282.11C239.72 282.11 239.458 282.042 239.238 281.906C239.018 281.771 238.815 281.54 238.628 281.213H238.584C238.54 281.796 238.461 282.337 238.347 282.836L237.951 284.706H236.296L238.177 275.851H239.442L239.348 276.786H239.398C239.904 276.085 240.485 275.735 241.141 275.735ZM240.476 277.077C240.226 277.077 239.984 277.202 239.75 277.451C239.519 277.697 239.332 278.027 239.189 278.441C239.049 278.852 238.98 279.307 238.98 279.805C238.98 280.099 239.048 280.333 239.183 280.509C239.319 280.685 239.506 280.773 239.744 280.773C239.99 280.773 240.225 280.647 240.448 280.394C240.672 280.141 240.852 279.794 240.987 279.354C241.127 278.911 241.196 278.474 241.196 278.045C241.196 277.4 240.956 277.077 240.476 277.077ZM247.94 279.97C247.94 280.66 247.71 281.19 247.252 281.56C246.797 281.927 246.163 282.11 245.349 282.11C244.957 282.11 244.614 282.083 244.32 282.028C244.031 281.972 243.759 281.881 243.506 281.752V280.388C244.082 280.718 244.667 280.883 245.261 280.883C245.554 280.883 245.794 280.825 245.981 280.707C246.168 280.586 246.262 280.423 246.262 280.218C246.262 280.06 246.194 279.919 246.058 279.794C245.923 279.67 245.683 279.512 245.338 279.321C244.894 279.072 244.584 278.825 244.408 278.579C244.232 278.33 244.144 278.036 244.144 277.699C244.144 277.076 244.346 276.593 244.749 276.252C245.156 275.908 245.736 275.735 246.487 275.735C247.225 275.735 247.89 275.909 248.484 276.258L247.94 277.44C247.426 277.132 246.953 276.978 246.521 276.978C246.311 276.978 246.143 277.026 246.014 277.121C245.886 277.213 245.822 277.338 245.822 277.495C245.822 277.638 245.881 277.765 245.998 277.875C246.115 277.981 246.335 278.117 246.658 278.282C247.109 278.513 247.435 278.764 247.637 279.035C247.839 279.307 247.94 279.618 247.94 279.97ZM249.854 276.83C249.854 276.492 249.954 276.227 250.156 276.032C250.361 275.834 250.636 275.735 250.981 275.735C251.23 275.735 251.428 275.807 251.575 275.95C251.726 276.089 251.801 276.285 251.801 276.538C251.801 276.854 251.7 277.11 251.498 277.308C251.3 277.506 251.036 277.605 250.706 277.605C250.442 277.605 250.233 277.539 250.079 277.407C249.929 277.272 249.854 277.079 249.854 276.83ZM248.853 281.367C248.853 281.037 248.95 280.773 249.144 280.575C249.342 280.377 249.619 280.278 249.975 280.278C250.224 280.278 250.424 280.348 250.574 280.487C250.724 280.627 250.8 280.823 250.8 281.076C250.8 281.395 250.699 281.653 250.497 281.851C250.295 282.05 250.031 282.149 249.705 282.149C249.437 282.149 249.228 282.081 249.078 281.945C248.928 281.806 248.853 281.613 248.853 281.367ZM257.504 273.959L253.055 282H251.432L255.882 273.959H257.504ZM262.246 273.959L257.796 282H256.173L260.623 273.959H262.246ZM261.971 275.851H263.593L263.901 278.7C263.952 279.147 263.978 279.684 263.978 280.311H264.011C264.084 280.124 264.165 279.906 264.253 279.657C264.341 279.404 264.46 279.122 264.611 278.81L266.041 275.851H267.839L264.099 282.88C263.45 284.097 262.565 284.706 261.442 284.706C261.112 284.706 260.843 284.671 260.634 284.602V283.282C260.883 283.329 261.096 283.353 261.272 283.353C261.58 283.353 261.85 283.265 262.081 283.089C262.315 282.913 262.532 282.64 262.73 282.27L262.873 282L261.971 275.851ZM267.823 275.851H269.445L269.753 278.7C269.805 279.147 269.83 279.684 269.83 280.311H269.863C269.937 280.124 270.017 279.906 270.105 279.657C270.193 279.404 270.312 279.122 270.463 278.81L271.893 275.851H273.691L269.951 282.88C269.302 284.097 268.417 284.706 267.295 284.706C266.965 284.706 266.695 284.671 266.486 284.602V283.282C266.735 283.329 266.948 283.353 267.124 283.353C267.432 283.353 267.702 283.265 267.933 283.089C268.167 282.913 268.384 282.64 268.582 282.27L268.725 282L267.823 275.851ZM273.675 275.851H275.297L275.605 278.7C275.657 279.147 275.682 279.684 275.682 280.311H275.715C275.789 280.124 275.869 279.906 275.957 279.657C276.045 279.404 276.165 279.122 276.315 278.81L277.745 275.851H279.544L275.803 282.88C275.154 284.097 274.269 284.706 273.147 284.706C272.817 284.706 272.547 284.671 272.338 284.602V283.282C272.588 283.329 272.8 283.353 272.976 283.353C273.284 283.353 273.554 283.265 273.785 283.089C274.02 282.913 274.236 282.64 274.434 282.27L274.577 282L273.675 275.851ZM279.104 281.367C279.104 281.037 279.201 280.773 279.395 280.575C279.593 280.377 279.87 280.278 280.226 280.278C280.475 280.278 280.675 280.348 280.825 280.487C280.975 280.627 281.051 280.823 281.051 281.076C281.051 281.395 280.95 281.653 280.748 281.851C280.546 282.05 280.282 282.149 279.956 282.149C279.688 282.149 279.479 282.081 279.329 281.945C279.179 281.806 279.104 281.613 279.104 281.367ZM282.739 275.851H284.362L284.67 278.7C284.721 279.147 284.747 279.684 284.747 280.311H284.78C284.853 280.124 284.934 279.906 285.022 279.657C285.11 279.404 285.229 279.122 285.379 278.81L286.809 275.851H288.608L284.868 282.88C284.219 284.097 283.333 284.706 282.211 284.706C281.881 284.706 281.612 284.671 281.403 284.602V283.282C281.652 283.329 281.865 283.353 282.041 283.353C282.349 283.353 282.618 283.265 282.849 283.089C283.084 282.913 283.3 282.64 283.498 282.27L283.641 282L282.739 275.851ZM288.591 275.851H290.214L290.522 278.7C290.573 279.147 290.599 279.684 290.599 280.311H290.632C290.705 280.124 290.786 279.906 290.874 279.657C290.962 279.404 291.081 279.122 291.231 278.81L292.662 275.851H294.46L290.72 282.88C290.071 284.097 289.185 284.706 288.063 284.706C287.733 284.706 287.464 284.671 287.255 284.602V283.282C287.504 283.329 287.717 283.353 287.893 283.353C288.201 283.353 288.47 283.265 288.701 283.089C288.936 282.913 289.152 282.64 289.35 282.27L289.493 282L288.591 275.851ZM294.444 275.851H296.066L296.374 278.7C296.425 279.147 296.451 279.684 296.451 280.311H296.484C296.557 280.124 296.638 279.906 296.726 279.657C296.814 279.404 296.933 279.122 297.084 278.81L298.514 275.851H300.312L296.572 282.88C295.923 284.097 295.038 284.706 293.916 284.706C293.586 284.706 293.316 284.671 293.107 284.602V283.282C293.356 283.329 293.569 283.353 293.745 283.353C294.053 283.353 294.323 283.265 294.554 283.089C294.788 282.913 295.005 282.64 295.203 282.27L295.346 282L294.444 275.851ZM299.872 281.367C299.872 281.037 299.969 280.773 300.164 280.575C300.362 280.377 300.639 280.278 300.994 280.278C301.244 280.278 301.443 280.348 301.594 280.487C301.744 280.627 301.819 280.823 301.819 281.076C301.819 281.395 301.718 281.653 301.517 281.851C301.315 282.05 301.051 282.149 300.725 282.149C300.457 282.149 300.248 282.081 300.098 281.945C299.947 281.806 299.872 281.613 299.872 281.367ZM303.508 275.851H305.13L305.438 278.7C305.49 279.147 305.515 279.684 305.515 280.311H305.548C305.622 280.124 305.702 279.906 305.79 279.657C305.878 279.404 305.998 279.122 306.148 278.81L307.578 275.851H309.377L305.636 282.88C304.987 284.097 304.102 284.706 302.98 284.706C302.65 284.706 302.38 284.671 302.171 284.602V283.282C302.421 283.329 302.633 283.353 302.809 283.353C303.117 283.353 303.387 283.265 303.618 283.089C303.853 282.913 304.069 282.64 304.267 282.27L304.41 282L303.508 275.851ZM309.36 275.851H310.983L311.291 278.7C311.342 279.147 311.368 279.684 311.368 280.311H311.401C311.474 280.124 311.555 279.906 311.643 279.657C311.731 279.404 311.85 279.122 312 278.81L313.43 275.851H315.229L311.489 282.88C310.84 284.097 309.954 284.706 308.832 284.706C308.502 284.706 308.233 284.671 308.024 284.602V283.282C308.273 283.329 308.486 283.353 308.662 283.353C308.97 283.353 309.239 283.265 309.47 283.089C309.705 282.913 309.921 282.64 310.119 282.27L310.262 282L309.36 275.851ZM315.212 275.851H316.835L317.143 278.7C317.194 279.147 317.22 279.684 317.22 280.311H317.253C317.326 280.124 317.407 279.906 317.495 279.657C317.583 279.404 317.702 279.122 317.852 278.81L319.282 275.851H321.081L317.341 282.88C316.692 284.097 315.806 284.706 314.684 284.706C314.354 284.706 314.085 284.671 313.876 284.602V283.282C314.125 283.329 314.338 283.353 314.514 283.353C314.822 283.353 315.091 283.265 315.322 283.089C315.557 282.913 315.773 282.64 315.971 282.27L316.114 282L315.212 275.851Z" fill="#848484"/>
<path d="M50.25 237.733C50.7141 237.733 51.1592 237.546 51.4874 237.214C51.8156 236.881 52 236.43 52 235.96V221.773C52 220.789 51.2125 220 50.25 220H45V226.207L42.8125 224.877L40.625 226.207V220H39.75C39.2859 220 38.8408 220.187 38.5126 220.519C38.1844 220.852 38 221.303 38 221.773V235.96C38 236.43 38.1844 236.881 38.5126 237.214C38.8408 237.546 39.2859 237.733 39.75 237.733H50.25Z" fill="#848484"/>
<path d="M197.628 275.003L199.287 276.902L201.519 278.328L201.906 275.017L201.519 271.782L199.244 273.031L197.628 275.003Z" fill="#848484"/>
<path d="M188 278.013V280.833C188 281.143 188.123 281.439 188.342 281.658C188.561 281.877 188.857 282 189.166 282H191.988L192.567 279.873L191.983 278.022L190.048 277.437L188 278.013Z" fill="#848484"/>
<path d="M191.988 268L188 271.988L190.053 272.571L191.988 271.988L192.567 270.156L191.988 268Z" fill="#848484"/>
<path d="M188 271.988H191.988V278.013H188V271.988Z" fill="#848484"/>
<path d="M204.065 269.689L201.519 271.778V278.32L204.076 280.419C204.162 280.486 204.266 280.528 204.375 280.539C204.483 280.551 204.593 280.531 204.691 280.483C204.79 280.435 204.873 280.36 204.931 280.268C204.988 280.175 205.019 280.068 205.019 279.958V270.139C205.019 270.029 204.987 269.92 204.928 269.827C204.869 269.734 204.785 269.659 204.685 269.612C204.585 269.565 204.473 269.547 204.364 269.56C204.254 269.574 204.15 269.618 204.065 269.689Z" fill="#848484"/>
<path d="M197.628 275.003V278.013H191.988V282H200.351C200.66 282 200.957 281.877 201.176 281.658C201.395 281.44 201.518 281.143 201.519 280.834V278.324L197.628 275.003Z" fill="#848484"/>
<path d="M200.351 268H191.988V271.988H197.628V275.002L201.519 271.778V269.168C201.518 268.858 201.395 268.561 201.176 268.342C200.957 268.123 200.661 268 200.351 268Z" fill="#848484"/>
<path d="M193 614C181.975 614 173 605.025 173 594C173 582.975 181.975 574 193 574C204.025 574 213 582.975 213 594C213 605.025 204.025 614 193 614ZM193 569C189.717 569 186.466 569.647 183.433 570.903C180.4 572.159 177.644 574.001 175.322 576.322C170.634 581.011 168 587.37 168 594C168 600.63 170.634 606.989 175.322 611.678C177.644 613.999 180.4 615.841 183.433 617.097C186.466 618.353 189.717 619 193 619C199.63 619 205.989 616.366 210.678 611.678C215.366 606.989 218 600.63 218 594C218 590.717 217.353 587.466 216.097 584.433C214.841 581.4 212.999 578.644 210.678 576.322C208.356 574.001 205.6 572.159 202.567 570.903C199.534 569.647 196.283 569 193 569ZM195.5 581.5H190.5V591.5H180.5V596.5H190.5V606.5H195.5V596.5H205.5V591.5H195.5V581.5Z" fill="#1ADBCF"/>
</svg>
