<svg width="375" height="667" viewBox="0 0 375 667" fill="none" xmlns="http://www.w3.org/2000/svg">
<g clip-path="url(#clip0_75_25)">
<rect width="375" height="667" rx="15" fill="#0E0718"/>
<line x1="25" y1="31" x2="48" y2="31" stroke="#1ADBCF" stroke-width="2" stroke-linecap="round"/>
<path d="M25 36H48M25 41H48" stroke="#1ADBCF" stroke-width="2" stroke-linecap="round"/>
<path d="M79.084 41H76.0957L77.4043 34.8379H72.8047L71.4961 41H68.5176L71.5352 26.7227H74.5234L73.3418 32.3184H77.9414L79.123 26.7227H82.1016L79.084 41ZM95.9883 31.8398C95.9883 33.6823 95.666 35.3327 95.0215 36.791C94.377 38.2428 93.4948 39.3398 92.375 40.082C91.2552 40.8242 89.9661 41.1953 88.5078 41.1953C86.8411 41.1953 85.5391 40.7168 84.6016 39.7598C83.6706 38.7962 83.2051 37.4616 83.2051 35.7559C83.2051 34.0306 83.5273 32.4453 84.1719 31C84.8164 29.5482 85.7051 28.4349 86.8379 27.6602C87.9707 26.8854 89.2793 26.498 90.7637 26.498C92.4238 26.498 93.7096 26.9668 94.6211 27.9043C95.5326 28.8418 95.9883 30.1536 95.9883 31.8398ZM90.5195 29.0176C89.7318 29.0176 89.0091 29.3171 88.3516 29.916C87.694 30.5085 87.1764 31.3255 86.7988 32.3672C86.4277 33.4089 86.2422 34.5384 86.2422 35.7559C86.2422 36.7129 86.457 37.4355 86.8867 37.9238C87.3229 38.4121 87.9349 38.6562 88.7227 38.6562C89.5104 38.6562 90.2266 38.373 90.8711 37.8066C91.5221 37.2402 92.0299 36.4395 92.3945 35.4043C92.7591 34.3691 92.9414 33.207 92.9414 31.918C92.9414 30.9935 92.7298 30.2806 92.3066 29.7793C91.8835 29.2715 91.2878 29.0176 90.5195 29.0176ZM101.789 33.0605H102.551C103.404 33.0605 104.068 32.875 104.543 32.5039C105.018 32.1328 105.256 31.5664 105.256 30.8047C105.256 30.2708 105.1 29.8704 104.787 29.6035C104.481 29.3366 103.996 29.2031 103.332 29.2031H102.609L101.789 33.0605ZM101.271 35.5215L100.109 41H97.1309L100.148 26.7227H103.654C105.197 26.7227 106.356 27.0547 107.131 27.7188C107.906 28.3828 108.293 29.3561 108.293 30.6387C108.293 31.6673 108.023 32.5527 107.482 33.2949C106.942 34.0306 106.164 34.5775 105.148 34.9355L107.697 41H104.455L102.434 35.5215H101.271ZM117.023 37.6016H112.404L110.725 41H107.6L115.08 26.6641H118.723L120.158 41H117.258L117.023 37.6016ZM116.877 35.0625L116.623 31.6445C116.558 30.7917 116.525 29.9681 116.525 29.1738V28.8223C116.239 29.6035 115.884 30.4303 115.461 31.3027L113.625 35.0625H116.877ZM115.979 25.3359C116.493 24.763 117.215 23.7767 118.146 22.377H121.418V22.543C121.118 22.9076 120.617 23.4056 119.914 24.0371C119.211 24.6621 118.579 25.1764 118.02 25.5801H115.979V25.3359ZM126.535 33.0605H127.297C128.15 33.0605 128.814 32.875 129.289 32.5039C129.764 32.1328 130.002 31.5664 130.002 30.8047C130.002 30.2708 129.846 29.8704 129.533 29.6035C129.227 29.3366 128.742 29.2031 128.078 29.2031H127.355L126.535 33.0605ZM126.018 35.5215L124.855 41H121.877L124.895 26.7227H128.4C129.943 26.7227 131.102 27.0547 131.877 27.7188C132.652 28.3828 133.039 29.3561 133.039 30.6387C133.039 31.6673 132.769 32.5527 132.229 33.2949C131.688 34.0306 130.91 34.5775 129.895 34.9355L132.443 41H129.201L127.18 35.5215H126.018ZM134.064 41L137.111 26.7227H140.09L137.043 41H134.064ZM153.977 31.8398C153.977 33.6823 153.654 35.3327 153.01 36.791C152.365 38.2428 151.483 39.3398 150.363 40.082C149.243 40.8242 147.954 41.1953 146.496 41.1953C144.829 41.1953 143.527 40.7168 142.59 39.7598C141.659 38.7962 141.193 37.4616 141.193 35.7559C141.193 34.0306 141.516 32.4453 142.16 31C142.805 29.5482 143.693 28.4349 144.826 27.6602C145.959 26.8854 147.268 26.498 148.752 26.498C150.412 26.498 151.698 26.9668 152.609 27.9043C153.521 28.8418 153.977 30.1536 153.977 31.8398ZM148.508 29.0176C147.72 29.0176 146.997 29.3171 146.34 29.916C145.682 30.5085 145.165 31.3255 144.787 32.3672C144.416 33.4089 144.23 34.5384 144.23 35.7559C144.23 36.7129 144.445 37.4355 144.875 37.9238C145.311 38.4121 145.923 38.6562 146.711 38.6562C147.499 38.6562 148.215 38.373 148.859 37.8066C149.51 37.2402 150.018 36.4395 150.383 35.4043C150.747 34.3691 150.93 33.207 150.93 31.918C150.93 30.9935 150.718 30.2806 150.295 29.7793C149.872 29.2715 149.276 29.0176 148.508 29.0176Z" fill="#1ADBCF"/>
<path d="M188 618C176.975 618 168 609.025 168 598C168 586.975 176.975 578 188 578C199.025 578 208 586.975 208 598C208 609.025 199.025 618 188 618ZM188 573C184.717 573 181.466 573.647 178.433 574.903C175.4 576.159 172.644 578.001 170.322 580.322C165.634 585.011 163 591.37 163 598C163 604.63 165.634 610.989 170.322 615.678C172.644 617.999 175.4 619.841 178.433 621.097C181.466 622.353 184.717 623 188 623C194.63 623 200.989 620.366 205.678 615.678C210.366 610.989 213 604.63 213 598C213 594.717 212.353 591.466 211.097 588.433C209.841 585.4 207.999 582.644 205.678 580.322C203.356 578.001 200.6 576.159 197.567 574.903C194.534 573.647 191.283 573 188 573ZM190.5 585.5H185.5V595.5H175.5V600.5H185.5V610.5H190.5V600.5H200.5V595.5H190.5V585.5Z" fill="#1ADBCF"/>
<rect x="80" y="89" width="50" height="593" rx="10" fill="#433357"/>
<rect x="25" y="89" width="50" height="586" rx="10" fill="#433357"/>
<rect x="135" y="89" width="50" height="593" rx="10" fill="#433357"/>
<rect x="190" y="89" width="50" height="605" rx="10" fill="#433357"/>
<rect x="245" y="89" width="50" height="593" rx="10" fill="#433357"/>
<rect x="300" y="89" width="50" height="593" rx="10" fill="#433357"/>
<rect x="83" y="94" width="44" height="18" rx="9" fill="black"/>
<path d="M100.458 103.93C100.458 104.617 100.229 105.15 99.7695 105.531C99.3138 105.909 98.6709 106.098 97.8408 106.098C97.4958 106.098 97.1914 106.073 96.9277 106.024C96.6673 105.979 96.4215 105.901 96.1904 105.79V104.96C96.7178 105.233 97.2712 105.37 97.8506 105.37C98.3779 105.37 98.7962 105.248 99.1055 105.004C99.4147 104.757 99.5693 104.418 99.5693 103.988C99.5693 103.734 99.4831 103.511 99.3105 103.319C99.1413 103.124 98.8239 102.895 98.3584 102.631C97.8669 102.354 97.5251 102.077 97.333 101.801C97.1442 101.524 97.0498 101.197 97.0498 100.819C97.0498 100.211 97.2646 99.7158 97.6943 99.335C98.124 98.9508 98.6888 98.7588 99.3887 98.7588C99.7109 98.7588 100.01 98.7897 100.287 98.8516C100.567 98.9134 100.862 99.0192 101.171 99.1689L100.849 99.9014C100.634 99.7777 100.393 99.68 100.126 99.6084C99.859 99.5368 99.6133 99.501 99.3887 99.501C98.9525 99.501 98.6009 99.6149 98.334 99.8428C98.0703 100.067 97.9385 100.373 97.9385 100.761C97.9385 100.937 97.9661 101.088 98.0215 101.215C98.0768 101.339 98.1647 101.456 98.2852 101.566C98.4056 101.677 98.6367 101.832 98.9785 102.03C99.457 102.317 99.7793 102.541 99.9453 102.704C100.115 102.867 100.242 103.048 100.326 103.246C100.414 103.441 100.458 103.669 100.458 103.93ZM105.028 106H101.439L102.948 98.8613H106.537L106.381 99.6084H103.617L103.139 101.898H105.712L105.57 102.641H102.987L102.431 105.258H105.189L105.028 106ZM110.146 102.26H112.387L111.635 105.731C110.932 105.976 110.25 106.098 109.589 106.098C108.729 106.098 108.061 105.863 107.582 105.395C107.107 104.923 106.869 104.265 106.869 103.422C106.869 102.546 107.034 101.75 107.362 101.034C107.694 100.315 108.153 99.7565 108.739 99.3594C109.325 98.959 109.975 98.7588 110.688 98.7588C111.068 98.7588 111.425 98.7913 111.757 98.8564C112.092 98.9215 112.429 99.0257 112.768 99.1689L112.445 99.9111C112.195 99.8005 111.924 99.7044 111.635 99.623C111.348 99.5417 111.033 99.501 110.688 99.501C110.137 99.501 109.636 99.667 109.184 99.999C108.734 100.328 108.384 100.788 108.134 101.381C107.883 101.973 107.758 102.636 107.758 103.368C107.758 103.987 107.924 104.473 108.256 104.828C108.591 105.183 109.058 105.36 109.657 105.36C110.159 105.36 110.582 105.297 110.927 105.17L111.396 103.002H109.984L110.146 102.26Z" fill="white"/>
<rect x="138" y="94" width="44" height="18" rx="9" fill="black"/>
<path d="M153.378 106H152.538L153.891 99.5986H151.908L152.069 98.8613H156.879L156.732 99.5986H154.74L153.378 106ZM159.989 106H156.4L157.909 98.8613H161.498L161.342 99.6084H158.578L158.1 101.898H160.673L160.531 102.641H157.948L157.392 105.258H160.15L159.989 106ZM162.978 103.031L162.348 106H161.518L163.026 98.8613H164.589C166.041 98.8613 166.767 99.457 166.767 100.648C166.767 101.781 166.168 102.512 164.97 102.841L166.137 106H165.229L164.208 103.031H162.978ZM163.695 99.5889C163.363 101.197 163.174 102.107 163.129 102.318H163.949C164.577 102.318 165.061 102.18 165.399 101.903C165.738 101.627 165.907 101.229 165.907 100.712C165.907 100.318 165.797 100.033 165.575 99.8574C165.357 99.6784 165.001 99.5889 164.506 99.5889H163.695Z" fill="white"/>
<rect x="193" y="94" width="44" height="18" rx="9" fill="black"/>
<path d="M208.268 99.4912C207.757 99.4912 207.299 99.6556 206.896 99.9844C206.492 100.313 206.178 100.771 205.953 101.356C205.732 101.942 205.621 102.59 205.621 103.3C205.621 103.948 205.781 104.454 206.1 104.818C206.419 105.18 206.852 105.36 207.398 105.36C207.913 105.36 208.367 105.198 208.761 104.872C209.155 104.547 209.459 104.091 209.674 103.505C209.892 102.916 210.001 102.265 210.001 101.552C210.001 100.904 209.848 100.399 209.542 100.038C209.236 99.6735 208.811 99.4912 208.268 99.4912ZM207.54 106.088L207.457 106.098H207.379C206.546 106.098 205.896 105.855 205.431 105.37C204.965 104.882 204.732 104.198 204.732 103.319C204.732 102.46 204.889 101.675 205.201 100.966C205.514 100.256 205.942 99.7093 206.485 99.3252C207.032 98.9411 207.647 98.749 208.331 98.749C209.125 98.749 209.75 98.9997 210.206 99.501C210.662 100.002 210.89 100.692 210.89 101.571C210.89 102.655 210.663 103.593 210.211 104.384C209.758 105.175 209.148 105.697 208.38 105.951L209.718 107.699H208.648L207.54 106.088ZM218.077 98.8613L217.076 103.578C216.897 104.434 216.575 105.069 216.109 105.482C215.647 105.893 215.016 106.098 214.215 106.098C213.466 106.098 212.911 105.928 212.55 105.59C212.188 105.251 212.008 104.765 212.008 104.13C212.008 103.866 212.047 103.539 212.125 103.148L213.048 98.8613H213.878L212.945 103.212C212.874 103.557 212.838 103.863 212.838 104.13C212.838 104.511 212.957 104.812 213.194 105.033C213.432 105.251 213.787 105.36 214.259 105.36C214.819 105.36 215.253 105.219 215.562 104.936C215.875 104.649 216.103 104.177 216.246 103.52L217.247 98.8613H218.077ZM221.935 103.729H219.513L218.316 106H217.394L221.295 98.8613H222.145L223.043 106H222.213L221.935 103.729ZM221.847 102.968L221.676 101.508C221.598 100.925 221.55 100.355 221.534 99.7988C221.414 100.085 221.282 100.37 221.139 100.653C220.999 100.937 220.593 101.708 219.923 102.968H221.847Z" fill="white"/>
<rect x="248" y="94" width="44" height="18" rx="9" fill="black"/>
<path d="M265.268 99.4912C264.757 99.4912 264.299 99.6556 263.896 99.9844C263.492 100.313 263.178 100.771 262.953 101.356C262.732 101.942 262.621 102.59 262.621 103.3C262.621 103.948 262.781 104.454 263.1 104.818C263.419 105.18 263.852 105.36 264.398 105.36C264.913 105.36 265.367 105.198 265.761 104.872C266.155 104.547 266.459 104.091 266.674 103.505C266.892 102.916 267.001 102.265 267.001 101.552C267.001 100.904 266.848 100.399 266.542 100.038C266.236 99.6735 265.811 99.4912 265.268 99.4912ZM264.54 106.088L264.457 106.098H264.379C263.546 106.098 262.896 105.855 262.431 105.37C261.965 104.882 261.732 104.198 261.732 103.319C261.732 102.46 261.889 101.675 262.201 100.966C262.514 100.256 262.942 99.7093 263.485 99.3252C264.032 98.9411 264.647 98.749 265.331 98.749C266.125 98.749 266.75 98.9997 267.206 99.501C267.662 100.002 267.89 100.692 267.89 101.571C267.89 102.655 267.663 103.593 267.211 104.384C266.758 105.175 266.148 105.697 265.38 105.951L266.718 107.699H265.648L264.54 106.088ZM275.077 98.8613L274.076 103.578C273.897 104.434 273.575 105.069 273.109 105.482C272.647 105.893 272.016 106.098 271.215 106.098C270.466 106.098 269.911 105.928 269.55 105.59C269.188 105.251 269.008 104.765 269.008 104.13C269.008 103.866 269.047 103.539 269.125 103.148L270.048 98.8613H270.878L269.945 103.212C269.874 103.557 269.838 103.863 269.838 104.13C269.838 104.511 269.957 104.812 270.194 105.033C270.432 105.251 270.787 105.36 271.259 105.36C271.819 105.36 272.253 105.219 272.562 104.936C272.875 104.649 273.103 104.177 273.246 103.52L274.247 98.8613H275.077ZM275.385 106L276.903 98.8613H277.724L276.205 106H275.385Z" fill="white"/>
<rect x="303" y="94" width="44" height="18" rx="9" fill="black"/>
<path d="M320.458 103.93C320.458 104.617 320.229 105.15 319.77 105.531C319.314 105.909 318.671 106.098 317.841 106.098C317.496 106.098 317.191 106.073 316.928 106.024C316.667 105.979 316.422 105.901 316.19 105.79V104.96C316.718 105.233 317.271 105.37 317.851 105.37C318.378 105.37 318.796 105.248 319.105 105.004C319.415 104.757 319.569 104.418 319.569 103.988C319.569 103.734 319.483 103.511 319.311 103.319C319.141 103.124 318.824 102.895 318.358 102.631C317.867 102.354 317.525 102.077 317.333 101.801C317.144 101.524 317.05 101.197 317.05 100.819C317.05 100.211 317.265 99.7158 317.694 99.335C318.124 98.9508 318.689 98.7588 319.389 98.7588C319.711 98.7588 320.01 98.7897 320.287 98.8516C320.567 98.9134 320.862 99.0192 321.171 99.1689L320.849 99.9014C320.634 99.7777 320.393 99.68 320.126 99.6084C319.859 99.5368 319.613 99.501 319.389 99.501C318.952 99.501 318.601 99.6149 318.334 99.8428C318.07 100.067 317.938 100.373 317.938 100.761C317.938 100.937 317.966 101.088 318.021 101.215C318.077 101.339 318.165 101.456 318.285 101.566C318.406 101.677 318.637 101.832 318.979 102.03C319.457 102.317 319.779 102.541 319.945 102.704C320.115 102.867 320.242 103.048 320.326 103.246C320.414 103.441 320.458 103.669 320.458 103.93ZM325.028 106H321.439L322.948 98.8613H326.537L326.381 99.6084H323.617L323.139 101.898H325.712L325.57 102.641H322.987L322.431 105.258H325.189L325.028 106ZM330.805 106H329.926L328.886 102.87L326.537 106H325.629L328.539 102.211L327.255 98.8613H328.095L329.086 101.61L331.249 98.8613H332.157L329.447 102.25L330.805 106Z" fill="white"/>
<path d="M39.3516 132.968C39.3516 131.555 39.6494 130.504 40.2451 129.813C40.8441 129.123 41.7393 128.778 42.9307 128.778C43.3376 128.778 43.6566 128.803 43.8877 128.852V130.058C43.598 129.993 43.3115 129.96 43.0283 129.96C42.5107 129.96 42.0876 130.038 41.7588 130.194C41.4333 130.351 41.1891 130.582 41.0264 130.888C40.8636 131.194 40.7676 131.628 40.7383 132.191H40.8018C41.124 131.638 41.64 131.361 42.3496 131.361C42.9876 131.361 43.4873 131.562 43.8486 131.962C44.21 132.362 44.3906 132.916 44.3906 133.622C44.3906 134.384 44.1758 134.988 43.7461 135.434C43.3164 135.876 42.7207 136.098 41.959 136.098C41.4316 136.098 40.971 135.976 40.5771 135.731C40.1865 135.487 39.8838 135.131 39.6689 134.662C39.4574 134.193 39.3516 133.629 39.3516 132.968ZM41.9297 134.892C42.252 134.892 42.4993 134.784 42.6719 134.569C42.8444 134.351 42.9307 134.042 42.9307 133.642C42.9307 133.293 42.8493 133.02 42.6865 132.821C42.527 132.619 42.2845 132.519 41.959 132.519C41.653 132.519 41.391 132.618 41.1729 132.816C40.958 133.015 40.8506 133.246 40.8506 133.51C40.8506 133.897 40.9515 134.224 41.1533 134.491C41.3584 134.758 41.6172 134.892 41.9297 134.892ZM45.2842 135.302C45.2842 135.028 45.3574 134.822 45.5039 134.682C45.6504 134.542 45.8636 134.472 46.1436 134.472C46.4137 134.472 46.6221 134.543 46.7686 134.687C46.9183 134.83 46.9932 135.035 46.9932 135.302C46.9932 135.559 46.9183 135.762 46.7686 135.912C46.6188 136.059 46.4105 136.132 46.1436 136.132C45.8701 136.132 45.6585 136.06 45.5088 135.917C45.359 135.771 45.2842 135.565 45.2842 135.302ZM45.2842 131.269C45.2842 130.995 45.3574 130.788 45.5039 130.648C45.6504 130.508 45.8636 130.438 46.1436 130.438C46.4137 130.438 46.6221 130.51 46.7686 130.653C46.9183 130.797 46.9932 131.002 46.9932 131.269C46.9932 131.532 46.9167 131.737 46.7637 131.884C46.6139 132.027 46.4072 132.099 46.1436 132.099C45.8701 132.099 45.6585 132.027 45.5088 131.884C45.359 131.741 45.2842 131.535 45.2842 131.269ZM52.916 132.431C52.916 133.677 52.7109 134.6 52.3008 135.199C51.8939 135.798 51.2656 136.098 50.416 136.098C49.5924 136.098 48.9707 135.788 48.5508 135.17C48.1341 134.551 47.9258 133.638 47.9258 132.431C47.9258 131.171 48.1292 130.243 48.5361 129.647C48.943 129.049 49.5697 128.749 50.416 128.749C51.2396 128.749 51.8613 129.062 52.2812 129.687C52.7044 130.312 52.916 131.226 52.916 132.431ZM49.4248 132.431C49.4248 133.306 49.4997 133.935 49.6494 134.315C49.8024 134.693 50.0579 134.882 50.416 134.882C50.7676 134.882 51.0215 134.69 51.1777 134.306C51.334 133.922 51.4121 133.297 51.4121 132.431C51.4121 131.555 51.3324 130.927 51.1729 130.546C51.0166 130.162 50.7643 129.97 50.416 129.97C50.0612 129.97 49.8073 130.162 49.6543 130.546C49.5013 130.927 49.4248 131.555 49.4248 132.431ZM58.6289 132.431C58.6289 133.677 58.4238 134.6 58.0137 135.199C57.6068 135.798 56.9785 136.098 56.1289 136.098C55.3053 136.098 54.6836 135.788 54.2637 135.17C53.847 134.551 53.6387 133.638 53.6387 132.431C53.6387 131.171 53.8421 130.243 54.249 129.647C54.6559 129.049 55.2826 128.749 56.1289 128.749C56.9525 128.749 57.5742 129.062 57.9941 129.687C58.4173 130.312 58.6289 131.226 58.6289 132.431ZM55.1377 132.431C55.1377 133.306 55.2126 133.935 55.3623 134.315C55.5153 134.693 55.7708 134.882 56.1289 134.882C56.4805 134.882 56.7344 134.69 56.8906 134.306C57.0469 133.922 57.125 133.297 57.125 132.431C57.125 131.555 57.0452 130.927 56.8857 130.546C56.7295 130.162 56.4772 129.97 56.1289 129.97C55.7741 129.97 55.5202 130.162 55.3672 130.546C55.2142 130.927 55.1377 131.555 55.1377 132.431Z" fill="white"/>
<path d="M40.1084 179L42.7891 173.141H39.2686V171.871H44.3906V172.818L41.6904 179H40.1084ZM45.2842 178.302C45.2842 178.028 45.3574 177.822 45.5039 177.682C45.6504 177.542 45.8636 177.472 46.1436 177.472C46.4137 177.472 46.6221 177.543 46.7686 177.687C46.9183 177.83 46.9932 178.035 46.9932 178.302C46.9932 178.559 46.9183 178.762 46.7686 178.912C46.6188 179.059 46.4105 179.132 46.1436 179.132C45.8701 179.132 45.6585 179.06 45.5088 178.917C45.359 178.771 45.2842 178.565 45.2842 178.302ZM45.2842 174.269C45.2842 173.995 45.3574 173.788 45.5039 173.648C45.6504 173.508 45.8636 173.438 46.1436 173.438C46.4137 173.438 46.6221 173.51 46.7686 173.653C46.9183 173.797 46.9932 174.002 46.9932 174.269C46.9932 174.532 46.9167 174.737 46.7637 174.884C46.6139 175.027 46.4072 175.099 46.1436 175.099C45.8701 175.099 45.6585 175.027 45.5088 174.884C45.359 174.741 45.2842 174.535 45.2842 174.269ZM52.916 175.431C52.916 176.677 52.7109 177.6 52.3008 178.199C51.8939 178.798 51.2656 179.098 50.416 179.098C49.5924 179.098 48.9707 178.788 48.5508 178.17C48.1341 177.551 47.9258 176.638 47.9258 175.431C47.9258 174.171 48.1292 173.243 48.5361 172.647C48.943 172.049 49.5697 171.749 50.416 171.749C51.2396 171.749 51.8613 172.062 52.2812 172.687C52.7044 173.312 52.916 174.226 52.916 175.431ZM49.4248 175.431C49.4248 176.306 49.4997 176.935 49.6494 177.315C49.8024 177.693 50.0579 177.882 50.416 177.882C50.7676 177.882 51.0215 177.69 51.1777 177.306C51.334 176.922 51.4121 176.297 51.4121 175.431C51.4121 174.555 51.3324 173.927 51.1729 173.546C51.0166 173.162 50.7643 172.97 50.416 172.97C50.0612 172.97 49.8073 173.162 49.6543 173.546C49.5013 173.927 49.4248 174.555 49.4248 175.431ZM58.6289 175.431C58.6289 176.677 58.4238 177.6 58.0137 178.199C57.6068 178.798 56.9785 179.098 56.1289 179.098C55.3053 179.098 54.6836 178.788 54.2637 178.17C53.847 177.551 53.6387 176.638 53.6387 175.431C53.6387 174.171 53.8421 173.243 54.249 172.647C54.6559 172.049 55.2826 171.749 56.1289 171.749C56.9525 171.749 57.5742 172.062 57.9941 172.687C58.4173 173.312 58.6289 174.226 58.6289 175.431ZM55.1377 175.431C55.1377 176.306 55.2126 176.935 55.3623 177.315C55.5153 177.693 55.7708 177.882 56.1289 177.882C56.4805 177.882 56.7344 177.69 56.8906 177.306C57.0469 176.922 57.125 176.297 57.125 175.431C57.125 174.555 57.0452 173.927 56.8857 173.546C56.7295 173.162 56.4772 172.97 56.1289 172.97C55.7741 172.97 55.5202 173.162 55.3672 173.546C55.2142 173.927 55.1377 174.555 55.1377 175.431Z" fill="white"/>
<path d="M41.8613 213.769C42.5449 213.769 43.0951 213.925 43.5117 214.237C43.9316 214.547 44.1416 214.965 44.1416 215.492C44.1416 215.857 44.0407 216.182 43.8389 216.469C43.637 216.752 43.3115 217.006 42.8623 217.23C43.3962 217.517 43.7786 217.816 44.0098 218.129C44.2441 218.438 44.3613 218.778 44.3613 219.149C44.3613 219.735 44.1318 220.207 43.6729 220.565C43.2139 220.92 42.61 221.098 41.8613 221.098C41.0801 221.098 40.4665 220.932 40.0205 220.6C39.5745 220.268 39.3516 219.797 39.3516 219.188C39.3516 218.782 39.459 218.42 39.6738 218.104C39.8919 217.789 40.2402 217.51 40.7188 217.27C40.3118 217.012 40.0189 216.737 39.8398 216.444C39.6608 216.151 39.5713 215.831 39.5713 215.482C39.5713 214.971 39.7829 214.558 40.2061 214.242C40.6292 213.926 41.181 213.769 41.8613 213.769ZM40.748 219.101C40.748 219.381 40.8457 219.599 41.041 219.755C41.2363 219.911 41.5033 219.989 41.8418 219.989C42.2161 219.989 42.4961 219.91 42.6816 219.75C42.8672 219.587 42.96 219.374 42.96 219.11C42.96 218.892 42.8672 218.689 42.6816 218.5C42.4993 218.308 42.2015 218.104 41.7881 217.89C41.0947 218.209 40.748 218.612 40.748 219.101ZM41.8516 214.872C41.5944 214.872 41.3861 214.939 41.2266 215.072C41.0703 215.202 40.9922 215.378 40.9922 215.6C40.9922 215.795 41.054 215.971 41.1777 216.127C41.3047 216.28 41.5326 216.438 41.8613 216.601C42.1803 216.451 42.4033 216.298 42.5303 216.142C42.6572 215.985 42.7207 215.805 42.7207 215.6C42.7207 215.375 42.6393 215.198 42.4766 215.067C42.3138 214.937 42.1055 214.872 41.8516 214.872ZM45.2842 220.302C45.2842 220.028 45.3574 219.822 45.5039 219.682C45.6504 219.542 45.8636 219.472 46.1436 219.472C46.4137 219.472 46.6221 219.543 46.7686 219.687C46.9183 219.83 46.9932 220.035 46.9932 220.302C46.9932 220.559 46.9183 220.762 46.7686 220.912C46.6188 221.059 46.4105 221.132 46.1436 221.132C45.8701 221.132 45.6585 221.06 45.5088 220.917C45.359 220.771 45.2842 220.565 45.2842 220.302ZM45.2842 216.269C45.2842 215.995 45.3574 215.788 45.5039 215.648C45.6504 215.508 45.8636 215.438 46.1436 215.438C46.4137 215.438 46.6221 215.51 46.7686 215.653C46.9183 215.797 46.9932 216.002 46.9932 216.269C46.9932 216.532 46.9167 216.737 46.7637 216.884C46.6139 217.027 46.4072 217.099 46.1436 217.099C45.8701 217.099 45.6585 217.027 45.5088 216.884C45.359 216.741 45.2842 216.535 45.2842 216.269ZM52.916 217.431C52.916 218.677 52.7109 219.6 52.3008 220.199C51.8939 220.798 51.2656 221.098 50.416 221.098C49.5924 221.098 48.9707 220.788 48.5508 220.17C48.1341 219.551 47.9258 218.638 47.9258 217.431C47.9258 216.171 48.1292 215.243 48.5361 214.647C48.943 214.049 49.5697 213.749 50.416 213.749C51.2396 213.749 51.8613 214.062 52.2812 214.687C52.7044 215.312 52.916 216.226 52.916 217.431ZM49.4248 217.431C49.4248 218.306 49.4997 218.935 49.6494 219.315C49.8024 219.693 50.0579 219.882 50.416 219.882C50.7676 219.882 51.0215 219.69 51.1777 219.306C51.334 218.922 51.4121 218.297 51.4121 217.431C51.4121 216.555 51.3324 215.927 51.1729 215.546C51.0166 215.162 50.7643 214.97 50.416 214.97C50.0612 214.97 49.8073 215.162 49.6543 215.546C49.5013 215.927 49.4248 216.555 49.4248 217.431ZM58.6289 217.431C58.6289 218.677 58.4238 219.6 58.0137 220.199C57.6068 220.798 56.9785 221.098 56.1289 221.098C55.3053 221.098 54.6836 220.788 54.2637 220.17C53.847 219.551 53.6387 218.638 53.6387 217.431C53.6387 216.171 53.8421 215.243 54.249 214.647C54.6559 214.049 55.2826 213.749 56.1289 213.749C56.9525 213.749 57.5742 214.062 57.9941 214.687C58.4173 215.312 58.6289 216.226 58.6289 217.431ZM55.1377 217.431C55.1377 218.306 55.2126 218.935 55.3623 219.315C55.5153 219.693 55.7708 219.882 56.1289 219.882C56.4805 219.882 56.7344 219.69 56.8906 219.306C57.0469 218.922 57.125 218.297 57.125 217.431C57.125 216.555 57.0452 215.927 56.8857 215.546C56.7295 215.162 56.4772 214.97 56.1289 214.97C55.7741 214.97 55.5202 215.162 55.3672 215.546C55.2142 215.927 55.1377 216.555 55.1377 217.431Z" fill="white"/>
<path d="M44.3613 259.908C44.3613 261.314 44.0651 262.364 43.4727 263.058C42.8802 263.751 41.9834 264.098 40.7822 264.098C40.359 264.098 40.0384 264.075 39.8203 264.029V262.818C40.0938 262.887 40.3802 262.921 40.6797 262.921C41.1842 262.921 41.5993 262.848 41.9248 262.701C42.2503 262.551 42.4993 262.319 42.6719 262.003C42.8444 261.684 42.9437 261.246 42.9697 260.689H42.9111C42.7223 260.995 42.5042 261.21 42.2568 261.334C42.0094 261.458 41.7002 261.52 41.3291 261.52C40.7074 261.52 40.2174 261.321 39.8594 260.924C39.5013 260.523 39.3223 259.968 39.3223 259.259C39.3223 258.494 39.5387 257.89 39.9717 257.447C40.4079 257.001 41.0003 256.778 41.749 256.778C42.2764 256.778 42.737 256.902 43.1309 257.149C43.528 257.397 43.8324 257.757 44.0439 258.229C44.2555 258.697 44.3613 259.257 44.3613 259.908ZM41.7783 257.989C41.4658 257.989 41.2217 258.097 41.0459 258.312C40.8701 258.526 40.7822 258.836 40.7822 259.239C40.7822 259.584 40.862 259.858 41.0215 260.06C41.181 260.261 41.4235 260.362 41.749 260.362C42.055 260.362 42.3171 260.263 42.5352 260.064C42.7533 259.863 42.8623 259.632 42.8623 259.371C42.8623 258.984 42.7598 258.657 42.5547 258.39C42.3529 258.123 42.0941 257.989 41.7783 257.989ZM45.2842 263.302C45.2842 263.028 45.3574 262.822 45.5039 262.682C45.6504 262.542 45.8636 262.472 46.1436 262.472C46.4137 262.472 46.6221 262.543 46.7686 262.687C46.9183 262.83 46.9932 263.035 46.9932 263.302C46.9932 263.559 46.9183 263.762 46.7686 263.912C46.6188 264.059 46.4105 264.132 46.1436 264.132C45.8701 264.132 45.6585 264.06 45.5088 263.917C45.359 263.771 45.2842 263.565 45.2842 263.302ZM45.2842 259.269C45.2842 258.995 45.3574 258.788 45.5039 258.648C45.6504 258.508 45.8636 258.438 46.1436 258.438C46.4137 258.438 46.6221 258.51 46.7686 258.653C46.9183 258.797 46.9932 259.002 46.9932 259.269C46.9932 259.532 46.9167 259.737 46.7637 259.884C46.6139 260.027 46.4072 260.099 46.1436 260.099C45.8701 260.099 45.6585 260.027 45.5088 259.884C45.359 259.741 45.2842 259.535 45.2842 259.269ZM52.916 260.431C52.916 261.677 52.7109 262.6 52.3008 263.199C51.8939 263.798 51.2656 264.098 50.416 264.098C49.5924 264.098 48.9707 263.788 48.5508 263.17C48.1341 262.551 47.9258 261.638 47.9258 260.431C47.9258 259.171 48.1292 258.243 48.5361 257.647C48.943 257.049 49.5697 256.749 50.416 256.749C51.2396 256.749 51.8613 257.062 52.2812 257.687C52.7044 258.312 52.916 259.226 52.916 260.431ZM49.4248 260.431C49.4248 261.306 49.4997 261.935 49.6494 262.315C49.8024 262.693 50.0579 262.882 50.416 262.882C50.7676 262.882 51.0215 262.69 51.1777 262.306C51.334 261.922 51.4121 261.297 51.4121 260.431C51.4121 259.555 51.3324 258.927 51.1729 258.546C51.0166 258.162 50.7643 257.97 50.416 257.97C50.0612 257.97 49.8073 258.162 49.6543 258.546C49.5013 258.927 49.4248 259.555 49.4248 260.431ZM58.6289 260.431C58.6289 261.677 58.4238 262.6 58.0137 263.199C57.6068 263.798 56.9785 264.098 56.1289 264.098C55.3053 264.098 54.6836 263.788 54.2637 263.17C53.847 262.551 53.6387 261.638 53.6387 260.431C53.6387 259.171 53.8421 258.243 54.249 257.647C54.6559 257.049 55.2826 256.749 56.1289 256.749C56.9525 256.749 57.5742 257.062 57.9941 257.687C58.4173 258.312 58.6289 259.226 58.6289 260.431ZM55.1377 260.431C55.1377 261.306 55.2126 261.935 55.3623 262.315C55.5153 262.693 55.7708 262.882 56.1289 262.882C56.4805 262.882 56.7344 262.69 56.8906 262.306C57.0469 261.922 57.125 261.297 57.125 260.431C57.125 259.555 57.0452 258.927 56.8857 258.546C56.7295 258.162 56.4772 257.97 56.1289 257.97C55.7741 257.97 55.5202 258.162 55.3672 258.546C55.2142 258.927 55.1377 259.555 55.1377 260.431Z" fill="white"/>
<path d="M41.1309 303H39.6221V298.869L39.6367 298.19L39.6611 297.448C39.4105 297.699 39.2363 297.863 39.1387 297.941L38.3184 298.601L37.5908 297.692L39.8906 295.861H41.1309V303ZM48.0645 299.431C48.0645 300.677 47.8594 301.6 47.4492 302.199C47.0423 302.798 46.4141 303.098 45.5645 303.098C44.7409 303.098 44.1191 302.788 43.6992 302.17C43.2826 301.551 43.0742 300.638 43.0742 299.431C43.0742 298.171 43.2777 297.243 43.6846 296.647C44.0915 296.049 44.7181 295.749 45.5645 295.749C46.388 295.749 47.0098 296.062 47.4297 296.687C47.8529 297.312 48.0645 298.226 48.0645 299.431ZM44.5732 299.431C44.5732 300.306 44.6481 300.935 44.7979 301.315C44.9508 301.693 45.2064 301.882 45.5645 301.882C45.916 301.882 46.1699 301.69 46.3262 301.306C46.4824 300.922 46.5605 300.297 46.5605 299.431C46.5605 298.555 46.4808 297.927 46.3213 297.546C46.165 297.162 45.9128 296.97 45.5645 296.97C45.2096 296.97 44.9557 297.162 44.8027 297.546C44.6497 297.927 44.5732 298.555 44.5732 299.431ZM48.9971 302.302C48.9971 302.028 49.0703 301.822 49.2168 301.682C49.3633 301.542 49.5765 301.472 49.8564 301.472C50.1266 301.472 50.335 301.543 50.4814 301.687C50.6312 301.83 50.7061 302.035 50.7061 302.302C50.7061 302.559 50.6312 302.762 50.4814 302.912C50.3317 303.059 50.1234 303.132 49.8564 303.132C49.583 303.132 49.3714 303.06 49.2217 302.917C49.0719 302.771 48.9971 302.565 48.9971 302.302ZM48.9971 298.269C48.9971 297.995 49.0703 297.788 49.2168 297.648C49.3633 297.508 49.5765 297.438 49.8564 297.438C50.1266 297.438 50.335 297.51 50.4814 297.653C50.6312 297.797 50.7061 298.002 50.7061 298.269C50.7061 298.532 50.6296 298.737 50.4766 298.884C50.3268 299.027 50.1201 299.099 49.8564 299.099C49.583 299.099 49.3714 299.027 49.2217 298.884C49.0719 298.741 48.9971 298.535 48.9971 298.269ZM56.6289 299.431C56.6289 300.677 56.4238 301.6 56.0137 302.199C55.6068 302.798 54.9785 303.098 54.1289 303.098C53.3053 303.098 52.6836 302.788 52.2637 302.17C51.847 301.551 51.6387 300.638 51.6387 299.431C51.6387 298.171 51.8421 297.243 52.249 296.647C52.6559 296.049 53.2826 295.749 54.1289 295.749C54.9525 295.749 55.5742 296.062 55.9941 296.687C56.4173 297.312 56.6289 298.226 56.6289 299.431ZM53.1377 299.431C53.1377 300.306 53.2126 300.935 53.3623 301.315C53.5153 301.693 53.7708 301.882 54.1289 301.882C54.4805 301.882 54.7344 301.69 54.8906 301.306C55.0469 300.922 55.125 300.297 55.125 299.431C55.125 298.555 55.0452 297.927 54.8857 297.546C54.7295 297.162 54.4772 296.97 54.1289 296.97C53.7741 296.97 53.5202 297.162 53.3672 297.546C53.2142 297.927 53.1377 298.555 53.1377 299.431ZM62.3418 299.431C62.3418 300.677 62.1367 301.6 61.7266 302.199C61.3197 302.798 60.6914 303.098 59.8418 303.098C59.0182 303.098 58.3965 302.788 57.9766 302.17C57.5599 301.551 57.3516 300.638 57.3516 299.431C57.3516 298.171 57.555 297.243 57.9619 296.647C58.3688 296.049 58.9954 295.749 59.8418 295.749C60.6654 295.749 61.2871 296.062 61.707 296.687C62.1302 297.312 62.3418 298.226 62.3418 299.431ZM58.8506 299.431C58.8506 300.306 58.9255 300.935 59.0752 301.315C59.2282 301.693 59.4837 301.882 59.8418 301.882C60.1934 301.882 60.4473 301.69 60.6035 301.306C60.7598 300.922 60.8379 300.297 60.8379 299.431C60.8379 298.555 60.7581 297.927 60.5986 297.546C60.4424 297.162 60.1901 296.97 59.8418 296.97C59.487 296.97 59.2331 297.162 59.0801 297.546C58.9271 297.927 58.8506 298.555 58.8506 299.431Z" fill="white"/>
<path d="M39.1309 442H37.6221V437.869L37.6367 437.19L37.6611 436.448C37.4105 436.699 37.2363 436.863 37.1387 436.941L36.3184 437.601L35.5908 436.692L37.8906 434.861H39.1309V442ZM45.8252 436.458C45.8252 436.904 45.6901 437.283 45.4199 437.596C45.1497 437.908 44.7705 438.123 44.2822 438.24V438.27C44.8584 438.341 45.2946 438.517 45.5908 438.797C45.887 439.074 46.0352 439.448 46.0352 439.92C46.0352 440.607 45.7861 441.142 45.2881 441.526C44.79 441.907 44.0788 442.098 43.1543 442.098C42.3796 442.098 41.6927 441.969 41.0938 441.712V440.428C41.3704 440.568 41.6748 440.682 42.0068 440.77C42.3389 440.857 42.6676 440.901 42.9932 440.901C43.4912 440.901 43.859 440.817 44.0967 440.647C44.3343 440.478 44.4531 440.206 44.4531 439.832C44.4531 439.497 44.3164 439.259 44.043 439.119C43.7695 438.979 43.3333 438.909 42.7344 438.909H42.1924V437.752H42.7441C43.2975 437.752 43.7012 437.68 43.9551 437.537C44.2122 437.391 44.3408 437.142 44.3408 436.79C44.3408 436.25 44.0023 435.979 43.3252 435.979C43.0908 435.979 42.8516 436.019 42.6074 436.097C42.3665 436.175 42.098 436.31 41.8018 436.502L41.1035 435.462C41.7546 434.993 42.5309 434.759 43.4326 434.759C44.1715 434.759 44.7542 434.909 45.1807 435.208C45.6104 435.507 45.8252 435.924 45.8252 436.458ZM46.9971 441.302C46.9971 441.028 47.0703 440.822 47.2168 440.682C47.3633 440.542 47.5765 440.472 47.8564 440.472C48.1266 440.472 48.335 440.543 48.4814 440.687C48.6312 440.83 48.7061 441.035 48.7061 441.302C48.7061 441.559 48.6312 441.762 48.4814 441.912C48.3317 442.059 48.1234 442.132 47.8564 442.132C47.583 442.132 47.3714 442.06 47.2217 441.917C47.0719 441.771 46.9971 441.565 46.9971 441.302ZM46.9971 437.269C46.9971 436.995 47.0703 436.788 47.2168 436.648C47.3633 436.508 47.5765 436.438 47.8564 436.438C48.1266 436.438 48.335 436.51 48.4814 436.653C48.6312 436.797 48.7061 437.002 48.7061 437.269C48.7061 437.532 48.6296 437.737 48.4766 437.884C48.3268 438.027 48.1201 438.099 47.8564 438.099C47.583 438.099 47.3714 438.027 47.2217 437.884C47.0719 437.741 46.9971 437.535 46.9971 437.269ZM54.6289 438.431C54.6289 439.677 54.4238 440.6 54.0137 441.199C53.6068 441.798 52.9785 442.098 52.1289 442.098C51.3053 442.098 50.6836 441.788 50.2637 441.17C49.847 440.551 49.6387 439.638 49.6387 438.431C49.6387 437.171 49.8421 436.243 50.249 435.647C50.6559 435.049 51.2826 434.749 52.1289 434.749C52.9525 434.749 53.5742 435.062 53.9941 435.687C54.4173 436.312 54.6289 437.226 54.6289 438.431ZM51.1377 438.431C51.1377 439.306 51.2126 439.935 51.3623 440.315C51.5153 440.693 51.7708 440.882 52.1289 440.882C52.4805 440.882 52.7344 440.69 52.8906 440.306C53.0469 439.922 53.125 439.297 53.125 438.431C53.125 437.555 53.0452 436.927 52.8857 436.546C52.7295 436.162 52.4772 435.97 52.1289 435.97C51.7741 435.97 51.5202 436.162 51.3672 436.546C51.2142 436.927 51.1377 437.555 51.1377 438.431ZM60.3418 438.431C60.3418 439.677 60.1367 440.6 59.7266 441.199C59.3197 441.798 58.6914 442.098 57.8418 442.098C57.0182 442.098 56.3965 441.788 55.9766 441.17C55.5599 440.551 55.3516 439.638 55.3516 438.431C55.3516 437.171 55.555 436.243 55.9619 435.647C56.3688 435.049 56.9954 434.749 57.8418 434.749C58.6654 434.749 59.2871 435.062 59.707 435.687C60.1302 436.312 60.3418 437.226 60.3418 438.431ZM56.8506 438.431C56.8506 439.306 56.9255 439.935 57.0752 440.315C57.2282 440.693 57.4837 440.882 57.8418 440.882C58.1934 440.882 58.4473 440.69 58.6035 440.306C58.7598 439.922 58.8379 439.297 58.8379 438.431C58.8379 437.555 58.7581 436.927 58.5986 436.546C58.4424 436.162 58.1901 435.97 57.8418 435.97C57.487 435.97 57.2331 436.162 57.0801 436.546C56.9271 436.927 56.8506 437.555 56.8506 438.431Z" fill="white"/>
<path d="M41.1309 351H39.6221V346.869L39.6367 346.19L39.6611 345.448C39.4105 345.699 39.2363 345.863 39.1387 345.941L38.3184 346.601L37.5908 345.692L39.8906 343.861H41.1309V351ZM46.8438 351H45.335V346.869L45.3496 346.19L45.374 345.448C45.1234 345.699 44.9492 345.863 44.8516 345.941L44.0312 346.601L43.3037 345.692L45.6035 343.861H46.8438V351ZM48.9971 350.302C48.9971 350.028 49.0703 349.822 49.2168 349.682C49.3633 349.542 49.5765 349.472 49.8564 349.472C50.1266 349.472 50.335 349.543 50.4814 349.687C50.6312 349.83 50.7061 350.035 50.7061 350.302C50.7061 350.559 50.6312 350.762 50.4814 350.912C50.3317 351.059 50.1234 351.132 49.8564 351.132C49.583 351.132 49.3714 351.06 49.2217 350.917C49.0719 350.771 48.9971 350.565 48.9971 350.302ZM48.9971 346.269C48.9971 345.995 49.0703 345.788 49.2168 345.648C49.3633 345.508 49.5765 345.438 49.8564 345.438C50.1266 345.438 50.335 345.51 50.4814 345.653C50.6312 345.797 50.7061 346.002 50.7061 346.269C50.7061 346.532 50.6296 346.737 50.4766 346.884C50.3268 347.027 50.1201 347.099 49.8564 347.099C49.583 347.099 49.3714 347.027 49.2217 346.884C49.0719 346.741 48.9971 346.535 48.9971 346.269ZM56.6289 347.431C56.6289 348.677 56.4238 349.6 56.0137 350.199C55.6068 350.798 54.9785 351.098 54.1289 351.098C53.3053 351.098 52.6836 350.788 52.2637 350.17C51.847 349.551 51.6387 348.638 51.6387 347.431C51.6387 346.171 51.8421 345.243 52.249 344.647C52.6559 344.049 53.2826 343.749 54.1289 343.749C54.9525 343.749 55.5742 344.062 55.9941 344.687C56.4173 345.312 56.6289 346.226 56.6289 347.431ZM53.1377 347.431C53.1377 348.306 53.2126 348.935 53.3623 349.315C53.5153 349.693 53.7708 349.882 54.1289 349.882C54.4805 349.882 54.7344 349.69 54.8906 349.306C55.0469 348.922 55.125 348.297 55.125 347.431C55.125 346.555 55.0452 345.927 54.8857 345.546C54.7295 345.162 54.4772 344.97 54.1289 344.97C53.7741 344.97 53.5202 345.162 53.3672 345.546C53.2142 345.927 53.1377 346.555 53.1377 347.431ZM62.3418 347.431C62.3418 348.677 62.1367 349.6 61.7266 350.199C61.3197 350.798 60.6914 351.098 59.8418 351.098C59.0182 351.098 58.3965 350.788 57.9766 350.17C57.5599 349.551 57.3516 348.638 57.3516 347.431C57.3516 346.171 57.555 345.243 57.9619 344.647C58.3688 344.049 58.9954 343.749 59.8418 343.749C60.6654 343.749 61.2871 344.062 61.707 344.687C62.1302 345.312 62.3418 346.226 62.3418 347.431ZM58.8506 347.431C58.8506 348.306 58.9255 348.935 59.0752 349.315C59.2282 349.693 59.4837 349.882 59.8418 349.882C60.1934 349.882 60.4473 349.69 60.6035 349.306C60.7598 348.922 60.8379 348.297 60.8379 347.431C60.8379 346.555 60.7581 345.927 60.5986 345.546C60.4424 345.162 60.1901 344.97 59.8418 344.97C59.487 344.97 59.2331 345.162 59.0801 345.546C58.9271 345.927 58.8506 346.555 58.8506 347.431Z" fill="white"/>
<path d="M39.1309 487H37.6221V482.869L37.6367 482.19L37.6611 481.448C37.4105 481.699 37.2363 481.863 37.1387 481.941L36.3184 482.601L35.5908 481.692L37.8906 479.861H39.1309V487ZM46.2646 485.521H45.4053V487H43.9307V485.521H40.8838V484.471L44.0137 479.861H45.4053V484.349H46.2646V485.521ZM43.9307 484.349V483.138C43.9307 482.936 43.9388 482.643 43.9551 482.259C43.9714 481.875 43.9844 481.652 43.9941 481.59H43.9551C43.8346 481.857 43.6898 482.117 43.5205 482.371L42.2119 484.349H43.9307ZM46.9971 486.302C46.9971 486.028 47.0703 485.822 47.2168 485.682C47.3633 485.542 47.5765 485.472 47.8564 485.472C48.1266 485.472 48.335 485.543 48.4814 485.687C48.6312 485.83 48.7061 486.035 48.7061 486.302C48.7061 486.559 48.6312 486.762 48.4814 486.912C48.3317 487.059 48.1234 487.132 47.8564 487.132C47.583 487.132 47.3714 487.06 47.2217 486.917C47.0719 486.771 46.9971 486.565 46.9971 486.302ZM46.9971 482.269C46.9971 481.995 47.0703 481.788 47.2168 481.648C47.3633 481.508 47.5765 481.438 47.8564 481.438C48.1266 481.438 48.335 481.51 48.4814 481.653C48.6312 481.797 48.7061 482.002 48.7061 482.269C48.7061 482.532 48.6296 482.737 48.4766 482.884C48.3268 483.027 48.1201 483.099 47.8564 483.099C47.583 483.099 47.3714 483.027 47.2217 482.884C47.0719 482.741 46.9971 482.535 46.9971 482.269ZM54.6289 483.431C54.6289 484.677 54.4238 485.6 54.0137 486.199C53.6068 486.798 52.9785 487.098 52.1289 487.098C51.3053 487.098 50.6836 486.788 50.2637 486.17C49.847 485.551 49.6387 484.638 49.6387 483.431C49.6387 482.171 49.8421 481.243 50.249 480.647C50.6559 480.049 51.2826 479.749 52.1289 479.749C52.9525 479.749 53.5742 480.062 53.9941 480.687C54.4173 481.312 54.6289 482.226 54.6289 483.431ZM51.1377 483.431C51.1377 484.306 51.2126 484.935 51.3623 485.315C51.5153 485.693 51.7708 485.882 52.1289 485.882C52.4805 485.882 52.7344 485.69 52.8906 485.306C53.0469 484.922 53.125 484.297 53.125 483.431C53.125 482.555 53.0452 481.927 52.8857 481.546C52.7295 481.162 52.4772 480.97 52.1289 480.97C51.7741 480.97 51.5202 481.162 51.3672 481.546C51.2142 481.927 51.1377 482.555 51.1377 483.431ZM60.3418 483.431C60.3418 484.677 60.1367 485.6 59.7266 486.199C59.3197 486.798 58.6914 487.098 57.8418 487.098C57.0182 487.098 56.3965 486.788 55.9766 486.17C55.5599 485.551 55.3516 484.638 55.3516 483.431C55.3516 482.171 55.555 481.243 55.9619 480.647C56.3688 480.049 56.9954 479.749 57.8418 479.749C58.6654 479.749 59.2871 480.062 59.707 480.687C60.1302 481.312 60.3418 482.226 60.3418 483.431ZM56.8506 483.431C56.8506 484.306 56.9255 484.935 57.0752 485.315C57.2282 485.693 57.4837 485.882 57.8418 485.882C58.1934 485.882 58.4473 485.69 58.6035 485.306C58.7598 484.922 58.8379 484.297 58.8379 483.431C58.8379 482.555 58.7581 481.927 58.5986 481.546C58.4424 481.162 58.1901 480.97 57.8418 480.97C57.487 480.97 57.2331 481.162 57.0801 481.546C56.9271 481.927 56.8506 482.555 56.8506 483.431Z" fill="white"/>
<path d="M39.1309 530H37.6221V525.869L37.6367 525.19L37.6611 524.448C37.4105 524.699 37.2363 524.863 37.1387 524.941L36.3184 525.601L35.5908 524.692L37.8906 522.861H39.1309V530ZM43.7109 525.439C44.401 525.439 44.9495 525.633 45.3564 526.021C45.7666 526.408 45.9717 526.938 45.9717 527.612C45.9717 528.41 45.7259 529.023 45.2344 529.453C44.7428 529.883 44.0397 530.098 43.125 530.098C42.3307 530.098 41.6895 529.969 41.2012 529.712V528.408C41.4583 528.545 41.7578 528.657 42.0996 528.745C42.4414 528.83 42.7653 528.872 43.0713 528.872C43.9925 528.872 44.4531 528.494 44.4531 527.739C44.4531 527.02 43.9762 526.66 43.0225 526.66C42.8499 526.66 42.6595 526.678 42.4512 526.714C42.2428 526.746 42.0736 526.782 41.9434 526.821L41.3428 526.499L41.6113 522.861H45.4834V524.141H42.9346L42.8027 525.542L42.9736 525.508C43.1722 525.462 43.418 525.439 43.7109 525.439ZM46.9971 529.302C46.9971 529.028 47.0703 528.822 47.2168 528.682C47.3633 528.542 47.5765 528.472 47.8564 528.472C48.1266 528.472 48.335 528.543 48.4814 528.687C48.6312 528.83 48.7061 529.035 48.7061 529.302C48.7061 529.559 48.6312 529.762 48.4814 529.912C48.3317 530.059 48.1234 530.132 47.8564 530.132C47.583 530.132 47.3714 530.06 47.2217 529.917C47.0719 529.771 46.9971 529.565 46.9971 529.302ZM46.9971 525.269C46.9971 524.995 47.0703 524.788 47.2168 524.648C47.3633 524.508 47.5765 524.438 47.8564 524.438C48.1266 524.438 48.335 524.51 48.4814 524.653C48.6312 524.797 48.7061 525.002 48.7061 525.269C48.7061 525.532 48.6296 525.737 48.4766 525.884C48.3268 526.027 48.1201 526.099 47.8564 526.099C47.583 526.099 47.3714 526.027 47.2217 525.884C47.0719 525.741 46.9971 525.535 46.9971 525.269ZM54.6289 526.431C54.6289 527.677 54.4238 528.6 54.0137 529.199C53.6068 529.798 52.9785 530.098 52.1289 530.098C51.3053 530.098 50.6836 529.788 50.2637 529.17C49.847 528.551 49.6387 527.638 49.6387 526.431C49.6387 525.171 49.8421 524.243 50.249 523.647C50.6559 523.049 51.2826 522.749 52.1289 522.749C52.9525 522.749 53.5742 523.062 53.9941 523.687C54.4173 524.312 54.6289 525.226 54.6289 526.431ZM51.1377 526.431C51.1377 527.306 51.2126 527.935 51.3623 528.315C51.5153 528.693 51.7708 528.882 52.1289 528.882C52.4805 528.882 52.7344 528.69 52.8906 528.306C53.0469 527.922 53.125 527.297 53.125 526.431C53.125 525.555 53.0452 524.927 52.8857 524.546C52.7295 524.162 52.4772 523.97 52.1289 523.97C51.7741 523.97 51.5202 524.162 51.3672 524.546C51.2142 524.927 51.1377 525.555 51.1377 526.431ZM60.3418 526.431C60.3418 527.677 60.1367 528.6 59.7266 529.199C59.3197 529.798 58.6914 530.098 57.8418 530.098C57.0182 530.098 56.3965 529.788 55.9766 529.17C55.5599 528.551 55.3516 527.638 55.3516 526.431C55.3516 525.171 55.555 524.243 55.9619 523.647C56.3688 523.049 56.9954 522.749 57.8418 522.749C58.6654 522.749 59.2871 523.062 59.707 523.687C60.1302 524.312 60.3418 525.226 60.3418 526.431ZM56.8506 526.431C56.8506 527.306 56.9255 527.935 57.0752 528.315C57.2282 528.693 57.4837 528.882 57.8418 528.882C58.1934 528.882 58.4473 528.69 58.6035 528.306C58.7598 527.922 58.8379 527.297 58.8379 526.431C58.8379 525.555 58.7581 524.927 58.5986 524.546C58.4424 524.162 58.1901 523.97 57.8418 523.97C57.487 523.97 57.2331 524.162 57.0801 524.546C56.9271 524.927 56.8506 525.555 56.8506 526.431Z" fill="white"/>
<path d="M39.1309 575H37.6221V570.869L37.6367 570.19L37.6611 569.448C37.4105 569.699 37.2363 569.863 37.1387 569.941L36.3184 570.601L35.5908 569.692L37.8906 567.861H39.1309V575ZM41.0645 571.968C41.0645 570.555 41.3623 569.504 41.958 568.813C42.557 568.123 43.4521 567.778 44.6436 567.778C45.0505 567.778 45.3695 567.803 45.6006 567.852V569.058C45.3109 568.993 45.0244 568.96 44.7412 568.96C44.2236 568.96 43.8005 569.038 43.4717 569.194C43.1462 569.351 42.902 569.582 42.7393 569.888C42.5765 570.194 42.4805 570.628 42.4512 571.191H42.5146C42.8369 570.638 43.3529 570.361 44.0625 570.361C44.7005 570.361 45.2002 570.562 45.5615 570.962C45.9229 571.362 46.1035 571.916 46.1035 572.622C46.1035 573.384 45.8887 573.988 45.459 574.434C45.0293 574.876 44.4336 575.098 43.6719 575.098C43.1445 575.098 42.6839 574.976 42.29 574.731C41.8994 574.487 41.5967 574.131 41.3818 573.662C41.1702 573.193 41.0645 572.629 41.0645 571.968ZM43.6426 573.892C43.9648 573.892 44.2122 573.784 44.3848 573.569C44.5573 573.351 44.6436 573.042 44.6436 572.642C44.6436 572.293 44.5622 572.02 44.3994 571.821C44.2399 571.619 43.9974 571.519 43.6719 571.519C43.3659 571.519 43.1038 571.618 42.8857 571.816C42.6709 572.015 42.5635 572.246 42.5635 572.51C42.5635 572.897 42.6644 573.224 42.8662 573.491C43.0713 573.758 43.3301 573.892 43.6426 573.892ZM46.9971 574.302C46.9971 574.028 47.0703 573.822 47.2168 573.682C47.3633 573.542 47.5765 573.472 47.8564 573.472C48.1266 573.472 48.335 573.543 48.4814 573.687C48.6312 573.83 48.7061 574.035 48.7061 574.302C48.7061 574.559 48.6312 574.762 48.4814 574.912C48.3317 575.059 48.1234 575.132 47.8564 575.132C47.583 575.132 47.3714 575.06 47.2217 574.917C47.0719 574.771 46.9971 574.565 46.9971 574.302ZM46.9971 570.269C46.9971 569.995 47.0703 569.788 47.2168 569.648C47.3633 569.508 47.5765 569.438 47.8564 569.438C48.1266 569.438 48.335 569.51 48.4814 569.653C48.6312 569.797 48.7061 570.002 48.7061 570.269C48.7061 570.532 48.6296 570.737 48.4766 570.884C48.3268 571.027 48.1201 571.099 47.8564 571.099C47.583 571.099 47.3714 571.027 47.2217 570.884C47.0719 570.741 46.9971 570.535 46.9971 570.269ZM54.6289 571.431C54.6289 572.677 54.4238 573.6 54.0137 574.199C53.6068 574.798 52.9785 575.098 52.1289 575.098C51.3053 575.098 50.6836 574.788 50.2637 574.17C49.847 573.551 49.6387 572.638 49.6387 571.431C49.6387 570.171 49.8421 569.243 50.249 568.647C50.6559 568.049 51.2826 567.749 52.1289 567.749C52.9525 567.749 53.5742 568.062 53.9941 568.687C54.4173 569.312 54.6289 570.226 54.6289 571.431ZM51.1377 571.431C51.1377 572.306 51.2126 572.935 51.3623 573.315C51.5153 573.693 51.7708 573.882 52.1289 573.882C52.4805 573.882 52.7344 573.69 52.8906 573.306C53.0469 572.922 53.125 572.297 53.125 571.431C53.125 570.555 53.0452 569.927 52.8857 569.546C52.7295 569.162 52.4772 568.97 52.1289 568.97C51.7741 568.97 51.5202 569.162 51.3672 569.546C51.2142 569.927 51.1377 570.555 51.1377 571.431ZM60.3418 571.431C60.3418 572.677 60.1367 573.6 59.7266 574.199C59.3197 574.798 58.6914 575.098 57.8418 575.098C57.0182 575.098 56.3965 574.788 55.9766 574.17C55.5599 573.551 55.3516 572.638 55.3516 571.431C55.3516 570.171 55.555 569.243 55.9619 568.647C56.3688 568.049 56.9954 567.749 57.8418 567.749C58.6654 567.749 59.2871 568.062 59.707 568.687C60.1302 569.312 60.3418 570.226 60.3418 571.431ZM56.8506 571.431C56.8506 572.306 56.9255 572.935 57.0752 573.315C57.2282 573.693 57.4837 573.882 57.8418 573.882C58.1934 573.882 58.4473 573.69 58.6035 573.306C58.7598 572.922 58.8379 572.297 58.8379 571.431C58.8379 570.555 58.7581 569.927 58.5986 569.546C58.4424 569.162 58.1901 568.97 57.8418 568.97C57.487 568.97 57.2331 569.162 57.0801 569.546C56.9271 569.927 56.8506 570.555 56.8506 571.431Z" fill="white"/>
<path d="M39.1309 619H37.6221V614.869L37.6367 614.19L37.6611 613.448C37.4105 613.699 37.2363 613.863 37.1387 613.941L36.3184 614.601L35.5908 613.692L37.8906 611.861H39.1309V619ZM41.8213 619L44.502 613.141H40.9814V611.871H46.1035V612.818L43.4033 619H41.8213ZM46.9971 618.302C46.9971 618.028 47.0703 617.822 47.2168 617.682C47.3633 617.542 47.5765 617.472 47.8564 617.472C48.1266 617.472 48.335 617.543 48.4814 617.687C48.6312 617.83 48.7061 618.035 48.7061 618.302C48.7061 618.559 48.6312 618.762 48.4814 618.912C48.3317 619.059 48.1234 619.132 47.8564 619.132C47.583 619.132 47.3714 619.06 47.2217 618.917C47.0719 618.771 46.9971 618.565 46.9971 618.302ZM46.9971 614.269C46.9971 613.995 47.0703 613.788 47.2168 613.648C47.3633 613.508 47.5765 613.438 47.8564 613.438C48.1266 613.438 48.335 613.51 48.4814 613.653C48.6312 613.797 48.7061 614.002 48.7061 614.269C48.7061 614.532 48.6296 614.737 48.4766 614.884C48.3268 615.027 48.1201 615.099 47.8564 615.099C47.583 615.099 47.3714 615.027 47.2217 614.884C47.0719 614.741 46.9971 614.535 46.9971 614.269ZM54.6289 615.431C54.6289 616.677 54.4238 617.6 54.0137 618.199C53.6068 618.798 52.9785 619.098 52.1289 619.098C51.3053 619.098 50.6836 618.788 50.2637 618.17C49.847 617.551 49.6387 616.638 49.6387 615.431C49.6387 614.171 49.8421 613.243 50.249 612.647C50.6559 612.049 51.2826 611.749 52.1289 611.749C52.9525 611.749 53.5742 612.062 53.9941 612.687C54.4173 613.312 54.6289 614.226 54.6289 615.431ZM51.1377 615.431C51.1377 616.306 51.2126 616.935 51.3623 617.315C51.5153 617.693 51.7708 617.882 52.1289 617.882C52.4805 617.882 52.7344 617.69 52.8906 617.306C53.0469 616.922 53.125 616.297 53.125 615.431C53.125 614.555 53.0452 613.927 52.8857 613.546C52.7295 613.162 52.4772 612.97 52.1289 612.97C51.7741 612.97 51.5202 613.162 51.3672 613.546C51.2142 613.927 51.1377 614.555 51.1377 615.431ZM60.3418 615.431C60.3418 616.677 60.1367 617.6 59.7266 618.199C59.3197 618.798 58.6914 619.098 57.8418 619.098C57.0182 619.098 56.3965 618.788 55.9766 618.17C55.5599 617.551 55.3516 616.638 55.3516 615.431C55.3516 614.171 55.555 613.243 55.9619 612.647C56.3688 612.049 56.9954 611.749 57.8418 611.749C58.6654 611.749 59.2871 612.062 59.707 612.687C60.1302 613.312 60.3418 614.226 60.3418 615.431ZM56.8506 615.431C56.8506 616.306 56.9255 616.935 57.0752 617.315C57.2282 617.693 57.4837 617.882 57.8418 617.882C58.1934 617.882 58.4473 617.69 58.6035 617.306C58.7598 616.922 58.8379 616.297 58.8379 615.431C58.8379 614.555 58.7581 613.927 58.5986 613.546C58.4424 613.162 58.1901 612.97 57.8418 612.97C57.487 612.97 57.2331 613.162 57.0801 613.546C56.9271 613.927 56.8506 614.555 56.8506 615.431Z" fill="white"/>
<path d="M39.1309 663H37.6221V658.869L37.6367 658.19L37.6611 657.448C37.4105 657.699 37.2363 657.863 37.1387 657.941L36.3184 658.601L35.5908 657.692L37.8906 655.861H39.1309V663ZM43.5742 655.769C44.2578 655.769 44.8079 655.925 45.2246 656.237C45.6445 656.547 45.8545 656.965 45.8545 657.492C45.8545 657.857 45.7536 658.182 45.5518 658.469C45.3499 658.752 45.0244 659.006 44.5752 659.23C45.109 659.517 45.4915 659.816 45.7227 660.129C45.957 660.438 46.0742 660.778 46.0742 661.149C46.0742 661.735 45.8447 662.207 45.3857 662.565C44.9268 662.92 44.3229 663.098 43.5742 663.098C42.793 663.098 42.1794 662.932 41.7334 662.6C41.2874 662.268 41.0645 661.797 41.0645 661.188C41.0645 660.782 41.1719 660.42 41.3867 660.104C41.6048 659.789 41.9531 659.51 42.4316 659.27C42.0247 659.012 41.7318 658.737 41.5527 658.444C41.3737 658.151 41.2842 657.831 41.2842 657.482C41.2842 656.971 41.4958 656.558 41.9189 656.242C42.3421 655.926 42.8939 655.769 43.5742 655.769ZM42.4609 661.101C42.4609 661.381 42.5586 661.599 42.7539 661.755C42.9492 661.911 43.2161 661.989 43.5547 661.989C43.929 661.989 44.209 661.91 44.3945 661.75C44.5801 661.587 44.6729 661.374 44.6729 661.11C44.6729 660.892 44.5801 660.689 44.3945 660.5C44.2122 660.308 43.9144 660.104 43.501 659.89C42.8076 660.209 42.4609 660.612 42.4609 661.101ZM43.5645 656.872C43.3073 656.872 43.099 656.939 42.9395 657.072C42.7832 657.202 42.7051 657.378 42.7051 657.6C42.7051 657.795 42.7669 657.971 42.8906 658.127C43.0176 658.28 43.2454 658.438 43.5742 658.601C43.8932 658.451 44.1162 658.298 44.2432 658.142C44.3701 657.985 44.4336 657.805 44.4336 657.6C44.4336 657.375 44.3522 657.198 44.1895 657.067C44.0267 656.937 43.8184 656.872 43.5645 656.872ZM46.9971 662.302C46.9971 662.028 47.0703 661.822 47.2168 661.682C47.3633 661.542 47.5765 661.472 47.8564 661.472C48.1266 661.472 48.335 661.543 48.4814 661.687C48.6312 661.83 48.7061 662.035 48.7061 662.302C48.7061 662.559 48.6312 662.762 48.4814 662.912C48.3317 663.059 48.1234 663.132 47.8564 663.132C47.583 663.132 47.3714 663.06 47.2217 662.917C47.0719 662.771 46.9971 662.565 46.9971 662.302ZM46.9971 658.269C46.9971 657.995 47.0703 657.788 47.2168 657.648C47.3633 657.508 47.5765 657.438 47.8564 657.438C48.1266 657.438 48.335 657.51 48.4814 657.653C48.6312 657.797 48.7061 658.002 48.7061 658.269C48.7061 658.532 48.6296 658.737 48.4766 658.884C48.3268 659.027 48.1201 659.099 47.8564 659.099C47.583 659.099 47.3714 659.027 47.2217 658.884C47.0719 658.741 46.9971 658.535 46.9971 658.269ZM54.6289 659.431C54.6289 660.677 54.4238 661.6 54.0137 662.199C53.6068 662.798 52.9785 663.098 52.1289 663.098C51.3053 663.098 50.6836 662.788 50.2637 662.17C49.847 661.551 49.6387 660.638 49.6387 659.431C49.6387 658.171 49.8421 657.243 50.249 656.647C50.6559 656.049 51.2826 655.749 52.1289 655.749C52.9525 655.749 53.5742 656.062 53.9941 656.687C54.4173 657.312 54.6289 658.226 54.6289 659.431ZM51.1377 659.431C51.1377 660.306 51.2126 660.935 51.3623 661.315C51.5153 661.693 51.7708 661.882 52.1289 661.882C52.4805 661.882 52.7344 661.69 52.8906 661.306C53.0469 660.922 53.125 660.297 53.125 659.431C53.125 658.555 53.0452 657.927 52.8857 657.546C52.7295 657.162 52.4772 656.97 52.1289 656.97C51.7741 656.97 51.5202 657.162 51.3672 657.546C51.2142 657.927 51.1377 658.555 51.1377 659.431ZM60.3418 659.431C60.3418 660.677 60.1367 661.6 59.7266 662.199C59.3197 662.798 58.6914 663.098 57.8418 663.098C57.0182 663.098 56.3965 662.788 55.9766 662.17C55.5599 661.551 55.3516 660.638 55.3516 659.431C55.3516 658.171 55.555 657.243 55.9619 656.647C56.3688 656.049 56.9954 655.749 57.8418 655.749C58.6654 655.749 59.2871 656.062 59.707 656.687C60.1302 657.312 60.3418 658.226 60.3418 659.431ZM56.8506 659.431C56.8506 660.306 56.9255 660.935 57.0752 661.315C57.2282 661.693 57.4837 661.882 57.8418 661.882C58.1934 661.882 58.4473 661.69 58.6035 661.306C58.7598 660.922 58.8379 660.297 58.8379 659.431C58.8379 658.555 58.7581 657.927 58.5986 657.546C58.4424 657.162 58.1901 656.97 57.8418 656.97C57.487 656.97 57.2331 657.162 57.0801 657.546C56.9271 657.927 56.8506 658.555 56.8506 659.431Z" fill="white"/>
<path d="M41.1309 397H39.6221V392.869L39.6367 392.19L39.6611 391.448C39.4105 391.699 39.2363 391.863 39.1387 391.941L38.3184 392.601L37.5908 391.692L39.8906 389.861H41.1309V397ZM48.1035 397H43.1133V395.95L44.9053 394.139C45.4359 393.595 45.7826 393.219 45.9453 393.011C46.1081 392.799 46.2253 392.604 46.2969 392.425C46.3685 392.246 46.4043 392.06 46.4043 391.868C46.4043 391.582 46.3245 391.368 46.165 391.229C46.0088 391.089 45.7988 391.019 45.5352 391.019C45.2585 391.019 44.9899 391.082 44.7295 391.209C44.4691 391.336 44.1973 391.517 43.9141 391.751L43.0938 390.779C43.4453 390.48 43.7367 390.268 43.9678 390.145C44.1989 390.021 44.4512 389.926 44.7246 389.861C44.998 389.793 45.304 389.759 45.6426 389.759C46.0885 389.759 46.4824 389.84 46.8242 390.003C47.166 390.166 47.4313 390.394 47.6201 390.687C47.8089 390.979 47.9033 391.315 47.9033 391.692C47.9033 392.021 47.8447 392.33 47.7275 392.62C47.6136 392.907 47.4346 393.201 47.1904 393.504C46.9495 393.807 46.5231 394.238 45.9111 394.798L44.9932 395.662V395.73H48.1035V397ZM48.9971 396.302C48.9971 396.028 49.0703 395.822 49.2168 395.682C49.3633 395.542 49.5765 395.472 49.8564 395.472C50.1266 395.472 50.335 395.543 50.4814 395.687C50.6312 395.83 50.7061 396.035 50.7061 396.302C50.7061 396.559 50.6312 396.762 50.4814 396.912C50.3317 397.059 50.1234 397.132 49.8564 397.132C49.583 397.132 49.3714 397.06 49.2217 396.917C49.0719 396.771 48.9971 396.565 48.9971 396.302ZM48.9971 392.269C48.9971 391.995 49.0703 391.788 49.2168 391.648C49.3633 391.508 49.5765 391.438 49.8564 391.438C50.1266 391.438 50.335 391.51 50.4814 391.653C50.6312 391.797 50.7061 392.002 50.7061 392.269C50.7061 392.532 50.6296 392.737 50.4766 392.884C50.3268 393.027 50.1201 393.099 49.8564 393.099C49.583 393.099 49.3714 393.027 49.2217 392.884C49.0719 392.741 48.9971 392.535 48.9971 392.269ZM56.6289 393.431C56.6289 394.677 56.4238 395.6 56.0137 396.199C55.6068 396.798 54.9785 397.098 54.1289 397.098C53.3053 397.098 52.6836 396.788 52.2637 396.17C51.847 395.551 51.6387 394.638 51.6387 393.431C51.6387 392.171 51.8421 391.243 52.249 390.647C52.6559 390.049 53.2826 389.749 54.1289 389.749C54.9525 389.749 55.5742 390.062 55.9941 390.687C56.4173 391.312 56.6289 392.226 56.6289 393.431ZM53.1377 393.431C53.1377 394.306 53.2126 394.935 53.3623 395.315C53.5153 395.693 53.7708 395.882 54.1289 395.882C54.4805 395.882 54.7344 395.69 54.8906 395.306C55.0469 394.922 55.125 394.297 55.125 393.431C55.125 392.555 55.0452 391.927 54.8857 391.546C54.7295 391.162 54.4772 390.97 54.1289 390.97C53.7741 390.97 53.5202 391.162 53.3672 391.546C53.2142 391.927 53.1377 392.555 53.1377 393.431ZM62.3418 393.431C62.3418 394.677 62.1367 395.6 61.7266 396.199C61.3197 396.798 60.6914 397.098 59.8418 397.098C59.0182 397.098 58.3965 396.788 57.9766 396.17C57.5599 395.551 57.3516 394.638 57.3516 393.431C57.3516 392.171 57.555 391.243 57.9619 390.647C58.3688 390.049 58.9954 389.749 59.8418 389.749C60.6654 389.749 61.2871 390.062 61.707 390.687C62.1302 391.312 62.3418 392.226 62.3418 393.431ZM58.8506 393.431C58.8506 394.306 58.9255 394.935 59.0752 395.315C59.2282 395.693 59.4837 395.882 59.8418 395.882C60.1934 395.882 60.4473 395.69 60.6035 395.306C60.7598 394.922 60.8379 394.297 60.8379 393.431C60.8379 392.555 60.7581 391.927 60.5986 391.546C60.4424 391.162 60.1901 390.97 59.8418 390.97C59.487 390.97 59.2331 391.162 59.0801 391.546C58.9271 391.927 58.8506 392.555 58.8506 393.431Z" fill="white"/>
<line x1="13" y1="143.5" x2="359" y2="143.5" stroke="#0E0718"/>
<line x1="17" y1="187.5" x2="363" y2="187.5" stroke="#0E0718"/>
<line x1="17" y1="229.5" x2="363" y2="229.5" stroke="#0E0718"/>
<line x1="17" y1="273.5" x2="363" y2="273.5" stroke="#0E0718"/>
<line x1="17" y1="317.5" x2="363" y2="317.5" stroke="#0E0718"/>
<line x1="17" y1="361.5" x2="363" y2="361.5" stroke="#0E0718"/>
<line x1="12" y1="405.5" x2="358" y2="405.5" stroke="#0E0718"/>
<line x1="12" y1="449.5" x2="358" y2="449.5" stroke="#0E0718"/>
<line x1="12" y1="493.5" x2="358" y2="493.5" stroke="#0E0718"/>
<line x1="12" y1="537.5" x2="358" y2="537.5" stroke="#0E0718"/>
<line x1="17" y1="581.5" x2="363" y2="581.5" stroke="#0E0718"/>
<line x1="20" y1="625.5" x2="366" y2="625.5" stroke="#0E0718"/>
<path d="M188 618C176.975 618 168 609.025 168 598C168 586.975 176.975 578 188 578C199.025 578 208 586.975 208 598C208 609.025 199.025 618 188 618ZM188 573C184.717 573 181.466 573.647 178.433 574.903C175.4 576.159 172.644 578.001 170.322 580.322C165.634 585.011 163 591.37 163 598C163 604.63 165.634 610.989 170.322 615.678C172.644 617.999 175.4 619.841 178.433 621.097C181.466 622.353 184.717 623 188 623C194.63 623 200.989 620.366 205.678 615.678C210.366 610.989 213 604.63 213 598C213 594.717 212.353 591.466 211.097 588.433C209.841 585.4 207.999 582.644 205.678 580.322C203.356 578.001 200.6 576.159 197.567 574.903C194.534 573.647 191.283 573 188 573ZM190.5 585.5H185.5V595.5H175.5V600.5H185.5V610.5H190.5V600.5H200.5V595.5H190.5V585.5Z" fill="#1ADBCF"/>
<path d="M119 165.5C119 166.565 118.137 167.429 117.071 167.429H109.429C108.324 167.429 107.429 168.324 107.429 169.429V177.071C107.429 178.137 106.565 179 105.5 179C104.435 179 103.571 178.137 103.571 177.071V169.429C103.571 168.324 102.676 167.429 101.571 167.429H93.9286C92.8634 167.429 92 166.565 92 165.5C92 164.435 92.8635 163.571 93.9286 163.571H101.571C102.676 163.571 103.571 162.676 103.571 161.571V153.929C103.571 152.863 104.435 152 105.5 152C106.565 152 107.429 152.863 107.429 153.929V161.571C107.429 162.676 108.324 163.571 109.429 163.571H117.071C118.137 163.571 119 164.435 119 165.5Z" fill="#0E0718"/>
</g>
<defs>
<clipPath id="clip0_75_25">
<rect width="375" height="667" rx="15" fill="white"/>
</clipPath>
</defs>
</svg>
