<svg width="440" height="195" viewBox="0 0 440 195" fill="none" xmlns="http://www.w3.org/2000/svg">
<path d="M358.14 0C368.995 0 379.406 4.31229 387.082 11.9882C394.758 19.6641 399.07 30.0749 399.07 40.9303C399.07 51.7857 394.758 62.1965 387.082 69.8724C379.406 77.5483 368.995 81.8606 358.14 81.8606C347.284 81.8606 336.873 77.5483 329.197 69.8724C321.522 62.1965 317.209 51.7857 317.209 40.9303C317.209 30.0749 321.522 19.6641 329.197 11.9882C336.873 4.31229 347.284 0 358.14 0V0ZM358.14 102.326C403.367 102.326 440 120.642 440 143.256V163.721H276.279V143.256C276.279 120.642 312.912 102.326 358.14 102.326Z" fill="#6615B1"/>
<path d="M81.8605 0C92.7159 0 103.127 4.31229 110.803 11.9882C118.478 19.6641 122.791 30.0749 122.791 40.9303C122.791 51.7857 118.478 62.1965 110.803 69.8724C103.127 77.5483 92.7159 81.8606 81.8605 81.8606C71.0051 81.8606 60.5943 77.5483 52.9184 69.8724C45.2425 62.1965 40.9302 51.7857 40.9302 40.9303C40.9302 30.0749 45.2425 19.6641 52.9184 11.9882C60.5943 4.31229 71.0051 0 81.8605 0V0ZM81.8605 102.326C127.088 102.326 163.721 120.642 163.721 143.256V163.721H0V143.256C0 120.642 36.6326 102.326 81.8605 102.326Z" fill="#6615B1"/>
<path d="M163.721 10.2326C174.576 10.2326 184.987 14.5449 192.663 22.2208C200.339 29.8967 204.651 40.3075 204.651 51.1628C204.651 62.0182 200.339 72.429 192.663 80.1049C184.987 87.7808 174.576 92.0931 163.721 92.0931C152.866 92.0931 142.455 87.7808 134.779 80.1049C127.103 72.429 122.791 62.0182 122.791 51.1628C122.791 40.3075 127.103 29.8967 134.779 22.2208C142.455 14.5449 152.866 10.2326 163.721 10.2326V10.2326ZM163.721 112.558C208.949 112.558 245.581 130.875 245.581 153.489V173.954H81.8605V153.489C81.8605 130.875 118.493 112.558 163.721 112.558Z" fill="#8A2BE2"/>
<path d="M286.512 10.2326C297.367 10.2326 307.778 14.5449 315.454 22.2208C323.13 29.8967 327.442 40.3075 327.442 51.1628C327.442 62.0182 323.13 72.429 315.454 80.1049C307.778 87.7808 297.367 92.0931 286.512 92.0931C275.656 92.0931 265.246 87.7808 257.57 80.1049C249.894 72.429 245.582 62.0182 245.582 51.1628C245.582 40.3075 249.894 29.8967 257.57 22.2208C265.246 14.5449 275.656 10.2326 286.512 10.2326V10.2326ZM286.512 112.558C331.739 112.558 368.372 130.875 368.372 153.489V173.954H204.651V153.489C204.651 130.875 241.284 112.558 286.512 112.558Z" fill="#8A2BE2"/>
<path d="M225.116 30.6978C235.972 30.6978 246.382 35.01 254.058 42.686C261.734 50.3619 266.047 60.7727 266.047 71.6281C266.047 82.4835 261.734 92.8943 254.058 100.57C246.382 108.246 235.972 112.558 225.116 112.558C214.261 112.558 203.85 108.246 196.174 100.57C188.498 92.8943 184.186 82.4835 184.186 71.6281C184.186 60.7727 188.498 50.3619 196.174 42.686C203.85 35.01 214.261 30.6978 225.116 30.6978V30.6978ZM225.116 133.024C270.344 133.024 306.977 151.34 306.977 173.954V194.419H143.256V173.954C143.256 151.34 179.889 133.024 225.116 133.024Z" fill="#B77AEF"/>
</svg>
