<svg width="152" height="27" viewBox="0 0 152 27" fill="none" xmlns="http://www.w3.org/2000/svg">
<path d="M4.36374 3.2H4.86374V2.7V0.5H6.7729V2.7V3.2H7.2729H18.9095H19.4095V2.7V0.5H21.3187V2.7V3.2H21.8187H23.2733C23.9238 3.2 24.5408 3.44017 24.9902 3.85729C25.4384 4.27325 25.6824 4.82907 25.6824 5.4V24.3C25.6824 24.8709 25.4384 25.4268 24.9902 25.8427C24.5408 26.2598 23.9238 26.5 23.2733 26.5H2.90916C1.53661 26.5 0.5 25.4759 0.5 24.3V5.4C0.5 4.82907 0.74403 4.27325 1.19221 3.85729C1.64164 3.44017 2.25867 3.2 2.90916 3.2H4.36374ZM23.2733 24.8H23.7733V24.3V9.45V8.95H23.2733H2.90916H2.40916V9.45V24.3V24.8H2.90916H23.2733ZM8.22748 12.65V14.35H6.31832V12.65H8.22748ZM14.0458 12.65V14.35H12.1366V12.65H14.0458ZM19.8641 12.65V14.35H17.955V12.65H19.8641ZM8.22748 18.05V19.75H6.31832V18.05H8.22748ZM14.0458 18.05V19.75H12.1366V18.05H14.0458ZM19.8641 18.05V19.75H17.955V18.05H19.8641Z" fill="#8A2BE2" stroke="#0E0718"/>
<path d="M42.0933 20.1172C41.6636 20.1172 41.2691 20.0703 40.9097 19.9766C40.5543 19.8828 40.2535 19.7539 40.0074 19.5898V17.9844C40.3629 18.1836 40.7105 18.3398 41.0504 18.4531C41.3941 18.5625 41.7457 18.6172 42.105 18.6172C42.3043 18.6172 42.4879 18.5996 42.6558 18.5645C42.8277 18.5254 42.9761 18.4668 43.1011 18.3887C43.2261 18.3105 43.3238 18.2129 43.3941 18.0957C43.4644 17.9785 43.4996 17.8418 43.4996 17.6855C43.4996 17.4629 43.4547 17.2773 43.3648 17.1289C43.2789 16.9766 43.1578 16.8359 43.0015 16.707C42.8492 16.5781 42.6715 16.4395 42.4683 16.291C42.23 16.1191 41.9976 15.9238 41.7711 15.7051C41.5484 15.4863 41.3648 15.2324 41.2203 14.9434C41.0757 14.6504 41.0035 14.3086 41.0035 13.918C41.0035 13.5352 41.0718 13.1855 41.2086 12.8691C41.3492 12.5527 41.5484 12.2773 41.8062 12.043C42.064 11.8086 42.3726 11.6289 42.732 11.5039C43.0953 11.375 43.4996 11.3105 43.9449 11.3105C44.3863 11.3105 44.7945 11.3594 45.1695 11.457C45.5484 11.5508 45.9156 11.6953 46.2711 11.8906L45.6324 13.2559C45.3277 13.1113 45.0367 13.0039 44.7593 12.9336C44.4859 12.8594 44.2144 12.8223 43.9449 12.8223C43.7847 12.8223 43.6363 12.8457 43.4996 12.8926C43.3668 12.9355 43.2496 13 43.148 13.0859C43.0504 13.168 42.9742 13.2676 42.9195 13.3848C42.8648 13.502 42.8375 13.6348 42.8375 13.7832C42.8375 13.9863 42.8785 14.1602 42.9605 14.3047C43.0465 14.4492 43.1675 14.584 43.3238 14.709C43.484 14.8301 43.6754 14.9648 43.898 15.1133C44.2144 15.3203 44.4761 15.543 44.6832 15.7812C44.8941 16.0156 45.0504 16.2715 45.1519 16.5488C45.2574 16.8262 45.3101 17.1328 45.3101 17.4688C45.3101 17.918 45.2261 18.3086 45.0582 18.6406C44.8902 18.9727 44.6578 19.248 44.3609 19.4668C44.0679 19.6855 43.7261 19.8496 43.3355 19.959C42.9488 20.0645 42.5347 20.1172 42.0933 20.1172ZM49.9918 20.1172C49.3004 20.1172 48.7222 19.9805 48.2574 19.707C47.7925 19.4297 47.441 19.041 47.2027 18.541C46.9683 18.0371 46.8511 17.4434 46.8511 16.7598C46.8511 16.2559 46.9078 15.7461 47.0211 15.2305C47.1382 14.7148 47.314 14.2227 47.5484 13.7539C47.7828 13.2812 48.0816 12.8613 48.4449 12.4941C48.8082 12.127 49.2379 11.8359 49.734 11.6211C50.23 11.4062 50.7965 11.2988 51.4332 11.2988C51.9761 11.2988 52.4371 11.3496 52.816 11.4512C53.1949 11.5527 53.5738 11.707 53.9527 11.9141L53.2613 13.3789C52.984 13.2188 52.6988 13.084 52.4058 12.9746C52.1168 12.8652 51.7925 12.8105 51.4332 12.8105C51.0465 12.8105 50.7027 12.8887 50.4019 13.0449C50.1011 13.2012 49.8414 13.4141 49.6226 13.6836C49.4078 13.9492 49.23 14.25 49.0894 14.5859C48.9488 14.918 48.8433 15.2637 48.773 15.623C48.7066 15.9824 48.6734 16.3301 48.6734 16.666C48.6734 17.3145 48.8082 17.7988 49.0777 18.1191C49.3472 18.4355 49.773 18.5938 50.355 18.5938C50.6793 18.5938 51.0074 18.5527 51.3394 18.4707C51.6715 18.3848 52.0035 18.2754 52.3355 18.1426V19.666C52.0972 19.7598 51.7769 19.8594 51.3746 19.9648C50.9761 20.0664 50.5152 20.1172 49.9918 20.1172ZM53.7886 20L55.5992 11.4336H57.3922L56.6832 14.791H59.4429L60.1519 11.4336H61.939L60.1285 20H58.3355L59.1207 16.3027H56.3609L55.5757 20H53.7886ZM65.7828 20.1172C65.0875 20.1172 64.5035 19.9824 64.0308 19.7129C63.5621 19.4434 63.2066 19.0645 62.9644 18.5762C62.7222 18.084 62.6011 17.5098 62.6011 16.8535C62.6011 16.4082 62.6402 15.9629 62.7183 15.5176C62.8004 15.0723 62.9215 14.6426 63.0816 14.2285C63.2457 13.8145 63.4507 13.4297 63.6968 13.0742C63.9468 12.7188 64.2398 12.4082 64.5757 12.1426C64.9117 11.877 65.2925 11.6699 65.7183 11.5215C66.1441 11.373 66.6168 11.2988 67.1363 11.2988C68.1754 11.2988 68.9566 11.5918 69.48 12.1777C70.0074 12.7598 70.2711 13.5352 70.2711 14.5039C70.2711 14.9688 70.232 15.4297 70.1539 15.8867C70.0797 16.3438 69.9625 16.7812 69.8023 17.1992C69.6461 17.6172 69.4449 18.0039 69.1988 18.3594C68.9566 18.7109 68.6695 19.0195 68.3375 19.2852C68.0054 19.5469 67.6265 19.752 67.2007 19.9004C66.7789 20.0449 66.3062 20.1172 65.7828 20.1172ZM65.9117 18.5938C66.1461 18.5938 66.3707 18.5508 66.5855 18.4648C66.8004 18.3789 67.0015 18.2559 67.189 18.0957C67.3765 17.9316 67.5465 17.7324 67.6988 17.498C67.855 17.2598 67.9879 16.9922 68.0972 16.6953C68.2066 16.3945 68.2906 16.0645 68.3492 15.7051C68.4117 15.3457 68.4429 14.9609 68.4429 14.5508C68.4429 14.0234 68.3199 13.6016 68.0738 13.2852C67.8316 12.9688 67.4703 12.8105 66.9898 12.8105C66.7437 12.8105 66.5074 12.8594 66.2808 12.957C66.0582 13.0547 65.8511 13.1934 65.6597 13.373C65.4722 13.5527 65.3023 13.7656 65.15 14.0117C64.9976 14.2578 64.8668 14.5312 64.7574 14.832C64.648 15.1328 64.564 15.4531 64.5054 15.793C64.4507 16.1328 64.4234 16.4863 64.4234 16.8535C64.4234 17.2324 64.482 17.5527 64.5992 17.8145C64.7164 18.0723 64.8863 18.2676 65.109 18.4004C65.3316 18.5293 65.5992 18.5938 65.9117 18.5938ZM74.5484 20.1172C73.8531 20.1172 73.2691 19.9824 72.7965 19.7129C72.3277 19.4434 71.9722 19.0645 71.73 18.5762C71.4879 18.084 71.3668 17.5098 71.3668 16.8535C71.3668 16.4082 71.4058 15.9629 71.484 15.5176C71.566 15.0723 71.6871 14.6426 71.8472 14.2285C72.0113 13.8145 72.2164 13.4297 72.4625 13.0742C72.7125 12.7188 73.0054 12.4082 73.3414 12.1426C73.6773 11.877 74.0582 11.6699 74.484 11.5215C74.9097 11.373 75.3824 11.2988 75.9019 11.2988C76.941 11.2988 77.7222 11.5918 78.2457 12.1777C78.773 12.7598 79.0367 13.5352 79.0367 14.5039C79.0367 14.9688 78.9976 15.4297 78.9195 15.8867C78.8453 16.3438 78.7281 16.7812 78.5679 17.1992C78.4117 17.6172 78.2105 18.0039 77.9644 18.3594C77.7222 18.7109 77.4351 19.0195 77.1031 19.2852C76.7711 19.5469 76.3922 19.752 75.9664 19.9004C75.5445 20.0449 75.0718 20.1172 74.5484 20.1172ZM74.6773 18.5938C74.9117 18.5938 75.1363 18.5508 75.3511 18.4648C75.566 18.3789 75.7672 18.2559 75.9547 18.0957C76.1422 17.9316 76.3121 17.7324 76.4644 17.498C76.6207 17.2598 76.7535 16.9922 76.8629 16.6953C76.9722 16.3945 77.0562 16.0645 77.1148 15.7051C77.1773 15.3457 77.2086 14.9609 77.2086 14.5508C77.2086 14.0234 77.0855 13.6016 76.8394 13.2852C76.5972 12.9688 76.2359 12.8105 75.7554 12.8105C75.5093 12.8105 75.273 12.8594 75.0465 12.957C74.8238 13.0547 74.6168 13.1934 74.4254 13.373C74.2379 13.5527 74.0679 13.7656 73.9156 14.0117C73.7632 14.2578 73.6324 14.5312 73.523 14.832C73.4136 15.1328 73.3297 15.4531 73.2711 15.793C73.2164 16.1328 73.189 16.4863 73.189 16.8535C73.189 17.2324 73.2476 17.5527 73.3648 17.8145C73.482 18.0723 73.6519 18.2676 73.8746 18.4004C74.0972 18.5293 74.3648 18.5938 74.6773 18.5938ZM79.7222 20L81.5328 11.4336H83.3257L81.8257 18.5H84.8257L84.5093 20H79.7222ZM92.6129 20.1172C91.9215 20.1172 91.3433 19.9805 90.8785 19.707C90.4136 19.4297 90.0621 19.041 89.8238 18.541C89.5894 18.0371 89.4722 17.4434 89.4722 16.7598C89.4722 16.2559 89.5289 15.7461 89.6422 15.2305C89.7593 14.7148 89.9351 14.2227 90.1695 13.7539C90.4039 13.2812 90.7027 12.8613 91.066 12.4941C91.4293 12.127 91.859 11.8359 92.355 11.6211C92.8511 11.4062 93.4175 11.2988 94.0543 11.2988C94.5972 11.2988 95.0582 11.3496 95.4371 11.4512C95.816 11.5527 96.1949 11.707 96.5738 11.9141L95.8824 13.3789C95.605 13.2188 95.3199 13.084 95.0269 12.9746C94.7379 12.8652 94.4136 12.8105 94.0543 12.8105C93.6675 12.8105 93.3238 12.8887 93.023 13.0449C92.7222 13.2012 92.4625 13.4141 92.2437 13.6836C92.0289 13.9492 91.8511 14.25 91.7105 14.5859C91.5699 14.918 91.4644 15.2637 91.3941 15.623C91.3277 15.9824 91.2945 16.3301 91.2945 16.666C91.2945 17.3145 91.4293 17.7988 91.6988 18.1191C91.9683 18.4355 92.3941 18.5938 92.9761 18.5938C93.3004 18.5938 93.6285 18.5527 93.9605 18.4707C94.2925 18.3848 94.6246 18.2754 94.9566 18.1426V19.666C94.7183 19.7598 94.398 19.8594 93.9957 19.9648C93.5972 20.0664 93.1363 20.1172 92.6129 20.1172ZM95.3785 20L99.8668 11.4336H102.052L102.914 20H101.173L101.033 17.9609H98.2613L97.2535 20H95.3785ZM98.9937 16.4375H100.945L100.793 14.2285C100.777 13.9941 100.761 13.7578 100.746 13.5195C100.73 13.2812 100.726 13.0371 100.734 12.7871H100.705C100.63 13.002 100.544 13.2168 100.447 13.4316C100.349 13.6465 100.24 13.875 100.119 14.1172L98.9937 16.4375ZM103.945 20L105.755 11.4336H107.548L106.048 18.5H109.048L108.732 20H103.945ZM110.168 20L111.978 11.4336H116.771L116.455 12.9219H113.455L113.062 14.8027H115.857L115.535 16.291H112.74L112.271 18.5H115.271L114.955 20H110.168ZM116.671 20L118.482 11.4336H120.574L122.566 17.7441H122.613C122.64 17.5762 122.675 17.3594 122.718 17.0938C122.761 16.8242 122.808 16.5469 122.859 16.2617C122.914 15.9727 122.964 15.7148 123.011 15.4883L123.873 11.4336H125.478L123.668 20H121.664L119.578 13.5195H119.519C119.515 13.5664 119.5 13.6797 119.472 13.8594C119.449 14.0391 119.418 14.2559 119.378 14.5098C119.343 14.7598 119.304 15.0156 119.261 15.2773C119.218 15.5352 119.175 15.7656 119.132 15.9688L118.283 20H116.671ZM125.73 20L127.541 11.4336H129.861C130.912 11.4336 131.726 11.7109 132.304 12.2656C132.882 12.8203 133.171 13.623 133.171 14.6738C133.171 15.3223 133.103 15.9219 132.966 16.4727C132.83 17.0234 132.628 17.5176 132.363 17.9551C132.101 18.3887 131.775 18.7578 131.384 19.0625C130.998 19.3672 130.552 19.5996 130.048 19.7598C129.544 19.9199 128.986 20 128.373 20H125.73ZM127.834 18.5H128.455C128.849 18.5 129.201 18.4355 129.509 18.3066C129.822 18.1738 130.091 17.9902 130.318 17.7559C130.548 17.5215 130.738 17.248 130.886 16.9355C131.039 16.623 131.152 16.2832 131.226 15.916C131.3 15.5449 131.337 15.1621 131.337 14.7676C131.337 14.1387 131.191 13.6738 130.898 13.373C130.605 13.0723 130.203 12.9219 129.691 12.9219H129.017L127.834 18.5ZM132.82 20L137.308 11.4336H139.494L140.355 20H138.615L138.474 17.9609H135.703L134.695 20H132.82ZM136.435 16.4375H138.386L138.234 14.2285C138.218 13.9941 138.203 13.7578 138.187 13.5195C138.171 13.2812 138.168 13.0371 138.175 12.7871H138.146C138.072 13.002 137.986 13.2168 137.888 13.4316C137.791 13.6465 137.681 13.875 137.56 14.1172L136.435 16.4375ZM141.386 20L143.197 11.4336H145.3C146.16 11.4336 146.837 11.6191 147.334 11.9902C147.834 12.3574 148.084 12.9551 148.084 13.7832C148.084 14.2363 148.002 14.6328 147.837 14.9727C147.673 15.3125 147.449 15.5977 147.164 15.8281C146.882 16.0586 146.56 16.2363 146.197 16.3613L147.726 20H145.781L144.568 16.7129H143.871L143.173 20H141.386ZM144.181 15.2363H144.638C144.892 15.2363 145.119 15.209 145.318 15.1543C145.521 15.0957 145.693 15.0117 145.834 14.9023C145.974 14.7891 146.08 14.6484 146.15 14.4805C146.224 14.3086 146.261 14.1094 146.261 13.8828C146.261 13.5625 146.168 13.3223 145.98 13.1621C145.793 13.002 145.502 12.9219 145.107 12.9219H144.673L144.181 15.2363Z" fill="#8A2BE2"/>
<path d="M40.9097 19.9766L40.6547 20.9435L40.6573 20.9442L40.9097 19.9766ZM40.0074 19.5898H39.0074V20.125L39.4527 20.4219L40.0074 19.5898ZM40.0074 17.9844L40.4963 17.112L39.0074 16.2776V17.9844H40.0074ZM41.0504 18.4531L40.7341 19.4019L40.7472 19.4061L41.0504 18.4531ZM42.6558 18.5645L42.8607 19.5432L42.8691 19.5415L42.8774 19.5396L42.6558 18.5645ZM43.3648 17.1289L42.4938 17.6202L42.5014 17.6336L42.5093 17.6467L43.3648 17.1289ZM43.0015 16.707L42.3555 17.4705L42.3651 17.4784L43.0015 16.707ZM42.4683 16.291L43.0584 15.4836L43.0533 15.48L42.4683 16.291ZM41.7711 15.7051L41.0702 16.4184L41.0765 16.4245L41.7711 15.7051ZM41.2203 14.9434L40.3235 15.3858L40.3259 15.3906L41.2203 14.9434ZM41.2086 12.8691L40.2947 12.463L40.2906 12.4725L41.2086 12.8691ZM42.732 11.5039L43.0605 12.4484L43.0664 12.4463L42.732 11.5039ZM45.1695 11.457L44.9175 12.4248L44.9293 12.4278L45.1695 11.457ZM46.2711 11.8906L47.1768 12.3144L47.574 11.4655L46.7526 11.0142L46.2711 11.8906ZM45.6324 13.2559L45.2038 14.1594L46.1122 14.5902L46.5382 13.6796L45.6324 13.2559ZM44.7593 12.9336L44.4974 13.8987L44.5055 13.9009L44.5136 13.9029L44.7593 12.9336ZM43.4996 12.8926L43.8074 13.844L43.8157 13.8413L43.8239 13.8385L43.4996 12.8926ZM43.148 13.0859L43.7912 13.8516L43.794 13.8493L43.148 13.0859ZM42.9605 14.3047L42.0908 14.7983L42.0958 14.8071L42.101 14.8158L42.9605 14.3047ZM43.3238 14.709L42.6991 15.4899L42.7098 15.4984L42.7207 15.5066L43.3238 14.709ZM43.898 15.1133L43.3433 15.9454L43.3505 15.9501L43.898 15.1133ZM44.6832 15.7812L43.9283 16.4371L43.934 16.4437L43.9399 16.4502L44.6832 15.7812ZM45.1519 16.5488L44.2128 16.8927L44.2172 16.9043L45.1519 16.5488ZM44.3609 19.4668L43.7677 18.6617L43.7626 18.6655L44.3609 19.4668ZM43.3355 19.959L43.5986 20.9238L43.6051 20.9219L43.3355 19.959ZM42.0933 19.1172C41.7358 19.1172 41.4274 19.0781 41.1622 19.0089L40.6573 20.9442C41.1108 21.0625 41.5915 21.1172 42.0933 21.1172V19.1172ZM41.1647 19.0096C40.8911 18.9374 40.6972 18.8479 40.5621 18.7578L39.4527 20.4219C39.8097 20.6599 40.2175 20.8282 40.6547 20.9435L41.1647 19.0096ZM41.0074 19.5898V17.9844H39.0074V19.5898H41.0074ZM39.5185 18.8567C39.9216 19.0826 40.327 19.2661 40.7341 19.4018L41.3666 17.5044C41.0941 17.4136 40.8041 17.2845 40.4963 17.112L39.5185 18.8567ZM40.7472 19.4061C41.1886 19.5465 41.6424 19.6172 42.105 19.6172V17.6172C41.849 17.6172 41.5996 17.5785 41.3536 17.5002L40.7472 19.4061ZM42.105 19.6172C42.3624 19.6172 42.6156 19.5945 42.8607 19.5432L42.451 17.5857C42.3601 17.6047 42.2461 17.6172 42.105 17.6172V19.6172ZM42.8774 19.5396C43.1377 19.4804 43.3947 19.3845 43.6311 19.2367L42.5711 17.5407C42.5576 17.5491 42.5177 17.5704 42.4342 17.5893L42.8774 19.5396ZM43.6311 19.2367C43.8793 19.0815 44.0937 18.8734 44.2516 18.6102L42.5366 17.5812C42.544 17.5689 42.5527 17.5581 42.561 17.5497C42.5692 17.5416 42.5738 17.539 42.5711 17.5407L43.6311 19.2367ZM44.2516 18.6102C44.4279 18.3164 44.4996 17.9966 44.4996 17.6855H42.4996C42.4996 17.6885 42.4993 17.6774 42.5047 17.6562C42.5104 17.6343 42.5205 17.608 42.5366 17.5812L44.2516 18.6102ZM44.4996 17.6855C44.4996 17.3312 44.4279 16.9541 44.2203 16.6111L42.5093 17.6467C42.4962 17.625 42.4932 17.6116 42.494 17.6147C42.495 17.6189 42.4996 17.6407 42.4996 17.6855H44.4996ZM44.2358 16.6376C44.0808 16.3628 43.8741 16.1305 43.6379 15.9357L42.3651 17.4784C42.4414 17.5413 42.477 17.5903 42.4938 17.6202L44.2358 16.6376ZM43.6475 15.9436C43.4731 15.7961 43.2759 15.6426 43.0583 15.4836L41.8783 17.0984C42.067 17.2363 42.2253 17.3602 42.3556 17.4704L43.6475 15.9436ZM43.0533 15.48C42.8564 15.3379 42.6604 15.1737 42.4657 14.9857L41.0765 16.4245C41.3349 16.674 41.6037 16.9004 41.8833 17.102L43.0533 15.48ZM42.4719 14.9917C42.3308 14.8531 42.2116 14.69 42.1147 14.4961L40.3259 15.3906C40.518 15.7749 40.766 16.1195 41.0702 16.4184L42.4719 14.9917ZM42.1171 14.5009C42.0525 14.37 42.0035 14.1849 42.0035 13.918H40.0035C40.0035 14.4323 40.099 14.9308 40.3235 15.3858L42.1171 14.5009ZM42.0035 13.918C42.0035 13.6564 42.0496 13.4438 42.1265 13.2658L40.2906 12.4725C40.0941 12.9273 40.0035 13.4139 40.0035 13.918H42.0035ZM42.1224 13.2753C42.2063 13.0865 42.3231 12.9246 42.4789 12.7829L41.1335 11.303C40.7737 11.6301 40.4921 12.019 40.2947 12.463L42.1224 13.2753ZM42.4789 12.7829C42.6281 12.6473 42.8167 12.5332 43.0605 12.4484L42.4035 10.5594C41.9286 10.7246 41.5 10.9699 41.1335 11.303L42.4789 12.7829ZM43.0664 12.4463C43.3071 12.3609 43.5961 12.3105 43.9449 12.3105V10.3105C43.403 10.3105 42.8835 10.3891 42.3976 10.5615L43.0664 12.4463ZM43.9449 12.3105C44.3128 12.3105 44.6353 12.3513 44.9175 12.4248L45.4215 10.4893C44.9537 10.3675 44.4598 10.3105 43.9449 10.3105V12.3105ZM44.9293 12.4278C45.2208 12.4999 45.5071 12.6119 45.7895 12.767L46.7526 11.0142C46.3241 10.7788 45.876 10.6017 45.4097 10.4863L44.9293 12.4278ZM45.3653 11.4669L44.7266 12.8321L46.5382 13.6796L47.1768 12.3144L45.3653 11.4669ZM46.061 12.3524C45.7077 12.1848 45.3553 12.0531 45.0051 11.9643L44.5136 13.9029C44.718 13.9548 44.9477 14.0379 45.2038 14.1594L46.061 12.3524ZM45.0213 11.9685C44.6668 11.8723 44.3073 11.8223 43.9449 11.8223V13.8223C44.1215 13.8223 44.305 13.8464 44.4974 13.8987L45.0213 11.9685ZM43.9449 11.8223C43.6862 11.8223 43.427 11.8603 43.1753 11.9466L43.8239 13.8385C43.8456 13.8311 43.8832 13.8223 43.9449 13.8223V11.8223ZM43.1918 11.9411C42.9413 12.0222 42.7079 12.1484 42.5021 12.3226L43.794 13.8493C43.794 13.8493 43.7938 13.8494 43.7936 13.8496C43.7935 13.8497 43.7935 13.8496 43.794 13.8494C43.7947 13.849 43.7987 13.8469 43.8074 13.844L43.1918 11.9411ZM42.5048 12.3202C42.294 12.4974 42.1287 12.7145 42.0133 12.9619L43.8257 13.8077C43.8235 13.8124 43.8191 13.8203 43.812 13.8296C43.8049 13.8389 43.7974 13.8464 43.7912 13.8516L42.5048 12.3202ZM42.0133 12.9619C41.8883 13.2297 41.8375 13.5102 41.8375 13.7832H43.8375C43.8375 13.7704 43.8386 13.7681 43.8374 13.7739C43.8361 13.7802 43.8329 13.7923 43.8257 13.8077L42.0133 12.9619ZM41.8375 13.7832C41.8375 14.1211 41.9063 14.4732 42.0908 14.7983L43.8302 13.8111C43.8394 13.8274 43.8418 13.8376 43.8415 13.8363C43.841 13.8341 43.8375 13.8178 43.8375 13.7832H41.8375ZM42.101 14.8158C42.2588 15.0812 42.4664 15.3037 42.6991 15.4899L43.9485 13.9281C43.8687 13.8643 43.8341 13.8173 43.82 13.7936L42.101 14.8158ZM42.7207 15.5066C42.9008 15.6428 43.1092 15.7893 43.3433 15.9453L44.4527 14.2812C44.2415 14.1404 44.0671 14.0173 43.9269 13.9113L42.7207 15.5066ZM43.3505 15.9501C43.6045 16.1163 43.7923 16.2805 43.9283 16.4371L45.438 15.1254C45.16 14.8054 44.8243 14.5244 44.4455 14.2765L43.3505 15.9501ZM43.9399 16.4502C44.0713 16.5962 44.1581 16.7431 44.2129 16.8927L46.0909 16.205C45.9426 15.7998 45.717 15.4351 45.4265 15.1123L43.9399 16.4502ZM44.2172 16.9043C44.2742 17.0541 44.3101 17.2384 44.3101 17.4688H46.3101C46.3101 17.0273 46.2406 16.5982 46.0866 16.1934L44.2172 16.9043ZM44.3101 17.4688C44.3101 17.7933 44.2498 18.0232 44.1659 18.1892L45.9505 19.092C46.2025 18.594 46.3101 18.0427 46.3101 17.4688H44.3101ZM44.1659 18.1892C44.0679 18.3829 43.9374 18.5367 43.7677 18.6617L44.9541 20.2719C45.3782 19.9594 45.7125 19.5624 45.9505 19.092L44.1659 18.1892ZM43.7626 18.6655C43.5785 18.803 43.3509 18.9162 43.0659 18.996L43.6051 20.9219C44.1014 20.783 44.5573 20.5681 44.9592 20.2681L43.7626 18.6655ZM43.0724 18.9942C42.7796 19.0741 42.4547 19.1172 42.0933 19.1172V21.1172C42.6147 21.1172 43.118 21.0548 43.5986 20.9237L43.0724 18.9942ZM48.2574 19.707L47.745 20.5658L47.7504 20.569L48.2574 19.707ZM47.2027 18.541L46.2959 18.9628L46.3 18.9712L47.2027 18.541ZM47.0211 15.2305L46.0459 15.0088L46.0444 15.0159L47.0211 15.2305ZM47.5484 13.7539L48.4428 14.2011L48.4443 14.1982L47.5484 13.7539ZM53.9527 11.9141L54.857 12.3409L55.2594 11.4885L54.4322 11.0365L53.9527 11.9141ZM53.2613 13.3789L52.7612 14.2449L53.7019 14.7881L54.1656 13.8057L53.2613 13.3789ZM52.4058 12.9746L52.0519 13.9099L52.0561 13.9115L52.4058 12.9746ZM49.6226 13.6836L48.8462 13.0534L48.8451 13.0547L49.6226 13.6836ZM49.0894 14.5859L50.0102 14.9759L50.0119 14.9721L49.0894 14.5859ZM48.773 15.623L47.7916 15.431L47.7897 15.4413L48.773 15.623ZM49.0777 18.1191L48.3125 18.763L48.3165 18.7676L49.0777 18.1191ZM51.3394 18.4707L51.5793 19.4416L51.59 19.4388L51.3394 18.4707ZM52.3355 18.1426H53.3355V16.6655L51.9641 17.2141L52.3355 18.1426ZM52.3355 19.666L52.7016 20.5966L53.3355 20.3472V19.666H52.3355ZM51.3746 19.9648L51.6216 20.9339L51.6281 20.9322L51.3746 19.9648ZM49.9918 19.1172C49.4293 19.1172 49.038 19.006 48.7644 18.8451L47.7504 20.569C48.4065 20.9549 49.1714 21.1172 49.9918 21.1172V19.1172ZM48.7698 18.8483C48.4786 18.6746 48.2609 18.4369 48.1054 18.1108L46.3 18.9712C46.6211 19.6451 47.1065 20.1848 47.745 20.5658L48.7698 18.8483ZM48.1094 18.1193C47.949 17.7743 47.8511 17.3304 47.8511 16.7598H45.8511C45.8511 17.5563 45.9877 18.2999 46.296 18.9627L48.1094 18.1193ZM47.8511 16.7598C47.8511 16.3314 47.8992 15.8935 47.9978 15.445L46.0444 15.0159C45.9163 15.5986 45.8511 16.1804 45.8511 16.7598H47.8511ZM47.9962 15.4521C48.0958 15.0139 48.2446 14.5975 48.4428 14.2011L46.654 13.3067C46.3834 13.8478 46.1807 14.4158 46.0459 15.0088L47.9962 15.4521ZM48.4443 14.1982C48.6323 13.8191 48.8692 13.4871 49.1558 13.1975L47.734 11.7908C47.294 12.2356 46.9333 12.7434 46.6525 13.3097L48.4443 14.1982ZM49.1558 13.1975C49.425 12.9253 49.7469 12.7052 50.1314 12.5387L49.3365 10.7035C48.7288 10.9667 48.1913 11.3286 47.734 11.7908L49.1558 13.1975ZM50.1314 12.5387C50.4817 12.387 50.9092 12.2988 51.4332 12.2988V10.2988C50.6837 10.2988 49.9784 10.4255 49.3365 10.7035L50.1314 12.5387ZM51.4332 12.2988C51.9195 12.2988 52.288 12.3449 52.5571 12.4171L53.0749 10.4853C52.5862 10.3543 52.0327 10.2988 51.4332 10.2988V12.2988ZM52.5571 12.4171C52.8519 12.4961 53.1571 12.6189 53.4732 12.7916L54.4322 11.0365C53.9904 10.7951 53.5378 10.6094 53.0749 10.4853L52.5571 12.4171ZM53.0484 11.4872L52.357 12.9521L54.1656 13.8057L54.857 12.3409L53.0484 11.4872ZM53.7614 12.5129C53.4371 12.3257 53.1018 12.167 52.7556 12.0378L52.0561 13.9115C52.2958 14.001 52.5308 14.1118 52.7612 14.2449L53.7614 12.5129ZM52.7597 12.0393C52.3408 11.8808 51.8941 11.8105 51.4332 11.8105V13.8105C51.691 13.8105 51.8927 13.8497 52.0519 13.9099L52.7597 12.0393ZM51.4332 11.8105C50.9088 11.8105 50.4031 11.9175 49.9409 12.1575L50.8629 13.9323C51.0023 13.8599 51.1841 13.8105 51.4332 13.8105V11.8105ZM49.9409 12.1575C49.5155 12.3785 49.1492 12.6801 48.8462 13.0534L50.3991 14.3138C50.5336 14.1481 50.6868 14.0238 50.8629 13.9323L49.9409 12.1575ZM48.8451 13.0547C48.5669 13.3987 48.3418 13.7823 48.167 14.1998L50.0119 14.9721C50.1183 14.7177 50.2487 14.4997 50.4001 14.3125L48.8451 13.0547ZM48.1686 14.1959C48.0006 14.5927 47.875 15.0048 47.7916 15.431L49.7544 15.8151C49.8116 15.5225 49.897 15.2433 50.0102 14.9759L48.1686 14.1959ZM47.7897 15.4413C47.7131 15.8555 47.6734 16.2641 47.6734 16.666H49.6734C49.6734 16.3961 49.7001 16.1094 49.7564 15.8048L47.7897 15.4413ZM47.6734 16.666C47.6734 17.4269 47.8275 18.1865 48.3125 18.763L49.8429 17.4753C49.7889 17.4111 49.6734 17.202 49.6734 16.666H47.6734ZM48.3165 18.7676C48.843 19.3858 49.6022 19.5938 50.355 19.5938V17.5938C49.9438 17.5938 49.8514 17.4853 49.8389 17.4707L48.3165 18.7676ZM50.355 19.5938C50.7644 19.5938 51.1731 19.5419 51.5793 19.4415L51.0996 17.4999C50.8417 17.5636 50.5941 17.5938 50.355 17.5938V19.5938ZM51.59 19.4388C51.9648 19.3418 52.3371 19.219 52.7069 19.0711L51.9641 17.2141C51.6698 17.3318 51.3781 17.4277 51.0889 17.5026L51.59 19.4388ZM51.3355 18.1426V19.666H53.3355V18.1426H51.3355ZM51.9694 18.7354C51.7833 18.8087 51.5055 18.8967 51.121 18.9975L51.6281 20.9322C52.0483 20.822 52.4111 20.7109 52.7016 20.5966L51.9694 18.7354ZM51.1276 18.9958C50.8283 19.0721 50.4534 19.1172 49.9918 19.1172V21.1172C50.577 21.1172 51.124 21.0607 51.6216 20.9339L51.1276 18.9958ZM53.7886 20L52.8103 19.7932L52.5552 21H53.7886V20ZM55.5992 11.4336V10.4336H54.7884L54.6208 11.2268L55.5992 11.4336ZM57.3922 11.4336L58.3706 11.6402L58.6254 10.4336H57.3922V11.4336ZM56.6832 14.791L55.7047 14.5844L55.4499 15.791H56.6832V14.791ZM59.4429 14.791V15.791H60.2538L60.4214 14.9976L59.4429 14.791ZM60.1519 11.4336V10.4336H59.341L59.1735 11.227L60.1519 11.4336ZM61.939 11.4336L62.9174 11.6404L63.1725 10.4336H61.939V11.4336ZM60.1285 20V21H60.9392L61.1069 20.2068L60.1285 20ZM58.3355 20L57.3573 19.7923L57.1009 21H58.3355V20ZM59.1207 16.3027L60.0989 16.5105L60.3553 15.3027H59.1207V16.3027ZM56.3609 16.3027V15.3027H55.551L55.3827 16.095L56.3609 16.3027ZM55.5757 20V21H56.3857L56.5539 20.2077L55.5757 20ZM54.767 20.2068L56.5776 11.6404L54.6208 11.2268L52.8103 19.7932L54.767 20.2068ZM55.5992 12.4336H57.3922V10.4336H55.5992V12.4336ZM56.4137 11.227L55.7047 14.5844L57.6616 14.9976L58.3706 11.6402L56.4137 11.227ZM56.6832 15.791H59.4429V13.791H56.6832V15.791ZM60.4214 14.9976L61.1303 11.6402L59.1735 11.227L58.4645 14.5844L60.4214 14.9976ZM60.1519 12.4336H61.939V10.4336H60.1519V12.4336ZM60.9606 11.2268L59.1501 19.7932L61.1069 20.2068L62.9174 11.6404L60.9606 11.2268ZM60.1285 19H58.3355V21H60.1285V19ZM59.3137 20.2077L60.0989 16.5105L58.1425 16.095L57.3573 19.7923L59.3137 20.2077ZM59.1207 15.3027H56.3609V17.3027H59.1207V15.3027ZM55.3827 16.095L54.5976 19.7923L56.5539 20.2077L57.3391 16.5105L55.3827 16.095ZM55.5757 19H53.7886V21H55.5757V19ZM64.0308 19.7129L63.5324 20.5798L63.5355 20.5816L64.0308 19.7129ZM62.9644 18.5762L62.0672 19.0177L62.0686 19.0205L62.9644 18.5762ZM62.7183 15.5176L61.7348 15.3364L61.7334 15.3448L62.7183 15.5176ZM63.0816 14.2285L62.1519 13.8601L62.1489 13.8678L63.0816 14.2285ZM63.6968 13.0742L62.8789 12.4989L62.8747 12.505L63.6968 13.0742ZM69.48 12.1777L68.7343 12.844L68.739 12.8492L69.48 12.1777ZM70.1539 15.8867L69.1681 15.7182L69.1668 15.7264L70.1539 15.8867ZM69.8023 17.1992L68.8685 16.8414L68.8656 16.8491L69.8023 17.1992ZM69.1988 18.3594L68.3766 17.7902L68.3753 17.7921L69.1988 18.3594ZM68.3375 19.2852L68.9565 20.0705L68.9622 20.066L68.3375 19.2852ZM67.2007 19.9004L67.5249 20.8464L67.5299 20.8447L67.2007 19.9004ZM67.189 18.0957L67.8386 18.8561L67.8475 18.8483L67.189 18.0957ZM67.6988 17.498L66.8625 16.9497L66.8604 16.9531L67.6988 17.498ZM68.0972 16.6953L69.0356 17.041L69.037 17.0371L68.0972 16.6953ZM68.3492 15.7051L67.3639 15.5337L67.3622 15.5442L68.3492 15.7051ZM68.0738 13.2852L67.2797 13.893L67.2844 13.8991L68.0738 13.2852ZM66.2808 12.957L65.885 12.0387L65.8792 12.0412L66.2808 12.957ZM65.6597 13.373L64.9753 12.6439L64.9678 12.6511L65.6597 13.373ZM64.5054 15.793L63.5199 15.6231L63.5181 15.6341L64.5054 15.793ZM64.5992 17.8145L63.6865 18.2231L63.6888 18.2283L64.5992 17.8145ZM65.109 18.4004L64.5966 19.2593L64.6079 19.2658L65.109 18.4004ZM65.7828 19.1172C65.2139 19.1172 64.8116 19.0069 64.5262 18.8442L63.5355 20.5816C64.1954 20.9579 64.961 21.1172 65.7828 21.1172V19.1172ZM64.5293 18.846C64.2333 18.6758 64.0154 18.4446 63.8603 18.1318L62.0686 19.0205C62.3978 19.6843 62.8908 20.2109 63.5324 20.5798L64.5293 18.846ZM63.8617 18.1347C63.6991 17.8042 63.6011 17.3864 63.6011 16.8535H61.6011C61.6011 17.6331 61.7454 18.3637 62.0672 19.0177L63.8617 18.1347ZM63.6011 16.8535C63.6011 16.467 63.635 16.0795 63.7033 15.6904L61.7334 15.3448C61.6454 15.8463 61.6011 16.3494 61.6011 16.8535H63.6011ZM63.7018 15.6987C63.7727 15.3135 63.8771 14.944 64.0143 14.5893L62.1489 13.8678C61.9659 14.3411 61.828 14.831 61.7349 15.3364L63.7018 15.6987ZM64.0113 14.5969C64.1481 14.2515 64.3176 13.9344 64.519 13.6434L62.8747 12.505C62.5839 12.925 62.3432 13.3774 62.1519 13.8602L64.0113 14.5969ZM64.5148 13.6495C64.7102 13.3717 64.9368 13.1319 65.196 12.927L63.9555 11.3582C63.5428 11.6845 63.1835 12.0658 62.8789 12.4989L64.5148 13.6495ZM65.196 12.927C65.44 12.7341 65.7214 12.5794 66.0475 12.4657L65.3891 10.5772C64.8637 10.7604 64.3834 11.0198 63.9555 11.3582L65.196 12.927ZM66.0475 12.4657C66.3527 12.3593 66.7121 12.2988 67.1363 12.2988V10.2988C66.5214 10.2988 65.9355 10.3867 65.3891 10.5772L66.0475 12.4657ZM67.1363 12.2988C67.9875 12.2988 68.4567 12.5333 68.7343 12.8439L70.2258 11.5115C69.4565 10.6503 68.3632 10.2988 67.1363 10.2988V12.2988ZM68.739 12.8492C69.0631 13.2069 69.2711 13.7228 69.2711 14.5039H71.2711C71.2711 13.3475 70.9517 12.3127 70.2211 11.5063L68.739 12.8492ZM69.2711 14.5039C69.2711 14.9124 69.2368 15.317 69.1682 15.7182L71.1396 16.0552C71.2272 15.5424 71.2711 15.0251 71.2711 14.5039H69.2711ZM69.1668 15.7264C69.1032 16.1183 69.0034 16.4894 68.8685 16.8414L70.7361 17.557C70.9216 17.0731 71.0561 16.5692 71.1409 16.047L69.1668 15.7264ZM68.8656 16.8491C68.7374 17.192 68.5741 17.5049 68.3766 17.7902L70.021 18.9286C70.3157 18.503 70.5547 18.0423 70.739 17.5494L68.8656 16.8491ZM68.3753 17.7921C68.1883 18.0634 67.9681 18.3 67.7128 18.5043L68.9622 20.066C69.3709 19.7391 69.7249 19.3584 70.0223 18.9267L68.3753 17.7921ZM67.7184 18.4998C67.4792 18.6884 67.1996 18.8418 66.8716 18.9561L67.5299 20.8447C68.0535 20.6621 68.5317 20.4054 68.9565 20.0705L67.7184 18.4998ZM66.8766 18.9544C66.5754 19.0576 66.2147 19.1172 65.7828 19.1172V21.1172C66.3978 21.1172 66.9823 21.0323 67.5248 20.8464L66.8766 18.9544ZM65.9117 19.5938C66.2716 19.5938 66.6224 19.5271 66.9569 19.3933L66.2141 17.5364C66.1189 17.5744 66.0205 17.5938 65.9117 17.5938V19.5938ZM66.9569 19.3933C67.2795 19.2643 67.5736 19.0824 67.8385 18.8561L66.5395 17.3353C66.4295 17.4293 66.3213 17.4935 66.2141 17.5364L66.9569 19.3933ZM67.8475 18.8483C68.1121 18.6168 68.3408 18.3453 68.5372 18.043L66.8604 16.9531C66.7521 17.1195 66.6409 17.2465 66.5305 17.3431L67.8475 18.8483ZM68.535 18.0464C68.7372 17.7381 68.9028 17.4014 69.0356 17.041L67.1589 16.3496C67.0729 16.583 66.9729 16.7814 66.8626 16.9497L68.535 18.0464ZM69.037 17.0371C69.1704 16.6702 69.2689 16.2787 69.3362 15.866L67.3622 15.5442C67.3123 15.8502 67.2428 16.1188 67.1574 16.3536L69.037 17.0371ZM69.3344 15.8764C69.4079 15.454 69.4429 15.0114 69.4429 14.5508H67.4429C67.4429 14.9105 67.4155 15.2374 67.364 15.5337L69.3344 15.8764ZM69.4429 14.5508C69.4429 13.8714 69.2834 13.2116 68.8631 12.6712L67.2844 13.8991C67.3563 13.9915 67.4429 14.1755 67.4429 14.5508H69.4429ZM68.8679 12.6773C68.3968 12.0619 67.7099 11.8105 66.9898 11.8105V13.8105C67.2306 13.8105 67.2664 13.8756 67.2797 13.893L68.8679 12.6773ZM66.9898 11.8105C66.6072 11.8105 66.2362 11.8873 65.885 12.0387L66.6767 13.8754C66.7785 13.8314 66.8802 13.8105 66.9898 13.8105V11.8105ZM65.8792 12.0412C65.5443 12.1881 65.243 12.3926 64.9753 12.644L66.3442 14.1021C66.4593 13.9941 66.572 13.9213 66.6825 13.8728L65.8792 12.0412ZM64.9678 12.6511C64.713 12.8952 64.4914 13.1757 64.2997 13.4854L66.0002 14.5381C66.1132 14.3555 66.2314 14.2102 66.3516 14.095L64.9678 12.6511ZM64.2997 13.4854C64.1077 13.7955 63.948 14.1318 63.8176 14.4903L65.6972 15.1738C65.7856 14.9307 65.8875 14.7201 66.0002 14.5381L64.2997 13.4854ZM63.8176 14.4903C63.6864 14.851 63.5879 15.2292 63.52 15.6231L65.4909 15.9629C65.5402 15.6771 65.6096 15.4146 65.6972 15.1738L63.8176 14.4903ZM63.5181 15.6341C63.4545 16.0298 63.4234 16.4366 63.4234 16.8535H65.4234C65.4234 16.536 65.447 16.2358 65.4927 15.9518L63.5181 15.6341ZM63.4234 16.8535C63.4234 17.3302 63.4964 17.7986 63.6865 18.2231L65.5119 17.4058C65.4676 17.3069 65.4234 17.1347 65.4234 16.8535H63.4234ZM63.6888 18.2283C63.8821 18.6535 64.1829 19.0124 64.5967 19.2592L65.6212 17.5416C65.5897 17.5228 65.5506 17.491 65.5096 17.4007L63.6888 18.2283ZM64.6079 19.2658C65.0124 19.5 65.4609 19.5938 65.9117 19.5938V17.5938C65.7375 17.5938 65.6508 17.5586 65.61 17.535L64.6079 19.2658ZM72.7965 19.7129L72.298 20.5798L72.3011 20.5816L72.7965 19.7129ZM71.73 18.5762L70.8328 19.0177L70.8342 19.0205L71.73 18.5762ZM71.484 15.5176L70.5005 15.3364L70.499 15.3448L71.484 15.5176ZM71.8472 14.2285L70.9175 13.8601L70.9146 13.8678L71.8472 14.2285ZM72.4625 13.0742L71.6445 12.4989L71.6403 12.505L72.4625 13.0742ZM78.2457 12.1777L77.4999 12.844L77.5046 12.8492L78.2457 12.1777ZM78.9195 15.8867L77.9338 15.7182L77.9324 15.7264L78.9195 15.8867ZM78.5679 17.1992L77.6341 16.8414L77.6312 16.8491L78.5679 17.1992ZM77.9644 18.3594L77.1422 17.7902L77.1409 17.7921L77.9644 18.3594ZM77.1031 19.2852L77.7222 20.0705L77.7278 20.066L77.1031 19.2852ZM75.9664 19.9004L76.2905 20.8464L76.2956 20.8447L75.9664 19.9004ZM75.9547 18.0957L76.6042 18.8561L76.6132 18.8483L75.9547 18.0957ZM76.4644 17.498L75.6282 16.9497L75.626 16.9531L76.4644 17.498ZM76.8629 16.6953L77.8012 17.041L77.8027 17.0371L76.8629 16.6953ZM77.1148 15.7051L76.1295 15.5337L76.1278 15.5442L77.1148 15.7051ZM76.8394 13.2852L76.0453 13.893L76.0501 13.8991L76.8394 13.2852ZM75.0465 12.957L74.6506 12.0387L74.6448 12.0412L75.0465 12.957ZM74.4254 13.373L73.7409 12.6439L73.7335 12.6511L74.4254 13.373ZM73.2711 15.793L72.2855 15.6231L72.2838 15.6341L73.2711 15.793ZM73.3648 17.8145L72.4521 18.2231L72.4544 18.2283L73.3648 17.8145ZM73.8746 18.4004L73.3623 19.2593L73.3735 19.2658L73.8746 18.4004ZM74.5484 19.1172C73.9795 19.1172 73.5772 19.0069 73.2918 18.8442L72.3011 20.5816C72.961 20.9579 73.7267 21.1172 74.5484 21.1172V19.1172ZM73.2949 18.846C72.9989 18.6758 72.781 18.4446 72.6259 18.1318L70.8342 19.0205C71.1634 19.6843 71.6565 20.2109 72.298 20.5798L73.2949 18.846ZM72.6273 18.1347C72.4647 17.8042 72.3668 17.3864 72.3668 16.8535H70.3668C70.3668 17.6331 70.511 18.3637 70.8328 19.0177L72.6273 18.1347ZM72.3668 16.8535C72.3668 16.467 72.4006 16.0795 72.4689 15.6904L70.499 15.3448C70.411 15.8463 70.3668 16.3494 70.3668 16.8535H72.3668ZM72.4674 15.6987C72.5384 15.3135 72.6427 14.944 72.7799 14.5893L70.9146 13.8678C70.7315 14.3411 70.5936 14.831 70.5005 15.3364L72.4674 15.6987ZM72.7769 14.5969C72.9138 14.2515 73.0832 13.9344 73.2847 13.6434L71.6403 12.505C71.3495 12.925 71.1088 13.3774 70.9176 13.8602L72.7769 14.5969ZM73.2804 13.6495C73.4758 13.3717 73.7024 13.1319 73.9616 12.927L72.7211 11.3582C72.3084 11.6845 71.9492 12.0658 71.6445 12.4989L73.2804 13.6495ZM73.9616 12.927C74.2056 12.7341 74.487 12.5794 74.8131 12.4657L74.1548 10.5772C73.6293 10.7604 73.149 11.0198 72.7211 11.3582L73.9616 12.927ZM74.8131 12.4657C75.1183 12.3593 75.4777 12.2988 75.9019 12.2988V10.2988C75.2871 10.2988 74.7011 10.3867 74.1548 10.5772L74.8131 12.4657ZM75.9019 12.2988C76.7531 12.2988 77.2224 12.5333 77.4999 12.8439L78.9914 11.5115C78.2221 10.6503 77.1289 10.2988 75.9019 10.2988V12.2988ZM77.5046 12.8492C77.8287 13.2069 78.0367 13.7228 78.0367 14.5039H80.0367C80.0367 13.3475 79.7173 12.3127 78.9867 11.5063L77.5046 12.8492ZM78.0367 14.5039C78.0367 14.9124 78.0024 15.317 77.9338 15.7182L79.9052 16.0552C79.9929 15.5424 80.0367 15.0251 80.0367 14.5039H78.0367ZM77.9324 15.7264C77.8688 16.1183 77.769 16.4894 77.6341 16.8414L79.5017 17.557C79.6872 17.0731 79.8218 16.5692 79.9066 16.047L77.9324 15.7264ZM77.6312 16.8491C77.503 17.192 77.3398 17.5049 77.1422 17.7902L78.7866 18.9286C79.0813 18.503 79.3203 18.0423 79.5046 17.5494L77.6312 16.8491ZM77.1409 17.7921C76.954 18.0634 76.7338 18.3 76.4784 18.5043L77.7278 20.066C78.1365 19.7391 78.4905 19.3584 78.7879 18.9267L77.1409 17.7921ZM76.484 18.4998C76.2448 18.6884 75.9652 18.8418 75.6372 18.9561L76.2956 20.8447C76.8191 20.6621 77.2973 20.4054 77.7221 20.0705L76.484 18.4998ZM75.6423 18.9544C75.3411 19.0576 74.9803 19.1172 74.5484 19.1172V21.1172C75.1634 21.1172 75.7479 21.0323 76.2905 20.8464L75.6423 18.9544ZM74.6773 19.5938C75.0372 19.5938 75.388 19.5271 75.7225 19.3933L74.9797 17.5364C74.8846 17.5744 74.7861 17.5938 74.6773 17.5938V19.5938ZM75.7225 19.3933C76.0451 19.2643 76.3392 19.0824 76.6041 18.8561L75.3052 17.3353C75.1951 17.4293 75.0869 17.4935 74.9797 17.5364L75.7225 19.3933ZM76.6132 18.8483C76.8777 18.6168 77.1064 18.3453 77.3029 18.043L75.626 16.9531C75.5178 17.1195 75.4066 17.2465 75.2962 17.3431L76.6132 18.8483ZM77.3007 18.0464C77.5028 17.7381 77.6684 17.4014 77.8012 17.041L75.9245 16.3496C75.8385 16.583 75.7385 16.7814 75.6282 16.9497L77.3007 18.0464ZM77.8027 17.0371C77.936 16.6702 78.0345 16.2787 78.1018 15.866L76.1278 15.5442C76.078 15.8502 76.0084 16.1188 75.9231 16.3536L77.8027 17.0371ZM78.1 15.8764C78.1735 15.454 78.2086 15.0114 78.2086 14.5508H76.2086C76.2086 14.9105 76.1811 15.2374 76.1296 15.5337L78.1 15.8764ZM78.2086 14.5508C78.2086 13.8714 78.0491 13.2116 77.6288 12.6712L76.0501 13.8991C76.122 13.9915 76.2086 14.1755 76.2086 14.5508H78.2086ZM77.6335 12.6773C77.1624 12.0619 76.4756 11.8105 75.7554 11.8105V13.8105C75.9962 13.8105 76.032 13.8756 76.0453 13.893L77.6335 12.6773ZM75.7554 11.8105C75.3729 11.8105 75.0019 11.8873 74.6506 12.0387L75.4423 13.8754C75.5442 13.8314 75.6458 13.8105 75.7554 13.8105V11.8105ZM74.6448 12.0412C74.3099 12.1881 74.0086 12.3926 73.7409 12.644L75.1098 14.1021C75.2249 13.9941 75.3377 13.9213 75.4481 13.8728L74.6448 12.0412ZM73.7335 12.6511C73.4787 12.8952 73.257 13.1757 73.0653 13.4854L74.7659 14.5381C74.8789 14.3555 74.9971 14.2102 75.1173 14.095L73.7335 12.6511ZM73.0653 13.4854C72.8733 13.7955 72.7136 14.1318 72.5832 14.4903L74.4628 15.1738C74.5512 14.9307 74.6532 14.7201 74.7659 14.5381L73.0653 13.4854ZM72.5832 14.4903C72.4521 14.851 72.3535 15.2292 72.2856 15.6231L74.2565 15.9629C74.3058 15.6771 74.3752 15.4146 74.4628 15.1738L72.5832 14.4903ZM72.2838 15.6341C72.2201 16.0298 72.189 16.4366 72.189 16.8535H74.189C74.189 16.536 74.2127 16.2358 74.2584 15.9518L72.2838 15.6341ZM72.189 16.8535C72.189 17.3302 72.262 17.7986 72.4521 18.2231L74.2775 17.4058C74.2332 17.3069 74.189 17.1347 74.189 16.8535H72.189ZM72.4544 18.2283C72.6478 18.6535 72.9485 19.0124 73.3623 19.2592L74.3869 17.5416C74.3553 17.5228 74.3162 17.491 74.2752 17.4007L72.4544 18.2283ZM73.3735 19.2658C73.778 19.5 74.2265 19.5938 74.6773 19.5938V17.5938C74.5031 17.5938 74.4164 17.5586 74.3756 17.535L73.3735 19.2658ZM79.7222 20L78.7438 19.7932L78.4888 21H79.7222V20ZM81.5328 11.4336V10.4336H80.722L80.5544 11.2268L81.5328 11.4336ZM83.3257 11.4336L84.304 11.6412L84.5603 10.4336H83.3257V11.4336ZM81.8257 18.5L80.8475 18.2924L80.5912 19.5H81.8257V18.5ZM84.8257 18.5L85.8042 18.7064L86.0587 17.5H84.8257V18.5ZM84.5093 20V21H85.3204L85.4878 20.2064L84.5093 20ZM80.7006 20.2068L82.5112 11.6404L80.5544 11.2268L78.7438 19.7932L80.7006 20.2068ZM81.5328 12.4336H83.3257V10.4336H81.5328V12.4336ZM82.3475 11.2259L80.8475 18.2924L82.804 18.7076L84.304 11.6412L82.3475 11.2259ZM81.8257 19.5H84.8257V17.5H81.8257V19.5ZM83.8473 18.2936L83.5309 19.7936L85.4878 20.2064L85.8042 18.7064L83.8473 18.2936ZM84.5093 19H79.7222V21H84.5093V19ZM90.8785 19.707L90.3661 20.5658L90.3715 20.569L90.8785 19.707ZM89.8238 18.541L88.917 18.9628L88.9211 18.9712L89.8238 18.541ZM89.6422 15.2305L88.667 15.0088L88.6654 15.0159L89.6422 15.2305ZM90.1695 13.7539L91.0639 14.2011L91.0654 14.1982L90.1695 13.7539ZM96.5738 11.9141L97.4781 12.3409L97.8805 11.4885L97.0533 11.0365L96.5738 11.9141ZM95.8824 13.3789L95.3823 14.2449L96.323 14.7881L96.7867 13.8057L95.8824 13.3789ZM95.0269 12.9746L94.673 13.9099L94.6772 13.9115L95.0269 12.9746ZM92.2437 13.6836L91.4673 13.0534L91.4662 13.0547L92.2437 13.6836ZM91.7105 14.5859L92.6313 14.9759L92.633 14.9721L91.7105 14.5859ZM91.3941 15.623L90.4127 15.431L90.4108 15.4413L91.3941 15.623ZM91.6988 18.1191L90.9336 18.763L90.9376 18.7676L91.6988 18.1191ZM93.9605 18.4707L94.2004 19.4416L94.2111 19.4388L93.9605 18.4707ZM94.9566 18.1426H95.9566V16.6655L94.5852 17.2141L94.9566 18.1426ZM94.9566 19.666L95.3227 20.5966L95.9566 20.3472V19.666H94.9566ZM93.9957 19.9648L94.2427 20.9339L94.2492 20.9322L93.9957 19.9648ZM92.6129 19.1172C92.0504 19.1172 91.6591 19.006 91.3855 18.8451L90.3715 20.569C91.0276 20.9549 91.7925 21.1172 92.6129 21.1172V19.1172ZM91.3909 18.8483C91.0997 18.6746 90.882 18.4369 90.7265 18.1108L88.9211 18.9712C89.2422 19.6451 89.7276 20.1848 90.3661 20.5658L91.3909 18.8483ZM90.7305 18.1193C90.57 17.7743 90.4722 17.3304 90.4722 16.7598H88.4722C88.4722 17.5563 88.6088 18.2999 88.9171 18.9627L90.7305 18.1193ZM90.4722 16.7598C90.4722 16.3314 90.5203 15.8935 90.6189 15.445L88.6654 15.0159C88.5374 15.5986 88.4722 16.1804 88.4722 16.7598H90.4722ZM90.6173 15.4521C90.7169 15.0139 90.8657 14.5975 91.0639 14.2011L89.2751 13.3067C89.0045 13.8478 88.8018 14.4158 88.667 15.0088L90.6173 15.4521ZM91.0654 14.1982C91.2534 13.8191 91.4903 13.4871 91.7769 13.1975L90.3551 11.7908C89.9151 12.2356 89.5544 12.7434 89.2736 13.3097L91.0654 14.1982ZM91.7769 13.1975C92.0461 12.9253 92.368 12.7052 92.7524 12.5387L91.9576 10.7035C91.3499 10.9667 90.8124 11.3286 90.3551 11.7908L91.7769 13.1975ZM92.7524 12.5387C93.1028 12.387 93.5303 12.2988 94.0543 12.2988V10.2988C93.3048 10.2988 92.5995 10.4255 91.9576 10.7035L92.7524 12.5387ZM94.0543 12.2988C94.5406 12.2988 94.909 12.3449 95.1782 12.4171L95.696 10.4853C95.2073 10.3543 94.6538 10.2988 94.0543 10.2988V12.2988ZM95.1782 12.4171C95.473 12.4961 95.7782 12.6189 96.0943 12.7916L97.0533 11.0365C96.6115 10.7951 96.1589 10.6094 95.696 10.4853L95.1782 12.4171ZM95.6695 11.4872L94.9781 12.9521L96.7867 13.8057L97.4781 12.3409L95.6695 11.4872ZM96.3825 12.5129C96.0582 12.3257 95.7229 12.167 95.3767 12.0378L94.6772 13.9115C94.9169 14.001 95.1519 14.1118 95.3823 14.2449L96.3825 12.5129ZM95.3808 12.0393C94.9619 11.8808 94.5152 11.8105 94.0543 11.8105V13.8105C94.3121 13.8105 94.5138 13.8497 94.673 13.9099L95.3808 12.0393ZM94.0543 11.8105C93.5299 11.8105 93.0241 11.9175 92.562 12.1575L93.484 13.9323C93.6234 13.8599 93.8052 13.8105 94.0543 13.8105V11.8105ZM92.562 12.1575C92.1366 12.3785 91.7703 12.6801 91.4673 13.0534L93.0202 14.3138C93.1547 14.1481 93.3079 14.0238 93.484 13.9323L92.562 12.1575ZM91.4662 13.0547C91.188 13.3987 90.9629 13.7823 90.7881 14.1998L92.633 14.9721C92.7394 14.7177 92.8697 14.4997 93.0212 14.3125L91.4662 13.0547ZM90.7897 14.1959C90.6217 14.5927 90.4961 15.0048 90.4127 15.431L92.3755 15.8151C92.4327 15.5225 92.5181 15.2433 92.6313 14.9759L90.7897 14.1959ZM90.4108 15.4413C90.3342 15.8555 90.2945 16.2641 90.2945 16.666H92.2945C92.2945 16.3961 92.3212 16.1094 92.3775 15.8048L90.4108 15.4413ZM90.2945 16.666C90.2945 17.4269 90.4486 18.1865 90.9336 18.763L92.4639 17.4753C92.41 17.4111 92.2945 17.202 92.2945 16.666H90.2945ZM90.9376 18.7676C91.4641 19.3858 92.2233 19.5938 92.9761 19.5938V17.5938C92.5649 17.5938 92.4725 17.4853 92.46 17.4707L90.9376 18.7676ZM92.9761 19.5938C93.3855 19.5938 93.7942 19.5419 94.2004 19.4415L93.7207 17.4999C93.4628 17.5636 93.2152 17.5938 92.9761 17.5938V19.5938ZM94.2111 19.4388C94.5859 19.3418 94.9582 19.219 95.328 19.0711L94.5852 17.2141C94.2909 17.3318 93.9992 17.4277 93.7099 17.5026L94.2111 19.4388ZM93.9566 18.1426V19.666H95.9566V18.1426H93.9566ZM94.5905 18.7354C94.4044 18.8087 94.1266 18.8967 93.7421 18.9975L94.2492 20.9322C94.6694 20.822 95.0322 20.7109 95.3227 20.5966L94.5905 18.7354ZM93.7487 18.9958C93.4494 19.0721 93.0745 19.1172 92.6129 19.1172V21.1172C93.1981 21.1172 93.7451 21.0607 94.2427 20.9339L93.7487 18.9958ZM95.3785 20L94.4927 19.5359L93.7256 21H95.3785V20ZM99.8668 11.4336V10.4336H99.2618L98.981 10.9695L99.8668 11.4336ZM102.052 11.4336L103.047 11.3336L102.957 10.4336H102.052V11.4336ZM102.914 20V21H104.019L103.909 19.9L102.914 20ZM101.173 20L100.176 20.0688L100.24 21H101.173V20ZM101.033 17.9609L102.03 17.8921L101.966 16.9609H101.033V17.9609ZM98.2613 17.9609V16.9609H97.6401L97.3648 17.5179L98.2613 17.9609ZM97.2535 20V21H97.8747L98.15 20.4431L97.2535 20ZM98.9937 16.4375L98.0939 16.0012L97.3975 17.4375H98.9937V16.4375ZM100.945 16.4375V17.4375H102.016L101.943 16.3687L100.945 16.4375ZM100.793 14.2285L99.7948 14.295L99.7949 14.2973L100.793 14.2285ZM100.734 12.7871L101.733 12.8183L101.766 11.7871H100.734V12.7871ZM100.705 12.7871V11.7871H99.9921L99.7595 12.4606L100.705 12.7871ZM100.119 14.1172L99.2242 13.6699L99.2189 13.6809L100.119 14.1172ZM96.2643 20.4641L100.753 11.8977L98.981 10.9695L94.4927 19.5359L96.2643 20.4641ZM99.8668 12.4336H102.052V10.4336H99.8668V12.4336ZM101.057 11.5336L101.919 20.1L103.909 19.9L103.047 11.3336L101.057 11.5336ZM102.914 19H101.173V21H102.914V19ZM102.171 19.9312L102.03 17.8921L100.035 18.0297L100.176 20.0688L102.171 19.9312ZM101.033 16.9609H98.2613V18.9609H101.033V16.9609ZM97.3648 17.5179L96.357 19.5569L98.15 20.4431L99.1578 18.404L97.3648 17.5179ZM97.2535 19H95.3785V21H97.2535V19ZM98.9937 17.4375H100.945V15.4375H98.9937V17.4375ZM101.943 16.3687L101.79 14.1597L99.7949 14.2973L99.9473 16.5063L101.943 16.3687ZM101.79 14.162C101.775 13.928 101.759 13.692 101.744 13.4541L99.7478 13.585C99.7635 13.8236 99.7791 14.0603 99.7948 14.295L101.79 14.162ZM101.744 13.4541C101.73 13.2495 101.727 13.0376 101.733 12.8183L99.7344 12.7559C99.7257 13.0366 99.73 13.313 99.7478 13.585L101.744 13.4541ZM100.734 11.7871H100.705V13.7871H100.734V11.7871ZM99.7595 12.4606C99.6959 12.6447 99.6217 12.8304 99.5365 13.0178L101.357 13.8454C101.467 13.6032 101.565 13.3592 101.65 13.1136L99.7595 12.4606ZM99.5365 13.0178C99.4446 13.22 99.3406 13.4373 99.2243 13.67L101.013 14.5644C101.139 14.3127 101.254 14.073 101.357 13.8454L99.5365 13.0178ZM99.2189 13.6809L98.0939 16.0012L99.8935 16.8738L101.019 14.5535L99.2189 13.6809ZM103.945 20L102.966 19.7932L102.711 21H103.945V20ZM105.755 11.4336V10.4336H104.945L104.777 11.2268L105.755 11.4336ZM107.548 11.4336L108.527 11.6412L108.783 10.4336H107.548V11.4336ZM106.048 18.5L105.07 18.2924L104.814 19.5H106.048V18.5ZM109.048 18.5L110.027 18.7064L110.281 17.5H109.048V18.5ZM108.732 20V21H109.543L109.71 20.2064L108.732 20ZM104.923 20.2068L106.734 11.6404L104.777 11.2268L102.966 19.7932L104.923 20.2068ZM105.755 12.4336H107.548V10.4336H105.755V12.4336ZM106.57 11.2259L105.07 18.2924L107.027 18.7076L108.527 11.6412L106.57 11.2259ZM106.048 19.5H109.048V17.5H106.048V19.5ZM108.07 18.2936L107.754 19.7936L109.71 20.2064L110.027 18.7064L108.07 18.2936ZM108.732 19H103.945V21H108.732V19ZM110.168 20L109.189 19.7932L108.934 21H110.168V20ZM111.978 11.4336V10.4336H111.167L111 11.2268L111.978 11.4336ZM116.771 11.4336L117.749 11.6415L118.006 10.4336H116.771V11.4336ZM116.455 12.9219V13.9219H117.264L117.433 13.1298L116.455 12.9219ZM113.455 12.9219V11.9219H112.642L112.476 12.7176L113.455 12.9219ZM113.062 14.8027L112.083 14.5984L111.832 15.8027H113.062V14.8027ZM115.857 14.8027L116.834 15.0144L117.097 13.8027H115.857V14.8027ZM115.535 16.291V17.291H116.341L116.512 16.5026L115.535 16.291ZM112.74 16.291V15.291H111.93L111.762 16.0834L112.74 16.291ZM112.271 18.5L111.293 18.2924L111.037 19.5H112.271V18.5ZM115.271 18.5L116.25 18.7064L116.504 17.5H115.271V18.5ZM114.955 20V21H115.766L115.933 20.2064L114.955 20ZM111.146 20.2068L112.956 11.6404L111 11.2268L109.189 19.7932L111.146 20.2068ZM111.978 12.4336H116.771V10.4336H111.978V12.4336ZM115.793 11.2256L115.477 12.7139L117.433 13.1298L117.749 11.6415L115.793 11.2256ZM116.455 11.9219H113.455V13.9219H116.455V11.9219ZM112.476 12.7176L112.083 14.5984L114.041 15.0071L114.434 13.1262L112.476 12.7176ZM113.062 15.8027H115.857V13.8027H113.062V15.8027ZM114.88 14.5911L114.557 16.0794L116.512 16.5026L116.834 15.0144L114.88 14.5911ZM115.535 15.291H112.74V17.291H115.535V15.291ZM111.762 16.0834L111.293 18.2924L113.249 18.7076L113.718 16.4986L111.762 16.0834ZM112.271 19.5H115.271V17.5H112.271V19.5ZM114.293 18.2936L113.976 19.7936L115.933 20.2064L116.25 18.7064L114.293 18.2936ZM114.955 19H110.168V21H114.955V19ZM116.671 20L115.693 19.7932L115.438 21H116.671V20ZM118.482 11.4336V10.4336H117.671L117.504 11.2268L118.482 11.4336ZM120.574 11.4336L121.527 11.1325L121.307 10.4336H120.574V11.4336ZM122.566 17.7441L121.612 18.0452L121.833 18.7441H122.566V17.7441ZM122.613 17.7441V18.7441H123.463L123.6 17.9048L122.613 17.7441ZM122.718 17.0938L123.705 17.2534L123.706 17.2512L122.718 17.0938ZM122.859 16.2617L121.876 16.0758L121.874 16.0864L122.859 16.2617ZM123.011 15.4883L122.033 15.2805L122.032 15.2857L123.011 15.4883ZM123.873 11.4336V10.4336H123.063L122.894 11.2258L123.873 11.4336ZM125.478 11.4336L126.456 11.6404L126.712 10.4336H125.478V11.4336ZM123.668 20V21H124.478L124.646 20.2068L123.668 20ZM121.664 20L120.712 20.3064L120.935 21H121.664V20ZM119.578 13.5195L120.53 13.2131L120.306 12.5195H119.578V13.5195ZM119.519 13.5195V12.5195H118.599L118.523 13.4365L119.519 13.5195ZM119.472 13.8594L118.484 13.7089L118.482 13.7195L118.481 13.73L119.472 13.8594ZM119.378 14.5098L118.39 14.3577L118.388 14.3705L119.378 14.5098ZM119.261 15.2773L120.248 15.4417L120.248 15.4394L119.261 15.2773ZM119.132 15.9688L118.154 15.7618L118.154 15.7625L119.132 15.9688ZM118.283 20V21H119.094L119.261 20.2062L118.283 20ZM117.65 20.2068L119.46 11.6404L117.504 11.2268L115.693 19.7932L117.65 20.2068ZM118.482 12.4336H120.574V10.4336H118.482V12.4336ZM119.62 11.7346L121.612 18.0452L123.52 17.4431L121.527 11.1325L119.62 11.7346ZM122.566 18.7441H122.613V16.7441H122.566V18.7441ZM123.6 17.9048C123.627 17.7364 123.662 17.5192 123.705 17.2534L121.731 16.9341C121.688 17.1995 121.653 17.416 121.626 17.5835L123.6 17.9048ZM123.706 17.2512C123.748 16.988 123.794 16.7166 123.843 16.437L121.874 16.0864C121.823 16.3771 121.775 16.6605 121.731 16.9363L123.706 17.2512ZM123.842 16.4476C123.895 16.1627 123.945 15.9106 123.991 15.6909L122.032 15.2857C121.984 15.5191 121.932 15.7826 121.876 16.0758L123.842 16.4476ZM123.989 15.6961L124.851 11.6414L122.894 11.2258L122.033 15.2805L123.989 15.6961ZM123.873 12.4336H125.478V10.4336H123.873V12.4336ZM124.5 11.2268L122.689 19.7932L124.646 20.2068L126.456 11.6404L124.5 11.2268ZM123.668 19H121.664V21H123.668V19ZM122.616 19.6936L120.53 13.2131L118.626 13.8259L120.712 20.3064L122.616 19.6936ZM119.578 12.5195H119.519V14.5195H119.578V12.5195ZM118.523 13.4365C118.523 13.4302 118.522 13.4462 118.514 13.503C118.507 13.5532 118.497 13.6214 118.484 13.7089L120.461 14.0098C120.486 13.8419 120.508 13.6908 120.516 13.6026L118.523 13.4365ZM118.481 13.73C118.458 13.8997 118.428 14.1085 118.39 14.3577L120.367 14.6618C120.407 14.4032 120.439 14.1784 120.464 13.9887L118.481 13.73ZM118.388 14.3705C118.354 14.6125 118.316 14.8608 118.275 15.1153L120.248 15.4394C120.292 15.1704 120.332 14.907 120.369 14.649L118.388 14.3705ZM118.275 15.1129C118.234 15.36 118.193 15.5758 118.154 15.7618L120.111 16.1757C120.157 15.9554 120.203 15.7103 120.248 15.4417L118.275 15.1129ZM118.154 15.7625L117.304 19.7938L119.261 20.2062L120.111 16.175L118.154 15.7625ZM118.283 19H116.671V21H118.283V19ZM125.73 20L124.752 19.7932L124.497 21H125.73V20ZM127.541 11.4336V10.4336H126.73L126.562 11.2268L127.541 11.4336ZM132.363 17.9551L131.508 17.4361L131.507 17.4383L132.363 17.9551ZM131.384 19.0625L130.769 18.274L130.765 18.277L131.384 19.0625ZM127.834 18.5L126.855 18.2924L126.599 19.5H127.834V18.5ZM129.509 18.3066L129.895 19.2294L129.9 19.227L129.509 18.3066ZM130.318 17.7559L129.605 17.0547L129.599 17.0608L130.318 17.7559ZM130.886 16.9355L129.987 16.4973L129.983 16.5065L130.886 16.9355ZM131.226 15.916L132.206 16.1141L132.207 16.1121L131.226 15.916ZM129.017 12.9219V11.9219H128.207L128.039 12.7143L129.017 12.9219ZM126.708 20.2068L128.519 11.6404L126.562 11.2268L124.752 19.7932L126.708 20.2068ZM127.541 12.4336H129.861V10.4336H127.541V12.4336ZM129.861 12.4336C130.737 12.4336 131.272 12.6614 131.612 12.9872L132.997 11.544C132.18 10.7605 131.087 10.4336 129.861 10.4336V12.4336ZM131.612 12.9872C131.938 13.2996 132.171 13.8067 132.171 14.6738H134.171C134.171 13.4394 133.827 12.341 132.997 11.544L131.612 12.9872ZM132.171 14.6738C132.171 15.2524 132.11 15.77 131.996 16.2317L133.937 16.7136C134.096 16.0737 134.171 15.3922 134.171 14.6738H132.171ZM131.996 16.2317C131.881 16.6951 131.716 17.0937 131.508 17.4361L133.218 18.4741C133.541 17.9414 133.778 17.3518 133.937 16.7136L131.996 16.2317ZM131.507 17.4383C131.307 17.7697 131.061 18.0461 130.769 18.274L131.999 19.851C132.488 19.4695 132.896 19.0076 133.219 18.4718L131.507 17.4383ZM130.765 18.277C130.48 18.502 130.143 18.6803 129.746 18.8067L130.351 20.7128C130.961 20.5189 131.515 20.2324 132.003 19.848L130.765 18.277ZM129.746 18.8067C129.354 18.9312 128.899 19 128.373 19V21C129.073 21 129.735 20.9086 130.351 20.7128L129.746 18.8067ZM128.373 19H125.73V21H128.373V19ZM127.834 19.5H128.455V17.5H127.834V19.5ZM128.455 19.5C128.958 19.5 129.444 19.4176 129.895 19.2294L129.124 17.3839C128.957 17.4535 128.74 17.5 128.455 17.5V19.5ZM129.9 19.227C130.331 19.044 130.713 18.7856 131.037 18.4509L129.599 17.0608C129.469 17.1949 129.313 17.3037 129.118 17.3863L129.9 19.227ZM131.031 18.457C131.344 18.1391 131.596 17.7724 131.79 17.3646L129.983 16.5065C129.88 16.7237 129.753 16.9039 129.605 17.0547L131.031 18.457ZM131.785 17.3737C131.977 16.9793 132.117 16.5581 132.206 16.1141L130.246 15.7179C130.187 16.0083 130.1 16.2668 129.987 16.4973L131.785 17.3737ZM132.207 16.1121C132.294 15.6738 132.337 15.2252 132.337 14.7676H130.337C130.337 15.099 130.306 15.4161 130.246 15.7199L132.207 16.1121ZM132.337 14.7676C132.337 14.0058 132.162 13.2378 131.614 12.6753L130.182 14.0708C130.22 14.1099 130.337 14.2715 130.337 14.7676H132.337ZM131.614 12.6753C131.093 12.1403 130.409 11.9219 129.691 11.9219V13.9219C129.996 13.9219 130.117 14.0042 130.182 14.0708L131.614 12.6753ZM129.691 11.9219H129.017V13.9219H129.691V11.9219ZM128.039 12.7143L126.855 18.2924L128.812 18.7076L129.995 13.1294L128.039 12.7143ZM132.82 20L131.934 19.5359L131.167 21H132.82V20ZM137.308 11.4336V10.4336H136.703L136.422 10.9695L137.308 11.4336ZM139.494 11.4336L140.489 11.3336L140.398 10.4336H139.494V11.4336ZM140.355 20V21H141.461L141.35 19.9L140.355 20ZM138.615 20L137.617 20.0688L137.681 21H138.615V20ZM138.474 17.9609L139.472 17.8921L139.408 16.9609H138.474V17.9609ZM135.703 17.9609V16.9609H135.081L134.806 17.5179L135.703 17.9609ZM134.695 20V21H135.316L135.591 20.4431L134.695 20ZM136.435 16.4375L135.535 16.0012L134.839 17.4375H136.435V16.4375ZM138.386 16.4375V17.4375H139.458L139.384 16.3687L138.386 16.4375ZM138.234 14.2285L137.236 14.295L137.236 14.2973L138.234 14.2285ZM138.175 12.7871L139.175 12.8183L139.207 11.7871H138.175V12.7871ZM138.146 12.7871V11.7871H137.434L137.201 12.4606L138.146 12.7871ZM137.56 14.1172L136.666 13.6699L136.66 13.6809L137.56 14.1172ZM133.706 20.4641L138.194 11.8977L136.422 10.9695L131.934 19.5359L133.706 20.4641ZM137.308 12.4336H139.494V10.4336H137.308V12.4336ZM138.499 11.5336L139.36 20.1L141.35 19.9L140.489 11.3336L138.499 11.5336ZM140.355 19H138.615V21H140.355V19ZM139.612 19.9312L139.472 17.8921L137.477 18.0297L137.617 20.0688L139.612 19.9312ZM138.474 16.9609H135.703V18.9609H138.474V16.9609ZM134.806 17.5179L133.798 19.5569L135.591 20.4431L136.599 18.404L134.806 17.5179ZM134.695 19H132.82V21H134.695V19ZM136.435 17.4375H138.386V15.4375H136.435V17.4375ZM139.384 16.3687L139.232 14.1597L137.236 14.2973L137.389 16.5063L139.384 16.3687ZM139.232 14.162C139.216 13.928 139.201 13.692 139.185 13.4541L137.189 13.585C137.205 13.8236 137.221 14.0603 137.236 14.295L139.232 14.162ZM139.185 13.4541C139.172 13.2495 139.168 13.0376 139.175 12.8183L137.176 12.7559C137.167 13.0366 137.171 13.313 137.189 13.585L139.185 13.4541ZM138.175 11.7871H138.146V13.7871H138.175V11.7871ZM137.201 12.4606C137.137 12.6447 137.063 12.8304 136.978 13.0178L138.799 13.8454C138.909 13.6032 139.006 13.3592 139.091 13.1136L137.201 12.4606ZM136.978 13.0178C136.886 13.22 136.782 13.4373 136.666 13.67L138.455 14.5644C138.58 14.3127 138.695 14.073 138.799 13.8454L136.978 13.0178ZM136.66 13.6809L135.535 16.0012L137.335 16.8738L138.46 14.5535L136.66 13.6809ZM141.386 20L140.408 19.7932L140.153 21H141.386V20ZM143.197 11.4336V10.4336H142.386L142.218 11.2268L143.197 11.4336ZM147.334 11.9902L146.735 12.791L146.742 12.7962L147.334 11.9902ZM147.164 15.8281L146.535 15.0504L146.53 15.0546L147.164 15.8281ZM146.197 16.3613L145.871 15.4157L144.861 15.7635L145.275 16.7488L146.197 16.3613ZM147.726 20V21H149.231L148.648 19.6125L147.726 20ZM145.781 20L144.843 20.3462L145.084 21H145.781V20ZM144.568 16.7129L145.506 16.3667L145.265 15.7129H144.568V16.7129ZM143.871 16.7129V15.7129H143.061L142.892 16.5054L143.871 16.7129ZM143.173 20V21H143.984L144.152 20.2075L143.173 20ZM144.181 15.2363L143.203 15.0283L142.946 16.2363H144.181V15.2363ZM145.318 15.1543L145.583 16.1187L145.595 16.1151L145.318 15.1543ZM145.834 14.9023L146.447 15.6917L146.454 15.6865L146.461 15.6811L145.834 14.9023ZM146.15 14.4805L145.232 14.084L145.228 14.0943L146.15 14.4805ZM144.673 12.9219V11.9219H143.864L143.695 12.7139L144.673 12.9219ZM142.365 20.2068L144.175 11.6404L142.218 11.2268L140.408 19.7932L142.365 20.2068ZM143.197 12.4336H145.3V10.4336H143.197V12.4336ZM145.3 12.4336C146.026 12.4336 146.467 12.5909 146.735 12.791L147.933 11.1895C147.208 10.6474 146.294 10.4336 145.3 10.4336V12.4336ZM146.742 12.7962C146.904 12.9155 147.084 13.1574 147.084 13.7832H149.084C149.084 12.7528 148.763 11.7993 147.925 11.1842L146.742 12.7962ZM147.084 13.7832C147.084 14.1156 147.024 14.3582 146.937 14.5379L148.738 15.4074C148.979 14.9075 149.084 14.357 149.084 13.7832H147.084ZM146.937 14.5379C146.835 14.7487 146.702 14.9155 146.535 15.0504L147.792 16.6059C148.196 16.2798 148.512 15.8763 148.738 15.4074L146.937 14.5379ZM146.53 15.0546C146.345 15.2057 146.129 15.3271 145.871 15.4157L146.522 17.3069C146.991 17.1455 147.419 16.9115 147.797 16.6016L146.53 15.0546ZM145.275 16.7488L146.804 20.3875L148.648 19.6125L147.119 15.9739L145.275 16.7488ZM147.726 19H145.781V21H147.726V19ZM146.719 19.6538L145.506 16.3667L143.63 17.0591L144.843 20.3462L146.719 19.6538ZM144.568 15.7129H143.871V17.7129H144.568V15.7129ZM142.892 16.5054L142.195 19.7925L144.152 20.2075L144.849 16.9204L142.892 16.5054ZM143.173 19H141.386V21H143.173V19ZM144.181 16.2363H144.638V14.2363H144.181V16.2363ZM144.638 16.2363C144.962 16.2363 145.28 16.2017 145.583 16.1186L145.053 14.19C144.957 14.2163 144.822 14.2363 144.638 14.2363V16.2363ZM145.595 16.1151C145.898 16.0277 146.19 15.8922 146.447 15.6917L145.22 14.113C145.196 14.1312 145.144 14.1637 145.041 14.1935L145.595 16.1151ZM146.461 15.6811C146.732 15.4626 146.938 15.1866 147.072 14.8666L145.228 14.0943C145.221 14.1103 145.216 14.1155 145.206 14.1236L146.461 15.6811ZM147.068 14.8769C147.206 14.5565 147.261 14.2177 147.261 13.8828H145.261C145.261 14.0011 145.242 14.0607 145.232 14.084L147.068 14.8769ZM147.261 13.8828C147.261 13.3635 147.102 12.8052 146.63 12.4017L145.331 13.9225C145.314 13.9084 145.298 13.8912 145.285 13.872C145.271 13.853 145.264 13.8366 145.259 13.8259C145.252 13.8059 145.261 13.818 145.261 13.8828H147.261ZM146.63 12.4017C146.18 12.0176 145.605 11.9219 145.107 11.9219V13.9219C145.24 13.9219 145.319 13.9358 145.356 13.9461C145.391 13.9558 145.37 13.9566 145.331 13.9225L146.63 12.4017ZM145.107 11.9219H144.673V13.9219H145.107V11.9219ZM143.695 12.7139L143.203 15.0283L145.159 15.4443L145.652 13.1299L143.695 12.7139Z" fill="black"/>
</svg>
