<svg width="163" height="27" viewBox="0 0 163 27" fill="none" xmlns="http://www.w3.org/2000/svg">
<path d="M8.72748 12.15V14.85H5.81832V12.15H8.72748ZM14.5458 12.15V14.85H11.6366V12.15H14.5458ZM20.3641 12.15V14.85H17.455V12.15H20.3641ZM23.2733 2.7C24.0448 2.7 24.7848 2.98446 25.3304 3.49081C25.8759 3.99716 26.1824 4.68392 26.1824 5.4V24.3C26.1824 25.0161 25.8759 25.7028 25.3304 26.2092C24.7848 26.7155 24.0448 27 23.2733 27H2.90916C1.29458 27 0 25.785 0 24.3V5.4C0 4.68392 0.3065 3.99716 0.852073 3.49081C1.39765 2.98446 2.1376 2.7 2.90916 2.7H4.36374V0H7.2729V2.7H18.9095V0H21.8187V2.7H23.2733ZM23.2733 24.3V9.45H2.90916V24.3H23.2733ZM8.72748 17.55V20.25H5.81832V17.55H8.72748ZM14.5458 17.55V20.25H11.6366V17.55H14.5458ZM20.3641 17.55V20.25H17.455V17.55H20.3641Z" fill="#8A2BE2"/>
<path d="M44.084 18.3984C44.084 18.8633 43.9668 19.3047 43.7324 19.7227C43.498 20.1367 43.1328 20.4727 42.6367 20.7305C42.1445 20.9883 41.5078 21.1172 40.7266 21.1172C40.3359 21.1172 39.9922 21.0996 39.6953 21.0645C39.4023 21.0293 39.1289 20.9727 38.875 20.8945C38.6211 20.8125 38.3574 20.707 38.084 20.5781V18.5156C38.5488 18.75 39.0176 18.9297 39.4902 19.0547C39.9629 19.1758 40.3906 19.2363 40.7734 19.2363C41.0039 19.2363 41.1914 19.209 41.3359 19.1543C41.4844 19.0996 41.5938 19.0254 41.6641 18.9316C41.7344 18.834 41.7695 18.7227 41.7695 18.5977C41.7695 18.4492 41.7168 18.3242 41.6113 18.2227C41.5098 18.1172 41.3457 18.0078 41.1191 17.8945C40.8926 17.7812 40.5938 17.6406 40.2227 17.4727C39.9062 17.3242 39.6191 17.1719 39.3613 17.0156C39.1074 16.8594 38.8887 16.6816 38.7051 16.4824C38.5254 16.2793 38.3867 16.043 38.2891 15.7734C38.1914 15.5039 38.1426 15.1855 38.1426 14.8184C38.1426 14.2676 38.2773 13.8066 38.5469 13.4355C38.8203 13.0605 39.1992 12.7793 39.6836 12.5918C40.1719 12.4043 40.7344 12.3105 41.3711 12.3105C41.9297 12.3105 42.4316 12.373 42.877 12.498C43.3262 12.623 43.7285 12.7656 44.084 12.9258L43.375 14.7129C43.0078 14.5449 42.6465 14.4121 42.291 14.3145C41.9355 14.2129 41.6055 14.1621 41.3008 14.1621C41.1016 14.1621 40.9375 14.1875 40.8086 14.2383C40.6836 14.2852 40.5898 14.3496 40.5273 14.4316C40.4688 14.5137 40.4395 14.6074 40.4395 14.7129C40.4395 14.8457 40.4902 14.9648 40.5918 15.0703C40.6973 15.1758 40.8711 15.291 41.1133 15.416C41.3594 15.5371 41.6934 15.6953 42.1152 15.8906C42.5332 16.0781 42.8887 16.2812 43.1816 16.5C43.4746 16.7148 43.6973 16.9746 43.8496 17.2793C44.0059 17.5801 44.084 17.9531 44.084 18.3984ZM49.2227 14.209C48.9492 14.209 48.7051 14.2676 48.4902 14.3848C48.2754 14.498 48.0918 14.6641 47.9395 14.8828C47.7871 15.1016 47.6699 15.3691 47.5879 15.6855C47.5098 15.998 47.4707 16.3535 47.4707 16.752C47.4707 17.291 47.5391 17.7441 47.6758 18.1113C47.8125 18.4785 48.0195 18.7559 48.2969 18.9434C48.5781 19.1309 48.9297 19.2246 49.3516 19.2246C49.7344 19.2246 50.1016 19.1719 50.4531 19.0664C50.8086 18.9609 51.166 18.834 51.5254 18.6855V20.6426C51.1465 20.8105 50.7578 20.9316 50.3594 21.0059C49.9648 21.0801 49.5449 21.1172 49.0996 21.1172C48.1699 21.1172 47.4082 20.9336 46.8145 20.5664C46.2246 20.1953 45.7891 19.6816 45.5078 19.0254C45.2305 18.3691 45.0918 17.6074 45.0918 16.7402C45.0918 16.0918 45.1816 15.498 45.3613 14.959C45.5449 14.4199 45.8125 13.9531 46.1641 13.5586C46.5156 13.1602 46.9492 12.8535 47.4648 12.6387C47.9844 12.4199 48.5781 12.3105 49.2461 12.3105C49.6602 12.3105 50.0957 12.3594 50.5527 12.457C51.0137 12.5508 51.4629 12.7031 51.9004 12.9141L51.1914 14.7363C50.8789 14.5879 50.5625 14.4629 50.2422 14.3613C49.9219 14.2598 49.582 14.209 49.2227 14.209ZM60.543 21H58.2168V17.5078H55.5273V21H53.2012V12.4336H55.5273V15.6094H58.2168V12.4336H60.543V21ZM70.416 16.7051C70.416 17.3652 70.3359 17.9668 70.1758 18.5098C70.0195 19.0488 69.7734 19.5137 69.4375 19.9043C69.1016 20.2949 68.6699 20.5957 68.1426 20.8066C67.6152 21.0137 66.9844 21.1172 66.25 21.1172C65.5312 21.1172 64.9082 21.0137 64.3809 20.8066C63.8574 20.5957 63.4258 20.2969 63.0859 19.9102C62.7461 19.5195 62.4941 19.0527 62.3301 18.5098C62.166 17.9668 62.084 17.3613 62.084 16.6934C62.084 15.8027 62.2305 15.0293 62.5234 14.373C62.8203 13.7129 63.2773 13.2031 63.8945 12.8438C64.5117 12.4805 65.3008 12.2988 66.2617 12.2988C67.2383 12.2988 68.0312 12.4805 68.6406 12.8438C69.2539 13.207 69.7031 13.7188 69.9883 14.3789C70.2734 15.0391 70.416 15.8145 70.416 16.7051ZM64.5215 16.7051C64.5215 17.2207 64.5801 17.6641 64.6973 18.0352C64.8145 18.4062 65 18.6914 65.2539 18.8906C65.5078 19.0898 65.8398 19.1895 66.25 19.1895C66.6758 19.1895 67.0137 19.0898 67.2637 18.8906C67.5176 18.6914 67.6992 18.4062 67.8086 18.0352C67.9219 17.6641 67.9785 17.2207 67.9785 16.7051C67.9785 15.9316 67.8496 15.3203 67.5918 14.8711C67.334 14.4219 66.8906 14.1973 66.2617 14.1973C65.8438 14.1973 65.5059 14.2988 65.248 14.502C64.9941 14.7051 64.8086 14.9941 64.6914 15.3691C64.5781 15.7441 64.5215 16.1895 64.5215 16.7051ZM79.9785 16.7051C79.9785 17.3652 79.8984 17.9668 79.7383 18.5098C79.582 19.0488 79.3359 19.5137 79 19.9043C78.6641 20.2949 78.2324 20.5957 77.7051 20.8066C77.1777 21.0137 76.5469 21.1172 75.8125 21.1172C75.0938 21.1172 74.4707 21.0137 73.9434 20.8066C73.4199 20.5957 72.9883 20.2969 72.6484 19.9102C72.3086 19.5195 72.0566 19.0527 71.8926 18.5098C71.7285 17.9668 71.6465 17.3613 71.6465 16.6934C71.6465 15.8027 71.793 15.0293 72.0859 14.373C72.3828 13.7129 72.8398 13.2031 73.457 12.8438C74.0742 12.4805 74.8633 12.2988 75.8242 12.2988C76.8008 12.2988 77.5938 12.4805 78.2031 12.8438C78.8164 13.207 79.2656 13.7188 79.5508 14.3789C79.8359 15.0391 79.9785 15.8145 79.9785 16.7051ZM74.084 16.7051C74.084 17.2207 74.1426 17.6641 74.2598 18.0352C74.377 18.4062 74.5625 18.6914 74.8164 18.8906C75.0703 19.0898 75.4023 19.1895 75.8125 19.1895C76.2383 19.1895 76.5762 19.0898 76.8262 18.8906C77.0801 18.6914 77.2617 18.4062 77.3711 18.0352C77.4844 17.6641 77.541 17.2207 77.541 16.7051C77.541 15.9316 77.4121 15.3203 77.1543 14.8711C76.8965 14.4219 76.4531 14.1973 75.8242 14.1973C75.4062 14.1973 75.0684 14.2988 74.8105 14.502C74.5566 14.7051 74.3711 14.9941 74.2539 15.3691C74.1406 15.7441 74.084 16.1895 74.084 16.7051ZM81.5254 21V12.4336H83.8398V19.1309H87.1387V21H81.5254ZM95.4414 14.209C95.168 14.209 94.9238 14.2676 94.709 14.3848C94.4941 14.498 94.3105 14.6641 94.1582 14.8828C94.0059 15.1016 93.8887 15.3691 93.8066 15.6855C93.7285 15.998 93.6895 16.3535 93.6895 16.752C93.6895 17.291 93.7578 17.7441 93.8945 18.1113C94.0312 18.4785 94.2383 18.7559 94.5156 18.9434C94.7969 19.1309 95.1484 19.2246 95.5703 19.2246C95.9531 19.2246 96.3203 19.1719 96.6719 19.0664C97.0273 18.9609 97.3848 18.834 97.7441 18.6855V20.6426C97.3652 20.8105 96.9766 20.9316 96.5781 21.0059C96.1836 21.0801 95.7637 21.1172 95.3184 21.1172C94.3887 21.1172 93.627 20.9336 93.0332 20.5664C92.4434 20.1953 92.0078 19.6816 91.7266 19.0254C91.4492 18.3691 91.3105 17.6074 91.3105 16.7402C91.3105 16.0918 91.4004 15.498 91.5801 14.959C91.7637 14.4199 92.0312 13.9531 92.3828 13.5586C92.7344 13.1602 93.168 12.8535 93.6836 12.6387C94.2031 12.4199 94.7969 12.3105 95.4648 12.3105C95.8789 12.3105 96.3145 12.3594 96.7715 12.457C97.2324 12.5508 97.6816 12.7031 98.1191 12.9141L97.4102 14.7363C97.0977 14.5879 96.7812 14.4629 96.4609 14.3613C96.1406 14.2598 95.8008 14.209 95.4414 14.209ZM104.676 21L104.254 19.3945H101.471L101.037 21H98.4941L101.289 12.3984H104.377L107.207 21H104.676ZM103.773 17.4961L103.404 16.0898C103.365 15.9375 103.309 15.7207 103.234 15.4395C103.16 15.1543 103.086 14.8613 103.012 14.5605C102.941 14.2559 102.887 14.0059 102.848 13.8105C102.812 14.0059 102.762 14.248 102.695 14.5371C102.633 14.8223 102.566 15.1055 102.496 15.3867C102.43 15.668 102.371 15.9023 102.32 16.0898L101.951 17.4961H103.773ZM108.139 21V12.4336H110.453V19.1309H113.752V21H108.139ZM120.209 21H115.123V12.4336H120.209V14.291H117.438V15.6387H120.004V17.4961H117.438V19.1133H120.209V21ZM129.865 21H126.83L123.701 14.9648H123.648C123.668 15.1484 123.686 15.3691 123.701 15.627C123.717 15.8848 123.73 16.1484 123.742 16.418C123.754 16.6836 123.76 16.9238 123.76 17.1387V21H121.709V12.4336H124.732L127.85 18.3867H127.885C127.873 18.1992 127.861 17.9824 127.85 17.7363C127.838 17.4863 127.826 17.2344 127.814 16.9805C127.807 16.7266 127.803 16.502 127.803 16.3066V12.4336H129.865V21ZM138.988 16.5352C138.988 17.5312 138.803 18.3594 138.432 19.0195C138.061 19.6797 137.537 20.1758 136.861 20.5078C136.189 20.8359 135.398 21 134.488 21H131.717V12.4336H134.682C135.604 12.4336 136.385 12.5918 137.025 12.9082C137.666 13.2246 138.152 13.6875 138.484 14.2969C138.82 14.9062 138.988 15.6523 138.988 16.5352ZM136.586 16.6172C136.586 16.0977 136.516 15.668 136.375 15.3281C136.238 14.9844 136.031 14.7285 135.754 14.5605C135.477 14.3887 135.127 14.3027 134.705 14.3027H134.031V19.1016H134.547C135.25 19.1016 135.766 18.8984 136.094 18.4922C136.422 18.082 136.586 17.457 136.586 16.6172ZM145.785 21L145.363 19.3945H142.58L142.146 21H139.604L142.398 12.3984H145.486L148.316 21H145.785ZM144.883 17.4961L144.514 16.0898C144.475 15.9375 144.418 15.7207 144.344 15.4395C144.27 15.1543 144.195 14.8613 144.121 14.5605C144.051 14.2559 143.996 14.0059 143.957 13.8105C143.922 14.0059 143.871 14.248 143.805 14.5371C143.742 14.8223 143.676 15.1055 143.605 15.3867C143.539 15.668 143.48 15.9023 143.43 16.0898L143.061 17.4961H144.883ZM152.055 12.4336C152.832 12.4336 153.479 12.5293 153.994 12.7207C154.51 12.9082 154.896 13.1895 155.154 13.5645C155.416 13.9395 155.547 14.4062 155.547 14.9648C155.547 15.3125 155.488 15.6289 155.371 15.9141C155.254 16.1992 155.086 16.4551 154.867 16.6816C154.652 16.9043 154.395 17.0996 154.094 17.2676L156.59 21H153.965L152.148 17.8828H151.562V21H149.248V12.4336H152.055ZM152.02 14.1855H151.562V16.1426H151.996C152.352 16.1426 152.643 16.0645 152.869 15.9082C153.096 15.752 153.209 15.4727 153.209 15.0703C153.209 14.793 153.115 14.5762 152.928 14.4199C152.74 14.2637 152.438 14.1855 152.02 14.1855Z" fill="#8A2BE2"/>
</svg>
