<svg width="375" height="667" viewBox="0 0 375 667" fill="none" xmlns="http://www.w3.org/2000/svg">
<g clip-path="url(#clip0_310_84)">
<rect width="375" height="667" rx="15" fill="#0E0718"/>
<rect x="-3" y="-35" width="218" height="743" rx="15" fill="#433357"/>
<path d="M69.167 401.451H65.7026L64.4429 404H62.0991L67.7095 393.248H70.4414L71.5181 404H69.3428L69.167 401.451ZM69.0571 399.547L68.8667 396.983C68.8179 396.344 68.7935 395.726 68.7935 395.13V394.867C68.5786 395.453 68.3125 396.073 67.9951 396.727L66.6182 399.547H69.0571ZM79.5747 404H77.3701L78.3735 399.217C78.4517 398.885 78.4907 398.595 78.4907 398.346C78.4907 397.745 78.2271 397.445 77.6997 397.445C77.2505 397.445 76.8428 397.723 76.4766 398.28C76.1104 398.836 75.8223 399.613 75.6123 400.609L74.8945 404H72.6899L74.4258 395.812H76.1104L75.9565 397.328H76.0005C76.7134 396.214 77.5801 395.658 78.6006 395.658C79.2744 395.658 79.7944 395.863 80.1606 396.273C80.5317 396.678 80.7173 397.259 80.7173 398.016C80.7173 398.373 80.6611 398.812 80.5488 399.334L79.5747 404ZM87.3823 398.902C87.3823 397.94 87.0332 397.459 86.335 397.459C85.9688 397.459 85.6392 397.608 85.3462 397.906C85.0581 398.204 84.8213 398.641 84.6357 399.217C84.4551 399.793 84.3647 400.387 84.3647 400.997C84.3647 401.9 84.731 402.352 85.4634 402.352C85.8296 402.352 86.1592 402.203 86.4521 401.905C86.7451 401.603 86.9722 401.185 87.1333 400.653C87.2993 400.116 87.3823 399.532 87.3823 398.902ZM89.6016 398.902C89.6016 399.933 89.4282 400.846 89.0815 401.642C88.7397 402.438 88.2441 403.055 87.5947 403.495C86.9453 403.929 86.1738 404.146 85.2803 404.146C84.3281 404.146 83.5664 403.861 82.9951 403.29C82.4287 402.713 82.1455 401.949 82.1455 400.997C82.1455 399.957 82.3188 399.032 82.6655 398.221C83.0171 397.406 83.5225 396.776 84.1816 396.332C84.8408 395.882 85.6123 395.658 86.4961 395.658C87.4531 395.658 88.21 395.946 88.7666 396.522C89.3232 397.098 89.6016 397.892 89.6016 398.902ZM94.0254 402.367C94.3428 402.367 94.7383 402.281 95.2119 402.11V403.758C94.6699 404.017 94.0205 404.146 93.2637 404.146C92.5312 404.146 91.9917 403.993 91.645 403.685C91.3032 403.377 91.1323 402.901 91.1323 402.257C91.1323 402.013 91.1616 401.739 91.2202 401.437L92.0625 397.489H90.9492L91.1616 396.412L92.5972 395.797L93.564 394.068H94.9849L94.626 395.812H96.6987L96.3325 397.489H94.2671L93.4248 401.437C93.3955 401.583 93.3809 401.712 93.3809 401.825C93.3809 402.186 93.5957 402.367 94.0254 402.367ZM99.3867 404.146C98.6689 404.146 98.1025 403.888 97.6875 403.37C97.2773 402.848 97.0723 402.118 97.0723 401.18C97.0723 400.213 97.248 399.293 97.5996 398.419C97.9512 397.54 98.4126 396.861 98.9839 396.383C99.5552 395.899 100.183 395.658 100.866 395.658C101.34 395.658 101.748 395.76 102.089 395.965C102.436 396.17 102.705 396.468 102.895 396.859H102.954L103.371 395.812H105.07L103.327 404H101.65L101.752 402.938H101.723C101.069 403.744 100.29 404.146 99.3867 404.146ZM100.251 402.367C100.588 402.367 100.913 402.203 101.225 401.876C101.538 401.549 101.789 401.107 101.979 400.55C102.17 399.989 102.265 399.354 102.265 398.646C102.265 398.299 102.17 398.014 101.979 397.789C101.794 397.56 101.547 397.445 101.24 397.445C100.908 397.445 100.59 397.621 100.288 397.972C99.9897 398.324 99.7505 398.788 99.5698 399.364C99.394 399.94 99.3062 400.511 99.3062 401.078C99.3062 401.507 99.3867 401.83 99.5479 402.044C99.7139 402.259 99.9482 402.367 100.251 402.367ZM109.04 404.146C108.059 404.146 107.304 403.885 106.777 403.363C106.254 402.835 105.993 402.093 105.993 401.136C105.993 400.101 106.174 399.161 106.535 398.316C106.901 397.467 107.414 396.812 108.073 396.354C108.732 395.89 109.484 395.658 110.329 395.658C111.218 395.658 112.019 395.833 112.731 396.185L112.058 397.862C111.794 397.75 111.535 397.652 111.281 397.569C111.027 397.486 110.739 397.445 110.417 397.445C110.002 397.445 109.626 397.601 109.289 397.914C108.957 398.226 108.696 398.656 108.505 399.203C108.32 399.745 108.227 400.328 108.227 400.953C108.227 401.422 108.337 401.776 108.557 402.015C108.781 402.25 109.091 402.367 109.487 402.367C109.858 402.367 110.202 402.311 110.52 402.198C110.837 402.081 111.164 401.937 111.501 401.766V403.568C110.759 403.954 109.938 404.146 109.04 404.146ZM110.117 405.831C110.117 406.397 109.914 406.834 109.509 407.142C109.104 407.45 108.532 407.604 107.795 407.604C107.375 407.604 107.004 407.547 106.682 407.435V406.205C106.989 406.317 107.294 406.373 107.597 406.373C108.095 406.373 108.344 406.173 108.344 405.772C108.344 405.606 108.269 405.467 108.117 405.355C107.966 405.248 107.697 405.172 107.312 405.128L108.015 404H109.37L109.084 404.527C109.772 404.767 110.117 405.201 110.117 405.831ZM118.481 398.902C118.481 397.94 118.132 397.459 117.434 397.459C117.067 397.459 116.738 397.608 116.445 397.906C116.157 398.204 115.92 398.641 115.734 399.217C115.554 399.793 115.463 400.387 115.463 400.997C115.463 401.9 115.83 402.352 116.562 402.352C116.928 402.352 117.258 402.203 117.551 401.905C117.844 401.603 118.071 401.185 118.232 400.653C118.398 400.116 118.481 399.532 118.481 398.902ZM120.7 398.902C120.7 399.933 120.527 400.846 120.18 401.642C119.838 402.438 119.343 403.055 118.693 403.495C118.044 403.929 117.272 404.146 116.379 404.146C115.427 404.146 114.665 403.861 114.094 403.29C113.527 402.713 113.244 401.949 113.244 400.997C113.244 399.957 113.417 399.032 113.764 398.221C114.116 397.406 114.621 396.776 115.28 396.332C115.939 395.882 116.711 395.658 117.595 395.658C118.552 395.658 119.309 395.946 119.865 396.522C120.422 397.098 120.7 397.892 120.7 398.902ZM118.92 394.911C118.681 394.911 118.469 394.872 118.283 394.793C118.103 394.71 117.934 394.623 117.778 394.53C117.622 394.432 117.47 394.344 117.324 394.266C117.182 394.183 117.031 394.142 116.87 394.142C116.718 394.142 116.582 394.21 116.459 394.347C116.342 394.483 116.25 394.676 116.181 394.925H114.885C115.173 393.417 115.859 392.662 116.943 392.662C117.182 392.662 117.395 392.704 117.58 392.787C117.771 392.865 117.946 392.953 118.107 393.05C118.269 393.143 118.42 393.229 118.562 393.307C118.703 393.385 118.85 393.424 119.001 393.424C119.167 393.424 119.309 393.363 119.426 393.241C119.543 393.114 119.655 392.916 119.763 392.647H121.022C120.7 394.156 120 394.911 118.92 394.911ZM126.457 397.247C126.027 397.247 125.622 397.442 125.241 397.833C124.86 398.224 124.611 398.7 124.494 399.261H124.824C125.581 399.261 126.169 399.144 126.589 398.91C127.014 398.67 127.226 398.348 127.226 397.943C127.226 397.479 126.97 397.247 126.457 397.247ZM125.256 404.146C124.23 404.146 123.435 403.871 122.868 403.319C122.302 402.767 122.019 401.988 122.019 400.982C122.019 399.972 122.219 399.051 122.619 398.221C123.024 397.386 123.571 396.751 124.26 396.317C124.948 395.877 125.727 395.658 126.596 395.658C127.46 395.658 128.134 395.858 128.618 396.258C129.101 396.654 129.343 397.198 129.343 397.892C129.343 398.805 128.935 399.51 128.12 400.008C127.304 400.501 126.14 400.748 124.626 400.748H124.252L124.238 400.902V401.048C124.238 401.493 124.362 401.844 124.611 402.103C124.865 402.357 125.227 402.484 125.695 402.484C126.12 402.484 126.506 402.438 126.853 402.345C127.199 402.252 127.619 402.088 128.112 401.854V403.517C127.272 403.937 126.32 404.146 125.256 404.146ZM135.795 401.297C135.795 402.215 135.49 402.921 134.88 403.414C134.274 403.902 133.43 404.146 132.346 404.146C131.823 404.146 131.367 404.11 130.976 404.037C130.59 403.963 130.229 403.841 129.892 403.67V401.854C130.659 402.293 131.438 402.513 132.229 402.513C132.619 402.513 132.939 402.435 133.188 402.279C133.437 402.118 133.562 401.9 133.562 401.627C133.562 401.417 133.471 401.229 133.291 401.063C133.11 400.897 132.79 400.687 132.331 400.433C131.74 400.101 131.328 399.771 131.093 399.444C130.859 399.112 130.742 398.722 130.742 398.272C130.742 397.442 131.01 396.8 131.547 396.346C132.089 395.887 132.861 395.658 133.862 395.658C134.843 395.658 135.729 395.89 136.521 396.354L135.795 397.928C135.112 397.518 134.482 397.313 133.906 397.313C133.627 397.313 133.403 397.376 133.232 397.503C133.061 397.625 132.976 397.792 132.976 398.001C132.976 398.192 133.054 398.36 133.21 398.507C133.366 398.648 133.659 398.829 134.089 399.049C134.689 399.356 135.124 399.691 135.393 400.052C135.661 400.414 135.795 400.829 135.795 401.297Z" fill="#1ADBCF"/>
<path d="M72.6899 213.342C72.6899 214.709 72.4507 215.898 71.9722 216.909C71.4937 217.915 70.8003 218.682 69.8921 219.209C68.9888 219.736 67.9219 220 66.6914 220H63.3882L65.6514 209.292H68.5518C69.8701 209.292 70.8882 209.641 71.606 210.339C72.3286 211.038 72.6899 212.039 72.6899 213.342ZM66.7939 218.125C67.5166 218.125 68.1465 217.939 68.6836 217.568C69.2207 217.197 69.6406 216.653 69.9434 215.935C70.2461 215.212 70.3975 214.387 70.3975 213.459C70.3975 212.708 70.2192 212.136 69.8628 211.746C69.5112 211.35 69.0034 211.152 68.3394 211.152H67.4971L66.0176 218.125H66.7939ZM75.5098 209.893C75.5098 209.468 75.6245 209.148 75.854 208.933C76.0884 208.713 76.418 208.604 76.8428 208.604C77.1992 208.604 77.4702 208.679 77.6558 208.831C77.8413 208.982 77.9341 209.199 77.9341 209.482C77.9341 209.873 77.8267 210.19 77.6118 210.435C77.397 210.674 77.0649 210.793 76.6157 210.793C75.8784 210.793 75.5098 210.493 75.5098 209.893ZM75.627 220H73.4224L75.1582 211.812H77.3628L75.627 220ZM81.3105 220.146C80.3291 220.146 79.5747 219.885 79.0474 219.363C78.5249 218.835 78.2637 218.093 78.2637 217.136C78.2637 216.101 78.4443 215.161 78.8057 214.316C79.1719 213.467 79.6846 212.812 80.3438 212.354C81.0029 211.89 81.7549 211.658 82.5996 211.658C83.4883 211.658 84.2891 211.833 85.002 212.185L84.3281 213.862C84.0645 213.75 83.8057 213.652 83.5518 213.569C83.2979 213.486 83.0098 213.445 82.6875 213.445C82.2725 213.445 81.8965 213.601 81.5596 213.914C81.2275 214.226 80.9663 214.656 80.7759 215.203C80.5903 215.745 80.4976 216.328 80.4976 216.953C80.4976 217.422 80.6074 217.776 80.8271 218.015C81.0518 218.25 81.3618 218.367 81.7573 218.367C82.1284 218.367 82.4727 218.311 82.79 218.198C83.1074 218.081 83.4346 217.937 83.7715 217.766V219.568C83.0293 219.954 82.209 220.146 81.3105 220.146ZM87.2139 209.893C87.2139 209.468 87.3286 209.148 87.5581 208.933C87.7925 208.713 88.1221 208.604 88.5469 208.604C88.9033 208.604 89.1743 208.679 89.3599 208.831C89.5454 208.982 89.6382 209.199 89.6382 209.482C89.6382 209.873 89.5308 210.19 89.3159 210.435C89.1011 210.674 88.769 210.793 88.3198 210.793C87.5825 210.793 87.2139 210.493 87.2139 209.893ZM87.3311 220H85.1265L86.8623 211.812H89.0669L87.3311 220ZM95.2632 211.658C95.9761 211.658 96.5376 211.921 96.9478 212.449C97.3628 212.971 97.5703 213.704 97.5703 214.646C97.5703 215.579 97.4019 216.477 97.0649 217.341C96.7329 218.201 96.2764 218.884 95.6953 219.392C95.1143 219.895 94.4746 220.146 93.7764 220.146C93.3711 220.146 93.022 220.056 92.729 219.875C92.436 219.695 92.165 219.387 91.916 218.953H91.8574C91.7988 219.729 91.6938 220.449 91.5425 221.113L91.0151 223.604H88.8105L91.3154 211.812H93L92.8755 213.057H92.9414C93.6152 212.124 94.3892 211.658 95.2632 211.658ZM94.377 213.445C94.0449 213.445 93.7227 213.611 93.4102 213.943C93.1025 214.27 92.8535 214.709 92.6631 215.261C92.4775 215.808 92.3848 216.414 92.3848 217.078C92.3848 217.468 92.4751 217.781 92.6558 218.015C92.8364 218.25 93.0854 218.367 93.4028 218.367C93.73 218.367 94.0425 218.198 94.3403 217.861C94.6382 217.524 94.8774 217.063 95.0581 216.477C95.2437 215.886 95.3364 215.305 95.3364 214.734C95.3364 213.875 95.0166 213.445 94.377 213.445ZM100.72 220H98.5151L100.932 208.604H103.137L100.72 220ZM105.056 209.893C105.056 209.468 105.17 209.148 105.4 208.933C105.634 208.713 105.964 208.604 106.389 208.604C106.745 208.604 107.016 208.679 107.202 208.831C107.387 208.982 107.48 209.199 107.48 209.482C107.48 209.873 107.373 210.19 107.158 210.435C106.943 210.674 106.611 210.793 106.162 210.793C105.424 210.793 105.056 210.493 105.056 209.893ZM105.173 220H102.968L104.704 211.812H106.909L105.173 220ZM114.306 220H112.102L113.105 215.217C113.183 214.885 113.222 214.595 113.222 214.346C113.222 213.745 112.958 213.445 112.431 213.445C111.982 213.445 111.574 213.723 111.208 214.28C110.842 214.836 110.554 215.613 110.344 216.609L109.626 220H107.421L109.157 211.812H110.842L110.688 213.328H110.732C111.445 212.214 112.312 211.658 113.332 211.658C114.006 211.658 114.526 211.863 114.892 212.273C115.263 212.678 115.449 213.259 115.449 214.016C115.449 214.373 115.393 214.812 115.28 215.334L114.306 220ZM119.191 220.146C118.474 220.146 117.907 219.888 117.492 219.37C117.082 218.848 116.877 218.118 116.877 217.18C116.877 216.213 117.053 215.293 117.404 214.419C117.756 213.54 118.217 212.861 118.789 212.383C119.36 211.899 119.987 211.658 120.671 211.658C121.145 211.658 121.552 211.76 121.894 211.965C122.241 212.17 122.509 212.468 122.7 212.859H122.758L123.176 211.812H124.875L123.132 220H121.455L121.557 218.938H121.528C120.874 219.744 120.095 220.146 119.191 220.146ZM120.056 218.367C120.393 218.367 120.717 218.203 121.03 217.876C121.342 217.549 121.594 217.107 121.784 216.55C121.975 215.989 122.07 215.354 122.07 214.646C122.07 214.299 121.975 214.014 121.784 213.789C121.599 213.56 121.352 213.445 121.044 213.445C120.712 213.445 120.395 213.621 120.092 213.972C119.794 214.324 119.555 214.788 119.375 215.364C119.199 215.94 119.111 216.511 119.111 217.078C119.111 217.507 119.191 217.83 119.353 218.044C119.519 218.259 119.753 218.367 120.056 218.367ZM131.21 217.297C131.21 218.215 130.905 218.921 130.295 219.414C129.689 219.902 128.845 220.146 127.761 220.146C127.238 220.146 126.782 220.11 126.391 220.037C126.005 219.963 125.644 219.841 125.307 219.67V217.854C126.074 218.293 126.853 218.513 127.644 218.513C128.034 218.513 128.354 218.435 128.603 218.279C128.852 218.118 128.977 217.9 128.977 217.627C128.977 217.417 128.886 217.229 128.706 217.063C128.525 216.897 128.205 216.687 127.746 216.433C127.155 216.101 126.743 215.771 126.508 215.444C126.274 215.112 126.157 214.722 126.157 214.272C126.157 213.442 126.425 212.8 126.962 212.346C127.504 211.887 128.276 211.658 129.277 211.658C130.258 211.658 131.145 211.89 131.936 212.354L131.21 213.928C130.527 213.518 129.897 213.313 129.321 213.313C129.042 213.313 128.818 213.376 128.647 213.503C128.476 213.625 128.391 213.792 128.391 214.001C128.391 214.192 128.469 214.36 128.625 214.507C128.781 214.648 129.074 214.829 129.504 215.049C130.104 215.356 130.539 215.691 130.808 216.052C131.076 216.414 131.21 216.829 131.21 217.297Z" fill="#1ADBCF"/>
<path d="M71.313 266H69.0718L70.0532 261.378H66.6035L65.6221 266H63.3882L65.6514 255.292H67.8926L67.0063 259.489H70.4561L71.3423 255.292H73.5762L71.313 266ZM79.3989 260.902C79.3989 259.94 79.0498 259.459 78.3516 259.459C77.9854 259.459 77.6558 259.608 77.3628 259.906C77.0747 260.204 76.8379 260.641 76.6523 261.217C76.4717 261.793 76.3813 262.387 76.3813 262.997C76.3813 263.9 76.7476 264.352 77.48 264.352C77.8462 264.352 78.1758 264.203 78.4688 263.905C78.7617 263.603 78.9888 263.185 79.1499 262.653C79.3159 262.116 79.3989 261.532 79.3989 260.902ZM81.6182 260.902C81.6182 261.933 81.4448 262.846 81.0981 263.642C80.7563 264.438 80.2607 265.055 79.6113 265.495C78.9619 265.929 78.1904 266.146 77.2969 266.146C76.3447 266.146 75.583 265.861 75.0117 265.29C74.4453 264.713 74.1621 263.949 74.1621 262.997C74.1621 261.957 74.3354 261.032 74.6821 260.221C75.0337 259.406 75.5391 258.776 76.1982 258.332C76.8574 257.882 77.6289 257.658 78.5127 257.658C79.4697 257.658 80.2266 257.946 80.7832 258.522C81.3398 259.098 81.6182 259.892 81.6182 260.902ZM88.4443 257.658C88.7324 257.658 88.9668 257.685 89.1475 257.738L88.6641 259.862C88.4443 259.784 88.2002 259.745 87.9316 259.745C87.3652 259.745 86.8672 259.97 86.4375 260.419C86.0127 260.863 85.71 261.503 85.5293 262.338L84.7529 266H82.5483L84.2842 257.812H85.9688L85.8149 259.328H85.8589C86.5767 258.214 87.4385 257.658 88.4443 257.658ZM91.5645 266.146C90.8467 266.146 90.2803 265.888 89.8652 265.37C89.4551 264.848 89.25 264.118 89.25 263.18C89.25 262.213 89.4258 261.293 89.7773 260.419C90.1289 259.54 90.5903 258.861 91.1616 258.383C91.7329 257.899 92.3604 257.658 93.0439 257.658C93.5176 257.658 93.9253 257.76 94.2671 257.965C94.6138 258.17 94.8823 258.468 95.0728 258.859H95.1313L95.5488 257.812H97.248L95.5049 266H93.8276L93.9302 264.938H93.9009C93.2466 265.744 92.4678 266.146 91.5645 266.146ZM92.4287 264.367C92.7656 264.367 93.0903 264.203 93.4028 263.876C93.7153 263.549 93.9668 263.107 94.1572 262.55C94.3477 261.989 94.4429 261.354 94.4429 260.646C94.4429 260.299 94.3477 260.014 94.1572 259.789C93.9717 259.56 93.7251 259.445 93.4175 259.445C93.0854 259.445 92.7681 259.621 92.4653 259.972C92.1675 260.324 91.9282 260.788 91.7476 261.364C91.5718 261.94 91.4839 262.511 91.4839 263.078C91.4839 263.507 91.5645 263.83 91.7256 264.044C91.8916 264.259 92.126 264.367 92.4287 264.367ZM92.9707 256.728C93.3564 256.298 93.8984 255.558 94.5967 254.508H97.0503V254.633C96.8257 254.906 96.4497 255.28 95.9224 255.753C95.395 256.222 94.9214 256.608 94.5015 256.911H92.9707V256.728ZM103.679 257.658C103.967 257.658 104.201 257.685 104.382 257.738L103.898 259.862C103.679 259.784 103.435 259.745 103.166 259.745C102.6 259.745 102.102 259.97 101.672 260.419C101.247 260.863 100.944 261.503 100.764 262.338L99.9873 266H97.7827L99.5186 257.812H101.203L101.049 259.328H101.093C101.811 258.214 102.673 257.658 103.679 257.658ZM106.184 255.893C106.184 255.468 106.298 255.148 106.528 254.933C106.762 254.713 107.092 254.604 107.517 254.604C107.873 254.604 108.144 254.679 108.33 254.831C108.515 254.982 108.608 255.199 108.608 255.482C108.608 255.873 108.5 256.19 108.286 256.435C108.071 256.674 107.739 256.793 107.29 256.793C106.552 256.793 106.184 256.493 106.184 255.893ZM106.301 266H104.096L105.832 257.812H108.037L106.301 266ZM114.174 260.902C114.174 259.94 113.825 259.459 113.127 259.459C112.761 259.459 112.431 259.608 112.138 259.906C111.85 260.204 111.613 260.641 111.428 261.217C111.247 261.793 111.157 262.387 111.157 262.997C111.157 263.9 111.523 264.352 112.255 264.352C112.622 264.352 112.951 264.203 113.244 263.905C113.537 263.603 113.764 263.185 113.925 262.653C114.091 262.116 114.174 261.532 114.174 260.902ZM116.394 260.902C116.394 261.933 116.22 262.846 115.874 263.642C115.532 264.438 115.036 265.055 114.387 265.495C113.737 265.929 112.966 266.146 112.072 266.146C111.12 266.146 110.358 265.861 109.787 265.29C109.221 264.713 108.938 263.949 108.938 262.997C108.938 261.957 109.111 261.032 109.458 260.221C109.809 259.406 110.314 258.776 110.974 258.332C111.633 257.882 112.404 257.658 113.288 257.658C114.245 257.658 115.002 257.946 115.559 258.522C116.115 259.098 116.394 259.892 116.394 260.902Z" fill="#1ADBCF"/>
<path d="M66.8232 306.331H67.2334C67.9268 306.331 68.4712 306.163 68.8667 305.826C69.2671 305.489 69.4673 305.037 69.4673 304.471C69.4673 303.592 68.9912 303.152 68.0391 303.152H67.4971L66.8232 306.331ZM71.7158 304.412C71.7158 305.589 71.3008 306.514 70.4707 307.188C69.6455 307.857 68.5054 308.191 67.0503 308.191H66.4204L65.6221 312H63.3882L65.6514 301.292H68.127C69.3086 301.292 70.2021 301.553 70.8076 302.076C71.4131 302.593 71.7158 303.372 71.7158 304.412ZM77.8682 303.658C78.1562 303.658 78.3906 303.685 78.5713 303.738L78.0879 305.862C77.8682 305.784 77.624 305.745 77.3555 305.745C76.7891 305.745 76.291 305.97 75.8613 306.419C75.4365 306.863 75.1338 307.503 74.9531 308.338L74.1768 312H71.9722L73.708 303.812H75.3926L75.2388 305.328H75.2827C76.0005 304.214 76.8623 303.658 77.8682 303.658ZM83.9106 306.902C83.9106 305.94 83.5615 305.459 82.8633 305.459C82.4971 305.459 82.1675 305.608 81.8745 305.906C81.5864 306.204 81.3496 306.641 81.1641 307.217C80.9834 307.793 80.8931 308.387 80.8931 308.997C80.8931 309.9 81.2593 310.352 81.9917 310.352C82.3579 310.352 82.6875 310.203 82.9805 309.905C83.2734 309.603 83.5005 309.185 83.6616 308.653C83.8276 308.116 83.9106 307.532 83.9106 306.902ZM86.1299 306.902C86.1299 307.933 85.9565 308.846 85.6099 309.642C85.2681 310.438 84.7725 311.055 84.123 311.495C83.4736 311.929 82.7021 312.146 81.8086 312.146C80.8564 312.146 80.0947 311.861 79.5234 311.29C78.957 310.713 78.6738 309.949 78.6738 308.997C78.6738 307.957 78.8472 307.032 79.1938 306.221C79.5454 305.406 80.0508 304.776 80.71 304.332C81.3691 303.882 82.1406 303.658 83.0244 303.658C83.9814 303.658 84.7383 303.946 85.2949 304.522C85.8516 305.098 86.1299 305.892 86.1299 306.902ZM86.4595 315.604C85.9517 315.604 85.5269 315.542 85.1851 315.42V313.648C85.4829 313.75 85.7637 313.802 86.0273 313.802C86.3252 313.802 86.5864 313.704 86.811 313.509C87.0356 313.313 87.1943 312.996 87.2871 312.557L88.7812 305.489H87.5874L87.8071 304.427L89.1475 303.812L89.2793 303.196C89.4795 302.269 89.8164 301.592 90.29 301.167C90.7686 300.738 91.4375 300.523 92.2969 300.523C92.9365 300.523 93.5103 300.643 94.0181 300.882L93.4321 302.522C93.0952 302.371 92.7705 302.295 92.458 302.295C92.1797 302.295 91.9551 302.393 91.7842 302.588C91.6133 302.784 91.4985 303.04 91.4399 303.357L91.3521 303.812H92.9561L92.5972 305.489H90.9858L89.4111 312.886C89.0352 314.698 88.0513 315.604 86.4595 315.604ZM97.4824 305.247C97.0527 305.247 96.6475 305.442 96.2666 305.833C95.8857 306.224 95.6367 306.7 95.5195 307.261H95.8491C96.606 307.261 97.1943 307.144 97.6143 306.91C98.0391 306.67 98.2515 306.348 98.2515 305.943C98.2515 305.479 97.9951 305.247 97.4824 305.247ZM96.2812 312.146C95.2559 312.146 94.46 311.871 93.8936 311.319C93.3271 310.767 93.0439 309.988 93.0439 308.982C93.0439 307.972 93.2441 307.051 93.6445 306.221C94.0498 305.386 94.5967 304.751 95.2852 304.317C95.9736 303.877 96.7524 303.658 97.6216 303.658C98.4858 303.658 99.1597 303.858 99.6431 304.258C100.126 304.654 100.368 305.198 100.368 305.892C100.368 306.805 99.9604 307.51 99.145 308.008C98.3296 308.501 97.165 308.748 95.6514 308.748H95.2778L95.2632 308.902V309.048C95.2632 309.493 95.3877 309.844 95.6367 310.103C95.8906 310.357 96.252 310.484 96.7207 310.484C97.1455 310.484 97.5312 310.438 97.8779 310.345C98.2246 310.252 98.6445 310.088 99.1377 309.854V311.517C98.2979 311.937 97.3457 312.146 96.2812 312.146ZM106.821 309.297C106.821 310.215 106.516 310.921 105.905 311.414C105.3 311.902 104.455 312.146 103.371 312.146C102.849 312.146 102.392 312.11 102.001 312.037C101.616 311.963 101.254 311.841 100.917 311.67V309.854C101.684 310.293 102.463 310.513 103.254 310.513C103.645 310.513 103.964 310.435 104.213 310.279C104.462 310.118 104.587 309.9 104.587 309.627C104.587 309.417 104.497 309.229 104.316 309.063C104.135 308.897 103.815 308.687 103.356 308.433C102.766 308.101 102.353 307.771 102.119 307.444C101.884 307.112 101.767 306.722 101.767 306.272C101.767 305.442 102.036 304.8 102.573 304.346C103.115 303.887 103.886 303.658 104.887 303.658C105.869 303.658 106.755 303.89 107.546 304.354L106.821 305.928C106.137 305.518 105.507 305.313 104.931 305.313C104.653 305.313 104.428 305.376 104.257 305.503C104.086 305.625 104.001 305.792 104.001 306.001C104.001 306.192 104.079 306.36 104.235 306.507C104.392 306.648 104.685 306.829 105.114 307.049C105.715 307.356 106.149 307.691 106.418 308.052C106.687 308.414 106.821 308.829 106.821 309.297ZM113.925 309.297C113.925 310.215 113.62 310.921 113.01 311.414C112.404 311.902 111.56 312.146 110.476 312.146C109.953 312.146 109.497 312.11 109.106 312.037C108.72 311.963 108.359 311.841 108.022 311.67V309.854C108.789 310.293 109.567 310.513 110.358 310.513C110.749 310.513 111.069 310.435 111.318 310.279C111.567 310.118 111.691 309.9 111.691 309.627C111.691 309.417 111.601 309.229 111.42 309.063C111.24 308.897 110.92 308.687 110.461 308.433C109.87 308.101 109.458 307.771 109.223 307.444C108.989 307.112 108.872 306.722 108.872 306.272C108.872 305.442 109.14 304.8 109.677 304.346C110.219 303.887 110.991 303.658 111.992 303.658C112.973 303.658 113.859 303.89 114.65 304.354L113.925 305.928C113.242 305.518 112.612 305.313 112.036 305.313C111.757 305.313 111.533 305.376 111.362 305.503C111.191 305.625 111.105 305.792 111.105 306.001C111.105 306.192 111.184 306.36 111.34 306.507C111.496 306.648 111.789 306.829 112.219 307.049C112.819 307.356 113.254 307.691 113.522 308.052C113.791 308.414 113.925 308.829 113.925 309.297ZM120.854 306.902C120.854 305.94 120.505 305.459 119.807 305.459C119.44 305.459 119.111 305.608 118.818 305.906C118.53 306.204 118.293 306.641 118.107 307.217C117.927 307.793 117.836 308.387 117.836 308.997C117.836 309.9 118.203 310.352 118.935 310.352C119.301 310.352 119.631 310.203 119.924 309.905C120.217 309.603 120.444 309.185 120.605 308.653C120.771 308.116 120.854 307.532 120.854 306.902ZM123.073 306.902C123.073 307.933 122.9 308.846 122.553 309.642C122.211 310.438 121.716 311.055 121.066 311.495C120.417 311.929 119.646 312.146 118.752 312.146C117.8 312.146 117.038 311.861 116.467 311.29C115.9 310.713 115.617 309.949 115.617 308.997C115.617 307.957 115.791 307.032 116.137 306.221C116.489 305.406 116.994 304.776 117.653 304.332C118.312 303.882 119.084 303.658 119.968 303.658C120.925 303.658 121.682 303.946 122.238 304.522C122.795 305.098 123.073 305.892 123.073 306.902ZM129.899 303.658C130.188 303.658 130.422 303.685 130.603 303.738L130.119 305.862C129.899 305.784 129.655 305.745 129.387 305.745C128.82 305.745 128.322 305.97 127.893 306.419C127.468 306.863 127.165 307.503 126.984 308.338L126.208 312H124.003L125.739 303.812H127.424L127.27 305.328H127.314C128.032 304.214 128.894 303.658 129.899 303.658ZM135.144 305.247C134.714 305.247 134.309 305.442 133.928 305.833C133.547 306.224 133.298 306.7 133.181 307.261H133.51C134.267 307.261 134.855 307.144 135.275 306.91C135.7 306.67 135.913 306.348 135.913 305.943C135.913 305.479 135.656 305.247 135.144 305.247ZM133.942 312.146C132.917 312.146 132.121 311.871 131.555 311.319C130.988 310.767 130.705 309.988 130.705 308.982C130.705 307.972 130.905 307.051 131.306 306.221C131.711 305.386 132.258 304.751 132.946 304.317C133.635 303.877 134.414 303.658 135.283 303.658C136.147 303.658 136.821 303.858 137.304 304.258C137.788 304.654 138.029 305.198 138.029 305.892C138.029 306.805 137.622 307.51 136.806 308.008C135.991 308.501 134.826 308.748 133.312 308.748H132.939L132.924 308.902V309.048C132.924 309.493 133.049 309.844 133.298 310.103C133.552 310.357 133.913 310.484 134.382 310.484C134.807 310.484 135.192 310.438 135.539 310.345C135.886 310.252 136.306 310.088 136.799 309.854V311.517C135.959 311.937 135.007 312.146 133.942 312.146ZM144.482 309.297C144.482 310.215 144.177 310.921 143.566 311.414C142.961 311.902 142.116 312.146 141.032 312.146C140.51 312.146 140.053 312.11 139.663 312.037C139.277 311.963 138.916 311.841 138.579 311.67V309.854C139.345 310.293 140.124 310.513 140.915 310.513C141.306 310.513 141.625 310.435 141.875 310.279C142.124 310.118 142.248 309.9 142.248 309.627C142.248 309.417 142.158 309.229 141.977 309.063C141.796 308.897 141.477 308.687 141.018 308.433C140.427 308.101 140.014 307.771 139.78 307.444C139.545 307.112 139.428 306.722 139.428 306.272C139.428 305.442 139.697 304.8 140.234 304.346C140.776 303.887 141.547 303.658 142.548 303.658C143.53 303.658 144.416 303.89 145.207 304.354L144.482 305.928C143.798 305.518 143.168 305.313 142.592 305.313C142.314 305.313 142.089 305.376 141.918 305.503C141.748 305.625 141.662 305.792 141.662 306.001C141.662 306.192 141.74 306.36 141.896 306.507C142.053 306.648 142.346 306.829 142.775 307.049C143.376 307.356 143.811 307.691 144.079 308.052C144.348 308.414 144.482 308.829 144.482 309.297Z" fill="#1ADBCF"/>
<path d="M69.167 355.451H65.7026L64.4429 358H62.0991L67.7095 347.248H70.4414L71.5181 358H69.3428L69.167 355.451ZM69.0571 353.547L68.8667 350.983C68.8179 350.344 68.7935 349.726 68.7935 349.13V348.867C68.5786 349.453 68.3125 350.073 67.9951 350.727L66.6182 353.547H69.0571ZM81.1055 349.826L80.8491 351.042L79.5747 351.342C79.6528 351.596 79.6919 351.884 79.6919 352.207C79.6919 353.159 79.3965 353.913 78.8057 354.47C78.2148 355.021 77.4116 355.297 76.396 355.297C76.1079 355.297 75.8662 355.273 75.6709 355.224C75.2607 355.356 75.0557 355.546 75.0557 355.795C75.0557 355.961 75.1289 356.081 75.2754 356.154C75.4219 356.228 75.6392 356.284 75.9272 356.323L76.9307 356.455C77.7266 356.557 78.3052 356.765 78.6665 357.077C79.0327 357.385 79.2158 357.832 79.2158 358.417C79.2158 359.448 78.835 360.236 78.0732 360.783C77.3115 361.33 76.2227 361.604 74.8066 361.604C73.791 361.604 72.9976 361.418 72.4263 361.047C71.8599 360.681 71.5767 360.175 71.5767 359.531C71.5767 359.033 71.7451 358.603 72.082 358.242C72.4141 357.885 72.9365 357.59 73.6494 357.355C73.2881 357.126 73.1074 356.801 73.1074 356.381C73.1074 356.035 73.2148 355.737 73.4297 355.488C73.6494 355.234 74.0083 354.992 74.5063 354.763C74.189 354.523 73.9546 354.25 73.8032 353.942C73.6519 353.635 73.5762 353.261 73.5762 352.822C73.5762 351.85 73.8813 351.081 74.4917 350.515C75.1069 349.943 75.9419 349.658 76.9966 349.658C77.4019 349.658 77.8071 349.714 78.2124 349.826H81.1055ZM75.0923 358.044C74.5747 358.112 74.1816 358.251 73.9131 358.461C73.6494 358.671 73.5176 358.938 73.5176 359.26C73.5176 359.821 73.9912 360.102 74.9385 360.102C75.6758 360.102 76.2324 359.992 76.6084 359.772C76.9844 359.553 77.1724 359.243 77.1724 358.842C77.1724 358.652 77.0918 358.505 76.9307 358.403C76.7744 358.3 76.4399 358.215 75.9272 358.146L75.0923 358.044ZM76.916 351.057C76.54 351.057 76.2349 351.245 76.0005 351.621C75.771 351.992 75.6562 352.458 75.6562 353.02C75.6562 353.601 75.9077 353.891 76.4106 353.891C76.7769 353.891 77.0723 353.706 77.2969 353.334C77.5264 352.958 77.6411 352.485 77.6411 351.914C77.6411 351.342 77.3994 351.057 76.916 351.057ZM85.6318 351.247C85.2021 351.247 84.7969 351.442 84.416 351.833C84.0352 352.224 83.7861 352.7 83.6689 353.261H83.9985C84.7554 353.261 85.3438 353.144 85.7637 352.91C86.1885 352.67 86.4009 352.348 86.4009 351.943C86.4009 351.479 86.1445 351.247 85.6318 351.247ZM84.4307 358.146C83.4053 358.146 82.6094 357.871 82.043 357.319C81.4766 356.767 81.1934 355.988 81.1934 354.982C81.1934 353.972 81.3936 353.051 81.7939 352.221C82.1992 351.386 82.7461 350.751 83.4346 350.317C84.123 349.877 84.9019 349.658 85.771 349.658C86.6353 349.658 87.3091 349.858 87.7925 350.258C88.2759 350.654 88.5176 351.198 88.5176 351.892C88.5176 352.805 88.1099 353.51 87.2944 354.008C86.479 354.501 85.3145 354.748 83.8008 354.748H83.4272L83.4126 354.902V355.048C83.4126 355.493 83.5371 355.844 83.7861 356.103C84.04 356.357 84.4014 356.484 84.8701 356.484C85.2949 356.484 85.6807 356.438 86.0273 356.345C86.374 356.252 86.7939 356.088 87.2871 355.854V357.517C86.4473 357.937 85.4951 358.146 84.4307 358.146ZM96.0542 358H93.8496L94.853 353.217C94.9312 352.885 94.9702 352.595 94.9702 352.346C94.9702 351.745 94.7065 351.445 94.1792 351.445C93.73 351.445 93.3223 351.723 92.9561 352.28C92.5898 352.836 92.3018 353.613 92.0918 354.609L91.374 358H89.1694L90.9053 349.812H92.5898L92.436 351.328H92.48C93.1929 350.214 94.0596 349.658 95.0801 349.658C95.7539 349.658 96.2739 349.863 96.6401 350.273C97.0112 350.678 97.1968 351.259 97.1968 352.016C97.1968 352.373 97.1406 352.812 97.0283 353.334L96.0542 358ZM100.939 358.146C100.222 358.146 99.6553 357.885 99.2402 357.363C98.8301 356.84 98.625 356.108 98.625 355.166C98.625 354.208 98.7983 353.295 99.145 352.426C99.4966 351.552 99.958 350.874 100.529 350.39C101.101 349.902 101.73 349.658 102.419 349.658C102.819 349.658 103.164 349.748 103.452 349.929C103.745 350.109 104.021 350.419 104.279 350.859H104.338L104.353 350.654C104.382 350.117 104.443 349.641 104.536 349.226L105.092 346.604H107.297L104.88 358H103.203L103.305 356.938H103.276C102.929 357.363 102.565 357.67 102.185 357.861C101.809 358.051 101.394 358.146 100.939 358.146ZM101.862 356.367C102.185 356.367 102.497 356.201 102.8 355.869C103.107 355.532 103.354 355.085 103.54 354.528C103.725 353.972 103.818 353.374 103.818 352.734C103.818 352.343 103.725 352.031 103.54 351.796C103.359 351.562 103.11 351.445 102.792 351.445C102.46 351.445 102.143 351.621 101.84 351.972C101.542 352.324 101.303 352.788 101.123 353.364C100.947 353.94 100.859 354.511 100.859 355.078C100.859 355.937 101.193 356.367 101.862 356.367ZM109.86 358.146C109.143 358.146 108.576 357.888 108.161 357.37C107.751 356.848 107.546 356.118 107.546 355.18C107.546 354.213 107.722 353.293 108.073 352.419C108.425 351.54 108.886 350.861 109.458 350.383C110.029 349.899 110.656 349.658 111.34 349.658C111.813 349.658 112.221 349.76 112.563 349.965C112.91 350.17 113.178 350.468 113.369 350.859H113.427L113.845 349.812H115.544L113.801 358H112.124L112.226 356.938H112.197C111.542 357.744 110.764 358.146 109.86 358.146ZM110.725 356.367C111.062 356.367 111.386 356.203 111.699 355.876C112.011 355.549 112.263 355.107 112.453 354.55C112.644 353.989 112.739 353.354 112.739 352.646C112.739 352.299 112.644 352.014 112.453 351.789C112.268 351.56 112.021 351.445 111.713 351.445C111.381 351.445 111.064 351.621 110.761 351.972C110.463 352.324 110.224 352.788 110.043 353.364C109.868 353.94 109.78 354.511 109.78 355.078C109.78 355.507 109.86 355.83 110.021 356.044C110.188 356.259 110.422 356.367 110.725 356.367Z" fill="#1ADBCF"/>
<path d="M69.9287 446.836C69.9287 447.856 69.5674 448.665 68.8447 449.26C68.1221 449.851 67.1431 450.146 65.9077 450.146C64.8286 450.146 63.9595 449.927 63.3003 449.487V447.48C64.2427 448.008 65.1167 448.271 65.9224 448.271C66.4692 448.271 66.8965 448.169 67.2041 447.964C67.5117 447.754 67.6655 447.468 67.6655 447.107C67.6655 446.897 67.6313 446.714 67.563 446.558C67.4995 446.396 67.4067 446.248 67.2847 446.111C67.1626 445.974 66.8599 445.725 66.3765 445.364C65.7026 444.88 65.229 444.402 64.9556 443.928C64.6821 443.455 64.5454 442.944 64.5454 442.397C64.5454 441.768 64.6968 441.206 64.9995 440.713C65.3022 440.215 65.7319 439.829 66.2886 439.556C66.8501 439.277 67.4946 439.138 68.2222 439.138C69.2817 439.138 70.251 439.38 71.1299 439.863L70.3315 441.57C69.5698 441.208 68.8667 441.028 68.2222 441.028C67.8169 441.028 67.4849 441.138 67.2261 441.357C66.9673 441.577 66.8379 441.868 66.8379 442.229C66.8379 442.527 66.9185 442.788 67.0796 443.013C67.2407 443.232 67.6021 443.525 68.1636 443.892C68.7544 444.282 69.1963 444.714 69.4893 445.188C69.7822 445.657 69.9287 446.206 69.9287 446.836ZM73.3125 439.893C73.3125 439.468 73.4272 439.148 73.6567 438.933C73.8911 438.713 74.2207 438.604 74.6455 438.604C75.002 438.604 75.2729 438.679 75.4585 438.831C75.644 438.982 75.7368 439.199 75.7368 439.482C75.7368 439.873 75.6294 440.19 75.4146 440.435C75.1997 440.674 74.8677 440.793 74.4185 440.793C73.6812 440.793 73.3125 440.493 73.3125 439.893ZM73.4297 450H71.2251L72.9609 441.812H75.1655L73.4297 450ZM79.1719 448.367C79.4893 448.367 79.8848 448.281 80.3584 448.11V449.758C79.8164 450.017 79.167 450.146 78.4102 450.146C77.6777 450.146 77.1382 449.993 76.7915 449.685C76.4497 449.377 76.2788 448.901 76.2788 448.257C76.2788 448.013 76.3081 447.739 76.3667 447.437L77.209 443.489H76.0957L76.3081 442.412L77.7437 441.797L78.7104 440.068H80.1313L79.7725 441.812H81.8452L81.479 443.489H79.4136L78.5713 447.437C78.542 447.583 78.5273 447.712 78.5273 447.825C78.5273 448.186 78.7422 448.367 79.1719 448.367ZM86.6572 443.247C86.2275 443.247 85.8223 443.442 85.4414 443.833C85.0605 444.224 84.8115 444.7 84.6943 445.261H85.0239C85.7808 445.261 86.3691 445.144 86.7891 444.91C87.2139 444.67 87.4263 444.348 87.4263 443.943C87.4263 443.479 87.1699 443.247 86.6572 443.247ZM85.4561 450.146C84.4307 450.146 83.6348 449.871 83.0684 449.319C82.502 448.767 82.2188 447.988 82.2188 446.982C82.2188 445.972 82.4189 445.051 82.8193 444.221C83.2246 443.386 83.7715 442.751 84.46 442.317C85.1484 441.877 85.9272 441.658 86.7964 441.658C87.6606 441.658 88.3345 441.858 88.8179 442.258C89.3013 442.654 89.543 443.198 89.543 443.892C89.543 444.805 89.1353 445.51 88.3198 446.008C87.5044 446.501 86.3398 446.748 84.8262 446.748H84.4526L84.438 446.902V447.048C84.438 447.493 84.5625 447.844 84.8115 448.103C85.0654 448.357 85.4268 448.484 85.8955 448.484C86.3203 448.484 86.7061 448.438 87.0527 448.345C87.3994 448.252 87.8193 448.088 88.3125 447.854V449.517C87.4727 449.937 86.5205 450.146 85.4561 450.146ZM95.9956 447.297C95.9956 448.215 95.6904 448.921 95.0801 449.414C94.4746 449.902 93.6299 450.146 92.5459 450.146C92.0234 450.146 91.5669 450.11 91.1763 450.037C90.7905 449.963 90.4292 449.841 90.0923 449.67V447.854C90.8589 448.293 91.6377 448.513 92.4287 448.513C92.8193 448.513 93.1392 448.435 93.3882 448.279C93.6372 448.118 93.7617 447.9 93.7617 447.627C93.7617 447.417 93.6714 447.229 93.4907 447.063C93.3101 446.897 92.9902 446.687 92.5312 446.433C91.9404 446.101 91.5278 445.771 91.2935 445.444C91.0591 445.112 90.9419 444.722 90.9419 444.272C90.9419 443.442 91.2104 442.8 91.7476 442.346C92.2896 441.887 93.061 441.658 94.062 441.658C95.0435 441.658 95.9297 441.89 96.7207 442.354L95.9956 443.928C95.312 443.518 94.6821 443.313 94.106 443.313C93.8276 443.313 93.603 443.376 93.4321 443.503C93.2612 443.625 93.1758 443.792 93.1758 444.001C93.1758 444.192 93.2539 444.36 93.4102 444.507C93.5664 444.648 93.8594 444.829 94.2891 445.049C94.8896 445.356 95.3242 445.691 95.5928 446.052C95.8613 446.414 95.9956 446.829 95.9956 447.297ZM104.455 439.292L98.5298 450H96.3691L102.294 439.292H104.455ZM113.845 439.292L112.373 446.221C112.094 447.52 111.562 448.499 110.776 449.158C109.99 449.817 108.967 450.146 107.707 450.146C106.672 450.146 105.856 449.871 105.261 449.319C104.67 448.762 104.375 448.01 104.375 447.063C104.375 446.711 104.411 446.375 104.484 446.052L105.92 439.292H108.154L106.733 446.023C106.65 446.384 106.608 446.689 106.608 446.938C106.608 447.808 107.07 448.242 107.993 448.242C108.593 448.242 109.069 448.057 109.421 447.686C109.772 447.31 110.026 446.75 110.183 446.008L111.604 439.292H113.845ZM116.335 450H114.101L116.364 439.292H122.326L121.931 441.152H118.21L117.631 443.914H121.096L120.686 445.767H117.221L116.335 450ZM127.849 447.451H124.384L123.125 450H120.781L126.391 439.248H129.123L130.2 450H128.024L127.849 447.451ZM127.739 445.547L127.548 442.983C127.5 442.344 127.475 441.726 127.475 441.13V440.867C127.26 441.453 126.994 442.073 126.677 442.727L125.3 445.547H127.739ZM131.489 450L133.752 439.292H135.993L134.118 448.125H137.868L137.473 450H131.489Z" fill="#1ADBCF"/>
<path d="M68.6284 487.013C67.9839 487.013 67.4028 487.211 66.8853 487.606C66.3726 488.002 65.96 488.585 65.6475 489.357C65.335 490.124 65.1787 490.949 65.1787 491.833C65.1787 492.648 65.3447 493.253 65.6768 493.649C66.0137 494.044 66.5483 494.242 67.2808 494.242C67.9937 494.242 68.8188 494.054 69.7563 493.678V495.583C68.7847 495.958 67.8081 496.146 66.8267 496.146C65.5864 496.146 64.6221 495.783 63.9336 495.055C63.2451 494.323 62.9009 493.288 62.9009 491.95C62.9009 490.67 63.1548 489.494 63.6626 488.419C64.1704 487.34 64.8491 486.522 65.6987 485.966C66.5483 485.404 67.5249 485.124 68.6284 485.124C69.2388 485.124 69.7808 485.18 70.2544 485.292C70.728 485.399 71.2358 485.6 71.7778 485.893L70.9136 487.724C70.396 487.436 69.9688 487.245 69.6318 487.152C69.2949 487.06 68.9604 487.013 68.6284 487.013ZM77.0806 490.902C77.0806 489.94 76.7314 489.459 76.0332 489.459C75.667 489.459 75.3374 489.608 75.0444 489.906C74.7563 490.204 74.5195 490.641 74.334 491.217C74.1533 491.793 74.063 492.387 74.063 492.997C74.063 493.9 74.4292 494.352 75.1616 494.352C75.5278 494.352 75.8574 494.203 76.1504 493.905C76.4434 493.603 76.6704 493.185 76.8315 492.653C76.9976 492.116 77.0806 491.532 77.0806 490.902ZM79.2998 490.902C79.2998 491.933 79.1265 492.846 78.7798 493.642C78.438 494.438 77.9424 495.055 77.293 495.495C76.6436 495.929 75.8721 496.146 74.9785 496.146C74.0264 496.146 73.2646 495.861 72.6934 495.29C72.127 494.713 71.8438 493.949 71.8438 492.997C71.8438 491.957 72.0171 491.032 72.3638 490.221C72.7153 489.406 73.2207 488.776 73.8799 488.332C74.5391 487.882 75.3105 487.658 76.1943 487.658C77.1514 487.658 77.9082 487.946 78.4648 488.522C79.0215 489.098 79.2998 489.892 79.2998 490.902ZM87.1147 496H84.9102L85.9136 491.217C85.9917 490.885 86.0308 490.595 86.0308 490.346C86.0308 489.745 85.7671 489.445 85.2397 489.445C84.7905 489.445 84.3828 489.723 84.0166 490.28C83.6504 490.836 83.3623 491.613 83.1523 492.609L82.4346 496H80.23L81.9658 487.812H83.6504L83.4966 489.328H83.5405C84.2534 488.214 85.1201 487.658 86.1406 487.658C86.8145 487.658 87.3345 487.863 87.7007 488.273C88.0718 488.678 88.2573 489.259 88.2573 490.016C88.2573 490.373 88.2012 490.812 88.0889 491.334L87.1147 496ZM88.6968 499.604C88.189 499.604 87.7642 499.542 87.4224 499.42V497.648C87.7202 497.75 88.001 497.802 88.2646 497.802C88.5625 497.802 88.8237 497.704 89.0483 497.509C89.2729 497.313 89.4316 496.996 89.5244 496.557L91.0186 489.489H89.8247L90.0444 488.427L91.3848 487.812L91.5166 487.196C91.7168 486.269 92.0537 485.592 92.5273 485.167C93.0059 484.738 93.6748 484.523 94.5342 484.523C95.1738 484.523 95.7476 484.643 96.2554 484.882L95.6694 486.522C95.3325 486.371 95.0078 486.295 94.6953 486.295C94.417 486.295 94.1924 486.393 94.0215 486.588C93.8506 486.784 93.7358 487.04 93.6772 487.357L93.5894 487.812H95.1934L94.8345 489.489H93.2231L91.6484 496.886C91.2725 498.698 90.2886 499.604 88.6968 499.604ZM96.8267 485.893C96.8267 485.468 96.9414 485.148 97.1709 484.933C97.4053 484.713 97.7349 484.604 98.1597 484.604C98.5161 484.604 98.7871 484.679 98.9727 484.831C99.1582 484.982 99.251 485.199 99.251 485.482C99.251 485.873 99.1436 486.19 98.9287 486.435C98.7139 486.674 98.3818 486.793 97.9326 486.793C97.1953 486.793 96.8267 486.493 96.8267 485.893ZM96.9438 496H94.7393L96.4751 487.812H98.6797L96.9438 496ZM107.615 487.826L107.359 489.042L106.084 489.342C106.163 489.596 106.202 489.884 106.202 490.207C106.202 491.159 105.906 491.913 105.315 492.47C104.725 493.021 103.921 493.297 102.906 493.297C102.618 493.297 102.376 493.273 102.181 493.224C101.771 493.356 101.565 493.546 101.565 493.795C101.565 493.961 101.639 494.081 101.785 494.154C101.932 494.228 102.149 494.284 102.437 494.323L103.44 494.455C104.236 494.557 104.815 494.765 105.176 495.077C105.542 495.385 105.726 495.832 105.726 496.417C105.726 497.448 105.345 498.236 104.583 498.783C103.821 499.33 102.732 499.604 101.316 499.604C100.301 499.604 99.5073 499.418 98.936 499.047C98.3696 498.681 98.0864 498.175 98.0864 497.531C98.0864 497.033 98.2549 496.603 98.5918 496.242C98.9238 495.885 99.4463 495.59 100.159 495.355C99.7979 495.126 99.6172 494.801 99.6172 494.381C99.6172 494.035 99.7246 493.737 99.9395 493.488C100.159 493.234 100.518 492.992 101.016 492.763C100.699 492.523 100.464 492.25 100.313 491.942C100.162 491.635 100.086 491.261 100.086 490.822C100.086 489.85 100.391 489.081 101.001 488.515C101.617 487.943 102.452 487.658 103.506 487.658C103.912 487.658 104.317 487.714 104.722 487.826H107.615ZM101.602 496.044C101.084 496.112 100.691 496.251 100.423 496.461C100.159 496.671 100.027 496.938 100.027 497.26C100.027 497.821 100.501 498.102 101.448 498.102C102.186 498.102 102.742 497.992 103.118 497.772C103.494 497.553 103.682 497.243 103.682 496.842C103.682 496.652 103.602 496.505 103.44 496.403C103.284 496.3 102.95 496.215 102.437 496.146L101.602 496.044ZM103.426 489.057C103.05 489.057 102.745 489.245 102.51 489.621C102.281 489.992 102.166 490.458 102.166 491.02C102.166 491.601 102.417 491.891 102.92 491.891C103.287 491.891 103.582 491.706 103.807 491.334C104.036 490.958 104.151 490.485 104.151 489.914C104.151 489.342 103.909 489.057 103.426 489.057ZM108.963 487.812H111.167L110.164 492.594C110.086 492.926 110.047 493.217 110.047 493.466C110.047 494.066 110.311 494.367 110.838 494.367C111.287 494.367 111.695 494.088 112.061 493.532C112.427 492.975 112.715 492.199 112.925 491.203L113.643 487.812H115.848L114.112 496H112.427L112.581 494.484H112.537C111.829 495.592 110.962 496.146 109.937 496.146C109.263 496.146 108.748 495.946 108.392 495.546C108.035 495.141 107.857 494.557 107.857 493.795C107.857 493.341 107.916 492.821 108.033 492.235L108.963 487.812ZM122.278 487.658C122.566 487.658 122.801 487.685 122.981 487.738L122.498 489.862C122.278 489.784 122.034 489.745 121.766 489.745C121.199 489.745 120.701 489.97 120.271 490.419C119.847 490.863 119.544 491.503 119.363 492.338L118.587 496H116.382L118.118 487.812H119.803L119.649 489.328H119.693C120.411 488.214 121.272 487.658 122.278 487.658ZM125.398 496.146C124.681 496.146 124.114 495.888 123.699 495.37C123.289 494.848 123.084 494.118 123.084 493.18C123.084 492.213 123.26 491.293 123.611 490.419C123.963 489.54 124.424 488.861 124.996 488.383C125.567 487.899 126.194 487.658 126.878 487.658C127.352 487.658 127.759 487.76 128.101 487.965C128.448 488.17 128.716 488.468 128.907 488.859H128.965L129.383 487.812H131.082L129.339 496H127.662L127.764 494.938H127.735C127.081 495.744 126.302 496.146 125.398 496.146ZM126.263 494.367C126.6 494.367 126.924 494.203 127.237 493.876C127.549 493.549 127.801 493.107 127.991 492.55C128.182 491.989 128.277 491.354 128.277 490.646C128.277 490.299 128.182 490.014 127.991 489.789C127.806 489.56 127.559 489.445 127.251 489.445C126.919 489.445 126.602 489.621 126.299 489.972C126.001 490.324 125.762 490.788 125.582 491.364C125.406 491.94 125.318 492.511 125.318 493.078C125.318 493.507 125.398 493.83 125.56 494.044C125.726 494.259 125.96 494.367 126.263 494.367ZM135.052 496.146C134.07 496.146 133.316 495.885 132.789 495.363C132.266 494.835 132.005 494.093 132.005 493.136C132.005 492.101 132.186 491.161 132.547 490.316C132.913 489.467 133.426 488.812 134.085 488.354C134.744 487.89 135.496 487.658 136.341 487.658C137.229 487.658 138.03 487.833 138.743 488.185L138.069 489.862C137.806 489.75 137.547 489.652 137.293 489.569C137.039 489.486 136.751 489.445 136.429 489.445C136.014 489.445 135.638 489.601 135.301 489.914C134.969 490.226 134.708 490.656 134.517 491.203C134.332 491.745 134.239 492.328 134.239 492.953C134.239 493.422 134.349 493.776 134.568 494.015C134.793 494.25 135.103 494.367 135.499 494.367C135.87 494.367 136.214 494.311 136.531 494.198C136.849 494.081 137.176 493.937 137.513 493.766V495.568C136.771 495.954 135.95 496.146 135.052 496.146ZM136.128 497.831C136.128 498.397 135.926 498.834 135.521 499.142C135.115 499.45 134.544 499.604 133.807 499.604C133.387 499.604 133.016 499.547 132.693 499.435V498.205C133.001 498.317 133.306 498.373 133.609 498.373C134.107 498.373 134.356 498.173 134.356 497.772C134.356 497.606 134.28 497.467 134.129 497.355C133.978 497.248 133.709 497.172 133.323 497.128L134.026 496H135.381L135.096 496.527C135.784 496.767 136.128 497.201 136.128 497.831ZM144.493 490.902C144.493 489.94 144.144 489.459 143.445 489.459C143.079 489.459 142.75 489.608 142.457 489.906C142.168 490.204 141.932 490.641 141.746 491.217C141.565 491.793 141.475 492.387 141.475 492.997C141.475 493.9 141.841 494.352 142.574 494.352C142.94 494.352 143.27 494.203 143.562 493.905C143.855 493.603 144.083 493.185 144.244 492.653C144.41 492.116 144.493 491.532 144.493 490.902ZM146.712 490.902C146.712 491.933 146.539 492.846 146.192 493.642C145.85 494.438 145.354 495.055 144.705 495.495C144.056 495.929 143.284 496.146 142.391 496.146C141.438 496.146 140.677 495.861 140.105 495.29C139.539 494.713 139.256 493.949 139.256 492.997C139.256 491.957 139.429 491.032 139.776 490.221C140.127 489.406 140.633 488.776 141.292 488.332C141.951 487.882 142.723 487.658 143.606 487.658C144.563 487.658 145.32 487.946 145.877 488.522C146.434 489.098 146.712 489.892 146.712 490.902ZM144.932 486.911C144.693 486.911 144.48 486.872 144.295 486.793C144.114 486.71 143.946 486.623 143.79 486.53C143.633 486.432 143.482 486.344 143.335 486.266C143.194 486.183 143.042 486.142 142.881 486.142C142.73 486.142 142.593 486.21 142.471 486.347C142.354 486.483 142.261 486.676 142.193 486.925H140.896C141.185 485.417 141.871 484.662 142.955 484.662C143.194 484.662 143.406 484.704 143.592 484.787C143.782 484.865 143.958 484.953 144.119 485.05C144.28 485.143 144.432 485.229 144.573 485.307C144.715 485.385 144.861 485.424 145.013 485.424C145.179 485.424 145.32 485.363 145.438 485.241C145.555 485.114 145.667 484.916 145.774 484.647H147.034C146.712 486.156 146.011 486.911 144.932 486.911ZM152.469 489.247C152.039 489.247 151.634 489.442 151.253 489.833C150.872 490.224 150.623 490.7 150.506 491.261H150.835C151.592 491.261 152.181 491.144 152.601 490.91C153.025 490.67 153.238 490.348 153.238 489.943C153.238 489.479 152.981 489.247 152.469 489.247ZM151.268 496.146C150.242 496.146 149.446 495.871 148.88 495.319C148.313 494.767 148.03 493.988 148.03 492.982C148.03 491.972 148.23 491.051 148.631 490.221C149.036 489.386 149.583 488.751 150.271 488.317C150.96 487.877 151.739 487.658 152.608 487.658C153.472 487.658 154.146 487.858 154.629 488.258C155.113 488.654 155.354 489.198 155.354 489.892C155.354 490.805 154.947 491.51 154.131 492.008C153.316 492.501 152.151 492.748 150.638 492.748H150.264L150.25 492.902V493.048C150.25 493.493 150.374 493.844 150.623 494.103C150.877 494.357 151.238 494.484 151.707 494.484C152.132 494.484 152.518 494.438 152.864 494.345C153.211 494.252 153.631 494.088 154.124 493.854V495.517C153.284 495.937 152.332 496.146 151.268 496.146ZM161.807 493.297C161.807 494.215 161.502 494.921 160.892 495.414C160.286 495.902 159.441 496.146 158.357 496.146C157.835 496.146 157.378 496.11 156.988 496.037C156.602 495.963 156.241 495.841 155.904 495.67V493.854C156.67 494.293 157.449 494.513 158.24 494.513C158.631 494.513 158.951 494.435 159.2 494.279C159.449 494.118 159.573 493.9 159.573 493.627C159.573 493.417 159.483 493.229 159.302 493.063C159.122 492.897 158.802 492.687 158.343 492.433C157.752 492.101 157.339 491.771 157.105 491.444C156.871 491.112 156.753 490.722 156.753 490.272C156.753 489.442 157.022 488.8 157.559 488.346C158.101 487.887 158.873 487.658 159.874 487.658C160.855 487.658 161.741 487.89 162.532 488.354L161.807 489.928C161.124 489.518 160.494 489.313 159.917 489.313C159.639 489.313 159.415 489.376 159.244 489.503C159.073 489.625 158.987 489.792 158.987 490.001C158.987 490.192 159.065 490.36 159.222 490.507C159.378 490.648 159.671 490.829 160.101 491.049C160.701 491.356 161.136 491.691 161.404 492.052C161.673 492.414 161.807 492.829 161.807 493.297Z" fill="#1ADBCF"/>
<rect x="-3" width="218" height="142" fill="#1ADBCF"/>
<path d="M38.1836 108.396L43.5645 97.7227H47.6953L44.6777 112H41.9434L43.3594 105.242C43.7044 103.634 44.0462 102.199 44.3848 100.936H44.3359L38.7793 112H36.0352L35.4395 100.936H35.4004C35.3288 101.508 35.2051 102.26 35.0293 103.191C34.8535 104.122 34.2448 107.059 33.2031 112H30.5176L33.5352 97.7227H37.4805L38.1445 108.396H38.1836ZM48.5938 101.082H51.4746L52.0215 106.141C52.1126 106.935 52.1582 107.889 52.1582 109.002H52.2168C52.347 108.67 52.4902 108.283 52.6465 107.84C52.8027 107.391 53.0143 106.889 53.2812 106.336L55.8203 101.082H59.0137L52.373 113.562C51.2207 115.724 49.6484 116.805 47.6562 116.805C47.0703 116.805 46.5918 116.743 46.2207 116.619V114.275C46.6634 114.36 47.041 114.402 47.3535 114.402C47.9004 114.402 48.3789 114.246 48.7891 113.934C49.2057 113.621 49.5898 113.136 49.9414 112.479L50.1953 112L48.5938 101.082ZM72.7246 112H69.7852L71.123 105.623C71.2272 105.18 71.2793 104.793 71.2793 104.461C71.2793 103.66 70.9277 103.26 70.2246 103.26C69.6257 103.26 69.082 103.631 68.5938 104.373C68.1055 105.115 67.7214 106.15 67.4414 107.479L66.4844 112H63.5449L65.8594 101.082H68.1055L67.9004 103.104H67.959C68.9095 101.619 70.0651 100.877 71.4258 100.877C72.3242 100.877 73.0176 101.15 73.5059 101.697C74.0007 102.238 74.248 103.012 74.248 104.021C74.248 104.497 74.1732 105.083 74.0234 105.779L72.7246 112ZM79.2383 112.195C78.2812 112.195 77.526 111.85 76.9727 111.16C76.4258 110.464 76.1523 109.49 76.1523 108.24C76.1523 106.951 76.3867 105.724 76.8555 104.559C77.3242 103.387 77.9395 102.482 78.7012 101.844C79.4629 101.199 80.2995 100.877 81.2109 100.877C81.8424 100.877 82.3861 101.014 82.8418 101.287C83.304 101.561 83.6621 101.958 83.916 102.479H83.9941L84.5508 101.082H86.8164L84.4922 112H82.2559L82.3926 110.584H82.3535C81.4811 111.658 80.4427 112.195 79.2383 112.195ZM80.3906 109.822C80.8398 109.822 81.2728 109.604 81.6895 109.168C82.1061 108.732 82.4414 108.143 82.6953 107.4C82.9492 106.652 83.0762 105.805 83.0762 104.861C83.0762 104.399 82.9492 104.018 82.6953 103.719C82.4479 103.413 82.1191 103.26 81.709 103.26C81.2663 103.26 80.8431 103.494 80.4395 103.963C80.0423 104.432 79.7233 105.05 79.4824 105.818C79.248 106.587 79.1309 107.348 79.1309 108.104C79.1309 108.676 79.2383 109.106 79.4531 109.393C79.6745 109.679 79.987 109.822 80.3906 109.822ZM95.4102 100.877C96.8359 100.877 97.6888 101.619 97.9688 103.104H98.0273C98.4701 102.387 98.9909 101.837 99.5898 101.453C100.195 101.069 100.84 100.877 101.523 100.877C102.409 100.877 103.083 101.154 103.545 101.707C104.014 102.26 104.248 103.032 104.248 104.021C104.248 104.516 104.173 105.102 104.023 105.779L102.725 112H99.7852L101.133 105.623C101.237 105.18 101.289 104.793 101.289 104.461C101.289 103.66 100.97 103.26 100.332 103.26C99.7331 103.26 99.1895 103.624 98.7012 104.354C98.2194 105.083 97.8353 106.118 97.5488 107.459L96.6113 112H93.6719L95.0098 105.623C95.1139 105.18 95.166 104.793 95.166 104.461C95.166 103.66 94.847 103.26 94.209 103.26C93.61 103.26 93.0664 103.631 92.5781 104.373C92.0898 105.115 91.7057 106.15 91.4258 107.479L90.4688 112H87.5293L89.8438 101.082H92.0898L91.8848 103.104H91.9434C92.8939 101.619 94.0495 100.877 95.4102 100.877ZM112.07 102.996C111.497 102.996 110.957 103.257 110.449 103.777C109.941 104.298 109.609 104.933 109.453 105.682H109.893C110.902 105.682 111.686 105.525 112.246 105.213C112.812 104.894 113.096 104.464 113.096 103.924C113.096 103.305 112.754 102.996 112.07 102.996ZM110.469 112.195C109.102 112.195 108.04 111.827 107.285 111.092C106.53 110.356 106.152 109.318 106.152 107.977C106.152 106.629 106.419 105.402 106.953 104.295C107.493 103.182 108.223 102.335 109.141 101.756C110.059 101.17 111.097 100.877 112.256 100.877C113.408 100.877 114.307 101.144 114.951 101.678C115.596 102.205 115.918 102.931 115.918 103.855C115.918 105.073 115.374 106.014 114.287 106.678C113.2 107.335 111.647 107.664 109.629 107.664H109.131L109.111 107.869V108.064C109.111 108.657 109.277 109.126 109.609 109.471C109.948 109.809 110.43 109.979 111.055 109.979C111.621 109.979 112.135 109.917 112.598 109.793C113.06 109.669 113.62 109.451 114.277 109.139V111.355C113.158 111.915 111.888 112.195 110.469 112.195Z" fill="#433357"/>
<path d="M63.3882 174L65.6733 163.292H67.9072L65.6221 174H63.3882ZM74.9897 174H72.7852L73.7886 169.217C73.8667 168.885 73.9058 168.595 73.9058 168.346C73.9058 167.745 73.6421 167.445 73.1147 167.445C72.6655 167.445 72.2578 167.723 71.8916 168.28C71.5254 168.836 71.2373 169.613 71.0273 170.609L70.3096 174H68.105L69.8408 165.812H71.5254L71.3716 167.328H71.4155C72.1284 166.214 72.9951 165.658 74.0156 165.658C74.6895 165.658 75.2095 165.863 75.5757 166.273C75.9468 166.678 76.1323 167.259 76.1323 168.016C76.1323 168.373 76.0762 168.812 75.9639 169.334L74.9897 174ZM79.377 174H77.1724L78.9082 165.812H81.1128L79.377 174ZM79.0327 164.728C79.4185 164.298 79.9604 163.558 80.6587 162.508H83.1123V162.633C82.8877 162.906 82.5117 163.28 81.9844 163.753C81.457 164.222 80.9834 164.608 80.5635 164.911H79.0327V164.728ZM85.0605 174.146C84.0791 174.146 83.3247 173.885 82.7974 173.363C82.2749 172.835 82.0137 172.093 82.0137 171.136C82.0137 170.101 82.1943 169.161 82.5557 168.316C82.9219 167.467 83.4346 166.812 84.0938 166.354C84.7529 165.89 85.5049 165.658 86.3496 165.658C87.2383 165.658 88.0391 165.833 88.752 166.185L88.0781 167.862C87.8145 167.75 87.5557 167.652 87.3018 167.569C87.0479 167.486 86.7598 167.445 86.4375 167.445C86.0225 167.445 85.6465 167.601 85.3096 167.914C84.9775 168.226 84.7163 168.656 84.5259 169.203C84.3403 169.745 84.2476 170.328 84.2476 170.953C84.2476 171.422 84.3574 171.776 84.5771 172.015C84.8018 172.25 85.1118 172.367 85.5073 172.367C85.8784 172.367 86.2227 172.311 86.54 172.198C86.8574 172.081 87.1846 171.937 87.5215 171.766V173.568C86.7793 173.954 85.959 174.146 85.0605 174.146ZM90.9639 163.893C90.9639 163.468 91.0786 163.148 91.3081 162.933C91.5425 162.713 91.8721 162.604 92.2969 162.604C92.6533 162.604 92.9243 162.679 93.1099 162.831C93.2954 162.982 93.3882 163.199 93.3882 163.482C93.3882 163.873 93.2808 164.19 93.0659 164.435C92.8511 164.674 92.519 164.793 92.0698 164.793C91.3325 164.793 90.9639 164.493 90.9639 163.893ZM91.0811 174H88.8765L90.6123 165.812H92.8169L91.0811 174ZM98.9546 168.902C98.9546 167.94 98.6055 167.459 97.9072 167.459C97.541 167.459 97.2114 167.608 96.9185 167.906C96.6304 168.204 96.3936 168.641 96.208 169.217C96.0273 169.793 95.937 170.387 95.937 170.997C95.937 171.9 96.3032 172.352 97.0356 172.352C97.4019 172.352 97.7314 172.203 98.0244 171.905C98.3174 171.603 98.5444 171.185 98.7056 170.653C98.8716 170.116 98.9546 169.532 98.9546 168.902ZM101.174 168.902C101.174 169.933 101 170.846 100.654 171.642C100.312 172.438 99.8164 173.055 99.167 173.495C98.5176 173.929 97.7461 174.146 96.8525 174.146C95.9004 174.146 95.1387 173.861 94.5674 173.29C94.001 172.713 93.7178 171.949 93.7178 170.997C93.7178 169.957 93.8911 169.032 94.2378 168.221C94.5894 167.406 95.0947 166.776 95.7539 166.332C96.4131 165.882 97.1846 165.658 98.0684 165.658C99.0254 165.658 99.7822 165.946 100.339 166.522C100.896 167.098 101.174 167.892 101.174 168.902Z" fill="#1ADBCF"/>
<path d="M29.2 170.047H28.6V170.647V176.4H25.3V168.529V167.929H24.7H23.392L31 159.874L38.608 167.929H37.3H36.7V168.529V176.4H33.4V170.647V170.047H32.8H29.2Z" stroke="#1ADBCF" stroke-width="1.2"/>
<path d="M29.502 210.414L31 209.403L32.498 210.414L33.2778 210.941V210V206.5H37.2222C37.5771 206.5 37.9083 206.627 38.1448 206.84C38.3796 207.052 38.5 207.326 38.5 207.6V217.2C38.5 217.474 38.3796 217.748 38.1448 217.96C37.9083 218.173 37.5771 218.3 37.2222 218.3H28.3333C27.9784 218.3 27.6473 218.173 27.4107 217.96C27.1759 217.748 27.0556 217.474 27.0556 217.2V207.6C27.0556 207.326 27.1759 207.052 27.4107 206.84C27.6473 206.627 27.9784 206.5 28.3333 206.5H28.7222V210V210.941L29.502 210.414ZM24.7778 220.9H34.9444V221.5H24.7778C24.4229 221.5 24.0917 221.373 23.8552 221.16C23.6204 220.948 23.5 220.674 23.5 220.4V209.7H24.2778V220.4V220.9H24.7778Z" fill="#1ADBCF" stroke="#1ADBCF"/>
<path d="M36.119 263.599L38.3267 264.875L37.6481 266.051L34.7619 264.386V261.048H36.119V263.599ZM39.2857 258.569V253.81C39.2857 252.814 38.4805 252 37.4762 252H24.8095C23.8143 252 23 252.814 23 253.81V264.667C23 265.671 23.8143 266.476 24.8095 266.476H29.9486C30.971 268.611 33.1424 270.095 35.6667 270.095C39.1681 270.095 42 267.263 42 263.762C42 261.609 40.9233 259.718 39.2857 258.569ZM37.4762 255.619V257.691C36.9062 257.528 36.3 257.429 35.6667 257.429C34.3095 257.429 33.07 257.854 32.0476 258.569V255.619H37.4762ZM24.8095 255.619H30.2381V259.238H24.8095V255.619ZM24.8095 264.667V261.048H29.9486C29.5595 261.871 29.3333 262.794 29.3333 263.762C29.3333 264.07 29.3605 264.368 29.4057 264.667H24.8095ZM35.6667 268.286C33.1695 268.286 31.1429 266.259 31.1429 263.762C31.1429 261.265 33.1695 259.238 35.6667 259.238C38.1638 259.238 40.1905 261.265 40.1905 263.762C40.1905 266.259 38.1638 268.286 35.6667 268.286Z" fill="#1ADBCF"/>
<path d="M42.0488 308.634C42.5663 308.634 43.0626 308.429 43.4285 308.063C43.7944 307.697 44 307.2 44 306.683V295.951C44 295.434 43.7944 294.937 43.4285 294.571C43.0626 294.206 42.5663 294 42.0488 294H31.7659C32.1073 294.595 32.2927 295.268 32.2927 295.951H42.0488V306.683H33.2683V308.634H42.0488ZM37.1707 298.878V300.829H31.3171V313.512H29.3659V307.659H27.4146V313.512H25.4634V305.707H24V300.829C24 300.312 24.2056 299.815 24.5715 299.45C24.9374 299.084 25.4337 298.878 25.9512 298.878H37.1707ZM30.3415 295.951C30.3415 296.469 30.1359 296.965 29.77 297.331C29.404 297.697 28.9077 297.902 28.3902 297.902C27.8727 297.902 27.3764 297.697 27.0105 297.331C26.6446 296.965 26.439 296.469 26.439 295.951C26.439 295.434 26.6446 294.937 27.0105 294.571C27.3764 294.206 27.8727 294 28.3902 294C28.9077 294 29.404 294.206 29.77 294.571C30.1359 294.937 30.3415 295.434 30.3415 295.951Z" fill="#1ADBCF"/>
<path d="M41.1818 352.545V344.364H28.4545V352.545H41.1818ZM41.1818 339.818C41.664 339.818 42.1265 340.01 42.4675 340.351C42.8084 340.692 43 341.154 43 341.636V352.545C43 353.028 42.8084 353.49 42.4675 353.831C42.1265 354.172 41.664 354.364 41.1818 354.364H28.4545C27.4455 354.364 26.6364 353.545 26.6364 352.545V341.636C26.6364 341.154 26.8279 340.692 27.1689 340.351C27.5099 340.01 27.9723 339.818 28.4545 339.818H29.3636V338H31.1818V339.818H38.4545V338H40.2727V339.818H41.1818ZM38.0273 347.145L33.9909 351.182L31.5545 348.745L32.5182 347.782L33.9909 349.255L37.0636 346.182L38.0273 347.145ZM24.8182 356.182H37.5455V358H24.8182C23.8091 358 23 357.182 23 356.182V345.273H24.8182V356.182Z" fill="#1ADBCF"/>
<path d="M37.617 395.1L38.751 393.966C39.147 393.57 39.651 393.354 40.2 393.3V392.4L34.8 387H25.8C24.801 387 24 387.801 24 388.8V401.4C24 402.39 24.801 403.2 25.8 403.2H31.2V401.517L31.317 401.4H25.8V388.8H32.1V395.1H37.617ZM33.9 388.35L38.85 393.3H33.9V388.35ZM38.517 396.747L40.353 398.583L34.836 404.1H33V402.264L38.517 396.747ZM41.865 397.071L40.983 397.953L39.147 396.117L40.029 395.235C40.2 395.055 40.497 395.055 40.677 395.235L41.865 396.423C42.045 396.603 42.045 396.9 41.865 397.071Z" fill="#1ADBCF"/>
<path d="M36.206 445.2C36.274 444.639 36.325 444.078 36.325 443.5C36.325 442.922 36.274 442.361 36.206 441.8H39.079C39.215 442.344 39.3 442.914 39.3 443.5C39.3 444.087 39.215 444.656 39.079 445.2H36.206ZM34.7015 449.926C35.2115 448.982 35.6025 447.963 35.8745 446.9H38.382C37.566 448.303 36.2655 449.39 34.7015 449.926ZM34.489 445.2H30.511C30.426 444.639 30.375 444.078 30.375 443.5C30.375 442.922 30.426 442.353 30.511 441.8H34.489C34.5655 442.353 34.625 442.922 34.625 443.5C34.625 444.078 34.5655 444.639 34.489 445.2ZM32.5 450.266C31.7945 449.246 31.225 448.116 30.8765 446.9H34.1235C33.775 448.116 33.2055 449.246 32.5 450.266ZM29.1 440.1H26.618C27.4255 438.689 28.7345 437.601 30.29 437.074C29.78 438.018 29.3975 439.038 29.1 440.1ZM26.618 446.9H29.1C29.3975 447.963 29.78 448.982 30.29 449.926C28.7345 449.39 27.4255 448.303 26.618 446.9ZM25.921 445.2C25.785 444.656 25.7 444.087 25.7 443.5C25.7 442.914 25.785 442.344 25.921 441.8H28.794C28.726 442.361 28.675 442.922 28.675 443.5C28.675 444.078 28.726 444.639 28.794 445.2H25.921ZM32.5 436.726C33.2055 437.746 33.775 438.885 34.1235 440.1H30.8765C31.225 438.885 31.7945 437.746 32.5 436.726ZM38.382 440.1H35.8745C35.6025 439.038 35.2115 438.018 34.7015 437.074C36.2655 437.61 37.566 438.689 38.382 440.1ZM32.5 435C27.7995 435 24 438.825 24 443.5C24 445.754 24.8955 447.916 26.4896 449.51C27.2789 450.3 28.2159 450.926 29.2472 451.353C30.2785 451.78 31.3838 452 32.5 452C34.7543 452 36.9163 451.104 38.5104 449.51C40.1045 447.916 41 445.754 41 443.5C41 442.384 40.7801 441.278 40.353 440.247C39.9258 439.216 39.2997 438.279 38.5104 437.49C37.7211 436.7 36.7841 436.074 35.7528 435.647C34.7215 435.22 33.6162 435 32.5 435V435Z" fill="#1ADBCF"/>
<path d="M33.002 492.491C32.1432 492.491 31.3195 492.15 30.7122 491.542C30.1049 490.935 29.7637 490.111 29.7637 489.252C29.7637 488.394 30.1049 487.57 30.7122 486.963C31.3195 486.355 32.1432 486.014 33.002 486.014C33.8609 486.014 34.6846 486.355 35.2919 486.963C35.8992 487.57 36.2404 488.394 36.2404 489.252C36.2404 490.111 35.8992 490.935 35.2919 491.542C34.6846 492.15 33.8609 492.491 33.002 492.491V492.491ZM39.8766 490.15C39.9136 489.854 39.9414 489.558 39.9414 489.252C39.9414 488.947 39.9136 488.642 39.8766 488.327L41.8289 486.819C42.0047 486.68 42.051 486.43 41.9399 486.227L40.0894 483.026C39.9784 482.822 39.7286 482.739 39.525 482.822L37.2212 483.747C36.74 483.386 36.2404 483.072 35.6575 482.841L35.3152 480.389C35.2782 480.167 35.0839 480 34.8525 480H31.1515C30.9202 480 30.7259 480.167 30.6889 480.389L30.3466 482.841C29.7637 483.072 29.264 483.386 28.7829 483.747L26.479 482.822C26.2755 482.739 26.0257 482.822 25.9146 483.026L24.0641 486.227C23.9439 486.43 23.9994 486.68 24.1752 486.819L26.1275 488.327C26.0904 488.642 26.0627 488.947 26.0627 489.252C26.0627 489.558 26.0904 489.854 26.1275 490.15L24.1752 491.686C23.9994 491.825 23.9439 492.074 24.0641 492.278L25.9146 495.479C26.0257 495.683 26.2755 495.757 26.479 495.683L28.7829 494.748C29.264 495.119 29.7637 495.433 30.3466 495.664L30.6889 498.116C30.7259 498.338 30.9202 498.505 31.1515 498.505H34.8525C35.0839 498.505 35.2782 498.338 35.3152 498.116L35.6575 495.664C36.2404 495.424 36.74 495.119 37.2212 494.748L39.525 495.683C39.7286 495.757 39.9784 495.683 40.0894 495.479L41.9399 492.278C42.051 492.074 42.0047 491.825 41.8289 491.686L39.8766 490.15Z" fill="#1ADBCF"/>
<path fill-rule="evenodd" clip-rule="evenodd" d="M68 61.5C68 73.9264 57.9264 84 45.5 84C33.0736 84 23 73.9264 23 61.5C23 49.0736 33.0736 39 45.5 39C57.9264 39 68 49.0736 68 61.5ZM45.2294 63.1364C53.3662 63.1364 59.9567 66.4316 59.9567 70.5V74.1818H30.5022V70.5C30.5022 66.4316 37.0926 63.1364 45.2294 63.1364ZM50.4363 46.884C49.0554 45.5031 47.1824 44.7273 45.2294 44.7273C43.2765 44.7273 41.4035 45.5031 40.0225 46.884C38.6416 48.265 37.8658 50.138 37.8658 52.0909C37.8658 54.0439 38.6416 55.9168 40.0225 57.2978C41.4035 58.6787 43.2765 59.4545 45.2294 59.4545C47.1824 59.4545 49.0554 58.6787 50.4363 57.2978C51.8173 55.9168 52.5931 54.0439 52.5931 52.0909C52.5931 50.138 51.8173 48.265 50.4363 46.884Z" fill="#433357"/>
<path d="M150.207 660L151.414 654.289H153.078C153.443 654.289 153.76 654.332 154.031 654.418C154.302 654.501 154.512 654.637 154.66 654.824C154.811 655.009 154.887 655.254 154.887 655.559C154.887 655.816 154.837 656.046 154.738 656.246C154.642 656.444 154.501 656.609 154.316 656.742C154.132 656.872 153.906 656.966 153.641 657.023V657.055C153.901 657.122 154.108 657.249 154.262 657.434C154.418 657.616 154.496 657.85 154.496 658.137C154.496 658.569 154.397 658.923 154.199 659.199C154.001 659.473 153.732 659.674 153.391 659.805C153.052 659.935 152.671 660 152.246 660H150.207ZM151.609 659H152.312C152.508 659 152.678 658.967 152.824 658.902C152.97 658.837 153.083 658.741 153.164 658.613C153.247 658.486 153.289 658.329 153.289 658.145C153.289 657.944 153.229 657.789 153.109 657.68C152.992 657.568 152.814 657.512 152.574 657.512H151.93L151.609 659ZM152.129 656.551H152.711C152.901 656.551 153.066 656.526 153.207 656.477C153.35 656.424 153.461 656.345 153.539 656.238C153.617 656.129 153.656 655.988 153.656 655.816C153.656 655.639 153.602 655.507 153.492 655.418C153.383 655.327 153.216 655.281 152.992 655.281H152.398L152.129 656.551ZM154.984 661.922C154.844 661.922 154.729 661.914 154.641 661.898C154.549 661.883 154.473 661.866 154.41 661.848V660.91C154.478 660.923 154.548 660.935 154.621 660.945C154.691 660.956 154.772 660.961 154.863 660.961C155.111 660.961 155.315 660.888 155.477 660.742C155.638 660.599 155.779 660.415 155.898 660.191L156 660L155.359 655.633H156.512L156.73 657.656C156.743 657.776 156.753 657.905 156.758 658.043C156.766 658.178 156.771 658.312 156.773 658.445C156.776 658.578 156.777 658.697 156.777 658.801H156.809C156.845 658.712 156.882 658.613 156.918 658.504C156.957 658.395 157.001 658.276 157.051 658.148C157.103 658.018 157.164 657.88 157.234 657.734L158.25 655.633H159.527L156.871 660.625C156.715 660.919 156.539 661.163 156.344 661.355C156.151 661.548 155.941 661.69 155.715 661.781C155.488 661.875 155.245 661.922 154.984 661.922ZM161.402 660L162.609 654.289H163.805L163.332 656.527H165.172L165.645 654.289H166.836L165.629 660H164.434L164.957 657.535H163.117L162.594 660H161.402ZM168.875 660.078C168.534 660.078 168.233 660.017 167.973 659.895C167.715 659.77 167.513 659.582 167.367 659.332C167.221 659.082 167.148 658.768 167.148 658.391C167.148 658.026 167.201 657.674 167.305 657.336C167.409 656.995 167.564 656.69 167.77 656.422C167.978 656.154 168.233 655.941 168.535 655.785C168.84 655.629 169.191 655.551 169.59 655.551C170.079 655.551 170.445 655.663 170.688 655.887C170.932 656.108 171.055 656.393 171.055 656.742C171.055 656.971 171.003 657.18 170.898 657.367C170.797 657.555 170.642 657.716 170.434 657.852C170.225 657.984 169.964 658.087 169.648 658.16C169.333 658.23 168.964 658.266 168.539 658.266H168.34C168.337 658.297 168.335 658.324 168.332 658.348C168.332 658.371 168.332 658.397 168.332 658.426C168.332 658.66 168.4 658.846 168.535 658.984C168.671 659.122 168.862 659.191 169.109 659.191C169.339 659.191 169.547 659.165 169.734 659.113C169.922 659.061 170.143 658.975 170.398 658.855V659.742C170.169 659.854 169.936 659.939 169.699 659.996C169.462 660.051 169.188 660.078 168.875 660.078ZM168.469 657.473H168.645C168.947 657.473 169.191 657.44 169.379 657.375C169.569 657.31 169.707 657.224 169.793 657.117C169.882 657.01 169.926 656.895 169.926 656.77C169.926 656.645 169.889 656.552 169.816 656.492C169.746 656.43 169.646 656.398 169.516 656.398C169.37 656.398 169.225 656.444 169.082 656.535C168.939 656.626 168.812 656.753 168.703 656.914C168.594 657.076 168.516 657.262 168.469 657.473ZM171.402 660L172.691 653.922H173.867L172.578 660H171.402ZM175.711 660.078C175.37 660.078 175.069 660.017 174.809 659.895C174.551 659.77 174.349 659.582 174.203 659.332C174.057 659.082 173.984 658.768 173.984 658.391C173.984 658.026 174.036 657.674 174.141 657.336C174.245 656.995 174.4 656.69 174.605 656.422C174.814 656.154 175.069 655.941 175.371 655.785C175.676 655.629 176.027 655.551 176.426 655.551C176.915 655.551 177.281 655.663 177.523 655.887C177.768 656.108 177.891 656.393 177.891 656.742C177.891 656.971 177.839 657.18 177.734 657.367C177.633 657.555 177.478 657.716 177.27 657.852C177.061 657.984 176.799 658.087 176.484 658.16C176.169 658.23 175.799 658.266 175.375 658.266H175.176C175.173 658.297 175.171 658.324 175.168 658.348C175.168 658.371 175.168 658.397 175.168 658.426C175.168 658.66 175.236 658.846 175.371 658.984C175.507 659.122 175.698 659.191 175.945 659.191C176.174 659.191 176.383 659.165 176.57 659.113C176.758 659.061 176.979 658.975 177.234 658.855V659.742C177.005 659.854 176.772 659.939 176.535 659.996C176.298 660.051 176.023 660.078 175.711 660.078ZM175.305 657.473H175.48C175.783 657.473 176.027 657.44 176.215 657.375C176.405 657.31 176.543 657.224 176.629 657.117C176.717 657.01 176.762 656.895 176.762 656.77C176.762 656.645 176.725 656.552 176.652 656.492C176.582 656.43 176.482 656.398 176.352 656.398C176.206 656.398 176.061 656.444 175.918 656.535C175.775 656.626 175.648 656.753 175.539 656.914C175.43 657.076 175.352 657.262 175.305 657.473ZM178.238 660L179.164 655.633H180.062L179.98 656.441H180.016C180.128 656.267 180.251 656.113 180.387 655.98C180.522 655.848 180.672 655.743 180.836 655.668C181.003 655.59 181.188 655.551 181.391 655.551C181.641 655.551 181.849 655.603 182.016 655.707C182.185 655.809 182.311 655.953 182.395 656.141C182.478 656.328 182.52 656.551 182.52 656.809C182.52 656.905 182.512 657.013 182.496 657.133C182.48 657.253 182.458 657.379 182.43 657.512L181.91 660H180.734L181.27 657.449C181.29 657.361 181.306 657.277 181.316 657.199C181.327 657.121 181.332 657.049 181.332 656.984C181.332 656.82 181.297 656.699 181.227 656.621C181.156 656.543 181.051 656.504 180.91 656.504C180.733 656.504 180.573 656.581 180.43 656.734C180.286 656.885 180.161 657.089 180.055 657.344C179.951 657.599 179.865 657.882 179.797 658.191L179.414 660H178.238ZM183.074 660L184 655.633H185.176L184.25 660H183.074ZM184.777 655.09C184.611 655.09 184.47 655.053 184.355 654.98C184.243 654.908 184.188 654.784 184.188 654.609C184.188 654.458 184.215 654.332 184.27 654.23C184.327 654.129 184.409 654.052 184.516 654C184.622 653.948 184.75 653.922 184.898 653.922C185.055 653.922 185.19 653.956 185.305 654.023C185.422 654.091 185.48 654.214 185.48 654.391C185.48 654.599 185.423 654.768 185.309 654.898C185.194 655.026 185.017 655.09 184.777 655.09ZM185.449 660L186.738 653.922H187.914L186.625 660H185.449ZM189.078 660.078C188.799 660.078 188.556 660.059 188.348 660.02C188.142 659.98 187.949 659.915 187.77 659.824V658.855C187.965 658.967 188.165 659.055 188.371 659.117C188.579 659.177 188.794 659.207 189.016 659.207C189.138 659.207 189.253 659.19 189.359 659.156C189.469 659.122 189.557 659.07 189.625 659C189.693 658.93 189.727 658.841 189.727 658.734C189.727 658.661 189.71 658.596 189.676 658.539C189.642 658.482 189.577 658.419 189.48 658.352C189.387 658.281 189.25 658.197 189.07 658.098C188.891 657.996 188.737 657.892 188.609 657.785C188.484 657.678 188.388 657.557 188.32 657.422C188.255 657.286 188.223 657.128 188.223 656.945C188.223 656.643 188.289 656.389 188.422 656.184C188.555 655.975 188.745 655.818 188.992 655.711C189.242 655.604 189.54 655.551 189.887 655.551C190.139 655.551 190.383 655.579 190.617 655.637C190.852 655.694 191.081 655.789 191.305 655.922L190.918 656.762C190.764 656.668 190.6 656.59 190.426 656.527C190.254 656.465 190.082 656.434 189.91 656.434C189.783 656.434 189.668 656.464 189.566 656.523C189.465 656.583 189.414 656.676 189.414 656.801C189.414 656.868 189.432 656.931 189.469 656.988C189.505 657.043 189.566 657.099 189.652 657.156C189.741 657.214 189.859 657.281 190.008 657.359C190.185 657.451 190.341 657.552 190.477 657.664C190.615 657.773 190.723 657.901 190.801 658.047C190.879 658.19 190.918 658.361 190.918 658.559C190.918 658.892 190.842 659.172 190.691 659.398C190.54 659.622 190.327 659.792 190.051 659.906C189.777 660.021 189.453 660.078 189.078 660.078ZM193.492 660.078C193.164 660.078 192.874 660.01 192.621 659.875C192.371 659.74 192.174 659.547 192.031 659.297C191.891 659.044 191.82 658.745 191.82 658.398C191.82 658.089 191.85 657.793 191.91 657.512C191.973 657.228 192.065 656.967 192.188 656.73C192.312 656.491 192.467 656.284 192.652 656.109C192.84 655.932 193.057 655.796 193.305 655.699C193.552 655.6 193.831 655.551 194.141 655.551C194.479 655.551 194.772 655.62 195.02 655.758C195.267 655.893 195.458 656.09 195.594 656.348C195.729 656.605 195.797 656.917 195.797 657.281C195.797 657.578 195.767 657.865 195.707 658.141C195.65 658.414 195.561 658.669 195.441 658.906C195.322 659.141 195.171 659.346 194.988 659.523C194.806 659.698 194.59 659.835 194.34 659.934C194.092 660.03 193.81 660.078 193.492 660.078ZM193.59 659.121C193.72 659.121 193.839 659.089 193.945 659.023C194.052 658.956 194.147 658.863 194.23 658.746C194.314 658.626 194.383 658.49 194.438 658.336C194.495 658.18 194.538 658.012 194.566 657.832C194.598 657.652 194.613 657.469 194.613 657.281C194.613 657.133 194.595 657.001 194.559 656.887C194.525 656.77 194.466 656.678 194.383 656.613C194.302 656.546 194.193 656.512 194.055 656.512C193.911 656.512 193.783 656.552 193.668 656.633C193.556 656.711 193.458 656.816 193.375 656.949C193.292 657.082 193.223 657.23 193.168 657.395C193.113 657.559 193.072 657.728 193.043 657.902C193.017 658.074 193.004 658.24 193.004 658.398C193.004 658.635 193.052 658.815 193.148 658.938C193.245 659.06 193.392 659.121 193.59 659.121ZM196.293 660L197.219 655.633H198.117L198.035 656.441H198.07C198.182 656.267 198.306 656.113 198.441 655.98C198.577 655.848 198.727 655.743 198.891 655.668C199.057 655.59 199.242 655.551 199.445 655.551C199.695 655.551 199.904 655.603 200.07 655.707C200.24 655.809 200.366 655.953 200.449 656.141C200.533 656.328 200.574 656.551 200.574 656.809C200.574 656.905 200.566 657.013 200.551 657.133C200.535 657.253 200.513 657.379 200.484 657.512L199.965 660H198.789L199.324 657.449C199.345 657.361 199.361 657.277 199.371 657.199C199.382 657.121 199.387 657.049 199.387 656.984C199.387 656.82 199.352 656.699 199.281 656.621C199.211 656.543 199.105 656.504 198.965 656.504C198.788 656.504 198.628 656.581 198.484 656.734C198.341 656.885 198.216 657.089 198.109 657.344C198.005 657.599 197.919 657.882 197.852 658.191L197.469 660H196.293Z" fill="#1ADBCF"/>
</g>
<defs>
<clipPath id="clip0_310_84">
<rect width="375" height="667" rx="15" fill="white"/>
</clipPath>
</defs>
</svg>
