<svg width="143" height="96" viewBox="0 0 143 96" fill="none" xmlns="http://www.w3.org/2000/svg">
<path d="M101.292 53.625L71.5 83.4167L41.7083 53.625H59.5833V29.7917H83.4167V53.625H101.292ZM115.294 35.9287C111.242 15.4321 93.1883 0 71.5 0C54.2804 0 39.325 9.77166 31.8771 24.0121C13.9425 25.9783 0 41.1125 0 59.5833C0 69.0648 3.76651 78.158 10.4709 84.8624C17.1754 91.5668 26.2685 95.3333 35.75 95.3333H113.208C117.121 95.3333 120.995 94.5627 124.609 93.0656C128.224 91.5684 131.508 89.374 134.274 86.6076C137.041 83.8411 139.235 80.5569 140.732 76.9424C142.229 73.3279 143 69.454 143 65.5417C143 49.8117 130.785 37.0608 115.294 35.9287Z" fill="#8A2BE2"/>
</svg>
