<svg width="27" height="27" viewBox="0 0 27 27" fill="none" xmlns="http://www.w3.org/2000/svg">
<path d="M8.72748 12.15V14.85H5.81832V12.15H8.72748ZM14.5458 12.15V14.85H11.6366V12.15H14.5458ZM20.3641 12.15V14.85H17.455V12.15H20.3641ZM23.2733 2.7C24.0448 2.7 24.7848 2.98446 25.3304 3.49081C25.8759 3.99716 26.1824 4.68392 26.1824 5.4V24.3C26.1824 25.0161 25.8759 25.7028 25.3304 26.2092C24.7848 26.7155 24.0448 27 23.2733 27H2.90916C1.29458 27 0 25.785 0 24.3V5.4C0 4.68392 0.3065 3.99716 0.852073 3.49081C1.39765 2.98446 2.1376 2.7 2.90916 2.7H4.36374V0H7.2729V2.7H18.9095V0H21.8187V2.7H23.2733ZM23.2733 24.3V9.45H2.90916V24.3H23.2733ZM8.72748 17.55V20.25H5.81832V17.55H8.72748ZM14.5458 17.55V20.25H11.6366V17.55H14.5458ZM20.3641 17.55V20.25H17.455V17.55H20.3641Z" fill="#8A2BE2"/>
</svg>
